<svg width="648" height="289" viewBox="0 0 648 289" fill="none" xmlns="http://www.w3.org/2000/svg">
<path d="M19.0287 216.28H11.5687L11.5887 229H10.1287V215H19.0287V216.28ZM21.7077 229.1C20.6943 229.1 19.781 228.873 18.9677 228.42C18.1543 227.953 17.5143 227.313 17.0477 226.5C16.581 225.687 16.3477 224.767 16.3477 223.74C16.3477 222.713 16.581 221.793 17.0477 220.98C17.5143 220.167 18.1543 219.533 18.9677 219.08C19.781 218.627 20.6943 218.4 21.7077 218.4C22.721 218.4 23.6343 218.627 24.4477 219.08C25.261 219.533 25.8943 220.167 26.3477 220.98C26.8143 221.793 27.0477 222.713 27.0477 223.74C27.0477 224.767 26.8143 225.687 26.3477 226.5C25.8943 227.313 25.261 227.953 24.4477 228.42C23.6343 228.873 22.721 229.1 21.7077 229.1ZM21.7077 227.84C22.4543 227.84 23.121 227.673 23.7077 227.34C24.3077 226.993 24.7743 226.507 25.1077 225.88C25.441 225.253 25.6077 224.54 25.6077 223.74C25.6077 222.94 25.441 222.227 25.1077 221.6C24.7743 220.973 24.3077 220.493 23.7077 220.16C23.121 219.813 22.4543 219.64 21.7077 219.64C20.961 219.64 20.2877 219.813 19.6877 220.16C19.101 220.493 18.6343 220.973 18.2877 221.6C17.9543 222.227 17.7877 222.94 17.7877 223.74C17.7877 224.54 17.9543 225.253 18.2877 225.88C18.6343 226.507 19.101 226.993 19.6877 227.34C20.2877 227.673 20.961 227.84 21.7077 227.84ZM39.4839 227.76V231.54H38.1439V229H28.7239V231.54H27.3839V227.76H27.9839C28.6906 227.72 29.1706 227.2 29.4239 226.2C29.6772 225.2 29.8506 223.8 29.9439 222L30.0839 218.48H37.8439V227.76H39.4839ZM31.2439 222.08C31.1772 223.573 31.0506 224.807 30.8639 225.78C30.6772 226.74 30.3439 227.4 29.8639 227.76H36.4239V219.74H31.3639L31.2439 222.08Z" fill="#555555"/>
<path d="M85.3293 227.72V229H75.5093V227.98L81.3293 222.28C82.0626 221.56 82.556 220.94 82.8093 220.42C83.076 219.887 83.2093 219.353 83.2093 218.82C83.2093 217.993 82.9226 217.353 82.3493 216.9C81.7893 216.433 80.9826 216.2 79.9293 216.2C78.2893 216.2 77.016 216.72 76.1093 217.76L75.0893 216.88C75.636 216.24 76.3293 215.747 77.1693 215.4C78.0226 215.053 78.9826 214.88 80.0493 214.88C81.476 214.88 82.6026 215.22 83.4293 215.9C84.2693 216.567 84.6893 217.487 84.6893 218.66C84.6893 219.38 84.5293 220.073 84.2093 220.74C83.8893 221.407 83.2826 222.173 82.3893 223.04L77.6293 227.72H85.3293ZM91.8384 229.12C90.7584 229.12 89.7917 228.833 88.9384 228.26C88.0984 227.687 87.4384 226.867 86.9584 225.8C86.4917 224.72 86.2584 223.453 86.2584 222C86.2584 220.547 86.4917 219.287 86.9584 218.22C87.4384 217.14 88.0984 216.313 88.9384 215.74C89.7917 215.167 90.7584 214.88 91.8384 214.88C92.9184 214.88 93.8784 215.167 94.7184 215.74C95.5717 216.313 96.2384 217.14 96.7184 218.22C97.1984 219.287 97.4384 220.547 97.4384 222C97.4384 223.453 97.1984 224.72 96.7184 225.8C96.2384 226.867 95.5717 227.687 94.7184 228.26C93.8784 228.833 92.9184 229.12 91.8384 229.12ZM91.8384 227.8C92.6517 227.8 93.365 227.573 93.9784 227.12C94.605 226.667 95.0917 226.007 95.4384 225.14C95.785 224.273 95.9584 223.227 95.9584 222C95.9584 220.773 95.785 219.727 95.4384 218.86C95.0917 217.993 94.605 217.333 93.9784 216.88C93.365 216.427 92.6517 216.2 91.8384 216.2C91.025 216.2 90.305 216.427 89.6784 216.88C89.065 217.333 88.585 217.993 88.2384 218.86C87.8917 219.727 87.7184 220.773 87.7184 222C87.7184 223.227 87.8917 224.273 88.2384 225.14C88.585 226.007 89.065 226.667 89.6784 227.12C90.305 227.573 91.025 227.8 91.8384 227.8ZM102.541 215V229H101.101V216.28H97.8015V215H102.541ZM116.988 225.32H114.188V229H112.748V225.32H104.848V224.28L112.268 215H113.868L106.708 224.04H112.788V220.8H114.188V224.04H116.988V225.32Z" fill="#555555"/>
<path d="M158.277 227.72V229H148.457V227.98L154.277 222.28C155.01 221.56 155.503 220.94 155.757 220.42C156.023 219.887 156.157 219.353 156.157 218.82C156.157 217.993 155.87 217.353 155.297 216.9C154.737 216.433 153.93 216.2 152.877 216.2C151.237 216.2 149.963 216.72 149.057 217.76L148.037 216.88C148.583 216.24 149.277 215.747 150.117 215.4C150.97 215.053 151.93 214.88 152.997 214.88C154.423 214.88 155.55 215.22 156.377 215.9C157.217 216.567 157.637 217.487 157.637 218.66C157.637 219.38 157.477 220.073 157.157 220.74C156.837 221.407 156.23 222.173 155.337 223.04L150.577 227.72H158.277ZM164.786 229.12C163.706 229.12 162.739 228.833 161.886 228.26C161.046 227.687 160.386 226.867 159.906 225.8C159.439 224.72 159.206 223.453 159.206 222C159.206 220.547 159.439 219.287 159.906 218.22C160.386 217.14 161.046 216.313 161.886 215.74C162.739 215.167 163.706 214.88 164.786 214.88C165.866 214.88 166.826 215.167 167.666 215.74C168.519 216.313 169.186 217.14 169.666 218.22C170.146 219.287 170.386 220.547 170.386 222C170.386 223.453 170.146 224.72 169.666 225.8C169.186 226.867 168.519 227.687 167.666 228.26C166.826 228.833 165.866 229.12 164.786 229.12ZM164.786 227.8C165.599 227.8 166.312 227.573 166.926 227.12C167.552 226.667 168.039 226.007 168.386 225.14C168.732 224.273 168.906 223.227 168.906 222C168.906 220.773 168.732 219.727 168.386 218.86C168.039 217.993 167.552 217.333 166.926 216.88C166.312 216.427 165.599 216.2 164.786 216.2C163.972 216.2 163.252 216.427 162.626 216.88C162.012 217.333 161.532 217.993 161.186 218.86C160.839 219.727 160.666 220.773 160.666 222C160.666 223.227 160.839 224.273 161.186 225.14C161.532 226.007 162.012 226.667 162.626 227.12C163.252 227.573 163.972 227.8 164.786 227.8ZM175.489 215V229H174.049V216.28H170.749V215H175.489ZM181.715 220.74C183.742 220.74 185.215 221.107 186.135 221.84C187.069 222.56 187.535 223.573 187.535 224.88C187.535 225.693 187.342 226.42 186.955 227.06C186.582 227.7 186.015 228.207 185.255 228.58C184.495 228.94 183.562 229.12 182.455 229.12C181.455 229.12 180.502 228.96 179.595 228.64C178.702 228.307 177.982 227.867 177.435 227.32L178.135 226.18C178.602 226.66 179.215 227.053 179.975 227.36C180.735 227.653 181.555 227.8 182.435 227.8C183.595 227.8 184.489 227.54 185.115 227.02C185.755 226.5 186.075 225.807 186.075 224.94C186.075 223.98 185.715 223.253 184.995 222.76C184.289 222.267 183.089 222.02 181.395 222.02H178.415L179.135 215H186.795V216.28H180.395L179.915 220.74H181.715Z" fill="#555555"/>
<path d="M229.847 227.72V229H220.027V227.98L225.847 222.28C226.58 221.56 227.074 220.94 227.327 220.42C227.594 219.887 227.727 219.353 227.727 218.82C227.727 217.993 227.44 217.353 226.867 216.9C226.307 216.433 225.5 216.2 224.447 216.2C222.807 216.2 221.534 216.72 220.627 217.76L219.607 216.88C220.154 216.24 220.847 215.747 221.687 215.4C222.54 215.053 223.5 214.88 224.567 214.88C225.994 214.88 227.12 215.22 227.947 215.9C228.787 216.567 229.207 217.487 229.207 218.66C229.207 219.38 229.047 220.073 228.727 220.74C228.407 221.407 227.8 222.173 226.907 223.04L222.147 227.72H229.847ZM236.356 229.12C235.276 229.12 234.309 228.833 233.456 228.26C232.616 227.687 231.956 226.867 231.476 225.8C231.009 224.72 230.776 223.453 230.776 222C230.776 220.547 231.009 219.287 231.476 218.22C231.956 217.14 232.616 216.313 233.456 215.74C234.309 215.167 235.276 214.88 236.356 214.88C237.436 214.88 238.396 215.167 239.236 215.74C240.089 216.313 240.756 217.14 241.236 218.22C241.716 219.287 241.956 220.547 241.956 222C241.956 223.453 241.716 224.72 241.236 225.8C240.756 226.867 240.089 227.687 239.236 228.26C238.396 228.833 237.436 229.12 236.356 229.12ZM236.356 227.8C237.169 227.8 237.883 227.573 238.496 227.12C239.123 226.667 239.609 226.007 239.956 225.14C240.303 224.273 240.476 223.227 240.476 222C240.476 220.773 240.303 219.727 239.956 218.86C239.609 217.993 239.123 217.333 238.496 216.88C237.883 216.427 237.169 216.2 236.356 216.2C235.543 216.2 234.823 216.427 234.196 216.88C233.583 217.333 233.103 217.993 232.756 218.86C232.409 219.727 232.236 220.773 232.236 222C232.236 223.227 232.409 224.273 232.756 225.14C233.103 226.007 233.583 226.667 234.196 227.12C234.823 227.573 235.543 227.8 236.356 227.8ZM247.059 215V229H245.619V216.28H242.319V215H247.059ZM255.406 220.62C256.326 220.62 257.139 220.793 257.846 221.14C258.566 221.487 259.126 221.98 259.526 222.62C259.926 223.247 260.126 223.98 260.126 224.82C260.126 225.673 259.919 226.427 259.506 227.08C259.092 227.733 258.519 228.24 257.786 228.6C257.066 228.947 256.252 229.12 255.346 229.12C253.492 229.12 252.072 228.513 251.086 227.3C250.099 226.073 249.606 224.347 249.606 222.12C249.606 220.56 249.872 219.24 250.406 218.16C250.939 217.08 251.686 216.267 252.646 215.72C253.606 215.16 254.726 214.88 256.006 214.88C257.392 214.88 258.499 215.133 259.326 215.64L258.746 216.8C258.079 216.36 257.172 216.14 256.026 216.14C254.479 216.14 253.266 216.633 252.386 217.62C251.506 218.593 251.066 220.013 251.066 221.88C251.066 222.213 251.086 222.593 251.126 223.02C251.472 222.26 252.026 221.673 252.786 221.26C253.546 220.833 254.419 220.62 255.406 220.62ZM255.286 227.9C256.299 227.9 257.119 227.627 257.746 227.08C258.386 226.52 258.706 225.78 258.706 224.86C258.706 223.94 258.386 223.207 257.746 222.66C257.119 222.113 256.266 221.84 255.186 221.84C254.479 221.84 253.852 221.973 253.306 222.24C252.772 222.507 252.352 222.873 252.046 223.34C251.739 223.807 251.586 224.327 251.586 224.9C251.586 225.433 251.726 225.927 252.006 226.38C252.299 226.833 252.726 227.2 253.286 227.48C253.846 227.76 254.512 227.9 255.286 227.9Z" fill="#555555"/>
<path d="M302.052 227.72V229H292.232V227.98L298.052 222.28C298.785 221.56 299.279 220.94 299.532 220.42C299.799 219.887 299.932 219.353 299.932 218.82C299.932 217.993 299.645 217.353 299.072 216.9C298.512 216.433 297.705 216.2 296.652 216.2C295.012 216.2 293.739 216.72 292.832 217.76L291.812 216.88C292.359 216.24 293.052 215.747 293.892 215.4C294.745 215.053 295.705 214.88 296.772 214.88C298.199 214.88 299.325 215.22 300.152 215.9C300.992 216.567 301.412 217.487 301.412 218.66C301.412 219.38 301.252 220.073 300.932 220.74C300.612 221.407 300.005 222.173 299.112 223.04L294.352 227.72H302.052ZM308.561 229.12C307.481 229.12 306.514 228.833 305.661 228.26C304.821 227.687 304.161 226.867 303.681 225.8C303.214 224.72 302.981 223.453 302.981 222C302.981 220.547 303.214 219.287 303.681 218.22C304.161 217.14 304.821 216.313 305.661 215.74C306.514 215.167 307.481 214.88 308.561 214.88C309.641 214.88 310.601 215.167 311.441 215.74C312.294 216.313 312.961 217.14 313.441 218.22C313.921 219.287 314.161 220.547 314.161 222C314.161 223.453 313.921 224.72 313.441 225.8C312.961 226.867 312.294 227.687 311.441 228.26C310.601 228.833 309.641 229.12 308.561 229.12ZM308.561 227.8C309.374 227.8 310.088 227.573 310.701 227.12C311.328 226.667 311.814 226.007 312.161 225.14C312.508 224.273 312.681 223.227 312.681 222C312.681 220.773 312.508 219.727 312.161 218.86C311.814 217.993 311.328 217.333 310.701 216.88C310.088 216.427 309.374 216.2 308.561 216.2C307.748 216.2 307.028 216.427 306.401 216.88C305.788 217.333 305.308 217.993 304.961 218.86C304.614 219.727 304.441 220.773 304.441 222C304.441 223.227 304.614 224.273 304.961 225.14C305.308 226.007 305.788 226.667 306.401 227.12C307.028 227.573 307.748 227.8 308.561 227.8ZM319.264 215V229H317.824V216.28H314.524V215H319.264ZM331.691 215V216.02L325.831 229H324.271L330.031 216.28H322.831V218.9H321.411V215H331.691Z" fill="#555555"/>
<path d="M373.564 227.72V229H363.744V227.98L369.564 222.28C370.297 221.56 370.79 220.94 371.044 220.42C371.31 219.887 371.444 219.353 371.444 218.82C371.444 217.993 371.157 217.353 370.584 216.9C370.024 216.433 369.217 216.2 368.164 216.2C366.524 216.2 365.25 216.72 364.344 217.76L363.324 216.88C363.87 216.24 364.564 215.747 365.404 215.4C366.257 215.053 367.217 214.88 368.284 214.88C369.71 214.88 370.837 215.22 371.664 215.9C372.504 216.567 372.924 217.487 372.924 218.66C372.924 219.38 372.764 220.073 372.444 220.74C372.124 221.407 371.517 222.173 370.624 223.04L365.864 227.72H373.564ZM380.073 229.12C378.993 229.12 378.026 228.833 377.173 228.26C376.333 227.687 375.673 226.867 375.193 225.8C374.726 224.72 374.493 223.453 374.493 222C374.493 220.547 374.726 219.287 375.193 218.22C375.673 217.14 376.333 216.313 377.173 215.74C378.026 215.167 378.993 214.88 380.073 214.88C381.153 214.88 382.113 215.167 382.953 215.74C383.806 216.313 384.473 217.14 384.953 218.22C385.433 219.287 385.673 220.547 385.673 222C385.673 223.453 385.433 224.72 384.953 225.8C384.473 226.867 383.806 227.687 382.953 228.26C382.113 228.833 381.153 229.12 380.073 229.12ZM380.073 227.8C380.886 227.8 381.599 227.573 382.213 227.12C382.839 226.667 383.326 226.007 383.673 225.14C384.019 224.273 384.193 223.227 384.193 222C384.193 220.773 384.019 219.727 383.673 218.86C383.326 217.993 382.839 217.333 382.213 216.88C381.599 216.427 380.886 216.2 380.073 216.2C379.259 216.2 378.539 216.427 377.913 216.88C377.299 217.333 376.819 217.993 376.473 218.86C376.126 219.727 375.953 220.773 375.953 222C375.953 223.227 376.126 224.273 376.473 225.14C376.819 226.007 377.299 226.667 377.913 227.12C378.539 227.573 379.259 227.8 380.073 227.8ZM390.776 215V229H389.336V216.28H386.036V215H390.776ZM401.342 221.66C402.222 221.953 402.896 222.393 403.362 222.98C403.842 223.567 404.082 224.273 404.082 225.1C404.082 225.913 403.862 226.627 403.422 227.24C402.982 227.84 402.349 228.307 401.522 228.64C400.709 228.96 399.749 229.12 398.642 229.12C396.962 229.12 395.642 228.76 394.682 228.04C393.722 227.32 393.242 226.34 393.242 225.1C393.242 224.26 393.469 223.553 393.922 222.98C394.389 222.393 395.062 221.953 395.942 221.66C395.222 221.38 394.676 220.98 394.302 220.46C393.929 219.927 393.742 219.3 393.742 218.58C393.742 217.447 394.182 216.547 395.062 215.88C395.956 215.213 397.149 214.88 398.642 214.88C399.629 214.88 400.489 215.033 401.222 215.34C401.969 215.633 402.549 216.06 402.962 216.62C403.376 217.18 403.582 217.833 403.582 218.58C403.582 219.3 403.389 219.927 403.002 220.46C402.616 220.98 402.062 221.38 401.342 221.66ZM395.182 218.62C395.182 219.393 395.489 220.007 396.102 220.46C396.716 220.913 397.562 221.14 398.642 221.14C399.722 221.14 400.569 220.913 401.182 220.46C401.809 220.007 402.122 219.4 402.122 218.64C402.122 217.853 401.802 217.233 401.162 216.78C400.536 216.327 399.696 216.1 398.642 216.1C397.576 216.1 396.729 216.327 396.102 216.78C395.489 217.233 395.182 217.847 395.182 218.62ZM398.642 227.9C399.882 227.9 400.849 227.647 401.542 227.14C402.249 226.633 402.602 225.947 402.602 225.08C402.602 224.213 402.249 223.533 401.542 223.04C400.849 222.533 399.882 222.28 398.642 222.28C397.416 222.28 396.449 222.533 395.742 223.04C395.049 223.533 394.702 224.213 394.702 225.08C394.702 225.96 395.049 226.653 395.742 227.16C396.436 227.653 397.402 227.9 398.642 227.9Z" fill="#555555"/>
<path d="M445.847 227.72V229H436.027V227.98L441.847 222.28C442.58 221.56 443.074 220.94 443.327 220.42C443.594 219.887 443.727 219.353 443.727 218.82C443.727 217.993 443.44 217.353 442.867 216.9C442.307 216.433 441.5 216.2 440.447 216.2C438.807 216.2 437.534 216.72 436.627 217.76L435.607 216.88C436.154 216.24 436.847 215.747 437.687 215.4C438.54 215.053 439.5 214.88 440.567 214.88C441.994 214.88 443.12 215.22 443.947 215.9C444.787 216.567 445.207 217.487 445.207 218.66C445.207 219.38 445.047 220.073 444.727 220.74C444.407 221.407 443.8 222.173 442.907 223.04L438.147 227.72H445.847ZM452.356 229.12C451.276 229.12 450.309 228.833 449.456 228.26C448.616 227.687 447.956 226.867 447.476 225.8C447.009 224.72 446.776 223.453 446.776 222C446.776 220.547 447.009 219.287 447.476 218.22C447.956 217.14 448.616 216.313 449.456 215.74C450.309 215.167 451.276 214.88 452.356 214.88C453.436 214.88 454.396 215.167 455.236 215.74C456.089 216.313 456.756 217.14 457.236 218.22C457.716 219.287 457.956 220.547 457.956 222C457.956 223.453 457.716 224.72 457.236 225.8C456.756 226.867 456.089 227.687 455.236 228.26C454.396 228.833 453.436 229.12 452.356 229.12ZM452.356 227.8C453.169 227.8 453.883 227.573 454.496 227.12C455.123 226.667 455.609 226.007 455.956 225.14C456.303 224.273 456.476 223.227 456.476 222C456.476 220.773 456.303 219.727 455.956 218.86C455.609 217.993 455.123 217.333 454.496 216.88C453.883 216.427 453.169 216.2 452.356 216.2C451.543 216.2 450.823 216.427 450.196 216.88C449.583 217.333 449.103 217.993 448.756 218.86C448.409 219.727 448.236 220.773 448.236 222C448.236 223.227 448.409 224.273 448.756 225.14C449.103 226.007 449.583 226.667 450.196 227.12C450.823 227.573 451.543 227.8 452.356 227.8ZM463.059 215V229H461.619V216.28H458.319V215H463.059ZM469.966 214.88C471.819 214.88 473.239 215.493 474.226 216.72C475.212 217.933 475.706 219.653 475.706 221.88C475.706 223.44 475.439 224.76 474.906 225.84C474.372 226.92 473.626 227.74 472.666 228.3C471.706 228.847 470.586 229.12 469.306 229.12C467.919 229.12 466.812 228.867 465.986 228.36L466.566 227.2C467.232 227.64 468.139 227.86 469.286 227.86C470.832 227.86 472.046 227.373 472.926 226.4C473.806 225.413 474.246 223.987 474.246 222.12C474.246 221.773 474.226 221.393 474.186 220.98C473.839 221.74 473.286 222.333 472.526 222.76C471.766 223.173 470.892 223.38 469.906 223.38C468.986 223.38 468.166 223.207 467.446 222.86C466.739 222.513 466.186 222.027 465.786 221.4C465.386 220.76 465.186 220.02 465.186 219.18C465.186 218.327 465.392 217.573 465.806 216.92C466.219 216.267 466.786 215.767 467.506 215.42C468.239 215.06 469.059 214.88 469.966 214.88ZM470.126 222.16C470.832 222.16 471.452 222.027 471.986 221.76C472.532 221.493 472.959 221.127 473.266 220.66C473.572 220.193 473.726 219.673 473.726 219.1C473.726 218.567 473.579 218.073 473.286 217.62C473.006 217.167 472.586 216.8 472.026 216.52C471.466 216.24 470.799 216.1 470.026 216.1C469.012 216.1 468.186 216.38 467.546 216.94C466.919 217.487 466.606 218.22 466.606 219.14C466.606 220.06 466.919 220.793 467.546 221.34C468.186 221.887 469.046 222.16 470.126 222.16Z" fill="#555555"/>
<path d="M515.288 227.72V229H505.468V227.98L511.288 222.28C512.022 221.56 512.515 220.94 512.768 220.42C513.035 219.887 513.168 219.353 513.168 218.82C513.168 217.993 512.882 217.353 512.308 216.9C511.748 216.433 510.942 216.2 509.888 216.2C508.248 216.2 506.975 216.72 506.068 217.76L505.048 216.88C505.595 216.24 506.288 215.747 507.128 215.4C507.982 215.053 508.942 214.88 510.008 214.88C511.435 214.88 512.562 215.22 513.388 215.9C514.228 216.567 514.648 217.487 514.648 218.66C514.648 219.38 514.488 220.073 514.168 220.74C513.848 221.407 513.242 222.173 512.348 223.04L507.588 227.72H515.288ZM521.797 229.12C520.717 229.12 519.751 228.833 518.897 228.26C518.057 227.687 517.397 226.867 516.917 225.8C516.451 224.72 516.217 223.453 516.217 222C516.217 220.547 516.451 219.287 516.917 218.22C517.397 217.14 518.057 216.313 518.897 215.74C519.751 215.167 520.717 214.88 521.797 214.88C522.877 214.88 523.837 215.167 524.677 215.74C525.531 216.313 526.197 217.14 526.677 218.22C527.157 219.287 527.397 220.547 527.397 222C527.397 223.453 527.157 224.72 526.677 225.8C526.197 226.867 525.531 227.687 524.677 228.26C523.837 228.833 522.877 229.12 521.797 229.12ZM521.797 227.8C522.611 227.8 523.324 227.573 523.937 227.12C524.564 226.667 525.051 226.007 525.397 225.14C525.744 224.273 525.917 223.227 525.917 222C525.917 220.773 525.744 219.727 525.397 218.86C525.051 217.993 524.564 217.333 523.937 216.88C523.324 216.427 522.611 216.2 521.797 216.2C520.984 216.2 520.264 216.427 519.637 216.88C519.024 217.333 518.544 217.993 518.197 218.86C517.851 219.727 517.677 220.773 517.677 222C517.677 223.227 517.851 224.273 518.197 225.14C518.544 226.007 519.024 226.667 519.637 227.12C520.264 227.573 520.984 227.8 521.797 227.8ZM538.18 227.72V229H528.36V227.98L534.18 222.28C534.914 221.56 535.407 220.94 535.66 220.42C535.927 219.887 536.06 219.353 536.06 218.82C536.06 217.993 535.774 217.353 535.2 216.9C534.64 216.433 533.834 216.2 532.78 216.2C531.14 216.2 529.867 216.72 528.96 217.76L527.94 216.88C528.487 216.24 529.18 215.747 530.02 215.4C530.874 215.053 531.834 214.88 532.9 214.88C534.327 214.88 535.454 215.22 536.28 215.9C537.12 216.567 537.54 217.487 537.54 218.66C537.54 219.38 537.38 220.073 537.06 220.74C536.74 221.407 536.134 222.173 535.24 223.04L530.48 227.72H538.18ZM544.69 229.12C543.61 229.12 542.643 228.833 541.79 228.26C540.95 227.687 540.29 226.867 539.81 225.8C539.343 224.72 539.11 223.453 539.11 222C539.11 220.547 539.343 219.287 539.81 218.22C540.29 217.14 540.95 216.313 541.79 215.74C542.643 215.167 543.61 214.88 544.69 214.88C545.77 214.88 546.73 215.167 547.57 215.74C548.423 216.313 549.09 217.14 549.57 218.22C550.05 219.287 550.29 220.547 550.29 222C550.29 223.453 550.05 224.72 549.57 225.8C549.09 226.867 548.423 227.687 547.57 228.26C546.73 228.833 545.77 229.12 544.69 229.12ZM544.69 227.8C545.503 227.8 546.216 227.573 546.83 227.12C547.456 226.667 547.943 226.007 548.29 225.14C548.636 224.273 548.81 223.227 548.81 222C548.81 220.773 548.636 219.727 548.29 218.86C547.943 217.993 547.456 217.333 546.83 216.88C546.216 216.427 545.503 216.2 544.69 216.2C543.876 216.2 543.156 216.427 542.53 216.88C541.916 217.333 541.436 217.993 541.09 218.86C540.743 219.727 540.57 220.773 540.57 222C540.57 223.227 540.743 224.273 541.09 225.14C541.436 226.007 541.916 226.667 542.53 227.12C543.156 227.573 543.876 227.8 544.69 227.8Z" fill="#555555"/>
<path d="M590.257 227.72V229H580.437V227.98L586.257 222.28C586.99 221.56 587.484 220.94 587.737 220.42C588.004 219.887 588.137 219.353 588.137 218.82C588.137 217.993 587.85 217.353 587.277 216.9C586.717 216.433 585.91 216.2 584.857 216.2C583.217 216.2 581.944 216.72 581.037 217.76L580.017 216.88C580.564 216.24 581.257 215.747 582.097 215.4C582.95 215.053 583.91 214.88 584.977 214.88C586.404 214.88 587.53 215.22 588.357 215.9C589.197 216.567 589.617 217.487 589.617 218.66C589.617 219.38 589.457 220.073 589.137 220.74C588.817 221.407 588.21 222.173 587.317 223.04L582.557 227.72H590.257ZM596.766 229.12C595.686 229.12 594.719 228.833 593.866 228.26C593.026 227.687 592.366 226.867 591.886 225.8C591.419 224.72 591.186 223.453 591.186 222C591.186 220.547 591.419 219.287 591.886 218.22C592.366 217.14 593.026 216.313 593.866 215.74C594.719 215.167 595.686 214.88 596.766 214.88C597.846 214.88 598.806 215.167 599.646 215.74C600.499 216.313 601.166 217.14 601.646 218.22C602.126 219.287 602.366 220.547 602.366 222C602.366 223.453 602.126 224.72 601.646 225.8C601.166 226.867 600.499 227.687 599.646 228.26C598.806 228.833 597.846 229.12 596.766 229.12ZM596.766 227.8C597.579 227.8 598.293 227.573 598.906 227.12C599.533 226.667 600.019 226.007 600.366 225.14C600.713 224.273 600.886 223.227 600.886 222C600.886 220.773 600.713 219.727 600.366 218.86C600.019 217.993 599.533 217.333 598.906 216.88C598.293 216.427 597.579 216.2 596.766 216.2C595.953 216.2 595.233 216.427 594.606 216.88C593.993 217.333 593.513 217.993 593.166 218.86C592.819 219.727 592.646 220.773 592.646 222C592.646 223.227 592.819 224.273 593.166 225.14C593.513 226.007 593.993 226.667 594.606 227.12C595.233 227.573 595.953 227.8 596.766 227.8ZM613.149 227.72V229H603.329V227.98L609.149 222.28C609.883 221.56 610.376 220.94 610.629 220.42C610.896 219.887 611.029 219.353 611.029 218.82C611.029 217.993 610.743 217.353 610.169 216.9C609.609 216.433 608.803 216.2 607.749 216.2C606.109 216.2 604.836 216.72 603.929 217.76L602.909 216.88C603.456 216.24 604.149 215.747 604.989 215.4C605.843 215.053 606.803 214.88 607.869 214.88C609.296 214.88 610.423 215.22 611.249 215.9C612.089 216.567 612.509 217.487 612.509 218.66C612.509 219.38 612.349 220.073 612.029 220.74C611.709 221.407 611.103 222.173 610.209 223.04L605.449 227.72H613.149ZM618.036 215V229H616.596V216.28H613.296V215H618.036Z" fill="#555555"/>
<path d="M17 159.379C17 157.593 17.4267 156.193 18.28 155.179C19.1333 154.166 20.3067 153.659 21.8 153.659C23.2933 153.659 24.4667 154.166 25.32 155.179C26.16 156.193 26.58 157.593 26.58 159.379V163.139H31V164.619H17V159.379ZM25.28 159.419C25.28 158.033 24.98 156.973 24.38 156.239C23.7667 155.506 22.9067 155.139 21.8 155.139C20.6667 155.139 19.8 155.506 19.2 156.239C18.5867 156.973 18.28 158.033 18.28 159.419V163.139H25.28V159.419ZM26.18 142.614V151.414C27.2733 151.334 28.16 150.914 28.84 150.154C29.5067 149.394 29.84 148.434 29.84 147.274C29.84 146.621 29.7267 146.021 29.5 145.474C29.26 144.927 28.9133 144.454 28.46 144.054L29.38 143.254C29.94 143.721 30.3667 144.307 30.66 145.014C30.9533 145.707 31.1 146.474 31.1 147.314C31.1 148.394 30.8733 149.354 30.42 150.194C29.9533 151.021 29.3133 151.667 28.5 152.134C27.6867 152.601 26.7667 152.834 25.74 152.834C24.7133 152.834 23.7933 152.614 22.98 152.174C22.1667 151.721 21.5333 151.107 21.08 150.334C20.6267 149.547 20.4 148.667 20.4 147.694C20.4 146.721 20.6267 145.847 21.08 145.074C21.5333 144.301 22.1667 143.694 22.98 143.254C23.78 142.814 24.7 142.594 25.74 142.594L26.18 142.614ZM21.62 147.694C21.62 148.707 21.9467 149.561 22.6 150.254C23.24 150.934 24.08 151.321 25.12 151.414V143.954C24.08 144.047 23.24 144.441 22.6 145.134C21.9467 145.814 21.62 146.667 21.62 147.694ZM25.52 135.424C25.6933 134.677 25.9933 134.104 26.42 133.704C26.8467 133.29 27.3667 133.084 27.98 133.084C28.5933 133.084 29.14 133.297 29.62 133.724C30.1 134.137 30.4733 134.704 30.74 135.424C30.9933 136.144 31.12 136.937 31.12 137.804C31.12 138.564 31.0133 139.31 30.8 140.044C30.5733 140.777 30.2467 141.417 29.82 141.964L28.76 141.484C29.12 141.004 29.4 140.444 29.6 139.804C29.8 139.164 29.9 138.517 29.9 137.864C29.9 136.89 29.72 136.097 29.36 135.484C28.9867 134.857 28.4867 134.544 27.86 134.544C27.3 134.544 26.8667 134.797 26.56 135.304C26.24 135.81 26.08 136.504 26.08 137.384V139.184H25.04V137.464C25.04 136.677 24.8933 136.044 24.6 135.564C24.2933 135.084 23.8867 134.844 23.38 134.844C22.82 134.844 22.38 135.117 22.06 135.664C21.74 136.197 21.58 136.897 21.58 137.764C21.58 138.897 21.8667 140.017 22.44 141.124L21.34 141.524C20.6867 140.27 20.36 138.97 20.36 137.624C20.36 136.824 20.48 136.104 20.72 135.464C20.9467 134.81 21.2733 134.304 21.7 133.944C22.1267 133.57 22.62 133.384 23.18 133.384C23.7133 133.384 24.1867 133.57 24.6 133.944C25.0133 134.304 25.32 134.797 25.52 135.424ZM20.48 121.72L32.26 126.98C33.2467 127.407 33.9467 127.9 34.36 128.46C34.7733 129.02 34.98 129.693 34.98 130.48C34.98 130.987 34.9 131.46 34.74 131.9C34.58 132.34 34.34 132.72 34.02 133.04L32.96 132.38C33.4933 131.847 33.76 131.207 33.76 130.46C33.76 129.98 33.6267 129.573 33.36 129.24C33.0933 128.893 32.64 128.573 32 128.28L30.98 127.82L20.48 132.52V131.04L29.42 127.08L20.48 123.12V121.72ZM20.48 112.176H31V113.596H21.74L21.74 118.636L24.34 118.776C26.5267 118.883 28.2067 119.136 29.38 119.536C30.5533 119.936 31.14 120.65 31.14 121.676C31.14 121.956 31.0867 122.296 30.98 122.696L29.76 122.596C29.8133 122.356 29.84 122.19 29.84 122.096C29.84 121.55 29.5867 121.136 29.08 120.856C28.5733 120.576 27.9467 120.39 27.2 120.296C26.4533 120.203 25.4667 120.123 24.24 120.056L20.48 119.876L20.48 112.176ZM24.2 104.42C24.2133 103.1 24.5067 102.1 25.08 101.42C25.6533 100.726 26.48 100.38 27.56 100.38C28.68 100.38 29.54 100.753 30.14 101.5C30.74 102.233 31.0333 103.3 31.02 104.7L31 108.94H20.48V107.52H24.16L24.2 104.42ZM29.94 104.78C29.9533 103.806 29.76 103.073 29.36 102.58C28.9467 102.073 28.3467 101.82 27.56 101.82C26.7867 101.82 26.2133 102.066 25.84 102.56C25.4667 103.053 25.2733 103.793 25.26 104.78L25.22 107.52H29.9L29.94 104.78ZM21.74 92.1249V96.1049H31V97.5249H21.74V101.505H20.48V92.1249H21.74ZM20.4 87.2518C20.4 85.8785 20.7467 84.8251 21.44 84.0918C22.12 83.3585 23.1333 82.9918 24.48 82.9918H31V84.3518H29.36C29.9067 84.6718 30.3333 85.1451 30.64 85.7718C30.9467 86.3851 31.1 87.1185 31.1 87.9718C31.1 89.1451 30.82 90.0785 30.26 90.7718C29.7 91.4651 28.96 91.8118 28.04 91.8118C27.1467 91.8118 26.4267 91.4918 25.88 90.8518C25.3333 90.1985 25.06 89.1651 25.06 87.7518V84.4118H24.42C23.5133 84.4118 22.8267 84.6651 22.36 85.1718C21.88 85.6785 21.64 86.4185 21.64 87.3918C21.64 88.0585 21.7533 88.6985 21.98 89.3118C22.1933 89.9251 22.4933 90.4518 22.88 90.8918L21.82 91.5318C21.3667 90.9985 21.02 90.3585 20.78 89.6118C20.5267 88.8651 20.4 88.0785 20.4 87.2518ZM29.98 87.7518C29.98 86.9518 29.8 86.2651 29.44 85.6918C29.0667 85.1185 28.5333 84.6918 27.84 84.4118H26.12V87.7118C26.12 89.5118 26.7467 90.4118 28 90.4118C28.6133 90.4118 29.1 90.1785 29.46 89.7118C29.8067 89.2451 29.98 88.5918 29.98 87.7518ZM21.74 72.6116V76.5916H31V78.0116H21.74V81.9916H20.48V72.6116H21.74ZM24.2 66.9385C24.2133 65.6185 24.5067 64.6118 25.08 63.9185C25.6533 63.2252 26.48 62.8785 27.56 62.8785C28.68 62.8785 29.54 63.2518 30.14 63.9985C30.74 64.7452 31.0333 65.8118 31.02 67.1985L31 71.3585H20.48V69.9385H24.16L24.2 66.9385ZM20.48 61.1185V59.6985H31V61.1185H20.48ZM29.94 67.2785C29.9533 66.3052 29.76 65.5718 29.36 65.0785C28.9467 64.5718 28.3467 64.3185 27.56 64.3185C26.7867 64.3185 26.2133 64.5652 25.84 65.0585C25.4667 65.5518 25.2733 66.2918 25.26 67.2785L25.22 69.9385H29.9L29.94 67.2785ZM28.92 56.3354C28.92 56.0287 29.0267 55.7754 29.24 55.5754C29.44 55.3754 29.6933 55.2754 30 55.2754C30.16 55.2754 30.3333 55.3021 30.52 55.3554C30.7067 55.3954 30.92 55.4621 31.16 55.5554L33.92 56.3954V57.3554L31.02 56.6754C30.9533 56.8887 30.8333 57.0621 30.66 57.1954C30.4733 57.3287 30.2533 57.3954 30 57.3954C29.6933 57.3954 29.44 57.2954 29.24 57.0954C29.0267 56.8954 28.92 56.6421 28.92 56.3354ZM24.5 46.6027C24.5 47.5494 24.1533 48.3161 23.46 48.9027C22.7533 49.4761 21.8333 49.7627 20.7 49.7627C19.5667 49.7627 18.6533 49.4761 17.96 48.9027C17.2533 48.3161 16.9 47.5494 16.9 46.6027C16.9 45.6694 17.2467 44.9094 17.94 44.3227C18.6333 43.7361 19.5533 43.4427 20.7 43.4427C21.8467 43.4427 22.7667 43.7361 23.46 44.3227C24.1533 44.9094 24.5 45.6694 24.5 46.6027ZM17 38.1227V36.9427L31 46.5027V47.6827L17 38.1227ZM23.6 46.6027C23.6 45.9494 23.3467 45.4294 22.84 45.0427C22.32 44.6427 21.6067 44.4427 20.7 44.4427C19.7933 44.4427 19.0867 44.6427 18.58 45.0427C18.06 45.4294 17.8 45.9494 17.8 46.6027C17.8 47.2694 18.06 47.7961 18.58 48.1827C19.1 48.5694 19.8067 48.7627 20.7 48.7627C21.5933 48.7627 22.3 48.5694 22.82 48.1827C23.34 47.7961 23.6 47.2694 23.6 46.6027ZM31.1 38.0227C31.1 38.9561 30.7533 39.7161 30.06 40.3027C29.3533 40.8894 28.4333 41.1827 27.3 41.1827C26.1667 41.1827 25.2533 40.8894 24.56 40.3027C23.8533 39.7161 23.5 38.9561 23.5 38.0227C23.5 37.0761 23.8533 36.3161 24.56 35.7427C25.2533 35.1561 26.1667 34.8627 27.3 34.8627C28.4333 34.8627 29.3533 35.1561 30.06 35.7427C30.7533 36.3161 31.1 37.0761 31.1 38.0227ZM30.2 38.0227C30.2 37.3561 29.94 36.8294 29.42 36.4427C28.9 36.0561 28.1933 35.8627 27.3 35.8627C26.4067 35.8627 25.7 36.0561 25.18 36.4427C24.66 36.8294 24.4 37.3561 24.4 38.0227C24.4 38.6761 24.66 39.2027 25.18 39.6027C25.6867 39.9894 26.3933 40.1827 27.3 40.1827C28.2067 40.1827 28.92 39.9894 29.44 39.6027C29.9467 39.2027 30.2 38.6761 30.2 38.0227Z" fill="#555555"/>
<line x1="47.5" y1="201" x2="47.5" stroke="#555555"/>
<line x1="48" y1="0.5" x2="648" y2="0.5" stroke="#E5E5E5"/>
<line x1="48" y1="20.5" x2="648" y2="20.5" stroke="#E5E5E5"/>
<line x1="48" y1="40.5" x2="648" y2="40.5" stroke="#E5E5E5"/>
<line x1="48" y1="60.5" x2="648" y2="60.5" stroke="#E5E5E5"/>
<line x1="48" y1="80.5" x2="648" y2="80.5" stroke="#E5E5E5"/>
<line x1="48" y1="100.5" x2="648" y2="100.5" stroke="#E5E5E5"/>
<line x1="48" y1="120.5" x2="648" y2="120.5" stroke="#E5E5E5"/>
<line x1="48" y1="140.5" x2="648" y2="140.5" stroke="#E5E5E5"/>
<line x1="48" y1="160.5" x2="648" y2="160.5" stroke="#E5E5E5"/>
<line x1="48" y1="180.5" x2="648" y2="180.5" stroke="#E5E5E5"/>
<line x1="48" y1="200.5" x2="648" y2="200.5" stroke="#555555"/>
<path d="M72 201H120V25C120 11.7452 109.255 1 96 1V1C82.7452 1 72 11.7452 72 25V201Z" fill="#E5E5E5"/>
<path d="M72 201H120V77.6C120 64.3452 109.255 53.6 96 53.6V53.6C82.7452 53.6 72 64.3452 72 77.6V201Z" fill="#F2A428"/>
<path d="M72 201H120V162.8C120 149.545 109.255 138.8 96 138.8V138.8C82.7452 138.8 72 149.545 72 162.8V201Z" fill="#01348D"/>
<path d="M91.6704 87.6V88.212L88.1544 96H87.2184L90.6744 88.368H86.3544V89.94H85.5024V87.6H91.6704ZM95.0794 91.2C95.9594 91.248 96.6274 91.488 97.0834 91.92C97.5474 92.344 97.7794 92.9 97.7794 93.588C97.7794 94.068 97.6634 94.496 97.4314 94.872C97.1994 95.24 96.8554 95.532 96.3994 95.748C95.9434 95.964 95.3874 96.072 94.7314 96.072C94.1234 96.072 93.5474 95.976 93.0034 95.784C92.4674 95.584 92.0354 95.32 91.7074 94.992L92.1274 94.308C92.4074 94.596 92.7794 94.832 93.2434 95.016C93.7074 95.192 94.2034 95.28 94.7314 95.28C95.4194 95.28 95.9514 95.132 96.3274 94.836C96.7034 94.532 96.8914 94.116 96.8914 93.588C96.8914 93.068 96.7034 92.66 96.3274 92.364C95.9514 92.068 95.3834 91.92 94.6234 91.92H94.0234V91.284L96.3514 88.368H92.0554V87.6H97.4554V88.212L95.0794 91.2ZM99.1768 94.752C99.3608 94.752 99.5128 94.816 99.6328 94.944C99.7528 95.064 99.8128 95.216 99.8128 95.4C99.8128 95.496 99.7968 95.6 99.7648 95.712C99.7408 95.824 99.7008 95.952 99.6448 96.096L99.1408 97.752H98.5648L98.9728 96.012C98.8448 95.972 98.7408 95.9 98.6608 95.796C98.5808 95.684 98.5408 95.552 98.5408 95.4C98.5408 95.216 98.6008 95.064 98.7208 94.944C98.8408 94.816 98.9928 94.752 99.1768 94.752ZM106.367 87.6V88.212L102.851 96H101.915L105.371 88.368H101.051V89.94H100.199V87.6H106.367Z" fill="white"/>
<path d="M91.2762 166.2C92.1562 166.248 92.8242 166.488 93.2802 166.92C93.7442 167.344 93.9762 167.9 93.9762 168.588C93.9762 169.068 93.8602 169.496 93.6282 169.872C93.3962 170.24 93.0522 170.532 92.5962 170.748C92.1402 170.964 91.5842 171.072 90.9282 171.072C90.3202 171.072 89.7442 170.976 89.2002 170.784C88.6642 170.584 88.2322 170.32 87.9042 169.992L88.3242 169.308C88.6042 169.596 88.9762 169.832 89.4402 170.016C89.9042 170.192 90.4002 170.28 90.9282 170.28C91.6162 170.28 92.1482 170.132 92.5242 169.836C92.9002 169.532 93.0882 169.116 93.0882 168.588C93.0882 168.068 92.9002 167.66 92.5242 167.364C92.1482 167.068 91.5802 166.92 90.8202 166.92H90.2202V166.284L92.5482 163.368H88.2522V162.6H93.6522V163.212L91.2762 166.2ZM97.0416 162.6V171H96.1776V163.368H94.1976V162.6H97.0416ZM99.2295 169.752C99.4135 169.752 99.5655 169.816 99.6855 169.944C99.8055 170.064 99.8655 170.216 99.8655 170.4C99.8655 170.496 99.8495 170.6 99.8175 170.712C99.7935 170.824 99.7535 170.952 99.6975 171.096L99.1935 172.752H98.6175L99.0255 171.012C98.8975 170.972 98.7935 170.9 98.7135 170.796C98.6335 170.684 98.5935 170.552 98.5935 170.4C98.5935 170.216 98.6535 170.064 98.7735 169.944C98.8935 169.816 99.0455 169.752 99.2295 169.752ZM102.82 162.6V171H101.956V163.368H99.9759V162.6H102.82Z" fill="white"/>
<path d="M144 201H192V25C192 11.7452 181.255 1 168 1V1C154.745 1 144 11.7452 144 25V201Z" fill="#E5E5E5"/>
<path d="M144 201H192V60C192 46.7452 181.255 36 168 36V36C154.745 36 144 46.7452 144 60V201Z" fill="#F2A428"/>
<path d="M144 201H192V125.8C192 112.545 181.255 101.8 168 101.8V101.8C154.745 101.8 144 112.545 144 125.8V201Z" fill="#01348D"/>
<path d="M162.191 73.596C162.719 73.772 163.123 74.036 163.403 74.388C163.691 74.74 163.835 75.164 163.835 75.66C163.835 76.148 163.703 76.576 163.439 76.944C163.175 77.304 162.795 77.584 162.299 77.784C161.811 77.976 161.235 78.072 160.571 78.072C159.563 78.072 158.771 77.856 158.195 77.424C157.619 76.992 157.331 76.404 157.331 75.66C157.331 75.156 157.467 74.732 157.739 74.388C158.019 74.036 158.423 73.772 158.951 73.596C158.519 73.428 158.191 73.188 157.967 72.876C157.743 72.556 157.631 72.18 157.631 71.748C157.631 71.068 157.895 70.528 158.423 70.128C158.959 69.728 159.675 69.528 160.571 69.528C161.163 69.528 161.679 69.62 162.119 69.804C162.567 69.98 162.915 70.236 163.163 70.572C163.411 70.908 163.535 71.3 163.535 71.748C163.535 72.18 163.419 72.556 163.187 72.876C162.955 73.188 162.623 73.428 162.191 73.596ZM158.495 71.772C158.495 72.236 158.679 72.604 159.047 72.876C159.415 73.148 159.923 73.284 160.571 73.284C161.219 73.284 161.727 73.148 162.095 72.876C162.471 72.604 162.659 72.24 162.659 71.784C162.659 71.312 162.467 70.94 162.083 70.668C161.707 70.396 161.203 70.26 160.571 70.26C159.931 70.26 159.423 70.396 159.047 70.668C158.679 70.94 158.495 71.308 158.495 71.772ZM160.571 77.34C161.315 77.34 161.895 77.188 162.311 76.884C162.735 76.58 162.947 76.168 162.947 75.648C162.947 75.128 162.735 74.72 162.311 74.424C161.895 74.12 161.315 73.968 160.571 73.968C159.835 73.968 159.255 74.12 158.831 74.424C158.415 74.72 158.207 75.128 158.207 75.648C158.207 76.176 158.415 76.592 158.831 76.896C159.247 77.192 159.827 77.34 160.571 77.34ZM170.288 77.232V78H164.395V77.388L167.887 73.968C168.327 73.536 168.623 73.164 168.775 72.852C168.936 72.532 169.016 72.212 169.016 71.892C169.016 71.396 168.844 71.012 168.499 70.74C168.163 70.46 167.679 70.32 167.048 70.32C166.063 70.32 165.299 70.632 164.755 71.256L164.143 70.728C164.471 70.344 164.887 70.048 165.391 69.84C165.903 69.632 166.479 69.528 167.119 69.528C167.975 69.528 168.652 69.732 169.148 70.14C169.652 70.54 169.904 71.092 169.904 71.796C169.904 72.228 169.808 72.644 169.616 73.044C169.424 73.444 169.059 73.904 168.523 74.424L165.667 77.232H170.288ZM171.669 76.752C171.853 76.752 172.005 76.816 172.125 76.944C172.245 77.064 172.305 77.216 172.305 77.4C172.305 77.496 172.289 77.6 172.257 77.712C172.233 77.824 172.193 77.952 172.137 78.096L171.633 79.752H171.057L171.465 78.012C171.337 77.972 171.233 77.9 171.153 77.796C171.073 77.684 171.033 77.552 171.033 77.4C171.033 77.216 171.093 77.064 171.213 76.944C171.333 76.816 171.485 76.752 171.669 76.752ZM175.28 73.044C176.496 73.044 177.38 73.264 177.932 73.704C178.492 74.136 178.772 74.744 178.772 75.528C178.772 76.016 178.656 76.452 178.424 76.836C178.2 77.22 177.86 77.524 177.404 77.748C176.948 77.964 176.388 78.072 175.724 78.072C175.124 78.072 174.552 77.976 174.008 77.784C173.472 77.584 173.04 77.32 172.712 76.992L173.132 76.308C173.412 76.596 173.78 76.832 174.236 77.016C174.692 77.192 175.184 77.28 175.712 77.28C176.408 77.28 176.944 77.124 177.32 76.812C177.704 76.5 177.896 76.084 177.896 75.564C177.896 74.988 177.68 74.552 177.248 74.256C176.824 73.96 176.104 73.812 175.088 73.812H173.3L173.732 69.6H178.328V70.368H174.488L174.2 73.044H175.28Z" fill="white"/>
<path d="M164.109 131.792H162.429V134H161.565V131.792H156.825V131.168L161.277 125.6H162.237L157.941 131.024H161.589V129.08H162.429V131.024H164.109V131.792ZM166.945 125.528C168.057 125.528 168.909 125.896 169.501 126.632C170.093 127.36 170.389 128.392 170.389 129.728C170.389 130.664 170.229 131.456 169.909 132.104C169.589 132.752 169.141 133.244 168.565 133.58C167.989 133.908 167.317 134.072 166.549 134.072C165.717 134.072 165.053 133.92 164.557 133.616L164.905 132.92C165.305 133.184 165.849 133.316 166.537 133.316C167.465 133.316 168.193 133.024 168.721 132.44C169.249 131.848 169.513 130.992 169.513 129.872C169.513 129.664 169.501 129.436 169.477 129.188C169.269 129.644 168.937 130 168.481 130.256C168.025 130.504 167.501 130.628 166.909 130.628C166.357 130.628 165.865 130.524 165.433 130.316C165.009 130.108 164.677 129.816 164.437 129.44C164.197 129.056 164.077 128.612 164.077 128.108C164.077 127.596 164.201 127.144 164.449 126.752C164.697 126.36 165.037 126.06 165.469 125.852C165.909 125.636 166.401 125.528 166.945 125.528ZM167.041 129.896C167.465 129.896 167.837 129.816 168.157 129.656C168.485 129.496 168.741 129.276 168.925 128.996C169.109 128.716 169.201 128.404 169.201 128.06C169.201 127.74 169.113 127.444 168.937 127.172C168.769 126.9 168.517 126.68 168.181 126.512C167.845 126.344 167.445 126.26 166.981 126.26C166.373 126.26 165.877 126.428 165.493 126.764C165.117 127.092 164.929 127.532 164.929 128.084C164.929 128.636 165.117 129.076 165.493 129.404C165.877 129.732 166.393 129.896 167.041 129.896ZM171.692 132.752C171.876 132.752 172.028 132.816 172.148 132.944C172.268 133.064 172.328 133.216 172.328 133.4C172.328 133.496 172.312 133.6 172.28 133.712C172.256 133.824 172.216 133.952 172.16 134.096L171.656 135.752H171.08L171.488 134.012C171.36 133.972 171.256 133.9 171.176 133.796C171.096 133.684 171.056 133.552 171.056 133.4C171.056 133.216 171.116 133.064 171.236 132.944C171.356 132.816 171.508 132.752 171.692 132.752ZM176.447 128.972C176.999 128.972 177.487 129.076 177.911 129.284C178.343 129.492 178.679 129.788 178.919 130.172C179.159 130.548 179.279 130.988 179.279 131.492C179.279 132.004 179.155 132.456 178.907 132.848C178.659 133.24 178.315 133.544 177.875 133.76C177.443 133.968 176.955 134.072 176.411 134.072C175.299 134.072 174.447 133.708 173.855 132.98C173.263 132.244 172.967 131.208 172.967 129.872C172.967 128.936 173.127 128.144 173.447 127.496C173.767 126.848 174.215 126.36 174.791 126.032C175.367 125.696 176.039 125.528 176.807 125.528C177.639 125.528 178.303 125.68 178.799 125.984L178.451 126.68C178.051 126.416 177.507 126.284 176.819 126.284C175.891 126.284 175.163 126.58 174.635 127.172C174.107 127.756 173.843 128.608 173.843 129.728C173.843 129.928 173.855 130.156 173.879 130.412C174.087 129.956 174.419 129.604 174.875 129.356C175.331 129.1 175.855 128.972 176.447 128.972ZM176.375 133.34C176.983 133.34 177.475 133.176 177.851 132.848C178.235 132.512 178.427 132.068 178.427 131.516C178.427 130.964 178.235 130.524 177.851 130.196C177.475 129.868 176.963 129.704 176.315 129.704C175.891 129.704 175.515 129.784 175.187 129.944C174.867 130.104 174.615 130.324 174.431 130.604C174.247 130.884 174.155 131.196 174.155 131.54C174.155 131.86 174.239 132.156 174.407 132.428C174.583 132.7 174.839 132.92 175.175 133.088C175.511 133.256 175.911 133.34 176.375 133.34Z" fill="white"/>
<path d="M216 201H264V25C264 11.7452 253.255 1 240 1V1C226.745 1 216 11.7452 216 25V201Z" fill="#E5E5E5"/>
<path d="M216 201H264V76C264 62.7452 253.255 52 240 52V52C226.745 52 216 62.7452 216 76V201Z" fill="#F2A428"/>
<path d="M216 201H264V148.6C264 135.345 253.255 124.6 240 124.6V124.6C226.745 124.6 216 135.345 216 148.6V201Z" fill="#01348D"/>
<path d="M235.377 85.6V86.212L231.861 94H230.925L234.381 86.368H230.061V87.94H229.209V85.6H235.377ZM242.391 91.792H240.711V94H239.847V91.792H235.107V91.168L239.559 85.6H240.519L236.223 91.024H239.871V89.08H240.711V91.024H242.391V91.792ZM243.599 92.752C243.783 92.752 243.935 92.816 244.055 92.944C244.175 93.064 244.235 93.216 244.235 93.4C244.235 93.496 244.219 93.6 244.187 93.712C244.163 93.824 244.123 93.952 244.067 94.096L243.563 95.752H242.987L243.395 94.012C243.267 93.972 243.163 93.9 243.083 93.796C243.003 93.684 242.963 93.552 242.963 93.4C242.963 93.216 243.023 93.064 243.143 92.944C243.263 92.816 243.415 92.752 243.599 92.752ZM247.21 89.044C248.426 89.044 249.31 89.264 249.862 89.704C250.422 90.136 250.702 90.744 250.702 91.528C250.702 92.016 250.586 92.452 250.354 92.836C250.13 93.22 249.79 93.524 249.334 93.748C248.878 93.964 248.318 94.072 247.654 94.072C247.054 94.072 246.482 93.976 245.938 93.784C245.402 93.584 244.97 93.32 244.642 92.992L245.062 92.308C245.342 92.596 245.71 92.832 246.166 93.016C246.622 93.192 247.114 93.28 247.642 93.28C248.338 93.28 248.874 93.124 249.25 92.812C249.634 92.5 249.826 92.084 249.826 91.564C249.826 90.988 249.61 90.552 249.178 90.256C248.754 89.96 248.034 89.812 247.018 89.812H245.23L245.662 85.6H250.258V86.368H246.418L246.13 89.044H247.21Z" fill="white"/>
<path d="M232.188 152.2C233.068 152.248 233.736 152.488 234.192 152.92C234.656 153.344 234.888 153.9 234.888 154.588C234.888 155.068 234.772 155.496 234.54 155.872C234.308 156.24 233.964 156.532 233.508 156.748C233.052 156.964 232.496 157.072 231.84 157.072C231.232 157.072 230.656 156.976 230.112 156.784C229.576 156.584 229.144 156.32 228.816 155.992L229.236 155.308C229.516 155.596 229.888 155.832 230.352 156.016C230.816 156.192 231.312 156.28 231.84 156.28C232.528 156.28 233.06 156.132 233.436 155.836C233.812 155.532 234 155.116 234 154.588C234 154.068 233.812 153.66 233.436 153.364C233.06 153.068 232.492 152.92 231.732 152.92H231.132V152.284L233.46 149.368H229.164V148.6H234.564V149.212L232.188 152.2ZM240.438 152.596C240.966 152.772 241.37 153.036 241.65 153.388C241.938 153.74 242.082 154.164 242.082 154.66C242.082 155.148 241.95 155.576 241.686 155.944C241.422 156.304 241.042 156.584 240.546 156.784C240.058 156.976 239.482 157.072 238.818 157.072C237.81 157.072 237.018 156.856 236.442 156.424C235.866 155.992 235.578 155.404 235.578 154.66C235.578 154.156 235.714 153.732 235.986 153.388C236.266 153.036 236.67 152.772 237.198 152.596C236.766 152.428 236.438 152.188 236.214 151.876C235.99 151.556 235.878 151.18 235.878 150.748C235.878 150.068 236.142 149.528 236.67 149.128C237.206 148.728 237.922 148.528 238.818 148.528C239.41 148.528 239.926 148.62 240.366 148.804C240.814 148.98 241.162 149.236 241.41 149.572C241.658 149.908 241.782 150.3 241.782 150.748C241.782 151.18 241.666 151.556 241.434 151.876C241.202 152.188 240.87 152.428 240.438 152.596ZM236.742 150.772C236.742 151.236 236.926 151.604 237.294 151.876C237.662 152.148 238.17 152.284 238.818 152.284C239.466 152.284 239.974 152.148 240.342 151.876C240.718 151.604 240.906 151.24 240.906 150.784C240.906 150.312 240.714 149.94 240.33 149.668C239.954 149.396 239.45 149.26 238.818 149.26C238.178 149.26 237.67 149.396 237.294 149.668C236.926 149.94 236.742 150.308 236.742 150.772ZM238.818 156.34C239.562 156.34 240.142 156.188 240.558 155.884C240.982 155.58 241.194 155.168 241.194 154.648C241.194 154.128 240.982 153.72 240.558 153.424C240.142 153.12 239.562 152.968 238.818 152.968C238.082 152.968 237.502 153.12 237.078 153.424C236.662 153.72 236.454 154.128 236.454 154.648C236.454 155.176 236.662 155.592 237.078 155.896C237.494 156.192 238.074 156.34 238.818 156.34ZM243.575 155.752C243.759 155.752 243.911 155.816 244.031 155.944C244.151 156.064 244.211 156.216 244.211 156.4C244.211 156.496 244.195 156.6 244.163 156.712C244.139 156.824 244.099 156.952 244.043 157.096L243.539 158.752H242.963L243.371 157.012C243.243 156.972 243.139 156.9 243.059 156.796C242.979 156.684 242.939 156.552 242.939 156.4C242.939 156.216 242.999 156.064 243.119 155.944C243.239 155.816 243.391 155.752 243.575 155.752ZM250.831 156.232V157H244.939V156.388L248.431 152.968C248.871 152.536 249.167 152.164 249.319 151.852C249.479 151.532 249.559 151.212 249.559 150.892C249.559 150.396 249.387 150.012 249.043 149.74C248.707 149.46 248.223 149.32 247.591 149.32C246.607 149.32 245.843 149.632 245.299 150.256L244.687 149.728C245.015 149.344 245.431 149.048 245.935 148.84C246.447 148.632 247.023 148.528 247.663 148.528C248.519 148.528 249.195 148.732 249.691 149.14C250.195 149.54 250.447 150.092 250.447 150.796C250.447 151.228 250.351 151.644 250.159 152.044C249.967 152.444 249.603 152.904 249.067 153.424L246.211 156.232H250.831Z" fill="white"/>
<path d="M288 201H336V25C336 11.7452 325.255 1 312 1V1C298.745 1 288 11.7452 288 25V201Z" fill="#E5E5E5"/>
<path d="M288 201H336V54.2C336 40.9452 325.255 30.2 312 30.2V30.2C298.745 30.2 288 40.9452 288 54.2V201Z" fill="#F2A428"/>
<path opacity="0.9" d="M288 201H336V147.2C336 133.945 325.255 123.2 312 123.2V123.2C298.745 123.2 288 133.945 288 147.2V201Z" fill="#01348D"/>
<path d="M305.769 67.596C306.297 67.772 306.701 68.036 306.981 68.388C307.269 68.74 307.413 69.164 307.413 69.66C307.413 70.148 307.281 70.576 307.017 70.944C306.753 71.304 306.373 71.584 305.877 71.784C305.389 71.976 304.813 72.072 304.149 72.072C303.141 72.072 302.349 71.856 301.773 71.424C301.197 70.992 300.909 70.404 300.909 69.66C300.909 69.156 301.045 68.732 301.317 68.388C301.597 68.036 302.001 67.772 302.529 67.596C302.097 67.428 301.769 67.188 301.545 66.876C301.321 66.556 301.209 66.18 301.209 65.748C301.209 65.068 301.473 64.528 302.001 64.128C302.537 63.728 303.253 63.528 304.149 63.528C304.741 63.528 305.257 63.62 305.697 63.804C306.145 63.98 306.493 64.236 306.741 64.572C306.989 64.908 307.113 65.3 307.113 65.748C307.113 66.18 306.997 66.556 306.765 66.876C306.533 67.188 306.201 67.428 305.769 67.596ZM302.073 65.772C302.073 66.236 302.257 66.604 302.625 66.876C302.993 67.148 303.501 67.284 304.149 67.284C304.797 67.284 305.305 67.148 305.673 66.876C306.049 66.604 306.237 66.24 306.237 65.784C306.237 65.312 306.045 64.94 305.661 64.668C305.285 64.396 304.781 64.26 304.149 64.26C303.509 64.26 303.001 64.396 302.625 64.668C302.257 64.94 302.073 65.308 302.073 65.772ZM304.149 71.34C304.893 71.34 305.473 71.188 305.889 70.884C306.313 70.58 306.525 70.168 306.525 69.648C306.525 69.128 306.313 68.72 305.889 68.424C305.473 68.12 304.893 67.968 304.149 67.968C303.413 67.968 302.833 68.12 302.409 68.424C301.993 68.72 301.785 69.128 301.785 69.648C301.785 70.176 301.993 70.592 302.409 70.896C302.825 71.192 303.405 71.34 304.149 71.34ZM310.338 67.044C311.554 67.044 312.438 67.264 312.99 67.704C313.55 68.136 313.83 68.744 313.83 69.528C313.83 70.016 313.714 70.452 313.482 70.836C313.258 71.22 312.918 71.524 312.462 71.748C312.006 71.964 311.446 72.072 310.782 72.072C310.182 72.072 309.61 71.976 309.066 71.784C308.53 71.584 308.098 71.32 307.77 70.992L308.19 70.308C308.47 70.596 308.838 70.832 309.294 71.016C309.75 71.192 310.242 71.28 310.77 71.28C311.466 71.28 312.002 71.124 312.378 70.812C312.762 70.5 312.954 70.084 312.954 69.564C312.954 68.988 312.738 68.552 312.306 68.256C311.882 67.96 311.162 67.812 310.146 67.812H308.358L308.79 63.6H313.386V64.368H309.546L309.258 67.044H310.338ZM315.107 70.752C315.291 70.752 315.443 70.816 315.563 70.944C315.683 71.064 315.743 71.216 315.743 71.4C315.743 71.496 315.727 71.6 315.695 71.712C315.671 71.824 315.631 71.952 315.575 72.096L315.071 73.752H314.495L314.903 72.012C314.775 71.972 314.671 71.9 314.591 71.796C314.511 71.684 314.471 71.552 314.471 71.4C314.471 71.216 314.531 71.064 314.651 70.944C314.771 70.816 314.923 70.752 315.107 70.752ZM323.497 69.792H321.817V72H320.953V69.792H316.213V69.168L320.665 63.6H321.625L317.329 69.024H320.977V67.08H321.817V69.024H323.497V69.792Z" fill="white"/>
<path d="M304.001 150.2C304.881 150.248 305.549 150.488 306.005 150.92C306.469 151.344 306.701 151.9 306.701 152.588C306.701 153.068 306.585 153.496 306.353 153.872C306.121 154.24 305.777 154.532 305.321 154.748C304.865 154.964 304.309 155.072 303.653 155.072C303.045 155.072 302.469 154.976 301.925 154.784C301.389 154.584 300.957 154.32 300.629 153.992L301.049 153.308C301.329 153.596 301.701 153.832 302.165 154.016C302.629 154.192 303.125 154.28 303.653 154.28C304.341 154.28 304.873 154.132 305.249 153.836C305.625 153.532 305.813 153.116 305.813 152.588C305.813 152.068 305.625 151.66 305.249 151.364C304.873 151.068 304.305 150.92 303.545 150.92H302.945V150.284L305.273 147.368H300.977V146.6H306.377V147.212L304.001 150.2ZM312.25 150.596C312.778 150.772 313.182 151.036 313.462 151.388C313.75 151.74 313.894 152.164 313.894 152.66C313.894 153.148 313.762 153.576 313.498 153.944C313.234 154.304 312.854 154.584 312.358 154.784C311.87 154.976 311.294 155.072 310.63 155.072C309.622 155.072 308.83 154.856 308.254 154.424C307.678 153.992 307.39 153.404 307.39 152.66C307.39 152.156 307.526 151.732 307.798 151.388C308.078 151.036 308.482 150.772 309.01 150.596C308.578 150.428 308.25 150.188 308.026 149.876C307.802 149.556 307.69 149.18 307.69 148.748C307.69 148.068 307.954 147.528 308.482 147.128C309.018 146.728 309.734 146.528 310.63 146.528C311.222 146.528 311.738 146.62 312.178 146.804C312.626 146.98 312.974 147.236 313.222 147.572C313.47 147.908 313.594 148.3 313.594 148.748C313.594 149.18 313.478 149.556 313.246 149.876C313.014 150.188 312.682 150.428 312.25 150.596ZM308.554 148.772C308.554 149.236 308.738 149.604 309.106 149.876C309.474 150.148 309.982 150.284 310.63 150.284C311.278 150.284 311.786 150.148 312.154 149.876C312.53 149.604 312.718 149.24 312.718 148.784C312.718 148.312 312.526 147.94 312.142 147.668C311.766 147.396 311.262 147.26 310.63 147.26C309.99 147.26 309.482 147.396 309.106 147.668C308.738 147.94 308.554 148.308 308.554 148.772ZM310.63 154.34C311.374 154.34 311.954 154.188 312.37 153.884C312.794 153.58 313.006 153.168 313.006 152.648C313.006 152.128 312.794 151.72 312.37 151.424C311.954 151.12 311.374 150.968 310.63 150.968C309.894 150.968 309.314 151.12 308.89 151.424C308.474 151.72 308.266 152.128 308.266 152.648C308.266 153.176 308.474 153.592 308.89 153.896C309.306 154.192 309.886 154.34 310.63 154.34ZM315.388 153.752C315.572 153.752 315.724 153.816 315.844 153.944C315.964 154.064 316.024 154.216 316.024 154.4C316.024 154.496 316.008 154.6 315.976 154.712C315.952 154.824 315.912 154.952 315.856 155.096L315.352 156.752H314.776L315.184 155.012C315.056 154.972 314.952 154.9 314.872 154.796C314.792 154.684 314.752 154.552 314.752 154.4C314.752 154.216 314.812 154.064 314.932 153.944C315.052 153.816 315.204 153.752 315.388 153.752ZM319.407 146.528C320.519 146.528 321.371 146.896 321.963 147.632C322.555 148.36 322.851 149.392 322.851 150.728C322.851 151.664 322.691 152.456 322.371 153.104C322.051 153.752 321.603 154.244 321.027 154.58C320.451 154.908 319.779 155.072 319.011 155.072C318.179 155.072 317.515 154.92 317.019 154.616L317.367 153.92C317.767 154.184 318.311 154.316 318.999 154.316C319.927 154.316 320.655 154.024 321.183 153.44C321.711 152.848 321.975 151.992 321.975 150.872C321.975 150.664 321.963 150.436 321.939 150.188C321.731 150.644 321.399 151 320.943 151.256C320.487 151.504 319.963 151.628 319.371 151.628C318.819 151.628 318.327 151.524 317.895 151.316C317.471 151.108 317.139 150.816 316.899 150.44C316.659 150.056 316.539 149.612 316.539 149.108C316.539 148.596 316.663 148.144 316.911 147.752C317.159 147.36 317.499 147.06 317.931 146.852C318.371 146.636 318.863 146.528 319.407 146.528ZM319.503 150.896C319.927 150.896 320.299 150.816 320.619 150.656C320.947 150.496 321.203 150.276 321.387 149.996C321.571 149.716 321.663 149.404 321.663 149.06C321.663 148.74 321.575 148.444 321.399 148.172C321.231 147.9 320.979 147.68 320.643 147.512C320.307 147.344 319.907 147.26 319.443 147.26C318.835 147.26 318.339 147.428 317.955 147.764C317.579 148.092 317.391 148.532 317.391 149.084C317.391 149.636 317.579 150.076 317.955 150.404C318.339 150.732 318.855 150.896 319.503 150.896Z" fill="white"/>
<path d="M360 201H408V25C408 11.7452 397.255 1 384 1V1C370.745 1 360 11.7452 360 25V201Z" fill="#E5E5E5"/>
<path d="M360 201H408V43.8C408 30.5451 397.255 19.8 384 19.8V19.8C370.745 19.8 360 30.5452 360 43.8V201Z" fill="#F2A428"/>
<path d="M360 201H408V143C408 129.745 397.255 119 384 119V119C370.745 119 360 129.745 360 143V201Z" fill="#01348D"/>
<path d="M375.532 53.528C376.644 53.528 377.496 53.896 378.088 54.632C378.68 55.36 378.976 56.392 378.976 57.728C378.976 58.664 378.816 59.456 378.496 60.104C378.176 60.752 377.728 61.244 377.152 61.58C376.576 61.908 375.904 62.072 375.136 62.072C374.304 62.072 373.64 61.92 373.144 61.616L373.492 60.92C373.892 61.184 374.436 61.316 375.124 61.316C376.052 61.316 376.78 61.024 377.308 60.44C377.836 59.848 378.1 58.992 378.1 57.872C378.1 57.664 378.088 57.436 378.064 57.188C377.856 57.644 377.524 58 377.068 58.256C376.612 58.504 376.088 58.628 375.496 58.628C374.944 58.628 374.452 58.524 374.02 58.316C373.596 58.108 373.264 57.816 373.024 57.44C372.784 57.056 372.664 56.612 372.664 56.108C372.664 55.596 372.788 55.144 373.036 54.752C373.284 54.36 373.624 54.06 374.056 53.852C374.496 53.636 374.988 53.528 375.532 53.528ZM375.628 57.896C376.052 57.896 376.424 57.816 376.744 57.656C377.072 57.496 377.328 57.276 377.512 56.996C377.696 56.716 377.788 56.404 377.788 56.06C377.788 55.74 377.7 55.444 377.524 55.172C377.356 54.9 377.104 54.68 376.768 54.512C376.432 54.344 376.032 54.26 375.568 54.26C374.96 54.26 374.464 54.428 374.08 54.764C373.704 55.092 373.516 55.532 373.516 56.084C373.516 56.636 373.704 57.076 374.08 57.404C374.464 57.732 374.98 57.896 375.628 57.896ZM383.097 62.072C382.449 62.072 381.869 61.9 381.357 61.556C380.853 61.212 380.457 60.72 380.169 60.08C379.889 59.432 379.749 58.672 379.749 57.8C379.749 56.928 379.889 56.172 380.169 55.532C380.457 54.884 380.853 54.388 381.357 54.044C381.869 53.7 382.449 53.528 383.097 53.528C383.745 53.528 384.321 53.7 384.825 54.044C385.337 54.388 385.737 54.884 386.025 55.532C386.313 56.172 386.457 56.928 386.457 57.8C386.457 58.672 386.313 59.432 386.025 60.08C385.737 60.72 385.337 61.212 384.825 61.556C384.321 61.9 383.745 62.072 383.097 62.072ZM383.097 61.28C383.585 61.28 384.013 61.144 384.381 60.872C384.757 60.6 385.049 60.204 385.257 59.684C385.465 59.164 385.569 58.536 385.569 57.8C385.569 57.064 385.465 56.436 385.257 55.916C385.049 55.396 384.757 55 384.381 54.728C384.013 54.456 383.585 54.32 383.097 54.32C382.609 54.32 382.177 54.456 381.801 54.728C381.433 55 381.145 55.396 380.937 55.916C380.729 56.436 380.625 57.064 380.625 57.8C380.625 58.536 380.729 59.164 380.937 59.684C381.145 60.204 381.433 60.6 381.801 60.872C382.177 61.144 382.609 61.28 383.097 61.28ZM387.745 60.752C387.929 60.752 388.081 60.816 388.201 60.944C388.321 61.064 388.381 61.216 388.381 61.4C388.381 61.496 388.365 61.6 388.333 61.712C388.309 61.824 388.269 61.952 388.213 62.096L387.709 63.752H387.133L387.541 62.012C387.413 61.972 387.309 61.9 387.229 61.796C387.149 61.684 387.109 61.552 387.109 61.4C387.109 61.216 387.169 61.064 387.289 60.944C387.409 60.816 387.561 60.752 387.745 60.752ZM392.499 56.972C393.051 56.972 393.539 57.076 393.963 57.284C394.395 57.492 394.731 57.788 394.971 58.172C395.211 58.548 395.331 58.988 395.331 59.492C395.331 60.004 395.207 60.456 394.959 60.848C394.711 61.24 394.367 61.544 393.927 61.76C393.495 61.968 393.007 62.072 392.463 62.072C391.351 62.072 390.499 61.708 389.907 60.98C389.315 60.244 389.019 59.208 389.019 57.872C389.019 56.936 389.179 56.144 389.499 55.496C389.819 54.848 390.267 54.36 390.843 54.032C391.419 53.696 392.091 53.528 392.859 53.528C393.691 53.528 394.355 53.68 394.851 53.984L394.503 54.68C394.103 54.416 393.559 54.284 392.871 54.284C391.943 54.284 391.215 54.58 390.687 55.172C390.159 55.756 389.895 56.608 389.895 57.728C389.895 57.928 389.907 58.156 389.931 58.412C390.139 57.956 390.471 57.604 390.927 57.356C391.383 57.1 391.907 56.972 392.499 56.972ZM392.427 61.34C393.035 61.34 393.527 61.176 393.903 60.848C394.287 60.512 394.479 60.068 394.479 59.516C394.479 58.964 394.287 58.524 393.903 58.196C393.527 57.868 393.015 57.704 392.367 57.704C391.943 57.704 391.567 57.784 391.239 57.944C390.919 58.104 390.667 58.324 390.483 58.604C390.299 58.884 390.207 59.196 390.207 59.54C390.207 59.86 390.291 60.156 390.459 60.428C390.635 60.7 390.891 60.92 391.227 61.088C391.563 61.256 391.963 61.34 392.427 61.34Z" fill="white"/>
<path d="M386.022 148.792H384.342V151H383.478V148.792H378.738V148.168L383.19 142.6H384.15L379.854 148.024H383.502V146.08H384.342V148.024H386.022V148.792ZM388.358 142.6V151H387.494V143.368H385.514V142.6H388.358Z" fill="white"/>
<path d="M432 201H480V25C480 11.7452 469.255 1 456 1V1C442.745 1 432 11.7452 432 25V201Z" fill="#E5E5E5"/>
<path d="M432 201H480V39C480 25.7452 469.255 15 456 15V15C442.745 15 432 25.7452 432 39V201Z" fill="#F2A428"/>
<path d="M432 201H480V149C480 135.745 469.255 125 456 125V125C442.745 125 432 135.745 432 149V201Z" fill="#01348D"/>
<path d="M452.496 48.528C453.608 48.528 454.46 48.896 455.052 49.632C455.644 50.36 455.94 51.392 455.94 52.728C455.94 53.664 455.78 54.456 455.46 55.104C455.14 55.752 454.692 56.244 454.116 56.58C453.54 56.908 452.868 57.072 452.1 57.072C451.268 57.072 450.604 56.92 450.108 56.616L450.456 55.92C450.856 56.184 451.4 56.316 452.088 56.316C453.016 56.316 453.744 56.024 454.272 55.44C454.8 54.848 455.064 53.992 455.064 52.872C455.064 52.664 455.052 52.436 455.028 52.188C454.82 52.644 454.488 53 454.032 53.256C453.576 53.504 453.052 53.628 452.46 53.628C451.908 53.628 451.416 53.524 450.984 53.316C450.56 53.108 450.228 52.816 449.988 52.44C449.748 52.056 449.628 51.612 449.628 51.108C449.628 50.596 449.752 50.144 450 49.752C450.248 49.36 450.588 49.06 451.02 48.852C451.46 48.636 451.952 48.528 452.496 48.528ZM452.592 52.896C453.016 52.896 453.388 52.816 453.708 52.656C454.036 52.496 454.292 52.276 454.476 51.996C454.66 51.716 454.752 51.404 454.752 51.06C454.752 50.74 454.664 50.444 454.488 50.172C454.32 49.9 454.068 49.68 453.732 49.512C453.396 49.344 452.996 49.26 452.532 49.26C451.924 49.26 451.428 49.428 451.044 49.764C450.668 50.092 450.48 50.532 450.48 51.084C450.48 51.636 450.668 52.076 451.044 52.404C451.428 52.732 451.944 52.896 452.592 52.896ZM459.451 52.2C460.331 52.248 460.999 52.488 461.455 52.92C461.919 53.344 462.151 53.9 462.151 54.588C462.151 55.068 462.035 55.496 461.803 55.872C461.571 56.24 461.227 56.532 460.771 56.748C460.315 56.964 459.759 57.072 459.103 57.072C458.495 57.072 457.919 56.976 457.375 56.784C456.839 56.584 456.407 56.32 456.079 55.992L456.499 55.308C456.779 55.596 457.151 55.832 457.615 56.016C458.079 56.192 458.575 56.28 459.103 56.28C459.791 56.28 460.323 56.132 460.699 55.836C461.075 55.532 461.263 55.116 461.263 54.588C461.263 54.068 461.075 53.66 460.699 53.364C460.323 53.068 459.755 52.92 458.995 52.92H458.395V52.284L460.723 49.368H456.427V48.6H461.827V49.212L459.451 52.2Z" fill="white"/>
<path d="M452.507 152.2C453.387 152.248 454.055 152.488 454.511 152.92C454.975 153.344 455.207 153.9 455.207 154.588C455.207 155.068 455.091 155.496 454.859 155.872C454.627 156.24 454.283 156.532 453.827 156.748C453.371 156.964 452.815 157.072 452.159 157.072C451.551 157.072 450.975 156.976 450.431 156.784C449.895 156.584 449.463 156.32 449.135 155.992L449.555 155.308C449.835 155.596 450.207 155.832 450.671 156.016C451.135 156.192 451.631 156.28 452.159 156.28C452.847 156.28 453.379 156.132 453.755 155.836C454.131 155.532 454.319 155.116 454.319 154.588C454.319 154.068 454.131 153.66 453.755 153.364C453.379 153.068 452.811 152.92 452.051 152.92H451.451V152.284L453.779 149.368H449.483V148.6H454.883V149.212L452.507 152.2ZM460.757 152.596C461.285 152.772 461.689 153.036 461.969 153.388C462.257 153.74 462.401 154.164 462.401 154.66C462.401 155.148 462.269 155.576 462.005 155.944C461.741 156.304 461.361 156.584 460.865 156.784C460.377 156.976 459.801 157.072 459.137 157.072C458.129 157.072 457.337 156.856 456.761 156.424C456.185 155.992 455.897 155.404 455.897 154.66C455.897 154.156 456.033 153.732 456.305 153.388C456.585 153.036 456.989 152.772 457.517 152.596C457.085 152.428 456.757 152.188 456.533 151.876C456.309 151.556 456.197 151.18 456.197 150.748C456.197 150.068 456.461 149.528 456.989 149.128C457.525 148.728 458.241 148.528 459.137 148.528C459.729 148.528 460.245 148.62 460.685 148.804C461.133 148.98 461.481 149.236 461.729 149.572C461.977 149.908 462.101 150.3 462.101 150.748C462.101 151.18 461.985 151.556 461.753 151.876C461.521 152.188 461.189 152.428 460.757 152.596ZM457.061 150.772C457.061 151.236 457.245 151.604 457.613 151.876C457.981 152.148 458.489 152.284 459.137 152.284C459.785 152.284 460.293 152.148 460.661 151.876C461.037 151.604 461.225 151.24 461.225 150.784C461.225 150.312 461.033 149.94 460.649 149.668C460.273 149.396 459.769 149.26 459.137 149.26C458.497 149.26 457.989 149.396 457.613 149.668C457.245 149.94 457.061 150.308 457.061 150.772ZM459.137 156.34C459.881 156.34 460.461 156.188 460.877 155.884C461.301 155.58 461.513 155.168 461.513 154.648C461.513 154.128 461.301 153.72 460.877 153.424C460.461 153.12 459.881 152.968 459.137 152.968C458.401 152.968 457.821 153.12 457.397 153.424C456.981 153.72 456.773 154.128 456.773 154.648C456.773 155.176 456.981 155.592 457.397 155.896C457.813 156.192 458.393 156.34 459.137 156.34Z" fill="white"/>
<path d="M504 201H552V25C552 11.7452 541.255 1 528 1V1C514.745 1 504 11.7452 504 25V201Z" fill="#E5E5E5"/>
<path d="M504 201H552V49C552 35.7452 541.255 25 528 25V25C514.745 25 504 35.7452 504 49V201Z" fill="#F2A428"/>
<path d="M504 201H552V115C552 101.745 541.255 91 528 91V91C514.745 91 504 101.745 504 115V201Z" fill="#01348D"/>
<path d="M526.024 62.596C526.552 62.772 526.956 63.036 527.236 63.388C527.524 63.74 527.668 64.164 527.668 64.66C527.668 65.148 527.536 65.576 527.272 65.944C527.008 66.304 526.628 66.584 526.132 66.784C525.644 66.976 525.068 67.072 524.404 67.072C523.396 67.072 522.604 66.856 522.028 66.424C521.452 65.992 521.164 65.404 521.164 64.66C521.164 64.156 521.3 63.732 521.572 63.388C521.852 63.036 522.256 62.772 522.784 62.596C522.352 62.428 522.024 62.188 521.8 61.876C521.576 61.556 521.464 61.18 521.464 60.748C521.464 60.068 521.728 59.528 522.256 59.128C522.792 58.728 523.508 58.528 524.404 58.528C524.996 58.528 525.512 58.62 525.952 58.804C526.4 58.98 526.748 59.236 526.996 59.572C527.244 59.908 527.368 60.3 527.368 60.748C527.368 61.18 527.252 61.556 527.02 61.876C526.788 62.188 526.456 62.428 526.024 62.596ZM522.328 60.772C522.328 61.236 522.512 61.604 522.88 61.876C523.248 62.148 523.756 62.284 524.404 62.284C525.052 62.284 525.56 62.148 525.928 61.876C526.304 61.604 526.492 61.24 526.492 60.784C526.492 60.312 526.3 59.94 525.916 59.668C525.54 59.396 525.036 59.26 524.404 59.26C523.764 59.26 523.256 59.396 522.88 59.668C522.512 59.94 522.328 60.308 522.328 60.772ZM524.404 66.34C525.148 66.34 525.728 66.188 526.144 65.884C526.568 65.58 526.78 65.168 526.78 64.648C526.78 64.128 526.568 63.72 526.144 63.424C525.728 63.12 525.148 62.968 524.404 62.968C523.668 62.968 523.088 63.12 522.664 63.424C522.248 63.72 522.04 64.128 522.04 64.648C522.04 65.176 522.248 65.592 522.664 65.896C523.08 66.192 523.66 66.34 524.404 66.34ZM533.196 62.596C533.724 62.772 534.128 63.036 534.408 63.388C534.696 63.74 534.84 64.164 534.84 64.66C534.84 65.148 534.708 65.576 534.444 65.944C534.18 66.304 533.8 66.584 533.304 66.784C532.816 66.976 532.24 67.072 531.576 67.072C530.568 67.072 529.776 66.856 529.2 66.424C528.624 65.992 528.336 65.404 528.336 64.66C528.336 64.156 528.472 63.732 528.744 63.388C529.024 63.036 529.428 62.772 529.956 62.596C529.524 62.428 529.196 62.188 528.972 61.876C528.748 61.556 528.636 61.18 528.636 60.748C528.636 60.068 528.9 59.528 529.428 59.128C529.964 58.728 530.68 58.528 531.576 58.528C532.168 58.528 532.684 58.62 533.124 58.804C533.572 58.98 533.92 59.236 534.168 59.572C534.416 59.908 534.54 60.3 534.54 60.748C534.54 61.18 534.424 61.556 534.192 61.876C533.96 62.188 533.628 62.428 533.196 62.596ZM529.5 60.772C529.5 61.236 529.684 61.604 530.052 61.876C530.42 62.148 530.928 62.284 531.576 62.284C532.224 62.284 532.732 62.148 533.1 61.876C533.476 61.604 533.664 61.24 533.664 60.784C533.664 60.312 533.472 59.94 533.088 59.668C532.712 59.396 532.208 59.26 531.576 59.26C530.936 59.26 530.428 59.396 530.052 59.668C529.684 59.94 529.5 60.308 529.5 60.772ZM531.576 66.34C532.32 66.34 532.9 66.188 533.316 65.884C533.74 65.58 533.952 65.168 533.952 64.648C533.952 64.128 533.74 63.72 533.316 63.424C532.9 63.12 532.32 62.968 531.576 62.968C530.84 62.968 530.26 63.12 529.836 63.424C529.42 63.72 529.212 64.128 529.212 64.648C529.212 65.176 529.42 65.592 529.836 65.896C530.252 66.192 530.832 66.34 531.576 66.34Z" fill="white"/>
<path d="M524.304 118.044C525.52 118.044 526.404 118.264 526.956 118.704C527.516 119.136 527.796 119.744 527.796 120.528C527.796 121.016 527.68 121.452 527.448 121.836C527.224 122.22 526.884 122.524 526.428 122.748C525.972 122.964 525.412 123.072 524.748 123.072C524.148 123.072 523.576 122.976 523.032 122.784C522.496 122.584 522.064 122.32 521.736 121.992L522.156 121.308C522.436 121.596 522.804 121.832 523.26 122.016C523.716 122.192 524.208 122.28 524.736 122.28C525.432 122.28 525.968 122.124 526.344 121.812C526.728 121.5 526.92 121.084 526.92 120.564C526.92 119.988 526.704 119.552 526.272 119.256C525.848 118.96 525.128 118.812 524.112 118.812H522.324L522.756 114.6H527.352V115.368H523.512L523.224 118.044H524.304ZM530.563 118.044C531.779 118.044 532.663 118.264 533.215 118.704C533.775 119.136 534.055 119.744 534.055 120.528C534.055 121.016 533.939 121.452 533.707 121.836C533.483 122.22 533.143 122.524 532.687 122.748C532.231 122.964 531.671 123.072 531.007 123.072C530.407 123.072 529.835 122.976 529.291 122.784C528.755 122.584 528.323 122.32 527.995 121.992L528.415 121.308C528.695 121.596 529.063 121.832 529.519 122.016C529.975 122.192 530.467 122.28 530.995 122.28C531.691 122.28 532.227 122.124 532.603 121.812C532.987 121.5 533.179 121.084 533.179 120.564C533.179 119.988 532.963 119.552 532.531 119.256C532.107 118.96 531.387 118.812 530.371 118.812H528.583L529.015 114.6H533.611V115.368H529.771L529.483 118.044H530.563Z" fill="white"/>
<path d="M576 201H624V25C624 11.7452 613.255 1 600 1V1C586.745 1 576 11.7452 576 25V201Z" fill="#E5E5E5"/>
<path d="M576 201H624V49C624 35.7452 613.255 25 600 25V25C586.745 25 576 35.7452 576 49V201Z" fill="#F2A428"/>
<path d="M576 201H624V133C624 119.745 613.255 109 600 109V109C586.745 109 576 119.745 576 133V201Z" fill="#01348D"/>
<path d="M598.024 62.596C598.552 62.772 598.956 63.036 599.236 63.388C599.524 63.74 599.668 64.164 599.668 64.66C599.668 65.148 599.536 65.576 599.272 65.944C599.008 66.304 598.628 66.584 598.132 66.784C597.644 66.976 597.068 67.072 596.404 67.072C595.396 67.072 594.604 66.856 594.028 66.424C593.452 65.992 593.164 65.404 593.164 64.66C593.164 64.156 593.3 63.732 593.572 63.388C593.852 63.036 594.256 62.772 594.784 62.596C594.352 62.428 594.024 62.188 593.8 61.876C593.576 61.556 593.464 61.18 593.464 60.748C593.464 60.068 593.728 59.528 594.256 59.128C594.792 58.728 595.508 58.528 596.404 58.528C596.996 58.528 597.512 58.62 597.952 58.804C598.4 58.98 598.748 59.236 598.996 59.572C599.244 59.908 599.368 60.3 599.368 60.748C599.368 61.18 599.252 61.556 599.02 61.876C598.788 62.188 598.456 62.428 598.024 62.596ZM594.328 60.772C594.328 61.236 594.512 61.604 594.88 61.876C595.248 62.148 595.756 62.284 596.404 62.284C597.052 62.284 597.56 62.148 597.928 61.876C598.304 61.604 598.492 61.24 598.492 60.784C598.492 60.312 598.3 59.94 597.916 59.668C597.54 59.396 597.036 59.26 596.404 59.26C595.764 59.26 595.256 59.396 594.88 59.668C594.512 59.94 594.328 60.308 594.328 60.772ZM596.404 66.34C597.148 66.34 597.728 66.188 598.144 65.884C598.568 65.58 598.78 65.168 598.78 64.648C598.78 64.128 598.568 63.72 598.144 63.424C597.728 63.12 597.148 62.968 596.404 62.968C595.668 62.968 595.088 63.12 594.664 63.424C594.248 63.72 594.04 64.128 594.04 64.648C594.04 65.176 594.248 65.592 594.664 65.896C595.08 66.192 595.66 66.34 596.404 66.34ZM605.196 62.596C605.724 62.772 606.128 63.036 606.408 63.388C606.696 63.74 606.84 64.164 606.84 64.66C606.84 65.148 606.708 65.576 606.444 65.944C606.18 66.304 605.8 66.584 605.304 66.784C604.816 66.976 604.24 67.072 603.576 67.072C602.568 67.072 601.776 66.856 601.2 66.424C600.624 65.992 600.336 65.404 600.336 64.66C600.336 64.156 600.472 63.732 600.744 63.388C601.024 63.036 601.428 62.772 601.956 62.596C601.524 62.428 601.196 62.188 600.972 61.876C600.748 61.556 600.636 61.18 600.636 60.748C600.636 60.068 600.9 59.528 601.428 59.128C601.964 58.728 602.68 58.528 603.576 58.528C604.168 58.528 604.684 58.62 605.124 58.804C605.572 58.98 605.92 59.236 606.168 59.572C606.416 59.908 606.54 60.3 606.54 60.748C606.54 61.18 606.424 61.556 606.192 61.876C605.96 62.188 605.628 62.428 605.196 62.596ZM601.5 60.772C601.5 61.236 601.684 61.604 602.052 61.876C602.42 62.148 602.928 62.284 603.576 62.284C604.224 62.284 604.732 62.148 605.1 61.876C605.476 61.604 605.664 61.24 605.664 60.784C605.664 60.312 605.472 59.94 605.088 59.668C604.712 59.396 604.208 59.26 603.576 59.26C602.936 59.26 602.428 59.396 602.052 59.668C601.684 59.94 601.5 60.308 601.5 60.772ZM603.576 66.34C604.32 66.34 604.9 66.188 605.316 65.884C605.74 65.58 605.952 65.168 605.952 64.648C605.952 64.128 605.74 63.72 605.316 63.424C604.9 63.12 604.32 62.968 603.576 62.968C602.84 62.968 602.26 63.12 601.836 63.424C601.42 63.72 601.212 64.128 601.212 64.648C601.212 65.176 601.42 65.592 601.836 65.896C602.252 66.192 602.832 66.34 603.576 66.34Z" fill="white"/>
<path d="M600.381 138.792H598.701V141H597.837V138.792H593.097V138.168L597.549 132.6H598.509L594.213 138.024H597.861V136.08H598.701V138.024H600.381V138.792ZM604.175 135.972C604.727 135.972 605.215 136.076 605.639 136.284C606.071 136.492 606.407 136.788 606.647 137.172C606.887 137.548 607.007 137.988 607.007 138.492C607.007 139.004 606.883 139.456 606.635 139.848C606.387 140.24 606.043 140.544 605.603 140.76C605.171 140.968 604.683 141.072 604.139 141.072C603.027 141.072 602.175 140.708 601.583 139.98C600.991 139.244 600.695 138.208 600.695 136.872C600.695 135.936 600.855 135.144 601.175 134.496C601.495 133.848 601.943 133.36 602.519 133.032C603.095 132.696 603.767 132.528 604.535 132.528C605.367 132.528 606.031 132.68 606.527 132.984L606.179 133.68C605.779 133.416 605.235 133.284 604.547 133.284C603.619 133.284 602.891 133.58 602.363 134.172C601.835 134.756 601.571 135.608 601.571 136.728C601.571 136.928 601.583 137.156 601.607 137.412C601.815 136.956 602.147 136.604 602.603 136.356C603.059 136.1 603.583 135.972 604.175 135.972ZM604.103 140.34C604.711 140.34 605.203 140.176 605.579 139.848C605.963 139.512 606.155 139.068 606.155 138.516C606.155 137.964 605.963 137.524 605.579 137.196C605.203 136.868 604.691 136.704 604.043 136.704C603.619 136.704 603.243 136.784 602.915 136.944C602.595 137.104 602.343 137.324 602.159 137.604C601.975 137.884 601.883 138.196 601.883 138.54C601.883 138.86 601.967 139.156 602.135 139.428C602.311 139.7 602.567 139.92 602.903 140.088C603.239 140.256 603.639 140.34 604.103 140.34Z" fill="white"/>
<path d="M67.06 275.26H59.26L57.58 279H56.04L62.44 265H63.9L70.3 279H68.74L67.06 275.26ZM66.52 274.06L63.16 266.54L59.8 274.06H66.52ZM72.5 267.78L74.98 269.18L74.52 270.02L72.02 268.56V271.4H71.1L71.12 268.56L68.62 270.02L68.14 269.18L70.64 267.78L68.14 266.38L68.62 265.52L71.12 267L71.1 264.16H72.02V267L74.52 265.52L74.98 266.38L72.5 267.78ZM75.6195 272.96H80.8595V274.2H75.6195V272.96ZM89.7725 279.12C88.3858 279.12 87.1325 278.813 86.0125 278.2C84.9058 277.587 84.0325 276.74 83.3925 275.66C82.7658 274.567 82.4525 273.347 82.4525 272C82.4525 270.653 82.7658 269.44 83.3925 268.36C84.0325 267.267 84.9125 266.413 86.0325 265.8C87.1525 265.187 88.4058 264.88 89.7925 264.88C90.8325 264.88 91.7925 265.053 92.6725 265.4C93.5525 265.747 94.2992 266.253 94.9125 266.92L93.9725 267.86C92.8792 266.753 91.4992 266.2 89.8325 266.2C88.7258 266.2 87.7192 266.453 86.8125 266.96C85.9058 267.467 85.1925 268.16 84.6725 269.04C84.1658 269.92 83.9125 270.907 83.9125 272C83.9125 273.093 84.1658 274.08 84.6725 274.96C85.1925 275.84 85.9058 276.533 86.8125 277.04C87.7192 277.547 88.7258 277.8 89.8325 277.8C91.5125 277.8 92.8925 277.24 93.9725 276.12L94.9125 277.06C94.2992 277.727 93.5458 278.24 92.6525 278.6C91.7725 278.947 90.8125 279.12 89.7725 279.12ZM101.702 265H103.182V279H101.702V265ZM116.797 272H118.217V277.34C117.564 277.913 116.79 278.353 115.897 278.66C115.004 278.967 114.064 279.12 113.077 279.12C111.677 279.12 110.417 278.813 109.297 278.2C108.177 277.587 107.297 276.74 106.657 275.66C106.017 274.567 105.697 273.347 105.697 272C105.697 270.653 106.017 269.44 106.657 268.36C107.297 267.267 108.177 266.413 109.297 265.8C110.417 265.187 111.684 264.88 113.097 264.88C114.164 264.88 115.144 265.053 116.037 265.4C116.93 265.733 117.684 266.233 118.297 266.9L117.377 267.84C116.27 266.747 114.864 266.2 113.157 266.2C112.024 266.2 110.997 266.453 110.077 266.96C109.17 267.453 108.457 268.147 107.937 269.04C107.417 269.92 107.157 270.907 107.157 272C107.157 273.093 107.417 274.08 107.937 274.96C108.457 275.84 109.17 276.533 110.077 277.04C110.984 277.547 112.004 277.8 113.137 277.8C114.577 277.8 115.797 277.44 116.797 276.72V272ZM127.686 279.12C126.299 279.12 125.046 278.813 123.926 278.2C122.819 277.587 121.946 276.74 121.306 275.66C120.679 274.567 120.366 273.347 120.366 272C120.366 270.653 120.679 269.44 121.306 268.36C121.946 267.267 122.826 266.413 123.946 265.8C125.066 265.187 126.319 264.88 127.706 264.88C128.746 264.88 129.706 265.053 130.586 265.4C131.466 265.747 132.212 266.253 132.826 266.92L131.886 267.86C130.792 266.753 129.412 266.2 127.746 266.2C126.639 266.2 125.632 266.453 124.726 266.96C123.819 267.467 123.106 268.16 122.586 269.04C122.079 269.92 121.826 270.907 121.826 272C121.826 273.093 122.079 274.08 122.586 274.96C123.106 275.84 123.819 276.533 124.726 277.04C125.632 277.547 126.639 277.8 127.746 277.8C129.426 277.8 130.806 277.24 131.886 276.12L132.826 277.06C132.212 277.727 131.459 278.24 130.566 278.6C129.686 278.947 128.726 279.12 127.686 279.12ZM138.963 279.12C137.923 279.12 136.923 278.953 135.963 278.62C135.016 278.287 134.283 277.847 133.763 277.3L134.343 276.16C134.849 276.667 135.523 277.08 136.363 277.4C137.203 277.707 138.069 277.86 138.963 277.86C140.216 277.86 141.156 277.633 141.783 277.18C142.409 276.713 142.723 276.113 142.723 275.38C142.723 274.82 142.549 274.373 142.203 274.04C141.869 273.707 141.456 273.453 140.963 273.28C140.469 273.093 139.783 272.893 138.903 272.68C137.849 272.413 137.009 272.16 136.383 271.92C135.756 271.667 135.216 271.287 134.763 270.78C134.323 270.273 134.103 269.587 134.103 268.72C134.103 268.013 134.289 267.373 134.663 266.8C135.036 266.213 135.609 265.747 136.383 265.4C137.156 265.053 138.116 264.88 139.263 264.88C140.063 264.88 140.843 264.993 141.603 265.22C142.376 265.433 143.043 265.733 143.603 266.12L143.103 267.3C142.516 266.913 141.889 266.627 141.223 266.44C140.556 266.24 139.903 266.14 139.263 266.14C138.036 266.14 137.109 266.38 136.483 266.86C135.869 267.327 135.563 267.933 135.563 268.68C135.563 269.24 135.729 269.693 136.063 270.04C136.409 270.373 136.836 270.633 137.343 270.82C137.863 270.993 138.556 271.187 139.423 271.4C140.449 271.653 141.276 271.907 141.903 272.16C142.543 272.4 143.083 272.773 143.523 273.28C143.963 273.773 144.183 274.447 144.183 275.3C144.183 276.007 143.989 276.653 143.603 277.24C143.229 277.813 142.649 278.273 141.863 278.62C141.076 278.953 140.109 279.12 138.963 279.12ZM156.507 277.72V279H146.607V265H156.207V266.28H148.087V271.26H155.327V272.52H148.087V277.72H156.507Z" fill="#555555"/>
<path d="M0 265H40C44.4183 265 48 268.582 48 273V273C48 277.418 44.4183 281 40 281H0V265Z" fill="#F2A428"/>
<path d="M257.06 275.26H249.26L247.58 279H246.04L252.44 265H253.9L260.3 279H258.74L257.06 275.26ZM256.52 274.06L253.16 266.54L249.8 274.06H256.52ZM262.5 267.78L264.98 269.18L264.52 270.02L262.02 268.56V271.4H261.1L261.12 268.56L258.62 270.02L258.14 269.18L260.64 267.78L258.14 266.38L258.62 265.52L261.12 267L261.1 264.16H262.02V267L264.52 265.52L264.98 266.38L262.5 267.78ZM265.62 272.96H270.86V274.2H265.62V272.96ZM282.023 275.26H274.223L272.543 279H271.003L277.403 265H278.863L285.263 279H283.703L282.023 275.26ZM281.483 274.06L278.123 266.54L274.763 274.06H281.483ZM291.214 265H292.694V279H291.214V265ZM306.309 272H307.729V277.34C307.075 277.913 306.302 278.353 305.409 278.66C304.515 278.967 303.575 279.12 302.589 279.12C301.189 279.12 299.929 278.813 298.809 278.2C297.689 277.587 296.809 276.74 296.169 275.66C295.529 274.567 295.209 273.347 295.209 272C295.209 270.653 295.529 269.44 296.169 268.36C296.809 267.267 297.689 266.413 298.809 265.8C299.929 265.187 301.195 264.88 302.609 264.88C303.675 264.88 304.655 265.053 305.549 265.4C306.442 265.733 307.195 266.233 307.809 266.9L306.889 267.84C305.782 266.747 304.375 266.2 302.669 266.2C301.535 266.2 300.509 266.453 299.589 266.96C298.682 267.453 297.969 268.147 297.449 269.04C296.929 269.92 296.669 270.907 296.669 272C296.669 273.093 296.929 274.08 297.449 274.96C297.969 275.84 298.682 276.533 299.589 277.04C300.495 277.547 301.515 277.8 302.649 277.8C304.089 277.8 305.309 277.44 306.309 276.72V272ZM317.198 279.12C315.811 279.12 314.558 278.813 313.438 278.2C312.331 277.587 311.458 276.74 310.818 275.66C310.191 274.567 309.878 273.347 309.878 272C309.878 270.653 310.191 269.44 310.818 268.36C311.458 267.267 312.338 266.413 313.458 265.8C314.578 265.187 315.831 264.88 317.218 264.88C318.258 264.88 319.218 265.053 320.098 265.4C320.978 265.747 321.724 266.253 322.338 266.92L321.398 267.86C320.304 266.753 318.924 266.2 317.258 266.2C316.151 266.2 315.144 266.453 314.238 266.96C313.331 267.467 312.618 268.16 312.098 269.04C311.591 269.92 311.338 270.907 311.338 272C311.338 273.093 311.591 274.08 312.098 274.96C312.618 275.84 313.331 276.533 314.238 277.04C315.144 277.547 316.151 277.8 317.258 277.8C318.938 277.8 320.318 277.24 321.398 276.12L322.338 277.06C321.724 277.727 320.971 278.24 320.078 278.6C319.198 278.947 318.238 279.12 317.198 279.12ZM328.474 279.12C327.434 279.12 326.434 278.953 325.474 278.62C324.528 278.287 323.794 277.847 323.274 277.3L323.854 276.16C324.361 276.667 325.034 277.08 325.874 277.4C326.714 277.707 327.581 277.86 328.474 277.86C329.728 277.86 330.668 277.633 331.294 277.18C331.921 276.713 332.234 276.113 332.234 275.38C332.234 274.82 332.061 274.373 331.714 274.04C331.381 273.707 330.968 273.453 330.474 273.28C329.981 273.093 329.294 272.893 328.414 272.68C327.361 272.413 326.521 272.16 325.894 271.92C325.268 271.667 324.728 271.287 324.274 270.78C323.834 270.273 323.614 269.587 323.614 268.72C323.614 268.013 323.801 267.373 324.174 266.8C324.548 266.213 325.121 265.747 325.894 265.4C326.668 265.053 327.628 264.88 328.774 264.88C329.574 264.88 330.354 264.993 331.114 265.22C331.888 265.433 332.554 265.733 333.114 266.12L332.614 267.3C332.028 266.913 331.401 266.627 330.734 266.44C330.068 266.24 329.414 266.14 328.774 266.14C327.548 266.14 326.621 266.38 325.994 266.86C325.381 267.327 325.074 267.933 325.074 268.68C325.074 269.24 325.241 269.693 325.574 270.04C325.921 270.373 326.348 270.633 326.854 270.82C327.374 270.993 328.068 271.187 328.934 271.4C329.961 271.653 330.788 271.907 331.414 272.16C332.054 272.4 332.594 272.773 333.034 273.28C333.474 273.773 333.694 274.447 333.694 275.3C333.694 276.007 333.501 276.653 333.114 277.24C332.741 277.813 332.161 278.273 331.374 278.62C330.588 278.953 329.621 279.12 328.474 279.12ZM346.019 277.72V279H336.119V265H345.719V266.28H337.599V271.26H344.839V272.52H337.599V277.72H346.019Z" fill="#555555"/>
<path d="M190 265H230C234.418 265 238 268.582 238 273V273C238 277.418 234.418 281 230 281H190V265Z" fill="#01348D"/>
</svg>
