<svg width="145" height="144" viewBox="0 0 145 144" fill="none" xmlns="http://www.w3.org/2000/svg">
<path d="M48.7694 108.485C48.7694 113.064 50.132 117.54 52.6849 121.348C55.2378 125.155 58.8664 128.123 63.1118 129.875C67.3571 131.628 72.0285 132.086 76.5354 131.193C81.0422 130.299 85.182 128.094 88.4313 124.856C91.6805 121.618 93.8933 117.493 94.7898 113.002C95.6862 108.51 95.2261 103.855 93.4676 99.6245C91.7092 95.3938 88.7313 91.7778 84.9105 89.2337C81.0898 86.6896 76.5979 85.3317 72.0028 85.3317C65.8423 85.3362 59.9354 87.7769 55.5792 92.118C51.2231 96.4591 48.7739 102.346 48.7694 108.485ZM90.0394 108.485C90.0361 112.039 88.9754 115.512 86.9915 118.466C85.0076 121.42 82.1895 123.721 78.8934 125.079C75.5974 126.437 71.9713 126.79 68.4736 126.095C64.976 125.399 61.7637 123.686 59.243 121.172C56.7222 118.657 55.006 115.455 54.3114 111.968C53.6168 108.482 53.975 104.869 55.3407 101.586C56.7063 98.3022 59.0182 95.496 61.9839 93.5217C64.9497 91.5474 68.4362 90.4937 72.0028 90.4937C76.7879 90.4981 81.3756 92.3956 84.7577 95.7691C88.1397 99.1426 90.0394 103.716 90.0394 108.485Z" fill="#F2A428"/>
<path d="M143.61 32.2833L123.936 1.27815C123.74 0.902796 123.457 0.579868 123.109 0.336561L122.924 0.235681L122.637 0.101165L122.35 0.0170898H21.6216L21.3516 0.101165L21.031 0.252486H20.8792C20.7362 0.34851 20.6009 0.455316 20.4743 0.571958C20.3477 0.70025 20.2346 0.841099 20.1368 0.99231L0.396019 32.2833C0.189972 32.614 0.0603594 32.9862 0.0165845 33.373C-0.0271904 33.7598 0.0159542 34.1515 0.142917 34.5196C0.260537 34.9047 0.466675 35.2572 0.74492 35.5491C1.02317 35.841 1.36587 36.0642 1.74582 36.201L64.3258 57.5212C63.0005 58.5682 61.9071 59.8773 61.1145 61.3662C60.3219 62.855 59.8473 64.4912 59.7205 66.1718C59.5937 67.8524 59.8175 69.541 60.3778 71.1312C60.938 72.7214 61.8227 74.1787 62.976 75.4114C54.8851 77.5901 47.8639 82.6237 43.2186 89.5755C38.5734 96.5274 36.6205 104.924 37.7232 113.204C38.8259 121.483 42.9092 129.081 49.2134 134.585C55.5175 140.089 63.6132 143.123 71.9943 143.123C80.3754 143.123 88.4711 140.089 94.7753 134.585C101.079 129.081 105.163 121.483 106.265 113.204C107.368 104.924 105.415 96.5274 100.77 89.5755C96.1248 82.6237 89.1036 77.5901 81.0127 75.4114C82.1693 74.181 83.0572 72.7249 83.6203 71.1351C84.1834 69.5452 84.4095 67.8563 84.2842 66.175C84.1589 64.4936 83.6851 62.8565 82.8925 61.367C82.1 59.8774 81.006 58.568 79.6798 57.5212L142.26 36.201C142.641 36.0665 142.985 35.8441 143.264 35.5519C143.542 35.2597 143.747 34.906 143.863 34.5196C143.99 34.1515 144.033 33.7598 143.989 33.373C143.945 32.9862 143.816 32.614 143.61 32.2833ZM92.3678 31.0727H51.6208L28.1175 5.16219H115.854L92.3678 31.0727ZM87.6773 36.1842L71.9859 53.4186L56.3283 36.1842H87.6773ZM6.5376 32.2833L22.6339 6.91087L48.5838 35.4948L48.6682 35.5957L63.3472 51.7204L6.5376 32.2833ZM101.378 108.569C101.378 114.359 99.6549 120.018 96.4272 124.832C93.1994 129.646 88.6117 133.398 83.2441 135.614C77.8765 137.829 71.9702 138.409 66.272 137.28C60.5738 136.15 55.3397 133.362 51.2315 129.268C47.1234 125.174 44.3257 119.958 43.1922 114.28C42.0588 108.601 42.6405 102.715 44.8638 97.3664C47.0871 92.0174 50.8523 87.4455 55.6829 84.2289C60.5136 81.0123 66.1929 79.2955 72.0028 79.2955C79.7762 79.3043 87.2299 82.3798 92.7345 87.8495C98.239 93.3192 101.347 100.738 101.378 108.485V108.569ZM64.8826 67.038C64.8792 65.6339 65.294 64.2604 66.0743 63.0914C66.8547 61.9223 67.9655 61.0102 69.2663 60.4706C70.567 59.931 71.9992 59.7881 73.3815 60.06C74.7638 60.3318 76.034 61.0063 77.0315 61.9979C78.029 62.9896 78.7088 64.2539 78.9849 65.6307C79.261 67.0076 79.121 68.4351 78.5826 69.7326C78.0441 71.0302 77.1316 72.1393 75.9603 72.9198C74.789 73.7002 73.4117 74.1168 72.0028 74.1168C71.062 74.1168 70.1306 73.9311 69.2623 73.5703C68.394 73.2095 67.6061 72.6808 66.9441 72.0148C66.282 71.3488 65.7589 70.5586 65.4051 69.69C65.0513 68.8213 64.8737 67.8914 64.8826 66.9539V67.038ZM80.6752 51.6531L121.422 6.8268L137.468 32.2833L80.6752 51.6531Z" fill="#F2A428"/>
<path d="M69.4044 97.9591V118.994C69.3755 119.35 69.421 119.709 69.538 120.047C69.6551 120.385 69.8411 120.695 70.0845 120.958C70.3278 121.221 70.6231 121.43 70.9518 121.574C71.2805 121.717 71.6355 121.791 71.9943 121.791C72.3532 121.791 72.7081 121.717 73.0368 121.574C73.3655 121.43 73.6609 121.221 73.9042 120.958C74.1475 120.695 74.3335 120.385 74.4506 120.047C74.5676 119.709 74.6131 119.35 74.5842 118.994V97.9591C74.5317 97.3106 74.236 96.7055 73.7561 96.2644C73.2762 95.8232 72.6472 95.5782 71.9943 95.5782C71.3414 95.5782 70.7125 95.8232 70.2326 96.2644C69.7526 96.7055 69.457 97.3106 69.4044 97.9591Z" fill="#F2A428"/>
</svg>
