<svg width="580" height="336" viewBox="0 0 580 336" fill="none" xmlns="http://www.w3.org/2000/svg">
<rect y="39" width="260" height="56" rx="28" fill="#01348D"/>
<path d="M13.584 19.512H4.224L2.208 24H0.36L8.04 7.2H9.792L17.472 24H15.6L13.584 19.512ZM12.936 18.072L8.904 9.048L4.872 18.072H12.936ZM19.3234 11.376H21.0274V16.968H28.9714V11.376H30.6754V24H28.9714V18.432H21.0274V24H19.3234V11.376ZM43.4867 12.888H36.2627V24H34.5587V11.376H43.4867V12.888ZM54.5359 11.376V24H52.8319V12.888H46.7839L46.6159 16.008C46.4879 18.632 46.1839 20.648 45.7039 22.056C45.2239 23.464 44.3679 24.168 43.1359 24.168C42.7999 24.168 42.3919 24.104 41.9119 23.976L42.0319 22.512C42.3199 22.576 42.5199 22.608 42.6319 22.608C43.2879 22.608 43.7839 22.304 44.1199 21.696C44.4559 21.088 44.6799 20.336 44.7919 19.44C44.9039 18.544 44.9999 17.36 45.0799 15.888L45.2959 11.376H54.5359ZM58.4199 11.376H60.1239V21.408L68.5479 11.376H70.0599V24H68.3559V13.968L59.9559 24H58.4199V11.376ZM73.9834 11.376H75.6874V21.408L84.1114 11.376H85.6234V24H83.9194V13.968L75.5194 24H73.9834V11.376ZM79.7194 9.552C78.6314 9.552 77.7674 9.28 77.1274 8.736C76.4874 8.192 76.1594 7.424 76.1434 6.432H77.3674C77.3834 7.056 77.6074 7.56 78.0394 7.944C78.4714 8.312 79.0314 8.496 79.7194 8.496C80.4074 8.496 80.9674 8.312 81.3994 7.944C81.8474 7.56 82.0794 7.056 82.0954 6.432H83.3194C83.3034 7.424 82.9674 8.192 82.3114 8.736C81.6714 9.28 80.8074 9.552 79.7194 9.552ZM94.8268 24.12C93.5788 24.12 92.4588 23.848 91.4668 23.304C90.4908 22.76 89.7228 22 89.1628 21.024C88.6028 20.032 88.3228 18.92 88.3228 17.688C88.3228 16.456 88.6028 15.352 89.1628 14.376C89.7228 13.4 90.4908 12.64 91.4668 12.096C92.4588 11.552 93.5788 11.28 94.8268 11.28C95.9148 11.28 96.8828 11.496 97.7308 11.928C98.5948 12.344 99.2748 12.96 99.7708 13.776L98.4988 14.64C98.0828 14.016 97.5548 13.552 96.9148 13.248C96.2748 12.928 95.5788 12.768 94.8268 12.768C93.9148 12.768 93.0908 12.976 92.3548 13.392C91.6348 13.792 91.0668 14.368 90.6508 15.12C90.2508 15.872 90.0508 16.728 90.0508 17.688C90.0508 18.664 90.2508 19.528 90.6508 20.28C91.0668 21.016 91.6348 21.592 92.3548 22.008C93.0908 22.408 93.9148 22.608 94.8268 22.608C95.5788 22.608 96.2748 22.456 96.9148 22.152C97.5548 21.848 98.0828 21.384 98.4988 20.76L99.7708 21.624C99.2748 22.44 98.5948 23.064 97.7308 23.496C96.8668 23.912 95.8988 24.12 94.8268 24.12ZM106.694 18.384H103.814V24H102.11V11.376H103.814V16.92H106.718L111.158 11.376H113.006L108.038 17.496L113.366 24H111.35L106.694 18.384ZM115.096 11.376H116.8V21.408L125.224 11.376H126.736V24H125.032V13.968L116.632 24H115.096V11.376ZM130.659 11.376H132.363V21.408L140.787 11.376H142.299V24H140.595V13.968L132.195 24H130.659V11.376ZM136.395 9.552C135.307 9.552 134.443 9.28 133.803 8.736C133.163 8.192 132.835 7.424 132.819 6.432H134.043C134.059 7.056 134.283 7.56 134.715 7.944C135.147 8.312 135.707 8.496 136.395 8.496C137.083 8.496 137.643 8.312 138.075 7.944C138.523 7.56 138.755 7.056 138.771 6.432H139.995C139.979 7.424 139.643 8.192 138.987 8.736C138.347 9.28 137.483 9.552 136.395 9.552ZM161.24 11.376V24H159.68V19.824H155.72H155.24L152.312 24H150.464L153.608 19.584C152.632 19.312 151.88 18.848 151.352 18.192C150.824 17.536 150.56 16.704 150.56 15.696C150.56 14.288 151.04 13.216 152 12.48C152.96 11.744 154.272 11.376 155.936 11.376H161.24ZM152.288 15.744C152.288 17.616 153.48 18.552 155.864 18.552H159.68V12.888H155.984C153.52 12.888 152.288 13.84 152.288 15.744ZM171.025 17.424C171.921 17.632 172.609 17.992 173.089 18.504C173.585 19.016 173.833 19.64 173.833 20.376C173.833 21.112 173.577 21.768 173.065 22.344C172.569 22.92 171.889 23.368 171.025 23.688C170.161 23.992 169.209 24.144 168.169 24.144C167.257 24.144 166.361 24.016 165.481 23.76C164.601 23.488 163.833 23.096 163.177 22.584L163.753 21.312C164.329 21.744 165.001 22.08 165.769 22.32C166.537 22.56 167.313 22.68 168.097 22.68C169.265 22.68 170.217 22.464 170.953 22.032C171.705 21.584 172.081 20.984 172.081 20.232C172.081 19.56 171.777 19.04 171.169 18.672C170.561 18.288 169.729 18.096 168.673 18.096H166.513V16.848H168.577C169.521 16.848 170.281 16.672 170.857 16.32C171.433 15.952 171.721 15.464 171.721 14.856C171.721 14.184 171.393 13.656 170.737 13.272C170.097 12.888 169.257 12.696 168.217 12.696C166.857 12.696 165.513 13.04 164.185 13.728L163.705 12.408C165.209 11.624 166.769 11.232 168.385 11.232C169.345 11.232 170.209 11.376 170.977 11.664C171.761 11.936 172.369 12.328 172.801 12.84C173.249 13.352 173.473 13.944 173.473 14.616C173.473 15.256 173.249 15.824 172.801 16.32C172.369 16.816 171.777 17.184 171.025 17.424ZM182.045 15.84C183.629 15.856 184.837 16.208 185.669 16.896C186.501 17.584 186.917 18.576 186.917 19.872C186.917 21.216 186.469 22.248 185.573 22.968C184.677 23.688 183.397 24.04 181.733 24.024L176.741 24V11.376H178.445V15.792L182.045 15.84ZM189.029 11.376H190.733V24H189.029V11.376ZM181.637 22.728C182.805 22.744 183.685 22.512 184.277 22.032C184.885 21.536 185.189 20.816 185.189 19.872C185.189 18.944 184.893 18.256 184.301 17.808C183.709 17.36 182.821 17.128 181.637 17.112L178.445 17.064V22.68L181.637 22.728ZM199.209 18.384H196.329V24H194.625V11.376H196.329V16.92H199.233L203.673 11.376H205.521L200.553 17.496L205.881 24H203.865L199.209 18.384Z" fill="#555555"/>
<path d="M21.664 66.088C24.096 66.088 25.864 66.528 26.968 67.408C28.088 68.272 28.648 69.488 28.648 71.056C28.648 72.032 28.416 72.904 27.952 73.672C27.504 74.44 26.824 75.048 25.912 75.496C25 75.928 23.88 76.144 22.552 76.144C21.352 76.144 20.208 75.952 19.12 75.568C18.048 75.168 17.184 74.64 16.528 73.984L17.368 72.616C17.928 73.192 18.664 73.664 19.576 74.032C20.488 74.384 21.472 74.56 22.528 74.56C23.92 74.56 24.992 74.248 25.744 73.624C26.512 73 26.896 72.168 26.896 71.128C26.896 69.976 26.464 69.104 25.6 68.512C24.752 67.92 23.312 67.624 21.28 67.624H17.704L18.568 59.2H27.76V60.736H20.08L19.504 66.088H21.664ZM42.499 63.688C43.667 63.688 44.707 63.952 45.619 64.48C46.547 64.992 47.267 65.72 47.779 66.664C48.291 67.592 48.547 68.656 48.547 69.856C48.547 71.088 48.275 72.184 47.731 73.144C47.203 74.088 46.459 74.824 45.499 75.352C44.539 75.88 43.435 76.144 42.187 76.144C40.091 76.144 38.467 75.408 37.315 73.936C36.163 72.464 35.587 70.432 35.587 67.84C35.587 65.136 36.099 63.064 37.123 61.624C38.163 60.184 39.779 59.208 41.971 58.696L47.635 57.4L47.923 58.96L42.595 60.184C40.787 60.584 39.459 61.296 38.611 62.32C37.763 63.328 37.299 64.824 37.219 66.808C37.731 65.832 38.443 65.072 39.355 64.528C40.267 63.968 41.315 63.688 42.499 63.688ZM42.235 74.728C43.115 74.728 43.899 74.528 44.587 74.128C45.291 73.712 45.835 73.136 46.219 72.4C46.619 71.664 46.819 70.832 46.819 69.904C46.819 68.976 46.627 68.16 46.243 67.456C45.859 66.752 45.315 66.208 44.611 65.824C43.923 65.424 43.131 65.224 42.235 65.224C41.339 65.224 40.539 65.424 39.835 65.824C39.147 66.208 38.603 66.752 38.203 67.456C37.819 68.16 37.627 68.976 37.627 69.904C37.627 70.832 37.819 71.664 38.203 72.4C38.603 73.136 39.155 73.712 39.859 74.128C40.563 74.528 41.355 74.728 42.235 74.728ZM55.513 63.28C57.161 63.28 58.425 63.696 59.305 64.528C60.185 65.344 60.625 66.56 60.625 68.176V76H58.993V74.032C58.609 74.688 58.041 75.2 57.289 75.568C56.553 75.936 55.673 76.12 54.649 76.12C53.241 76.12 52.121 75.784 51.289 75.112C50.457 74.44 50.041 73.552 50.041 72.448C50.041 71.376 50.425 70.512 51.193 69.856C51.977 69.2 53.217 68.872 54.913 68.872H58.921V68.104C58.921 67.016 58.617 66.192 58.009 65.632C57.401 65.056 56.513 64.768 55.345 64.768C54.545 64.768 53.777 64.904 53.041 65.176C52.305 65.432 51.673 65.792 51.145 66.256L50.377 64.984C51.017 64.44 51.785 64.024 52.681 63.736C53.577 63.432 54.521 63.28 55.513 63.28ZM54.913 74.776C55.873 74.776 56.697 74.56 57.385 74.128C58.073 73.68 58.585 73.04 58.921 72.208V70.144H54.961C52.801 70.144 51.721 70.896 51.721 72.4C51.721 73.136 52.001 73.72 52.561 74.152C53.121 74.568 53.905 74.776 54.913 74.776ZM74.5212 63.376V76H72.8172V64.888H66.7692L66.6012 68.008C66.4732 70.632 66.1692 72.648 65.6892 74.056C65.2092 75.464 64.3532 76.168 63.1212 76.168C62.7852 76.168 62.3772 76.104 61.8972 75.976L62.0172 74.512C62.3052 74.576 62.5052 74.608 62.6172 74.608C63.2732 74.608 63.7692 74.304 64.1052 73.696C64.4412 73.088 64.6652 72.336 64.7772 71.44C64.8892 70.544 64.9852 69.36 65.0652 67.888L65.2812 63.376H74.5212ZM88.7253 63.376V76H87.0213V64.888H80.9733L80.8053 68.008C80.6773 70.632 80.3733 72.648 79.8933 74.056C79.4133 75.464 78.5573 76.168 77.3253 76.168C76.9893 76.168 76.5813 76.104 76.1013 75.976L76.2213 74.512C76.5093 74.576 76.7093 74.608 76.8213 74.608C77.4773 74.608 77.9733 74.304 78.3093 73.696C78.6453 73.088 78.8693 72.336 78.9813 71.44C79.0933 70.544 79.1893 69.36 79.2693 67.888L79.4853 63.376H88.7253ZM97.8173 76.12C96.6013 76.12 95.5053 75.848 94.5293 75.304C93.5533 74.744 92.7853 73.976 92.2253 73C91.6653 72.024 91.3853 70.92 91.3853 69.688C91.3853 68.456 91.6653 67.352 92.2253 66.376C92.7853 65.4 93.5533 64.64 94.5293 64.096C95.5053 63.552 96.6013 63.28 97.8173 63.28C99.0333 63.28 100.129 63.552 101.105 64.096C102.081 64.64 102.841 65.4 103.385 66.376C103.945 67.352 104.225 68.456 104.225 69.688C104.225 70.92 103.945 72.024 103.385 73C102.841 73.976 102.081 74.744 101.105 75.304C100.129 75.848 99.0333 76.12 97.8173 76.12ZM97.8173 74.608C98.7133 74.608 99.5133 74.408 100.217 74.008C100.937 73.592 101.497 73.008 101.897 72.256C102.297 71.504 102.497 70.648 102.497 69.688C102.497 68.728 102.297 67.872 101.897 67.12C101.497 66.368 100.937 65.792 100.217 65.392C99.5133 64.976 98.7133 64.768 97.8173 64.768C96.9213 64.768 96.1133 64.976 95.3933 65.392C94.6893 65.792 94.1293 66.368 93.7133 67.12C93.3133 67.872 93.1133 68.728 93.1133 69.688C93.1133 70.648 93.3133 71.504 93.7133 72.256C94.1293 73.008 94.6893 73.592 95.3933 74.008C96.1133 74.408 96.9213 74.608 97.8173 74.608ZM114.947 69.472C116.659 69.872 117.515 70.904 117.515 72.568C117.515 73.672 117.107 74.52 116.291 75.112C115.475 75.704 114.259 76 112.643 76H106.907V63.376H112.475C113.915 63.376 115.043 63.656 115.859 64.216C116.675 64.776 117.083 65.576 117.083 66.616C117.083 67.304 116.891 67.896 116.507 68.392C116.139 68.872 115.619 69.232 114.947 69.472ZM108.563 68.992H112.355C113.331 68.992 114.075 68.808 114.587 68.44C115.115 68.072 115.379 67.536 115.379 66.832C115.379 66.128 115.115 65.6 114.587 65.248C114.075 64.896 113.331 64.72 112.355 64.72H108.563V68.992ZM112.571 74.656C113.659 74.656 114.475 74.48 115.019 74.128C115.563 73.776 115.835 73.224 115.835 72.472C115.835 71.72 115.587 71.168 115.091 70.816C114.595 70.448 113.811 70.264 112.739 70.264H108.563V74.656H112.571Z" fill="white"/>
<rect x="316" y="39" width="260" height="56" rx="28" fill="#01348D"/>
<path d="M336.808 15.576C336.808 17.8 336.016 19.552 334.432 20.832C332.864 22.096 330.664 22.768 327.832 22.848V24.576H326.176V22.848C323.344 22.752 321.136 22.072 319.552 20.808C317.984 19.544 317.2 17.8 317.2 15.576C317.2 13.352 317.984 11.608 319.552 10.344C321.136 9.08 323.344 8.4 326.176 8.304V6.624H327.832V8.304C330.648 8.4 332.848 9.088 334.432 10.368C336.016 11.632 336.808 13.368 336.808 15.576ZM327.832 21.432C330.152 21.336 331.944 20.784 333.208 19.776C334.472 18.768 335.104 17.368 335.104 15.576C335.104 13.784 334.464 12.384 333.184 11.376C331.92 10.368 330.136 9.824 327.832 9.744V21.432ZM318.904 15.576C318.904 17.368 319.536 18.768 320.8 19.776C322.08 20.768 323.872 21.32 326.176 21.432V9.744C323.84 9.84 322.04 10.392 320.776 11.4C319.528 12.392 318.904 13.784 318.904 15.576ZM339.472 11.376H341.176V21.408L349.6 11.376H351.112V24H349.408V13.968L341.008 24H339.472V11.376ZM360.921 17.424C361.817 17.632 362.505 17.992 362.985 18.504C363.481 19.016 363.729 19.64 363.729 20.376C363.729 21.112 363.473 21.768 362.961 22.344C362.465 22.92 361.785 23.368 360.921 23.688C360.057 23.992 359.105 24.144 358.065 24.144C357.153 24.144 356.257 24.016 355.377 23.76C354.497 23.488 353.729 23.096 353.073 22.584L353.649 21.312C354.225 21.744 354.897 22.08 355.665 22.32C356.433 22.56 357.209 22.68 357.993 22.68C359.161 22.68 360.113 22.464 360.849 22.032C361.601 21.584 361.977 20.984 361.977 20.232C361.977 19.56 361.673 19.04 361.065 18.672C360.457 18.288 359.625 18.096 358.569 18.096H356.409V16.848H358.473C359.417 16.848 360.177 16.672 360.753 16.32C361.329 15.952 361.617 15.464 361.617 14.856C361.617 14.184 361.289 13.656 360.633 13.272C359.993 12.888 359.153 12.696 358.113 12.696C356.753 12.696 355.409 13.04 354.081 13.728L353.601 12.408C355.105 11.624 356.665 11.232 358.281 11.232C359.241 11.232 360.105 11.376 360.873 11.664C361.657 11.936 362.265 12.328 362.697 12.84C363.145 13.352 363.369 13.944 363.369 14.616C363.369 15.256 363.145 15.824 362.697 16.32C362.265 16.816 361.673 17.184 360.921 17.424ZM366.638 11.376H368.342V21.408L376.766 11.376H378.278V24H376.574V13.968L368.174 24H366.638V11.376ZM386.785 18.384H383.905V24H382.201V11.376H383.905V16.92H386.809L391.249 11.376H393.097L388.129 17.496L393.457 24H391.441L386.785 18.384ZM399.296 11.28C400.944 11.28 402.208 11.696 403.088 12.528C403.968 13.344 404.408 14.56 404.408 16.176V24H402.776V22.032C402.392 22.688 401.824 23.2 401.072 23.568C400.336 23.936 399.456 24.12 398.432 24.12C397.024 24.12 395.904 23.784 395.072 23.112C394.24 22.44 393.824 21.552 393.824 20.448C393.824 19.376 394.208 18.512 394.976 17.856C395.76 17.2 397 16.872 398.696 16.872H402.704V16.104C402.704 15.016 402.4 14.192 401.792 13.632C401.184 13.056 400.296 12.768 399.128 12.768C398.328 12.768 397.56 12.904 396.824 13.176C396.088 13.432 395.456 13.792 394.928 14.256L394.16 12.984C394.8 12.44 395.568 12.024 396.464 11.736C397.36 11.432 398.304 11.28 399.296 11.28ZM398.696 22.776C399.656 22.776 400.48 22.56 401.168 22.128C401.856 21.68 402.368 21.04 402.704 20.208V18.144H398.744C396.584 18.144 395.504 18.896 395.504 20.4C395.504 21.136 395.784 21.72 396.344 22.152C396.904 22.568 397.688 22.776 398.696 22.776Z" fill="#555555"/>
<path d="M337.664 66.088C340.096 66.088 341.864 66.528 342.968 67.408C344.088 68.272 344.648 69.488 344.648 71.056C344.648 72.032 344.416 72.904 343.952 73.672C343.504 74.44 342.824 75.048 341.912 75.496C341 75.928 339.88 76.144 338.552 76.144C337.352 76.144 336.208 75.952 335.12 75.568C334.048 75.168 333.184 74.64 332.528 73.984L333.368 72.616C333.928 73.192 334.664 73.664 335.576 74.032C336.488 74.384 337.472 74.56 338.528 74.56C339.92 74.56 340.992 74.248 341.744 73.624C342.512 73 342.896 72.168 342.896 71.128C342.896 69.976 342.464 69.104 341.6 68.512C340.752 67.92 339.312 67.624 337.28 67.624H333.704L334.568 59.2H343.76V60.736H336.08L335.504 66.088H337.664ZM358.499 63.688C359.667 63.688 360.707 63.952 361.619 64.48C362.547 64.992 363.267 65.72 363.779 66.664C364.291 67.592 364.547 68.656 364.547 69.856C364.547 71.088 364.275 72.184 363.731 73.144C363.203 74.088 362.459 74.824 361.499 75.352C360.539 75.88 359.435 76.144 358.187 76.144C356.091 76.144 354.467 75.408 353.315 73.936C352.163 72.464 351.587 70.432 351.587 67.84C351.587 65.136 352.099 63.064 353.123 61.624C354.163 60.184 355.779 59.208 357.971 58.696L363.635 57.4L363.923 58.96L358.595 60.184C356.787 60.584 355.459 61.296 354.611 62.32C353.763 63.328 353.299 64.824 353.219 66.808C353.731 65.832 354.443 65.072 355.355 64.528C356.267 63.968 357.315 63.688 358.499 63.688ZM358.235 74.728C359.115 74.728 359.899 74.528 360.587 74.128C361.291 73.712 361.835 73.136 362.219 72.4C362.619 71.664 362.819 70.832 362.819 69.904C362.819 68.976 362.627 68.16 362.243 67.456C361.859 66.752 361.315 66.208 360.611 65.824C359.923 65.424 359.131 65.224 358.235 65.224C357.339 65.224 356.539 65.424 355.835 65.824C355.147 66.208 354.603 66.752 354.203 67.456C353.819 68.16 353.627 68.976 353.627 69.904C353.627 70.832 353.819 71.664 354.203 72.4C354.603 73.136 355.155 73.712 355.859 74.128C356.563 74.528 357.355 74.728 358.235 74.728ZM371.513 63.28C373.161 63.28 374.425 63.696 375.305 64.528C376.185 65.344 376.625 66.56 376.625 68.176V76H374.993V74.032C374.609 74.688 374.041 75.2 373.289 75.568C372.553 75.936 371.673 76.12 370.649 76.12C369.241 76.12 368.121 75.784 367.289 75.112C366.457 74.44 366.041 73.552 366.041 72.448C366.041 71.376 366.425 70.512 367.193 69.856C367.977 69.2 369.217 68.872 370.913 68.872H374.921V68.104C374.921 67.016 374.617 66.192 374.009 65.632C373.401 65.056 372.513 64.768 371.345 64.768C370.545 64.768 369.777 64.904 369.041 65.176C368.305 65.432 367.673 65.792 367.145 66.256L366.377 64.984C367.017 64.44 367.785 64.024 368.681 63.736C369.577 63.432 370.521 63.28 371.513 63.28ZM370.913 74.776C371.873 74.776 372.697 74.56 373.385 74.128C374.073 73.68 374.585 73.04 374.921 72.208V70.144H370.961C368.801 70.144 367.721 70.896 367.721 72.4C367.721 73.136 368.001 73.72 368.561 74.152C369.121 74.568 369.905 74.776 370.913 74.776ZM390.521 63.376V76H388.817V64.888H382.769L382.601 68.008C382.473 70.632 382.169 72.648 381.689 74.056C381.209 75.464 380.353 76.168 379.121 76.168C378.785 76.168 378.377 76.104 377.897 75.976L378.017 74.512C378.305 74.576 378.505 74.608 378.617 74.608C379.273 74.608 379.769 74.304 380.105 73.696C380.441 73.088 380.665 72.336 380.777 71.44C380.889 70.544 380.985 69.36 381.065 67.888L381.281 63.376H390.521ZM404.725 63.376V76H403.021V64.888H396.973L396.805 68.008C396.677 70.632 396.373 72.648 395.893 74.056C395.413 75.464 394.557 76.168 393.325 76.168C392.989 76.168 392.581 76.104 392.101 75.976L392.221 74.512C392.509 74.576 392.709 74.608 392.821 74.608C393.477 74.608 393.973 74.304 394.309 73.696C394.645 73.088 394.869 72.336 394.981 71.44C395.093 70.544 395.189 69.36 395.269 67.888L395.485 63.376H404.725ZM413.817 76.12C412.601 76.12 411.505 75.848 410.529 75.304C409.553 74.744 408.785 73.976 408.225 73C407.665 72.024 407.385 70.92 407.385 69.688C407.385 68.456 407.665 67.352 408.225 66.376C408.785 65.4 409.553 64.64 410.529 64.096C411.505 63.552 412.601 63.28 413.817 63.28C415.033 63.28 416.129 63.552 417.105 64.096C418.081 64.64 418.841 65.4 419.385 66.376C419.945 67.352 420.225 68.456 420.225 69.688C420.225 70.92 419.945 72.024 419.385 73C418.841 73.976 418.081 74.744 417.105 75.304C416.129 75.848 415.033 76.12 413.817 76.12ZM413.817 74.608C414.713 74.608 415.513 74.408 416.217 74.008C416.937 73.592 417.497 73.008 417.897 72.256C418.297 71.504 418.497 70.648 418.497 69.688C418.497 68.728 418.297 67.872 417.897 67.12C417.497 66.368 416.937 65.792 416.217 65.392C415.513 64.976 414.713 64.768 413.817 64.768C412.921 64.768 412.113 64.976 411.393 65.392C410.689 65.792 410.129 66.368 409.713 67.12C409.313 67.872 409.113 68.728 409.113 69.688C409.113 70.648 409.313 71.504 409.713 72.256C410.129 73.008 410.689 73.592 411.393 74.008C412.113 74.408 412.921 74.608 413.817 74.608ZM430.947 69.472C432.659 69.872 433.515 70.904 433.515 72.568C433.515 73.672 433.107 74.52 432.291 75.112C431.475 75.704 430.259 76 428.643 76H422.907V63.376H428.475C429.915 63.376 431.043 63.656 431.859 64.216C432.675 64.776 433.083 65.576 433.083 66.616C433.083 67.304 432.891 67.896 432.507 68.392C432.139 68.872 431.619 69.232 430.947 69.472ZM424.563 68.992H428.355C429.331 68.992 430.075 68.808 430.587 68.44C431.115 68.072 431.379 67.536 431.379 66.832C431.379 66.128 431.115 65.6 430.587 65.248C430.075 64.896 429.331 64.72 428.355 64.72H424.563V68.992ZM428.571 74.656C429.659 74.656 430.475 74.48 431.019 74.128C431.563 73.776 431.835 73.224 431.835 72.472C431.835 71.72 431.587 71.168 431.091 70.816C430.595 70.448 429.811 70.264 428.739 70.264H424.563V74.656H428.571Z" fill="white"/>
<rect x="316" y="158" width="260" height="56" rx="28" fill="#01348D"/>
<path d="M332.008 126.2V143H330.256V127.736H322.144L321.952 133.352C321.872 135.672 321.68 137.544 321.376 138.968C321.088 140.376 320.64 141.432 320.032 142.136C319.424 142.824 318.616 143.168 317.608 143.168C317.176 143.168 316.728 143.112 316.264 143L316.408 141.416C316.68 141.48 316.944 141.512 317.2 141.512C317.904 141.512 318.472 141.232 318.904 140.672C319.352 140.112 319.688 139.248 319.912 138.08C320.136 136.896 320.288 135.336 320.368 133.4L320.608 126.2H332.008ZM336.308 130.376H338.012V140.408L346.436 130.376H347.948V143H346.244V132.968L337.844 143H336.308V130.376ZM360.751 131.888H355.975V143H354.271V131.888H349.495V130.376H360.751V131.888ZM372.709 137.216H362.149C362.245 138.528 362.749 139.592 363.661 140.408C364.573 141.208 365.725 141.608 367.117 141.608C367.901 141.608 368.621 141.472 369.277 141.2C369.933 140.912 370.501 140.496 370.981 139.952L371.941 141.056C371.381 141.728 370.677 142.24 369.829 142.592C368.997 142.944 368.077 143.12 367.069 143.12C365.773 143.12 364.621 142.848 363.613 142.304C362.621 141.744 361.845 140.976 361.285 140C360.725 139.024 360.445 137.92 360.445 136.688C360.445 135.456 360.709 134.352 361.237 133.376C361.781 132.4 362.517 131.64 363.445 131.096C364.389 130.552 365.445 130.28 366.613 130.28C367.781 130.28 368.829 130.552 369.757 131.096C370.685 131.64 371.413 132.4 371.941 133.376C372.469 134.336 372.733 135.44 372.733 136.688L372.709 137.216ZM366.613 131.744C365.397 131.744 364.373 132.136 363.541 132.92C362.725 133.688 362.261 134.696 362.149 135.944H371.101C370.989 134.696 370.517 133.688 369.685 132.92C368.869 132.136 367.845 131.744 366.613 131.744ZM382.049 130.28C383.233 130.28 384.305 130.552 385.265 131.096C386.225 131.624 386.977 132.376 387.521 133.352C388.065 134.328 388.337 135.44 388.337 136.688C388.337 137.952 388.065 139.072 387.521 140.048C386.977 141.024 386.225 141.784 385.265 142.328C384.321 142.856 383.249 143.12 382.049 143.12C381.025 143.12 380.097 142.912 379.265 142.496C378.449 142.064 377.777 141.44 377.249 140.624V147.656H375.545V130.376H377.177V132.872C377.689 132.04 378.361 131.4 379.193 130.952C380.041 130.504 380.993 130.28 382.049 130.28ZM381.929 141.608C382.809 141.608 383.609 141.408 384.329 141.008C385.049 140.592 385.609 140.008 386.009 139.256C386.425 138.504 386.633 137.648 386.633 136.688C386.633 135.728 386.425 134.88 386.009 134.144C385.609 133.392 385.049 132.808 384.329 132.392C383.609 131.976 382.809 131.768 381.929 131.768C381.033 131.768 380.225 131.976 379.505 132.392C378.801 132.808 378.241 133.392 377.825 134.144C377.425 134.88 377.225 135.728 377.225 136.688C377.225 137.648 377.425 138.504 377.825 139.256C378.241 140.008 378.801 140.592 379.505 141.008C380.225 141.408 381.033 141.608 381.929 141.608ZM395.312 130.28C396.96 130.28 398.224 130.696 399.104 131.528C399.984 132.344 400.424 133.56 400.424 135.176V143H398.792V141.032C398.408 141.688 397.84 142.2 397.088 142.568C396.352 142.936 395.472 143.12 394.448 143.12C393.04 143.12 391.92 142.784 391.088 142.112C390.256 141.44 389.84 140.552 389.84 139.448C389.84 138.376 390.224 137.512 390.992 136.856C391.776 136.2 393.016 135.872 394.712 135.872H398.72V135.104C398.72 134.016 398.416 133.192 397.808 132.632C397.2 132.056 396.312 131.768 395.144 131.768C394.344 131.768 393.576 131.904 392.84 132.176C392.104 132.432 391.472 132.792 390.944 133.256L390.176 131.984C390.816 131.44 391.584 131.024 392.48 130.736C393.376 130.432 394.32 130.28 395.312 130.28ZM394.712 141.776C395.672 141.776 396.496 141.56 397.184 141.128C397.872 140.68 398.384 140.04 398.72 139.208V137.144H394.76C392.6 137.144 391.52 137.896 391.52 139.4C391.52 140.136 391.8 140.72 392.36 141.152C392.92 141.568 393.704 141.776 394.712 141.776ZM412.88 131.888H408.104V143H406.4V131.888H401.624V130.376H412.88V131.888ZM425.159 130.376L418.847 144.512C418.335 145.696 417.743 146.536 417.071 147.032C416.399 147.528 415.591 147.776 414.647 147.776C414.039 147.776 413.471 147.68 412.943 147.488C412.415 147.296 411.959 147.008 411.575 146.624L412.367 145.352C413.007 145.992 413.775 146.312 414.671 146.312C415.247 146.312 415.735 146.152 416.135 145.832C416.551 145.512 416.935 144.968 417.287 144.2L417.839 142.976L412.199 130.376H413.975L418.727 141.104L423.479 130.376H425.159ZM433.357 130.28C434.541 130.28 435.613 130.552 436.573 131.096C437.533 131.624 438.285 132.376 438.829 133.352C439.373 134.328 439.645 135.44 439.645 136.688C439.645 137.952 439.373 139.072 438.829 140.048C438.285 141.024 437.533 141.784 436.573 142.328C435.629 142.856 434.557 143.12 433.357 143.12C432.333 143.12 431.405 142.912 430.573 142.496C429.757 142.064 429.085 141.44 428.557 140.624V147.656H426.853V130.376H428.485V132.872C428.997 132.04 429.669 131.4 430.501 130.952C431.349 130.504 432.301 130.28 433.357 130.28ZM433.237 141.608C434.117 141.608 434.917 141.408 435.637 141.008C436.357 140.592 436.917 140.008 437.317 139.256C437.733 138.504 437.941 137.648 437.941 136.688C437.941 135.728 437.733 134.88 437.317 134.144C436.917 133.392 436.357 132.808 435.637 132.392C434.917 131.976 434.117 131.768 433.237 131.768C432.341 131.768 431.533 131.976 430.813 132.392C430.109 132.808 429.549 133.392 429.133 134.144C428.733 134.88 428.533 135.728 428.533 136.688C428.533 137.648 428.733 138.504 429.133 139.256C429.549 140.008 430.109 140.592 430.813 141.008C431.533 141.408 432.341 141.608 433.237 141.608ZM446.62 130.28C448.268 130.28 449.532 130.696 450.412 131.528C451.292 132.344 451.732 133.56 451.732 135.176V143H450.1V141.032C449.716 141.688 449.148 142.2 448.396 142.568C447.66 142.936 446.78 143.12 445.756 143.12C444.348 143.12 443.228 142.784 442.396 142.112C441.564 141.44 441.148 140.552 441.148 139.448C441.148 138.376 441.532 137.512 442.3 136.856C443.084 136.2 444.324 135.872 446.02 135.872H450.028V135.104C450.028 134.016 449.724 133.192 449.116 132.632C448.508 132.056 447.62 131.768 446.452 131.768C445.652 131.768 444.884 131.904 444.148 132.176C443.412 132.432 442.78 132.792 442.252 133.256L441.484 131.984C442.124 131.44 442.892 131.024 443.788 130.736C444.684 130.432 445.628 130.28 446.62 130.28ZM446.02 141.776C446.98 141.776 447.804 141.56 448.492 141.128C449.18 140.68 449.692 140.04 450.028 139.208V137.144H446.068C443.908 137.144 442.828 137.896 442.828 139.4C442.828 140.136 443.108 140.72 443.668 141.152C444.228 141.568 445.012 141.776 446.02 141.776Z" fill="#555555"/>
<path d="M337.664 185.088C340.096 185.088 341.864 185.528 342.968 186.408C344.088 187.272 344.648 188.488 344.648 190.056C344.648 191.032 344.416 191.904 343.952 192.672C343.504 193.44 342.824 194.048 341.912 194.496C341 194.928 339.88 195.144 338.552 195.144C337.352 195.144 336.208 194.952 335.12 194.568C334.048 194.168 333.184 193.64 332.528 192.984L333.368 191.616C333.928 192.192 334.664 192.664 335.576 193.032C336.488 193.384 337.472 193.56 338.528 193.56C339.92 193.56 340.992 193.248 341.744 192.624C342.512 192 342.896 191.168 342.896 190.128C342.896 188.976 342.464 188.104 341.6 187.512C340.752 186.92 339.312 186.624 337.28 186.624H333.704L334.568 178.2H343.76V179.736H336.08L335.504 185.088H337.664ZM358.499 182.688C359.667 182.688 360.707 182.952 361.619 183.48C362.547 183.992 363.267 184.72 363.779 185.664C364.291 186.592 364.547 187.656 364.547 188.856C364.547 190.088 364.275 191.184 363.731 192.144C363.203 193.088 362.459 193.824 361.499 194.352C360.539 194.88 359.435 195.144 358.187 195.144C356.091 195.144 354.467 194.408 353.315 192.936C352.163 191.464 351.587 189.432 351.587 186.84C351.587 184.136 352.099 182.064 353.123 180.624C354.163 179.184 355.779 178.208 357.971 177.696L363.635 176.4L363.923 177.96L358.595 179.184C356.787 179.584 355.459 180.296 354.611 181.32C353.763 182.328 353.299 183.824 353.219 185.808C353.731 184.832 354.443 184.072 355.355 183.528C356.267 182.968 357.315 182.688 358.499 182.688ZM358.235 193.728C359.115 193.728 359.899 193.528 360.587 193.128C361.291 192.712 361.835 192.136 362.219 191.4C362.619 190.664 362.819 189.832 362.819 188.904C362.819 187.976 362.627 187.16 362.243 186.456C361.859 185.752 361.315 185.208 360.611 184.824C359.923 184.424 359.131 184.224 358.235 184.224C357.339 184.224 356.539 184.424 355.835 184.824C355.147 185.208 354.603 185.752 354.203 186.456C353.819 187.16 353.627 187.976 353.627 188.904C353.627 189.832 353.819 190.664 354.203 191.4C354.603 192.136 355.155 192.712 355.859 193.128C356.563 193.528 357.355 193.728 358.235 193.728ZM371.513 182.28C373.161 182.28 374.425 182.696 375.305 183.528C376.185 184.344 376.625 185.56 376.625 187.176V195H374.993V193.032C374.609 193.688 374.041 194.2 373.289 194.568C372.553 194.936 371.673 195.12 370.649 195.12C369.241 195.12 368.121 194.784 367.289 194.112C366.457 193.44 366.041 192.552 366.041 191.448C366.041 190.376 366.425 189.512 367.193 188.856C367.977 188.2 369.217 187.872 370.913 187.872H374.921V187.104C374.921 186.016 374.617 185.192 374.009 184.632C373.401 184.056 372.513 183.768 371.345 183.768C370.545 183.768 369.777 183.904 369.041 184.176C368.305 184.432 367.673 184.792 367.145 185.256L366.377 183.984C367.017 183.44 367.785 183.024 368.681 182.736C369.577 182.432 370.521 182.28 371.513 182.28ZM370.913 193.776C371.873 193.776 372.697 193.56 373.385 193.128C374.073 192.68 374.585 192.04 374.921 191.208V189.144H370.961C368.801 189.144 367.721 189.896 367.721 191.4C367.721 192.136 368.001 192.72 368.561 193.152C369.121 193.568 369.905 193.776 370.913 193.776ZM390.521 182.376V195H388.817V183.888H382.769L382.601 187.008C382.473 189.632 382.169 191.648 381.689 193.056C381.209 194.464 380.353 195.168 379.121 195.168C378.785 195.168 378.377 195.104 377.897 194.976L378.017 193.512C378.305 193.576 378.505 193.608 378.617 193.608C379.273 193.608 379.769 193.304 380.105 192.696C380.441 192.088 380.665 191.336 380.777 190.44C380.889 189.544 380.985 188.36 381.065 186.888L381.281 182.376H390.521ZM404.725 182.376V195H403.021V183.888H396.973L396.805 187.008C396.677 189.632 396.373 191.648 395.893 193.056C395.413 194.464 394.557 195.168 393.325 195.168C392.989 195.168 392.581 195.104 392.101 194.976L392.221 193.512C392.509 193.576 392.709 193.608 392.821 193.608C393.477 193.608 393.973 193.304 394.309 192.696C394.645 192.088 394.869 191.336 394.981 190.44C395.093 189.544 395.189 188.36 395.269 186.888L395.485 182.376H404.725ZM413.817 195.12C412.601 195.12 411.505 194.848 410.529 194.304C409.553 193.744 408.785 192.976 408.225 192C407.665 191.024 407.385 189.92 407.385 188.688C407.385 187.456 407.665 186.352 408.225 185.376C408.785 184.4 409.553 183.64 410.529 183.096C411.505 182.552 412.601 182.28 413.817 182.28C415.033 182.28 416.129 182.552 417.105 183.096C418.081 183.64 418.841 184.4 419.385 185.376C419.945 186.352 420.225 187.456 420.225 188.688C420.225 189.92 419.945 191.024 419.385 192C418.841 192.976 418.081 193.744 417.105 194.304C416.129 194.848 415.033 195.12 413.817 195.12ZM413.817 193.608C414.713 193.608 415.513 193.408 416.217 193.008C416.937 192.592 417.497 192.008 417.897 191.256C418.297 190.504 418.497 189.648 418.497 188.688C418.497 187.728 418.297 186.872 417.897 186.12C417.497 185.368 416.937 184.792 416.217 184.392C415.513 183.976 414.713 183.768 413.817 183.768C412.921 183.768 412.113 183.976 411.393 184.392C410.689 184.792 410.129 185.368 409.713 186.12C409.313 186.872 409.113 187.728 409.113 188.688C409.113 189.648 409.313 190.504 409.713 191.256C410.129 192.008 410.689 192.592 411.393 193.008C412.113 193.408 412.921 193.608 413.817 193.608ZM430.947 188.472C432.659 188.872 433.515 189.904 433.515 191.568C433.515 192.672 433.107 193.52 432.291 194.112C431.475 194.704 430.259 195 428.643 195H422.907V182.376H428.475C429.915 182.376 431.043 182.656 431.859 183.216C432.675 183.776 433.083 184.576 433.083 185.616C433.083 186.304 432.891 186.896 432.507 187.392C432.139 187.872 431.619 188.232 430.947 188.472ZM424.563 187.992H428.355C429.331 187.992 430.075 187.808 430.587 187.44C431.115 187.072 431.379 186.536 431.379 185.832C431.379 185.128 431.115 184.6 430.587 184.248C430.075 183.896 429.331 183.72 428.355 183.72H424.563V187.992ZM428.571 193.656C429.659 193.656 430.475 193.48 431.019 193.128C431.563 192.776 431.835 192.224 431.835 191.472C431.835 190.72 431.587 190.168 431.091 189.816C430.595 189.448 429.811 189.264 428.739 189.264H424.563V193.656H428.571Z" fill="white"/>
<rect x="316" y="277" width="260" height="56" rx="28" fill="#01348D"/>
<path d="M318.832 245.2H331.12V246.712H320.584V252.208H326.08C328.064 252.208 329.568 252.616 330.592 253.432C331.632 254.248 332.152 255.432 332.152 256.984C332.152 258.6 331.592 259.84 330.472 260.704C329.368 261.568 327.776 262 325.696 262H318.832V245.2ZM325.672 260.584C327.224 260.584 328.392 260.288 329.176 259.696C329.976 259.104 330.376 258.224 330.376 257.056C330.376 255.904 329.984 255.048 329.2 254.488C328.432 253.912 327.256 253.624 325.672 253.624H320.584V260.584H325.672ZM334.902 249.376H336.606V259.408L345.03 249.376H346.542V262H344.838V251.968L336.438 262H334.902V249.376ZM355.673 262.12C354.457 262.12 353.361 261.848 352.385 261.304C351.409 260.744 350.641 259.976 350.081 259C349.521 258.024 349.241 256.92 349.241 255.688C349.241 254.456 349.521 253.352 350.081 252.376C350.641 251.4 351.409 250.64 352.385 250.096C353.361 249.552 354.457 249.28 355.673 249.28C356.889 249.28 357.985 249.552 358.961 250.096C359.937 250.64 360.697 251.4 361.241 252.376C361.801 253.352 362.081 254.456 362.081 255.688C362.081 256.92 361.801 258.024 361.241 259C360.697 259.976 359.937 260.744 358.961 261.304C357.985 261.848 356.889 262.12 355.673 262.12ZM355.673 260.608C356.569 260.608 357.369 260.408 358.073 260.008C358.793 259.592 359.353 259.008 359.753 258.256C360.153 257.504 360.353 256.648 360.353 255.688C360.353 254.728 360.153 253.872 359.753 253.12C359.353 252.368 358.793 251.792 358.073 251.392C357.369 250.976 356.569 250.768 355.673 250.768C354.777 250.768 353.969 250.976 353.249 251.392C352.545 251.792 351.985 252.368 351.569 253.12C351.169 253.872 350.969 254.728 350.969 255.688C350.969 256.648 351.169 257.504 351.569 258.256C351.985 259.008 352.545 259.592 353.249 260.008C353.969 260.408 354.777 260.608 355.673 260.608ZM375.012 249.376V262H373.308V250.888H367.26L367.092 254.008C366.964 256.632 366.66 258.648 366.18 260.056C365.7 261.464 364.844 262.168 363.612 262.168C363.276 262.168 362.868 262.104 362.388 261.976L362.508 260.512C362.796 260.576 362.996 260.608 363.108 260.608C363.764 260.608 364.26 260.304 364.596 259.696C364.932 259.088 365.156 258.336 365.268 257.44C365.38 256.544 365.476 255.36 365.556 253.888L365.772 249.376H375.012ZM384.105 262.12C382.889 262.12 381.793 261.848 380.817 261.304C379.84 260.744 379.072 259.976 378.512 259C377.952 258.024 377.672 256.92 377.672 255.688C377.672 254.456 377.952 253.352 378.512 252.376C379.072 251.4 379.84 250.64 380.817 250.096C381.793 249.552 382.889 249.28 384.105 249.28C385.321 249.28 386.417 249.552 387.393 250.096C388.369 250.64 389.129 251.4 389.673 252.376C390.233 253.352 390.513 254.456 390.513 255.688C390.513 256.92 390.233 258.024 389.673 259C389.129 259.976 388.369 260.744 387.393 261.304C386.417 261.848 385.321 262.12 384.105 262.12ZM384.105 260.608C385.001 260.608 385.801 260.408 386.505 260.008C387.225 259.592 387.785 259.008 388.185 258.256C388.585 257.504 388.785 256.648 388.785 255.688C388.785 254.728 388.585 253.872 388.185 253.12C387.785 252.368 387.225 251.792 386.505 251.392C385.801 250.976 385.001 250.768 384.105 250.768C383.209 250.768 382.401 250.976 381.681 251.392C380.977 251.792 380.416 252.368 380 253.12C379.6 253.872 379.401 254.728 379.401 255.688C379.401 256.648 379.6 257.504 380 258.256C380.416 259.008 380.977 259.592 381.681 260.008C382.401 260.408 383.209 260.608 384.105 260.608ZM402.122 250.888H394.898V262H393.194V249.376H402.122V250.888ZM403.625 249.376H405.329V259.408L413.753 249.376H415.265V262H413.561V251.968L405.161 262H403.625V249.376ZM428.884 249.376V262H427.324V257.824H423.364H422.884L419.956 262H418.108L421.252 257.584C420.276 257.312 419.524 256.848 418.996 256.192C418.468 255.536 418.204 254.704 418.204 253.696C418.204 252.288 418.684 251.216 419.644 250.48C420.604 249.744 421.916 249.376 423.58 249.376H428.884ZM419.932 253.744C419.932 255.616 421.124 256.552 423.508 256.552H427.324V250.888H423.628C421.164 250.888 419.932 251.84 419.932 253.744Z" fill="#555555"/>
<path d="M337.664 304.088C340.096 304.088 341.864 304.528 342.968 305.408C344.088 306.272 344.648 307.488 344.648 309.056C344.648 310.032 344.416 310.904 343.952 311.672C343.504 312.44 342.824 313.048 341.912 313.496C341 313.928 339.88 314.144 338.552 314.144C337.352 314.144 336.208 313.952 335.12 313.568C334.048 313.168 333.184 312.64 332.528 311.984L333.368 310.616C333.928 311.192 334.664 311.664 335.576 312.032C336.488 312.384 337.472 312.56 338.528 312.56C339.92 312.56 340.992 312.248 341.744 311.624C342.512 311 342.896 310.168 342.896 309.128C342.896 307.976 342.464 307.104 341.6 306.512C340.752 305.92 339.312 305.624 337.28 305.624H333.704L334.568 297.2H343.76V298.736H336.08L335.504 304.088H337.664ZM358.499 301.688C359.667 301.688 360.707 301.952 361.619 302.48C362.547 302.992 363.267 303.72 363.779 304.664C364.291 305.592 364.547 306.656 364.547 307.856C364.547 309.088 364.275 310.184 363.731 311.144C363.203 312.088 362.459 312.824 361.499 313.352C360.539 313.88 359.435 314.144 358.187 314.144C356.091 314.144 354.467 313.408 353.315 311.936C352.163 310.464 351.587 308.432 351.587 305.84C351.587 303.136 352.099 301.064 353.123 299.624C354.163 298.184 355.779 297.208 357.971 296.696L363.635 295.4L363.923 296.96L358.595 298.184C356.787 298.584 355.459 299.296 354.611 300.32C353.763 301.328 353.299 302.824 353.219 304.808C353.731 303.832 354.443 303.072 355.355 302.528C356.267 301.968 357.315 301.688 358.499 301.688ZM358.235 312.728C359.115 312.728 359.899 312.528 360.587 312.128C361.291 311.712 361.835 311.136 362.219 310.4C362.619 309.664 362.819 308.832 362.819 307.904C362.819 306.976 362.627 306.16 362.243 305.456C361.859 304.752 361.315 304.208 360.611 303.824C359.923 303.424 359.131 303.224 358.235 303.224C357.339 303.224 356.539 303.424 355.835 303.824C355.147 304.208 354.603 304.752 354.203 305.456C353.819 306.16 353.627 306.976 353.627 307.904C353.627 308.832 353.819 309.664 354.203 310.4C354.603 311.136 355.155 311.712 355.859 312.128C356.563 312.528 357.355 312.728 358.235 312.728ZM371.513 301.28C373.161 301.28 374.425 301.696 375.305 302.528C376.185 303.344 376.625 304.56 376.625 306.176V314H374.993V312.032C374.609 312.688 374.041 313.2 373.289 313.568C372.553 313.936 371.673 314.12 370.649 314.12C369.241 314.12 368.121 313.784 367.289 313.112C366.457 312.44 366.041 311.552 366.041 310.448C366.041 309.376 366.425 308.512 367.193 307.856C367.977 307.2 369.217 306.872 370.913 306.872H374.921V306.104C374.921 305.016 374.617 304.192 374.009 303.632C373.401 303.056 372.513 302.768 371.345 302.768C370.545 302.768 369.777 302.904 369.041 303.176C368.305 303.432 367.673 303.792 367.145 304.256L366.377 302.984C367.017 302.44 367.785 302.024 368.681 301.736C369.577 301.432 370.521 301.28 371.513 301.28ZM370.913 312.776C371.873 312.776 372.697 312.56 373.385 312.128C374.073 311.68 374.585 311.04 374.921 310.208V308.144H370.961C368.801 308.144 367.721 308.896 367.721 310.4C367.721 311.136 368.001 311.72 368.561 312.152C369.121 312.568 369.905 312.776 370.913 312.776ZM390.521 301.376V314H388.817V302.888H382.769L382.601 306.008C382.473 308.632 382.169 310.648 381.689 312.056C381.209 313.464 380.353 314.168 379.121 314.168C378.785 314.168 378.377 314.104 377.897 313.976L378.017 312.512C378.305 312.576 378.505 312.608 378.617 312.608C379.273 312.608 379.769 312.304 380.105 311.696C380.441 311.088 380.665 310.336 380.777 309.44C380.889 308.544 380.985 307.36 381.065 305.888L381.281 301.376H390.521ZM404.725 301.376V314H403.021V302.888H396.973L396.805 306.008C396.677 308.632 396.373 310.648 395.893 312.056C395.413 313.464 394.557 314.168 393.325 314.168C392.989 314.168 392.581 314.104 392.101 313.976L392.221 312.512C392.509 312.576 392.709 312.608 392.821 312.608C393.477 312.608 393.973 312.304 394.309 311.696C394.645 311.088 394.869 310.336 394.981 309.44C395.093 308.544 395.189 307.36 395.269 305.888L395.485 301.376H404.725ZM413.817 314.12C412.601 314.12 411.505 313.848 410.529 313.304C409.553 312.744 408.785 311.976 408.225 311C407.665 310.024 407.385 308.92 407.385 307.688C407.385 306.456 407.665 305.352 408.225 304.376C408.785 303.4 409.553 302.64 410.529 302.096C411.505 301.552 412.601 301.28 413.817 301.28C415.033 301.28 416.129 301.552 417.105 302.096C418.081 302.64 418.841 303.4 419.385 304.376C419.945 305.352 420.225 306.456 420.225 307.688C420.225 308.92 419.945 310.024 419.385 311C418.841 311.976 418.081 312.744 417.105 313.304C416.129 313.848 415.033 314.12 413.817 314.12ZM413.817 312.608C414.713 312.608 415.513 312.408 416.217 312.008C416.937 311.592 417.497 311.008 417.897 310.256C418.297 309.504 418.497 308.648 418.497 307.688C418.497 306.728 418.297 305.872 417.897 305.12C417.497 304.368 416.937 303.792 416.217 303.392C415.513 302.976 414.713 302.768 413.817 302.768C412.921 302.768 412.113 302.976 411.393 303.392C410.689 303.792 410.129 304.368 409.713 305.12C409.313 305.872 409.113 306.728 409.113 307.688C409.113 308.648 409.313 309.504 409.713 310.256C410.129 311.008 410.689 311.592 411.393 312.008C412.113 312.408 412.921 312.608 413.817 312.608ZM430.947 307.472C432.659 307.872 433.515 308.904 433.515 310.568C433.515 311.672 433.107 312.52 432.291 313.112C431.475 313.704 430.259 314 428.643 314H422.907V301.376H428.475C429.915 301.376 431.043 301.656 431.859 302.216C432.675 302.776 433.083 303.576 433.083 304.616C433.083 305.304 432.891 305.896 432.507 306.392C432.139 306.872 431.619 307.232 430.947 307.472ZM424.563 306.992H428.355C429.331 306.992 430.075 306.808 430.587 306.44C431.115 306.072 431.379 305.536 431.379 304.832C431.379 304.128 431.115 303.6 430.587 303.248C430.075 302.896 429.331 302.72 428.355 302.72H424.563V306.992ZM428.571 312.656C429.659 312.656 430.475 312.48 431.019 312.128C431.563 311.776 431.835 311.224 431.835 310.472C431.835 309.72 431.587 309.168 431.091 308.816C430.595 308.448 429.811 308.264 428.739 308.264H424.563V312.656H428.571Z" fill="white"/>
<rect y="277" width="260" height="56" rx="28" fill="#F2A428"/>
<rect y="277" width="248" height="56" rx="28" fill="#01348D"/>
<path d="M31.528 309.584H28.168V314H26.44V309.584H16.96V308.336L25.864 297.2H27.784L19.192 308.048H26.488V304.16H28.168V308.048H31.528V309.584ZM33.9199 314.12C33.5679 314.12 33.2639 313.992 33.0079 313.736C32.7679 313.48 32.6479 313.168 32.6479 312.8C32.6479 312.432 32.7679 312.128 33.0079 311.888C33.2639 311.632 33.5679 311.504 33.9199 311.504C34.2719 311.504 34.5759 311.632 34.8319 311.888C35.0879 312.128 35.2159 312.432 35.2159 312.8C35.2159 313.168 35.0879 313.48 34.8319 313.736C34.5759 313.992 34.2719 314.12 33.9199 314.12ZM43.4521 303.944C44.5561 303.944 45.5321 304.152 46.3801 304.568C47.2441 304.984 47.9161 305.576 48.3961 306.344C48.8761 307.096 49.1161 307.976 49.1161 308.984C49.1161 310.008 48.8681 310.912 48.3721 311.696C47.8761 312.48 47.1881 313.088 46.3081 313.52C45.4441 313.936 44.4681 314.144 43.3801 314.144C41.1561 314.144 39.4521 313.416 38.2681 311.96C37.0841 310.488 36.4921 308.416 36.4921 305.744C36.4921 303.872 36.8121 302.288 37.4521 300.992C38.0921 299.696 38.9881 298.72 40.1401 298.064C41.2921 297.392 42.6361 297.056 44.1721 297.056C45.8361 297.056 47.1641 297.36 48.1561 297.968L47.4601 299.36C46.6601 298.832 45.5721 298.568 44.1961 298.568C42.3401 298.568 40.8841 299.16 39.8281 300.344C38.7721 301.512 38.2441 303.216 38.2441 305.456C38.2441 305.856 38.2681 306.312 38.3161 306.824C38.7321 305.912 39.3961 305.208 40.3081 304.712C41.2201 304.2 42.2681 303.944 43.4521 303.944ZM43.3081 312.68C44.5241 312.68 45.5081 312.352 46.2601 311.696C47.0281 311.024 47.4121 310.136 47.4121 309.032C47.4121 307.928 47.0281 307.048 46.2601 306.392C45.5081 305.736 44.4841 305.408 43.1881 305.408C42.3401 305.408 41.5881 305.568 40.9321 305.888C40.2921 306.208 39.7881 306.648 39.4201 307.208C39.0521 307.768 38.8681 308.392 38.8681 309.08C38.8681 309.72 39.0361 310.312 39.3721 310.856C39.7241 311.4 40.2361 311.84 40.9081 312.176C41.5801 312.512 42.3801 312.68 43.3081 312.68ZM62.7743 301.688C63.9423 301.688 64.9823 301.952 65.8943 302.48C66.8223 302.992 67.5423 303.72 68.0543 304.664C68.5663 305.592 68.8223 306.656 68.8223 307.856C68.8223 309.088 68.5503 310.184 68.0063 311.144C67.4783 312.088 66.7343 312.824 65.7743 313.352C64.8143 313.88 63.7103 314.144 62.4623 314.144C60.3663 314.144 58.7423 313.408 57.5903 311.936C56.4383 310.464 55.8623 308.432 55.8623 305.84C55.8623 303.136 56.3743 301.064 57.3983 299.624C58.4383 298.184 60.0543 297.208 62.2463 296.696L67.9103 295.4L68.1983 296.96L62.8703 298.184C61.0623 298.584 59.7343 299.296 58.8863 300.32C58.0383 301.328 57.5743 302.824 57.4943 304.808C58.0063 303.832 58.7183 303.072 59.6303 302.528C60.5423 301.968 61.5903 301.688 62.7743 301.688ZM62.5103 312.728C63.3903 312.728 64.1743 312.528 64.8623 312.128C65.5663 311.712 66.1103 311.136 66.4943 310.4C66.8943 309.664 67.0943 308.832 67.0943 307.904C67.0943 306.976 66.9023 306.16 66.5183 305.456C66.1343 304.752 65.5903 304.208 64.8863 303.824C64.1983 303.424 63.4063 303.224 62.5103 303.224C61.6143 303.224 60.8143 303.424 60.1103 303.824C59.4223 304.208 58.8783 304.752 58.4783 305.456C58.0943 306.16 57.9023 306.976 57.9023 307.904C57.9023 308.832 58.0943 309.664 58.4783 310.4C58.8783 311.136 59.4303 311.712 60.1343 312.128C60.8383 312.528 61.6303 312.728 62.5103 312.728ZM75.7883 301.28C77.4363 301.28 78.7003 301.696 79.5803 302.528C80.4603 303.344 80.9003 304.56 80.9003 306.176V314H79.2683V312.032C78.8843 312.688 78.3163 313.2 77.5643 313.568C76.8283 313.936 75.9483 314.12 74.9243 314.12C73.5163 314.12 72.3963 313.784 71.5643 313.112C70.7323 312.44 70.3163 311.552 70.3163 310.448C70.3163 309.376 70.7003 308.512 71.4683 307.856C72.2523 307.2 73.4923 306.872 75.1883 306.872H79.1963V306.104C79.1963 305.016 78.8923 304.192 78.2843 303.632C77.6763 303.056 76.7883 302.768 75.6203 302.768C74.8203 302.768 74.0523 302.904 73.3163 303.176C72.5803 303.432 71.9483 303.792 71.4203 304.256L70.6523 302.984C71.2923 302.44 72.0603 302.024 72.9563 301.736C73.8523 301.432 74.7963 301.28 75.7883 301.28ZM75.1883 312.776C76.1483 312.776 76.9723 312.56 77.6603 312.128C78.3483 311.68 78.8603 311.04 79.1963 310.208V308.144H75.2363C73.0763 308.144 71.9963 308.896 71.9963 310.4C71.9963 311.136 72.2763 311.72 72.8363 312.152C73.3963 312.568 74.1803 312.776 75.1883 312.776ZM94.7965 301.376V314H93.0925V302.888H87.0445L86.8765 306.008C86.7485 308.632 86.4445 310.648 85.9645 312.056C85.4845 313.464 84.6285 314.168 83.3965 314.168C83.0605 314.168 82.6525 314.104 82.1725 313.976L82.2925 312.512C82.5805 312.576 82.7805 312.608 82.8925 312.608C83.5485 312.608 84.0445 312.304 84.3805 311.696C84.7165 311.088 84.9405 310.336 85.0525 309.44C85.1645 308.544 85.2605 307.36 85.3405 305.888L85.5565 301.376H94.7965ZM109.001 301.376V314H107.297V302.888H101.249L101.081 306.008C100.953 308.632 100.649 310.648 100.169 312.056C99.6886 313.464 98.8326 314.168 97.6006 314.168C97.2646 314.168 96.8566 314.104 96.3766 313.976L96.4966 312.512C96.7846 312.576 96.9846 312.608 97.0966 312.608C97.7526 312.608 98.2486 312.304 98.5846 311.696C98.9206 311.088 99.1446 310.336 99.2566 309.44C99.3686 308.544 99.4646 307.36 99.5446 305.888L99.7606 301.376H109.001ZM118.093 314.12C116.877 314.12 115.781 313.848 114.805 313.304C113.829 312.744 113.061 311.976 112.501 311C111.941 310.024 111.661 308.92 111.661 307.688C111.661 306.456 111.941 305.352 112.501 304.376C113.061 303.4 113.829 302.64 114.805 302.096C115.781 301.552 116.877 301.28 118.093 301.28C119.309 301.28 120.405 301.552 121.381 302.096C122.357 302.64 123.117 303.4 123.661 304.376C124.221 305.352 124.501 306.456 124.501 307.688C124.501 308.92 124.221 310.024 123.661 311C123.117 311.976 122.357 312.744 121.381 313.304C120.405 313.848 119.309 314.12 118.093 314.12ZM118.093 312.608C118.989 312.608 119.789 312.408 120.493 312.008C121.213 311.592 121.773 311.008 122.173 310.256C122.573 309.504 122.773 308.648 122.773 307.688C122.773 306.728 122.573 305.872 122.173 305.12C121.773 304.368 121.213 303.792 120.493 303.392C119.789 302.976 118.989 302.768 118.093 302.768C117.197 302.768 116.389 302.976 115.669 303.392C114.965 303.792 114.405 304.368 113.989 305.12C113.589 305.872 113.389 306.728 113.389 307.688C113.389 308.648 113.589 309.504 113.989 310.256C114.405 311.008 114.965 311.592 115.669 312.008C116.389 312.408 117.197 312.608 118.093 312.608ZM135.222 307.472C136.934 307.872 137.79 308.904 137.79 310.568C137.79 311.672 137.382 312.52 136.566 313.112C135.75 313.704 134.534 314 132.918 314H127.182V301.376H132.75C134.19 301.376 135.318 301.656 136.134 302.216C136.95 302.776 137.358 303.576 137.358 304.616C137.358 305.304 137.166 305.896 136.782 306.392C136.414 306.872 135.894 307.232 135.222 307.472ZM128.838 306.992H132.63C133.606 306.992 134.35 306.808 134.862 306.44C135.39 306.072 135.654 305.536 135.654 304.832C135.654 304.128 135.39 303.6 134.862 303.248C134.35 302.896 133.606 302.72 132.63 302.72H128.838V306.992ZM132.846 312.656C133.934 312.656 134.75 312.48 135.294 312.128C135.838 311.776 136.11 311.224 136.11 310.472C136.11 309.72 135.862 309.168 135.366 308.816C134.87 308.448 134.086 308.264 133.014 308.264H128.838V312.656H132.846Z" fill="white"/>
<path d="M20.28 245.2V262H18.576V248.56L11.976 259.864H11.136L4.536 248.632V262H2.832V245.2H4.296L11.592 257.656L18.816 245.2H20.28ZM28.9174 249.28C30.5654 249.28 31.8294 249.696 32.7094 250.528C33.5894 251.344 34.0294 252.56 34.0294 254.176V262H32.3974V260.032C32.0134 260.688 31.4454 261.2 30.6934 261.568C29.9574 261.936 29.0774 262.12 28.0534 262.12C26.6454 262.12 25.5254 261.784 24.6934 261.112C23.8614 260.44 23.4454 259.552 23.4454 258.448C23.4454 257.376 23.8294 256.512 24.5974 255.856C25.3814 255.2 26.6214 254.872 28.3174 254.872H32.3254V254.104C32.3254 253.016 32.0214 252.192 31.4134 251.632C30.8054 251.056 29.9174 250.768 28.7494 250.768C27.9494 250.768 27.1814 250.904 26.4454 251.176C25.7094 251.432 25.0774 251.792 24.5494 252.256L23.7814 250.984C24.4214 250.44 25.1894 250.024 26.0854 249.736C26.9814 249.432 27.9254 249.28 28.9174 249.28ZM28.3174 260.776C29.2774 260.776 30.1014 260.56 30.7894 260.128C31.4774 259.68 31.9894 259.04 32.3254 258.208V256.144H28.3654C26.2054 256.144 25.1254 256.896 25.1254 258.4C25.1254 259.136 25.4054 259.72 25.9654 260.152C26.5254 260.568 27.3094 260.776 28.3174 260.776ZM46.4856 250.888H41.7096V262H40.0056V250.888H35.2296V249.376H46.4856V250.888ZM58.4434 256.216H47.8834C47.9794 257.528 48.4834 258.592 49.3954 259.408C50.3074 260.208 51.4594 260.608 52.8514 260.608C53.6354 260.608 54.3554 260.472 55.0114 260.2C55.6674 259.912 56.2354 259.496 56.7154 258.952L57.6754 260.056C57.1154 260.728 56.4114 261.24 55.5634 261.592C54.7314 261.944 53.8114 262.12 52.8034 262.12C51.5074 262.12 50.3554 261.848 49.3474 261.304C48.3554 260.744 47.5794 259.976 47.0194 259C46.4594 258.024 46.1794 256.92 46.1794 255.688C46.1794 254.456 46.4434 253.352 46.9714 252.376C47.5154 251.4 48.2514 250.64 49.1794 250.096C50.1234 249.552 51.1794 249.28 52.3474 249.28C53.5154 249.28 54.5634 249.552 55.4914 250.096C56.4194 250.64 57.1474 251.4 57.6754 252.376C58.2034 253.336 58.4674 254.44 58.4674 255.688L58.4434 256.216ZM52.3474 250.744C51.1314 250.744 50.1074 251.136 49.2754 251.92C48.4594 252.688 47.9954 253.696 47.8834 254.944H56.8354C56.7234 253.696 56.2514 252.688 55.4194 251.92C54.6034 251.136 53.5794 250.744 52.3474 250.744ZM75.3913 249.376V262H73.8313V252.016L68.7193 260.464H67.9513L62.8393 251.992V262H61.2793V249.376H63.0073L68.3593 258.472L73.8073 249.376H75.3913ZM83.6242 249.28C85.2722 249.28 86.5362 249.696 87.4162 250.528C88.2962 251.344 88.7362 252.56 88.7362 254.176V262H87.1042V260.032C86.7202 260.688 86.1522 261.2 85.4002 261.568C84.6642 261.936 83.7842 262.12 82.7602 262.12C81.3522 262.12 80.2322 261.784 79.4002 261.112C78.5682 260.44 78.1522 259.552 78.1522 258.448C78.1522 257.376 78.5362 256.512 79.3042 255.856C80.0882 255.2 81.3282 254.872 83.0242 254.872H87.0322V254.104C87.0322 253.016 86.7282 252.192 86.1202 251.632C85.5122 251.056 84.6242 250.768 83.4562 250.768C82.6562 250.768 81.8882 250.904 81.1522 251.176C80.4162 251.432 79.7842 251.792 79.2562 252.256L78.4882 250.984C79.1282 250.44 79.8962 250.024 80.7922 249.736C81.6882 249.432 82.6322 249.28 83.6242 249.28ZM83.0242 260.776C83.9842 260.776 84.8082 260.56 85.4962 260.128C86.1842 259.68 86.6962 259.04 87.0322 258.208V256.144H83.0722C80.9122 256.144 79.8322 256.896 79.8322 258.4C79.8322 259.136 80.1122 259.72 80.6722 260.152C81.2322 260.568 82.0162 260.776 83.0242 260.776ZM101.192 250.888H96.4164V262H94.7124V250.888H89.9364V249.376H101.192V250.888ZM102.696 249.376H104.4V259.408L112.824 249.376H114.336V262H112.632V251.968L104.232 262H102.696V249.376ZM122.844 256.384H119.964V262H118.26V249.376H119.964V254.92H122.868L127.308 249.376H129.156L124.188 255.496L129.516 262H127.5L122.844 256.384ZM135.355 249.28C137.003 249.28 138.267 249.696 139.147 250.528C140.027 251.344 140.467 252.56 140.467 254.176V262H138.835V260.032C138.451 260.688 137.883 261.2 137.131 261.568C136.395 261.936 135.515 262.12 134.491 262.12C133.083 262.12 131.963 261.784 131.131 261.112C130.299 260.44 129.883 259.552 129.883 258.448C129.883 257.376 130.267 256.512 131.035 255.856C131.819 255.2 133.059 254.872 134.755 254.872H138.763V254.104C138.763 253.016 138.459 252.192 137.851 251.632C137.243 251.056 136.355 250.768 135.187 250.768C134.387 250.768 133.619 250.904 132.883 251.176C132.147 251.432 131.515 251.792 130.987 252.256L130.219 250.984C130.859 250.44 131.627 250.024 132.523 249.736C133.419 249.432 134.363 249.28 135.355 249.28ZM134.755 260.776C135.715 260.776 136.539 260.56 137.227 260.128C137.915 259.68 138.427 259.04 138.763 258.208V256.144H134.803C132.643 256.144 131.563 256.896 131.563 258.4C131.563 259.136 131.843 259.72 132.403 260.152C132.963 260.568 133.747 260.776 134.755 260.776Z" fill="#555555"/>
<rect y="158" width="260" height="56" rx="28" fill="#01348D"/>
<path d="M2.832 126.2H4.584V140.12L15.336 126.2H16.944V143H15.192V129.104L4.44 143H2.832V126.2ZM21.2453 130.376H22.9493V135.968H30.8933V130.376H32.5973V143H30.8933V137.432H22.9493V143H21.2453V130.376ZM51.7206 136.664C51.7206 138.632 51.0726 140.176 49.7766 141.296C48.4806 142.416 46.6486 143.024 44.2806 143.12V147.656H42.6246V143.144C40.2726 143.048 38.4486 142.44 37.1526 141.32C35.8726 140.184 35.2326 138.632 35.2326 136.664C35.2326 134.712 35.8726 133.184 37.1526 132.08C38.4486 130.976 40.2726 130.376 42.6246 130.28V125.192H44.2806V130.28C46.6486 130.392 48.4806 131 49.7766 132.104C51.0726 133.208 51.7206 134.728 51.7206 136.664ZM36.9126 136.664C36.9126 138.168 37.3926 139.344 38.3526 140.192C39.3286 141.04 40.7526 141.52 42.6246 141.632V131.792C40.7686 131.888 39.3526 132.36 38.3766 133.208C37.4006 134.04 36.9126 135.192 36.9126 136.664ZM44.2806 141.632C46.1526 141.536 47.5766 141.064 48.5526 140.216C49.5446 139.368 50.0406 138.184 50.0406 136.664C50.0406 135.176 49.5446 134.016 48.5526 133.184C47.5766 132.352 46.1526 131.888 44.2806 131.792V141.632ZM59.5723 143.12C58.3563 143.12 57.2603 142.848 56.2843 142.304C55.3083 141.744 54.5403 140.976 53.9803 140C53.4203 139.024 53.1403 137.92 53.1403 136.688C53.1403 135.456 53.4203 134.352 53.9803 133.376C54.5403 132.4 55.3083 131.64 56.2843 131.096C57.2603 130.552 58.3563 130.28 59.5723 130.28C60.7883 130.28 61.8843 130.552 62.8603 131.096C63.8363 131.64 64.5963 132.4 65.1403 133.376C65.7003 134.352 65.9803 135.456 65.9803 136.688C65.9803 137.92 65.7003 139.024 65.1403 140C64.5963 140.976 63.8363 141.744 62.8603 142.304C61.8843 142.848 60.7883 143.12 59.5723 143.12ZM59.5723 141.608C60.4683 141.608 61.2683 141.408 61.9723 141.008C62.6923 140.592 63.2523 140.008 63.6523 139.256C64.0523 138.504 64.2523 137.648 64.2523 136.688C64.2523 135.728 64.0523 134.872 63.6523 134.12C63.2523 133.368 62.6923 132.792 61.9723 132.392C61.2683 131.976 60.4683 131.768 59.5723 131.768C58.6763 131.768 57.8683 131.976 57.1483 132.392C56.4443 132.792 55.8843 133.368 55.4683 134.12C55.0683 134.872 54.8683 135.728 54.8683 136.688C54.8683 137.648 55.0683 138.504 55.4683 139.256C55.8843 140.008 56.4443 140.592 57.1483 141.008C57.8683 141.408 58.6763 141.608 59.5723 141.608ZM75.1661 130.28C76.3501 130.28 77.4221 130.552 78.3821 131.096C79.3421 131.624 80.0941 132.376 80.6381 133.352C81.1821 134.328 81.4541 135.44 81.4541 136.688C81.4541 137.952 81.1821 139.072 80.6381 140.048C80.0941 141.024 79.3421 141.784 78.3821 142.328C77.4381 142.856 76.3661 143.12 75.1661 143.12C74.1421 143.12 73.2141 142.912 72.3821 142.496C71.5661 142.064 70.8941 141.44 70.3661 140.624V147.656H68.6621V130.376H70.2941V132.872C70.8061 132.04 71.4781 131.4 72.3101 130.952C73.1581 130.504 74.1101 130.28 75.1661 130.28ZM75.0461 141.608C75.9261 141.608 76.7261 141.408 77.4461 141.008C78.1661 140.592 78.7261 140.008 79.1261 139.256C79.5421 138.504 79.7501 137.648 79.7501 136.688C79.7501 135.728 79.5421 134.88 79.1261 134.144C78.7261 133.392 78.1661 132.808 77.4461 132.392C76.7261 131.976 75.9261 131.768 75.0461 131.768C74.1501 131.768 73.3421 131.976 72.6221 132.392C71.9181 132.808 71.3581 133.392 70.9421 134.144C70.5421 134.88 70.3421 135.728 70.3421 136.688C70.3421 137.648 70.5421 138.504 70.9421 139.256C71.3581 140.008 71.9181 140.592 72.6221 141.008C73.3421 141.408 74.1501 141.608 75.0461 141.608ZM98.2672 130.376V143H96.7072V133.016L91.5952 141.464H90.8272L85.7152 132.992V143H84.1552V130.376H85.8832L91.2352 139.472L96.6832 130.376H98.2672ZM106.5 130.28C108.148 130.28 109.412 130.696 110.292 131.528C111.172 132.344 111.612 133.56 111.612 135.176V143H109.98V141.032C109.596 141.688 109.028 142.2 108.276 142.568C107.54 142.936 106.66 143.12 105.636 143.12C104.228 143.12 103.108 142.784 102.276 142.112C101.444 141.44 101.028 140.552 101.028 139.448C101.028 138.376 101.412 137.512 102.18 136.856C102.964 136.2 104.204 135.872 105.9 135.872H109.908V135.104C109.908 134.016 109.604 133.192 108.996 132.632C108.388 132.056 107.5 131.768 106.332 131.768C105.532 131.768 104.764 131.904 104.028 132.176C103.292 132.432 102.66 132.792 102.132 133.256L101.364 131.984C102.004 131.44 102.772 131.024 103.668 130.736C104.564 130.432 105.508 130.28 106.5 130.28ZM105.9 141.776C106.86 141.776 107.684 141.56 108.372 141.128C109.06 140.68 109.572 140.04 109.908 139.208V137.144H105.948C103.788 137.144 102.708 137.896 102.708 139.4C102.708 140.136 102.988 140.72 103.548 141.152C104.108 141.568 104.892 141.776 105.9 141.776ZM124.068 131.888H119.292V143H117.588V131.888H112.812V130.376H124.068V131.888ZM125.572 130.376H127.276V140.408L135.7 130.376H137.212V143H135.508V132.968L127.108 143H125.572V130.376ZM145.72 137.384H142.84V143H141.136V130.376H142.84V135.92H145.744L150.184 130.376H152.032L147.064 136.496L152.392 143H150.376L145.72 137.384ZM158.23 130.28C159.878 130.28 161.142 130.696 162.022 131.528C162.902 132.344 163.342 133.56 163.342 135.176V143H161.71V141.032C161.326 141.688 160.758 142.2 160.006 142.568C159.27 142.936 158.39 143.12 157.366 143.12C155.958 143.12 154.838 142.784 154.006 142.112C153.174 141.44 152.758 140.552 152.758 139.448C152.758 138.376 153.142 137.512 153.91 136.856C154.694 136.2 155.934 135.872 157.63 135.872H161.638V135.104C161.638 134.016 161.334 133.192 160.726 132.632C160.118 132.056 159.23 131.768 158.062 131.768C157.262 131.768 156.494 131.904 155.758 132.176C155.022 132.432 154.39 132.792 153.862 133.256L153.094 131.984C153.734 131.44 154.502 131.024 155.398 130.736C156.294 130.432 157.238 130.28 158.23 130.28ZM157.63 141.776C158.59 141.776 159.414 141.56 160.102 141.128C160.79 140.68 161.302 140.04 161.638 139.208V137.144H157.678C155.518 137.144 154.438 137.896 154.438 139.4C154.438 140.136 154.718 140.72 155.278 141.152C155.838 141.568 156.622 141.776 157.63 141.776Z" fill="#555555"/>
<path d="M21.664 185.088C24.096 185.088 25.864 185.528 26.968 186.408C28.088 187.272 28.648 188.488 28.648 190.056C28.648 191.032 28.416 191.904 27.952 192.672C27.504 193.44 26.824 194.048 25.912 194.496C25 194.928 23.88 195.144 22.552 195.144C21.352 195.144 20.208 194.952 19.12 194.568C18.048 194.168 17.184 193.64 16.528 192.984L17.368 191.616C17.928 192.192 18.664 192.664 19.576 193.032C20.488 193.384 21.472 193.56 22.528 193.56C23.92 193.56 24.992 193.248 25.744 192.624C26.512 192 26.896 191.168 26.896 190.128C26.896 188.976 26.464 188.104 25.6 187.512C24.752 186.92 23.312 186.624 21.28 186.624H17.704L18.568 178.2H27.76V179.736H20.08L19.504 185.088H21.664ZM42.499 182.688C43.667 182.688 44.707 182.952 45.619 183.48C46.547 183.992 47.267 184.72 47.779 185.664C48.291 186.592 48.547 187.656 48.547 188.856C48.547 190.088 48.275 191.184 47.731 192.144C47.203 193.088 46.459 193.824 45.499 194.352C44.539 194.88 43.435 195.144 42.187 195.144C40.091 195.144 38.467 194.408 37.315 192.936C36.163 191.464 35.587 189.432 35.587 186.84C35.587 184.136 36.099 182.064 37.123 180.624C38.163 179.184 39.779 178.208 41.971 177.696L47.635 176.4L47.923 177.96L42.595 179.184C40.787 179.584 39.459 180.296 38.611 181.32C37.763 182.328 37.299 183.824 37.219 185.808C37.731 184.832 38.443 184.072 39.355 183.528C40.267 182.968 41.315 182.688 42.499 182.688ZM42.235 193.728C43.115 193.728 43.899 193.528 44.587 193.128C45.291 192.712 45.835 192.136 46.219 191.4C46.619 190.664 46.819 189.832 46.819 188.904C46.819 187.976 46.627 187.16 46.243 186.456C45.859 185.752 45.315 185.208 44.611 184.824C43.923 184.424 43.131 184.224 42.235 184.224C41.339 184.224 40.539 184.424 39.835 184.824C39.147 185.208 38.603 185.752 38.203 186.456C37.819 187.16 37.627 187.976 37.627 188.904C37.627 189.832 37.819 190.664 38.203 191.4C38.603 192.136 39.155 192.712 39.859 193.128C40.563 193.528 41.355 193.728 42.235 193.728ZM55.513 182.28C57.161 182.28 58.425 182.696 59.305 183.528C60.185 184.344 60.625 185.56 60.625 187.176V195H58.993V193.032C58.609 193.688 58.041 194.2 57.289 194.568C56.553 194.936 55.673 195.12 54.649 195.12C53.241 195.12 52.121 194.784 51.289 194.112C50.457 193.44 50.041 192.552 50.041 191.448C50.041 190.376 50.425 189.512 51.193 188.856C51.977 188.2 53.217 187.872 54.913 187.872H58.921V187.104C58.921 186.016 58.617 185.192 58.009 184.632C57.401 184.056 56.513 183.768 55.345 183.768C54.545 183.768 53.777 183.904 53.041 184.176C52.305 184.432 51.673 184.792 51.145 185.256L50.377 183.984C51.017 183.44 51.785 183.024 52.681 182.736C53.577 182.432 54.521 182.28 55.513 182.28ZM54.913 193.776C55.873 193.776 56.697 193.56 57.385 193.128C58.073 192.68 58.585 192.04 58.921 191.208V189.144H54.961C52.801 189.144 51.721 189.896 51.721 191.4C51.721 192.136 52.001 192.72 52.561 193.152C53.121 193.568 53.905 193.776 54.913 193.776ZM74.5212 182.376V195H72.8172V183.888H66.7692L66.6012 187.008C66.4732 189.632 66.1692 191.648 65.6892 193.056C65.2092 194.464 64.3532 195.168 63.1212 195.168C62.7852 195.168 62.3772 195.104 61.8972 194.976L62.0172 193.512C62.3052 193.576 62.5052 193.608 62.6172 193.608C63.2732 193.608 63.7692 193.304 64.1052 192.696C64.4412 192.088 64.6652 191.336 64.7772 190.44C64.8892 189.544 64.9852 188.36 65.0652 186.888L65.2812 182.376H74.5212ZM88.7253 182.376V195H87.0213V183.888H80.9733L80.8053 187.008C80.6773 189.632 80.3733 191.648 79.8933 193.056C79.4133 194.464 78.5573 195.168 77.3253 195.168C76.9893 195.168 76.5813 195.104 76.1013 194.976L76.2213 193.512C76.5093 193.576 76.7093 193.608 76.8213 193.608C77.4773 193.608 77.9733 193.304 78.3093 192.696C78.6453 192.088 78.8693 191.336 78.9813 190.44C79.0933 189.544 79.1893 188.36 79.2693 186.888L79.4853 182.376H88.7253ZM97.8173 195.12C96.6013 195.12 95.5053 194.848 94.5293 194.304C93.5533 193.744 92.7853 192.976 92.2253 192C91.6653 191.024 91.3853 189.92 91.3853 188.688C91.3853 187.456 91.6653 186.352 92.2253 185.376C92.7853 184.4 93.5533 183.64 94.5293 183.096C95.5053 182.552 96.6013 182.28 97.8173 182.28C99.0333 182.28 100.129 182.552 101.105 183.096C102.081 183.64 102.841 184.4 103.385 185.376C103.945 186.352 104.225 187.456 104.225 188.688C104.225 189.92 103.945 191.024 103.385 192C102.841 192.976 102.081 193.744 101.105 194.304C100.129 194.848 99.0333 195.12 97.8173 195.12ZM97.8173 193.608C98.7133 193.608 99.5133 193.408 100.217 193.008C100.937 192.592 101.497 192.008 101.897 191.256C102.297 190.504 102.497 189.648 102.497 188.688C102.497 187.728 102.297 186.872 101.897 186.12C101.497 185.368 100.937 184.792 100.217 184.392C99.5133 183.976 98.7133 183.768 97.8173 183.768C96.9213 183.768 96.1133 183.976 95.3933 184.392C94.6893 184.792 94.1293 185.368 93.7133 186.12C93.3133 186.872 93.1133 187.728 93.1133 188.688C93.1133 189.648 93.3133 190.504 93.7133 191.256C94.1293 192.008 94.6893 192.592 95.3933 193.008C96.1133 193.408 96.9213 193.608 97.8173 193.608ZM114.947 188.472C116.659 188.872 117.515 189.904 117.515 191.568C117.515 192.672 117.107 193.52 116.291 194.112C115.475 194.704 114.259 195 112.643 195H106.907V182.376H112.475C113.915 182.376 115.043 182.656 115.859 183.216C116.675 183.776 117.083 184.576 117.083 185.616C117.083 186.304 116.891 186.896 116.507 187.392C116.139 187.872 115.619 188.232 114.947 188.472ZM108.563 187.992H112.355C113.331 187.992 114.075 187.808 114.587 187.44C115.115 187.072 115.379 186.536 115.379 185.832C115.379 185.128 115.115 184.6 114.587 184.248C114.075 183.896 113.331 183.72 112.355 183.72H108.563V187.992ZM112.571 193.656C113.659 193.656 114.475 193.48 115.019 193.128C115.563 192.776 115.835 192.224 115.835 191.472C115.835 190.72 115.587 190.168 115.091 189.816C114.595 189.448 113.811 189.264 112.739 189.264H108.563V193.656H112.571Z" fill="white"/>
</svg>
