<svg width="160" height="125" viewBox="0 0 160 125" fill="none" xmlns="http://www.w3.org/2000/svg">
<path d="M156.491 0.0174472H3.56943C2.17706 -0.114027 0.828533 0.50484 0 1.6273V123.137C0.922636 124.468 2.51762 125.169 4.12199 124.913H111.973C123.558 124.913 138.227 124.959 140.721 124.959H156.028C157.584 125.183 159.122 124.48 160 123.182V1.673C159.193 0.553205 157.871 -0.0815497 156.491 0.0174472ZM125.249 111.228C116.549 111.173 108.857 105.764 105.635 97.7235C102.398 89.6453 104.239 80.306 110.384 74.1224C116.485 67.9812 125.662 66.1357 133.637 69.5408C141.657 72.9633 146.746 80.9464 146.709 89.6298C146.62 101.439 137.17 111.263 125.249 111.228ZM15.9047 28.6328C15.9047 27.2961 16.2928 26.7947 17.5771 26.3697C21.6786 25.1649 24.8194 21.8844 25.9401 17.7728C26.0837 16.8015 26.9764 16.1078 27.9561 16.254H132.044C133.239 16.254 133.791 16.5884 134.12 17.7728C135.247 21.997 138.505 25.3535 142.737 26.5065C143.618 26.7796 144.155 27.0532 144.155 28.1923V70.0066C130.327 57.643 114.198 62.5491 106.522 70.5079C98.2935 79.0434 94.5752 95.1586 106.268 108.555H27.5381C27.0112 108.537 26.5278 108.271 26.2239 107.842C23.237 101.143 22.4009 100.322 15.9346 97.9382C15.9346 74.8365 15.9247 51.7345 15.9047 28.6328ZM154.699 119.278C154.206 119.278 153.653 119.43 153.116 119.43H140.601C140.337 119.43 118.485 119.263 112.152 119.263H5.36131V5.53075H154.699V119.278ZM142.139 110.378C151.588 102.861 154.704 89.7986 149.875 78.7702C149.588 77.979 149.466 77.1358 149.517 76.2945V25.8986C149.517 22.4814 149.128 22.0409 145.798 21.6309C142.011 21.176 139.149 18.0429 138.884 14.2645C138.675 11.576 137.898 10.8317 135.285 10.8317H24.9245C22.3114 10.8317 21.5347 11.576 21.3256 14.2645C21.0554 18.1619 18.0087 21.3494 14.0826 21.6309C11.3946 21.8433 10.7078 22.603 10.7078 25.443V98.8951C10.7078 102.252 11.1557 102.752 14.4711 103.208C18.2813 103.587 21.1676 106.762 21.3404 110.559C21.5797 113.248 22.2962 113.886 25.1633 113.901H112.419C114.252 113.901 119.912 115.979 125.552 115.979C131.191 115.979 136.839 113.934 142.139 110.378Z" fill="#F2A428"/>
<path d="M38.2904 59.678H121.605C122.073 59.7086 122.542 59.7086 123.009 59.678C123.638 59.6364 124.228 59.3553 124.663 58.891C125.097 58.4267 125.344 57.8128 125.354 57.172C125.4 56.8555 125.384 56.5328 125.307 56.223C125.23 55.9128 125.093 55.6212 124.904 55.3654C124.715 55.1096 124.478 54.8946 124.206 54.7329C123.935 54.5712 123.634 54.4658 123.323 54.4231C122.831 54.323 122.331 54.272 121.829 54.2709H38.3051C35.8707 54.2709 34.6911 55.167 34.7062 57.0051C34.7209 58.8427 35.7962 59.6629 38.2904 59.678Z" fill="#F2A428"/>
<path d="M37.0654 46.054C37.5605 46.1197 38.0598 46.1503 38.5591 46.1451H121.366C121.936 46.1507 122.505 46.1099 123.069 46.0238C123.393 45.9932 123.708 45.898 123.996 45.7427C124.283 45.5878 124.538 45.3766 124.745 45.1208C124.952 44.8651 125.107 44.5704 125.201 44.2534C125.295 43.9368 125.327 43.6039 125.294 43.2745C125.294 41.6492 124.159 40.7531 122.173 40.7531H48.8034C44.9952 40.7531 41.1873 40.7531 37.3942 40.7531C36.7203 40.7387 36.0668 40.99 35.5702 41.4539C35.074 41.9178 34.7731 42.559 34.7308 43.2435C34.6885 43.9277 34.9077 44.6021 35.3427 45.1262C35.7777 45.6498 36.3953 45.9822 37.0654 46.054Z" fill="#F2A428"/>
<path d="M79.8356 73.2873C83.4197 73.2873 87.0038 73.2873 90.603 73.2873C90.9546 73.322 91.309 73.2801 91.6432 73.1641C91.9772 73.0485 92.2834 72.8611 92.5408 72.6151C92.7982 72.3692 93.0008 72.0704 93.1353 71.7382C93.2699 71.4062 93.333 71.0488 93.3209 70.6899C93.341 70.3329 93.2899 69.9755 93.1701 69.6388C93.0507 69.3026 92.8651 68.9943 92.6251 68.7332C92.3847 68.4718 92.0948 68.2629 91.7732 68.119C91.4511 67.975 91.1039 67.8987 90.7523 67.8953C90.2848 67.865 89.8162 67.865 89.3486 67.8953H62.1093C59.4213 67.8953 56.7484 67.8953 54.06 67.8953C51.372 67.8953 50.3266 69.2319 50.7748 71.328C51.1479 73.0138 52.4027 73.3326 53.851 73.3326H72.0554L79.8356 73.2873Z" fill="#F2A428"/>
<path d="M64.3346 32.5362C69.5765 32.5362 74.788 32.5362 80.0299 32.5362C85.167 32.5362 90.3041 32.5362 95.4416 32.5362C97.6666 32.5362 98.6371 31.6249 98.6371 29.7869C98.6371 27.9493 97.5022 27.114 95.352 27.0985H90.0804C81.6127 27.0985 73.1454 27.0985 64.693 27.0985C63.6415 27.1233 62.6426 27.5715 61.9153 28.3441C60.4667 30.3336 61.796 32.5207 64.3346 32.5362Z" fill="#F2A428"/>
<path d="M90.2296 81.4588H69.7556C67.7392 81.4588 66.7686 82.3092 66.7686 84.0407C66.7686 85.7722 67.814 86.8353 69.7556 86.8353C76.5852 86.8353 83.4099 86.8353 90.2296 86.8353C92.2903 86.8353 93.3356 85.8482 93.3356 84.1166C93.3356 82.3852 92.3201 81.4588 90.2296 81.4588Z" fill="#F2A428"/>
<path d="M58.2715 81.4588H37.8274C35.8409 81.4588 34.7509 82.3394 34.7062 83.9648C34.6658 84.3512 34.7112 84.7419 34.8389 85.108C34.9666 85.4741 35.1738 85.8066 35.4447 86.0805C35.7154 86.3544 36.043 86.5629 36.404 86.691C36.7645 86.8191 37.1489 86.8633 37.5284 86.8202C44.4979 86.881 51.4665 86.881 58.4356 86.8202C60.4667 86.8202 61.3179 85.8176 61.2732 84.0256C61.2283 82.2333 60.2875 81.4588 58.2715 81.4588Z" fill="#F2A428"/>
<path d="M40.0671 73.1807C41.0623 73.2336 42.0589 73.2336 43.054 73.1807C43.3673 73.1675 43.6746 73.0901 43.9581 72.9537C44.2416 72.8173 44.4956 72.6246 44.7042 72.3866C44.9132 72.1486 45.0731 71.8705 45.1743 71.5687C45.2756 71.2667 45.3161 70.9475 45.2942 70.629C45.3426 70.3128 45.3255 69.9898 45.2446 69.6804C45.1634 69.3713 45.0202 69.0823 44.8236 68.8322C44.6271 68.5825 44.3814 68.377 44.1025 68.2285C43.8235 68.0804 43.5174 67.9927 43.2033 67.9712C41.0902 67.8193 38.9695 67.8193 36.8564 67.9712C36.5419 67.9878 36.2339 68.0698 35.952 68.2122C35.6697 68.3547 35.4194 68.5545 35.2164 68.7993C35.0135 69.0445 34.8619 69.329 34.7716 69.6361C34.6813 69.9429 34.6541 70.2656 34.6911 70.5837C34.6669 70.9128 34.7085 71.2433 34.814 71.5554C34.919 71.8674 35.0861 72.1546 35.3037 72.3991C35.5218 72.6435 35.7864 72.8404 36.0816 72.9771C36.3768 73.1143 36.6965 73.1887 37.0208 73.1962C38.0363 73.2567 39.0519 73.1807 40.0671 73.1807Z" fill="#F2A428"/>
<path d="M128.012 75.763C127.848 74.0617 126.788 73.2416 124.861 73.2873C122.218 73.3609 119.641 74.1471 117.394 75.5654C112.511 78.603 109.928 83.0078 109.3 89.3568C109.569 89.8883 109.853 91.1491 110.629 91.7411C112.362 93.0778 114.512 91.8779 114.721 89.554C114.795 87.2642 115.505 85.0423 116.767 83.1446C117.789 81.7833 119.094 80.6688 120.588 79.8807C122.083 79.093 123.731 78.6517 125.414 78.5879C127.251 78.436 128.162 77.312 128.012 75.763Z" fill="#F2A428"/>
<path d="M139.376 86.8961C138.956 86.7938 138.518 86.7942 138.098 86.8973C137.678 87.0004 137.288 87.2037 136.961 87.4897C136.633 87.7757 136.376 88.1368 136.212 88.543C136.048 88.9495 135.981 89.3897 136.016 89.8275C135.934 92.5942 134.818 95.2245 132.895 97.183C130.972 99.1415 128.387 100.281 125.667 100.369C123.711 100.505 122.68 101.538 122.68 103.164C122.68 104.789 123.8 105.806 125.861 105.775C128.405 105.732 130.892 105.009 133.074 103.679C135.447 102.367 137.449 100.457 138.89 98.1332C140.331 95.8093 141.161 93.1484 141.303 90.4048C141.362 88.3239 140.735 87.1999 139.376 86.8961Z" fill="#F2A428"/>
</svg>
