<svg width="472" height="208" viewBox="0 0 472 208" fill="none" xmlns="http://www.w3.org/2000/svg">
<path d="M63.2013 16.2283L50.4239 21.9072V31.9223C50.4239 34.2082 47.1529 35.036 43.9539 35.5447C40.7889 36.048 36.5437 36.3243 32.0012 36.3243C23.5965 36.3243 13.5781 35.561 13.5781 31.9229V21.9077L9.60221 20.1414V21.4201C10.5483 22.0065 11.1957 23.1852 11.2227 24.6L11.9133 30.2222C11.9599 30.6063 11.8409 30.991 11.5859 31.2805C11.3328 31.5707 10.9666 31.7363 10.5818 31.7363H5.93985C5.55507 31.7363 5.18945 31.5701 4.93571 31.2805C4.68078 30.9904 4.5617 30.6063 4.60838 30.2222L5.29895 24.6C5.32587 23.1852 5.97336 22.0053 6.91944 21.4201V18.9494L0.798862 16.2296C0.313545 16.0141 -1.52588e-05 15.5294 -1.52588e-05 14.9954C-1.52588e-05 14.4615 0.312363 13.9786 0.797668 13.7631L31.458 0.116489C31.8039 -0.0388298 32.1976 -0.0388298 32.5435 0.116489L63.2023 13.7619C63.6876 13.9774 64 14.462 64 14.9942C64 15.5288 63.6864 16.0128 63.2011 16.2283L63.2013 16.2283ZM9.06542 29.038L8.55198 24.8534C8.54539 24.7981 8.5424 24.7427 8.5424 24.6873C8.5424 24.2099 8.37605 23.8824 8.26234 23.7554C8.14864 23.8836 7.98228 24.2111 7.98228 24.6873C7.98228 24.7427 7.97989 24.7981 7.97271 24.8534L7.45927 29.038H9.06542ZM47.635 31.7622C46.8026 30.8008 41.7346 29.2 32 29.2C22.2201 29.2 17.1533 30.8158 16.3604 31.7597C17.565 32.5628 22.9657 33.6253 32 33.6253C41.0212 33.6253 46.4194 32.5671 47.635 31.7622ZM6.92055 15.9991V13.986L4.6568 14.9932L6.92055 15.9991ZM32 2.8227L9.60145 12.791V17.1887L13.5773 18.9551V17.4151C13.5773 12.3015 27.679 11.9036 32.0005 11.9036C36.3222 11.9036 50.4236 12.3015 50.4236 17.4151V18.9551L59.3441 14.9901L32 2.8227Z" fill="#01348D"/>
<path d="M26.3627 24.416V26H20.0147V24.74L23.2547 21.68C23.5987 21.352 23.8307 21.072 23.9507 20.84C24.0707 20.6 24.1307 20.364 24.1307 20.132C24.1307 19.796 24.0147 19.54 23.7827 19.364C23.5587 19.18 23.2267 19.088 22.7867 19.088C22.4187 19.088 22.0867 19.16 21.7907 19.304C21.4947 19.44 21.2467 19.648 21.0467 19.928L19.6307 19.016C19.9587 18.528 20.4107 18.148 20.9867 17.876C21.5627 17.596 22.2227 17.456 22.9667 17.456C23.5907 17.456 24.1347 17.56 24.5987 17.768C25.0707 17.968 25.4347 18.256 25.6907 18.632C25.9547 19 26.0867 19.436 26.0867 19.94C26.0867 20.396 25.9907 20.824 25.7987 21.224C25.6067 21.624 25.2347 22.08 24.6827 22.592L22.7507 24.416H26.3627ZM30.2614 26.144C29.5654 26.144 28.9454 25.972 28.4014 25.628C27.8574 25.284 27.4294 24.788 27.1174 24.14C26.8134 23.484 26.6614 22.704 26.6614 21.8C26.6614 20.896 26.8134 20.12 27.1174 19.472C27.4294 18.816 27.8574 18.316 28.4014 17.972C28.9454 17.628 29.5654 17.456 30.2614 17.456C30.9574 17.456 31.5774 17.628 32.1214 17.972C32.6654 18.316 33.0894 18.816 33.3934 19.472C33.7054 20.12 33.8614 20.896 33.8614 21.8C33.8614 22.704 33.7054 23.484 33.3934 24.14C33.0894 24.788 32.6654 25.284 32.1214 25.628C31.5774 25.972 30.9574 26.144 30.2614 26.144ZM30.2614 24.5C30.7734 24.5 31.1734 24.28 31.4614 23.84C31.7574 23.4 31.9054 22.72 31.9054 21.8C31.9054 20.88 31.7574 20.2 31.4614 19.76C31.1734 19.32 30.7734 19.1 30.2614 19.1C29.7574 19.1 29.3574 19.32 29.0614 19.76C28.7734 20.2 28.6294 20.88 28.6294 21.8C28.6294 22.72 28.7734 23.4 29.0614 23.84C29.3574 24.28 29.7574 24.5 30.2614 24.5ZM36.2699 22.136C35.6539 22.136 35.1499 21.928 34.7579 21.512C34.3739 21.088 34.1819 20.524 34.1819 19.82C34.1819 19.116 34.3739 18.556 34.7579 18.14C35.1499 17.716 35.6539 17.504 36.2699 17.504C36.8859 17.504 37.3859 17.716 37.7699 18.14C38.1539 18.556 38.3459 19.116 38.3459 19.82C38.3459 20.524 38.1539 21.088 37.7699 21.512C37.3859 21.928 36.8859 22.136 36.2699 22.136ZM41.2739 17.6H42.7019L36.9659 26H35.5379L41.2739 17.6ZM36.2699 21.152C36.5419 21.152 36.7539 21.04 36.9059 20.816C37.0659 20.592 37.1459 20.26 37.1459 19.82C37.1459 19.38 37.0659 19.048 36.9059 18.824C36.7539 18.6 36.5419 18.488 36.2699 18.488C36.0059 18.488 35.7939 18.604 35.6339 18.836C35.4739 19.06 35.3939 19.388 35.3939 19.82C35.3939 20.252 35.4739 20.584 35.6339 20.816C35.7939 21.04 36.0059 21.152 36.2699 21.152ZM41.9699 26.096C41.5699 26.096 41.2099 26.004 40.8899 25.82C40.5779 25.628 40.3339 25.356 40.1579 25.004C39.9819 24.652 39.8939 24.244 39.8939 23.78C39.8939 23.316 39.9819 22.908 40.1579 22.556C40.3339 22.204 40.5779 21.936 40.8899 21.752C41.2099 21.56 41.5699 21.464 41.9699 21.464C42.5859 21.464 43.0859 21.676 43.4699 22.1C43.8619 22.516 44.0579 23.076 44.0579 23.78C44.0579 24.484 43.8619 25.048 43.4699 25.472C43.0859 25.888 42.5859 26.096 41.9699 26.096ZM41.9699 25.112C42.2419 25.112 42.4539 25 42.6059 24.776C42.7659 24.544 42.8459 24.212 42.8459 23.78C42.8459 23.348 42.7659 23.02 42.6059 22.796C42.4539 22.564 42.2419 22.448 41.9699 22.448C41.7059 22.448 41.4939 22.56 41.3339 22.784C41.1739 23.008 41.0939 23.34 41.0939 23.78C41.0939 24.22 41.1739 24.552 41.3339 24.776C41.4939 25 41.7059 25.112 41.9699 25.112Z" fill="white"/>
<path d="M82.14 15.6V24H81.288V17.28L77.988 22.932H77.568L74.268 17.316V24H73.416V15.6H74.148L77.796 21.828L81.408 15.6H82.14ZM89.8307 16.368H85.3547L85.3667 24H84.4907V15.6H89.8307V16.368ZM97.4779 15.6L93.6619 22.668C93.3899 23.172 93.0699 23.548 92.7019 23.796C92.3419 24.036 91.9459 24.156 91.5139 24.156C91.1939 24.156 90.8499 24.08 90.4819 23.928L90.7339 23.208C91.0219 23.32 91.2859 23.376 91.5259 23.376C92.0779 23.376 92.5299 23.076 92.8819 22.476L93.1219 22.068L89.7139 15.6H90.6619L93.5899 21.288L96.5899 15.6H97.4779Z" fill="#555555"/>
<path d="M63.2013 72.2283L50.4239 77.9072V87.9223C50.4239 90.2082 47.1529 91.036 43.9539 91.5447C40.7889 92.048 36.5437 92.3243 32.0012 92.3243C23.5965 92.3243 13.5781 91.561 13.5781 87.9229V77.9077L9.60221 76.1414V77.4201C10.5483 78.0065 11.1957 79.1852 11.2227 80.6L11.9133 86.2222C11.9599 86.6063 11.8409 86.991 11.5859 87.2805C11.3328 87.5707 10.9666 87.7363 10.5818 87.7363H5.93985C5.55507 87.7363 5.18945 87.5701 4.93571 87.2805C4.68078 86.9904 4.5617 86.6063 4.60838 86.2222L5.29895 80.6C5.32587 79.1852 5.97336 78.0053 6.91944 77.4201V74.9494L0.798862 72.2296C0.313545 72.0141 -1.52588e-05 71.5294 -1.52588e-05 70.9954C-1.52588e-05 70.4615 0.312363 69.9786 0.797668 69.7631L31.458 56.1165C31.8039 55.9612 32.1976 55.9612 32.5435 56.1165L63.2023 69.7619C63.6876 69.9774 64 70.462 64 70.9942C64 71.5288 63.6864 72.0128 63.2011 72.2283L63.2013 72.2283ZM9.06542 85.038L8.55198 80.8534C8.54539 80.7981 8.5424 80.7427 8.5424 80.6873C8.5424 80.2099 8.37605 79.8824 8.26234 79.7554C8.14864 79.8836 7.98228 80.2111 7.98228 80.6873C7.98228 80.7427 7.97989 80.7981 7.97271 80.8534L7.45927 85.038H9.06542ZM47.635 87.7622C46.8026 86.8008 41.7346 85.2 32 85.2C22.2201 85.2 17.1533 86.8158 16.3604 87.7597C17.565 88.5628 22.9657 89.6253 32 89.6253C41.0212 89.6253 46.4194 88.5671 47.635 87.7622ZM6.92055 71.9991V69.986L4.6568 70.9932L6.92055 71.9991ZM32 58.8227L9.60145 68.791V73.1887L13.5773 74.9551V73.4151C13.5773 68.3015 27.679 67.9036 32.0005 67.9036C36.3222 67.9036 50.4236 68.3015 50.4236 73.4151V74.9551L59.3441 70.9901L32 58.8227Z" fill="#01348D"/>
<path d="M26.3627 80.416V82H20.0147V80.74L23.2547 77.68C23.5987 77.352 23.8307 77.072 23.9507 76.84C24.0707 76.6 24.1307 76.364 24.1307 76.132C24.1307 75.796 24.0147 75.54 23.7827 75.364C23.5587 75.18 23.2267 75.088 22.7867 75.088C22.4187 75.088 22.0867 75.16 21.7907 75.304C21.4947 75.44 21.2467 75.648 21.0467 75.928L19.6307 75.016C19.9587 74.528 20.4107 74.148 20.9867 73.876C21.5627 73.596 22.2227 73.456 22.9667 73.456C23.5907 73.456 24.1347 73.56 24.5987 73.768C25.0707 73.968 25.4347 74.256 25.6907 74.632C25.9547 75 26.0867 75.436 26.0867 75.94C26.0867 76.396 25.9907 76.824 25.7987 77.224C25.6067 77.624 25.2347 78.08 24.6827 78.592L22.7507 80.416H26.3627ZM30.2614 82.144C29.5654 82.144 28.9454 81.972 28.4014 81.628C27.8574 81.284 27.4294 80.788 27.1174 80.14C26.8134 79.484 26.6614 78.704 26.6614 77.8C26.6614 76.896 26.8134 76.12 27.1174 75.472C27.4294 74.816 27.8574 74.316 28.4014 73.972C28.9454 73.628 29.5654 73.456 30.2614 73.456C30.9574 73.456 31.5774 73.628 32.1214 73.972C32.6654 74.316 33.0894 74.816 33.3934 75.472C33.7054 76.12 33.8614 76.896 33.8614 77.8C33.8614 78.704 33.7054 79.484 33.3934 80.14C33.0894 80.788 32.6654 81.284 32.1214 81.628C31.5774 81.972 30.9574 82.144 30.2614 82.144ZM30.2614 80.5C30.7734 80.5 31.1734 80.28 31.4614 79.84C31.7574 79.4 31.9054 78.72 31.9054 77.8C31.9054 76.88 31.7574 76.2 31.4614 75.76C31.1734 75.32 30.7734 75.1 30.2614 75.1C29.7574 75.1 29.3574 75.32 29.0614 75.76C28.7734 76.2 28.6294 76.88 28.6294 77.8C28.6294 78.72 28.7734 79.4 29.0614 79.84C29.3574 80.28 29.7574 80.5 30.2614 80.5ZM36.2699 78.136C35.6539 78.136 35.1499 77.928 34.7579 77.512C34.3739 77.088 34.1819 76.524 34.1819 75.82C34.1819 75.116 34.3739 74.556 34.7579 74.14C35.1499 73.716 35.6539 73.504 36.2699 73.504C36.8859 73.504 37.3859 73.716 37.7699 74.14C38.1539 74.556 38.3459 75.116 38.3459 75.82C38.3459 76.524 38.1539 77.088 37.7699 77.512C37.3859 77.928 36.8859 78.136 36.2699 78.136ZM41.2739 73.6H42.7019L36.9659 82H35.5379L41.2739 73.6ZM36.2699 77.152C36.5419 77.152 36.7539 77.04 36.9059 76.816C37.0659 76.592 37.1459 76.26 37.1459 75.82C37.1459 75.38 37.0659 75.048 36.9059 74.824C36.7539 74.6 36.5419 74.488 36.2699 74.488C36.0059 74.488 35.7939 74.604 35.6339 74.836C35.4739 75.06 35.3939 75.388 35.3939 75.82C35.3939 76.252 35.4739 76.584 35.6339 76.816C35.7939 77.04 36.0059 77.152 36.2699 77.152ZM41.9699 82.096C41.5699 82.096 41.2099 82.004 40.8899 81.82C40.5779 81.628 40.3339 81.356 40.1579 81.004C39.9819 80.652 39.8939 80.244 39.8939 79.78C39.8939 79.316 39.9819 78.908 40.1579 78.556C40.3339 78.204 40.5779 77.936 40.8899 77.752C41.2099 77.56 41.5699 77.464 41.9699 77.464C42.5859 77.464 43.0859 77.676 43.4699 78.1C43.8619 78.516 44.0579 79.076 44.0579 79.78C44.0579 80.484 43.8619 81.048 43.4699 81.472C43.0859 81.888 42.5859 82.096 41.9699 82.096ZM41.9699 81.112C42.2419 81.112 42.4539 81 42.6059 80.776C42.7659 80.544 42.8459 80.212 42.8459 79.78C42.8459 79.348 42.7659 79.02 42.6059 78.796C42.4539 78.564 42.2419 78.448 41.9699 78.448C41.7059 78.448 41.4939 78.56 41.3339 78.784C41.1739 79.008 41.0939 79.34 41.0939 79.78C41.0939 80.22 41.1739 80.552 41.3339 80.776C41.4939 81 41.7059 81.112 41.9699 81.112Z" fill="white"/>
<path d="M82.14 71.6V80H81.288V73.28L77.988 78.932H77.568L74.268 73.316V80H73.416V71.6H74.148L77.796 77.828L81.408 71.6H82.14ZM89.8307 72.368H85.3547L85.3667 80H84.4907V71.6H89.8307V72.368ZM90.8779 71.6H91.7539V78.56L97.1299 71.6H97.9339V80H97.0579V73.052L91.6819 80H90.8779V71.6ZM109.012 71.6V80H108.161V73.28L104.86 78.932H104.44L101.14 73.316V80H100.288V71.6H101.02L104.668 77.828L108.28 71.6H109.012ZM115.047 80.072C114.215 80.072 113.459 79.888 112.779 79.52C112.107 79.144 111.579 78.632 111.195 77.984C110.819 77.336 110.631 76.608 110.631 75.8C110.631 74.992 110.819 74.264 111.195 73.616C111.579 72.968 112.107 72.46 112.779 72.092C113.459 71.716 114.215 71.528 115.047 71.528C115.879 71.528 116.627 71.712 117.291 72.08C117.963 72.448 118.491 72.96 118.875 73.616C119.259 74.264 119.451 74.992 119.451 75.8C119.451 76.608 119.259 77.34 118.875 77.996C118.491 78.644 117.963 79.152 117.291 79.52C116.627 79.888 115.879 80.072 115.047 80.072ZM115.047 79.28C115.711 79.28 116.311 79.132 116.847 78.836C117.383 78.532 117.803 78.116 118.107 77.588C118.411 77.052 118.563 76.456 118.563 75.8C118.563 75.144 118.411 74.552 118.107 74.024C117.803 73.488 117.383 73.072 116.847 72.776C116.311 72.472 115.711 72.32 115.047 72.32C114.383 72.32 113.779 72.472 113.235 72.776C112.699 73.072 112.275 73.488 111.963 74.024C111.659 74.552 111.507 75.144 111.507 75.8C111.507 76.456 111.659 77.052 111.963 77.588C112.275 78.116 112.699 78.532 113.235 78.836C113.779 79.132 114.383 79.28 115.047 79.28ZM132.475 71.6V80H131.623V73.28L128.323 78.932H127.903L124.603 73.316V80H123.751V71.6H124.483L128.131 77.828L131.743 71.6H132.475ZM134.826 71.6H135.702V78.56L141.078 71.6H141.882V80H141.006V73.052L135.63 80H134.826V71.6ZM151.823 79.232V81.884H150.995V80H143.663L143.651 81.884H142.823L142.835 79.232H143.255C143.807 79.2 144.191 78.764 144.407 77.924C144.623 77.076 144.755 75.876 144.803 74.324L144.899 71.6H150.563V79.232H151.823ZM145.595 74.408C145.555 75.688 145.455 76.744 145.295 77.576C145.143 78.4 144.883 78.952 144.515 79.232H149.687V72.368H145.667L145.595 74.408ZM158.959 71.6C160.031 71.6 160.871 71.856 161.479 72.368C162.087 72.88 162.391 73.584 162.391 74.48C162.391 75.376 162.087 76.08 161.479 76.592C160.871 77.096 160.031 77.348 158.959 77.348H156.703V80H155.815V71.6H158.959ZM158.935 76.568C159.767 76.568 160.403 76.388 160.843 76.028C161.283 75.66 161.503 75.144 161.503 74.48C161.503 73.8 161.283 73.28 160.843 72.92C160.403 72.552 159.767 72.368 158.935 72.368H156.703V76.568H158.935ZM166.102 80.06C165.494 80.06 164.946 79.924 164.458 79.652C163.97 79.372 163.586 78.988 163.306 78.5C163.026 78.012 162.886 77.46 162.886 76.844C162.886 76.228 163.026 75.676 163.306 75.188C163.586 74.7 163.97 74.32 164.458 74.048C164.946 73.776 165.494 73.64 166.102 73.64C166.71 73.64 167.258 73.776 167.746 74.048C168.234 74.32 168.614 74.7 168.886 75.188C169.166 75.676 169.306 76.228 169.306 76.844C169.306 77.46 169.166 78.012 168.886 78.5C168.614 78.988 168.234 79.372 167.746 79.652C167.258 79.924 166.71 80.06 166.102 80.06ZM166.102 79.304C166.55 79.304 166.95 79.204 167.302 79.004C167.662 78.796 167.942 78.504 168.142 78.128C168.342 77.752 168.442 77.324 168.442 76.844C168.442 76.364 168.342 75.936 168.142 75.56C167.942 75.184 167.662 74.896 167.302 74.696C166.95 74.488 166.55 74.384 166.102 74.384C165.654 74.384 165.25 74.488 164.89 74.696C164.538 74.896 164.258 75.184 164.05 75.56C163.85 75.936 163.75 76.364 163.75 76.844C163.75 77.324 163.85 77.752 164.05 78.128C164.258 78.504 164.538 78.796 164.89 79.004C165.25 79.204 165.654 79.304 166.102 79.304ZM173.287 80.06C172.663 80.06 172.103 79.924 171.607 79.652C171.119 79.38 170.735 79 170.455 78.512C170.175 78.016 170.035 77.46 170.035 76.844C170.035 76.228 170.175 75.676 170.455 75.188C170.735 74.7 171.119 74.32 171.607 74.048C172.103 73.776 172.663 73.64 173.287 73.64C173.831 73.64 174.315 73.748 174.739 73.964C175.171 74.172 175.511 74.48 175.759 74.888L175.123 75.32C174.915 75.008 174.651 74.776 174.331 74.624C174.011 74.464 173.663 74.384 173.287 74.384C172.831 74.384 172.419 74.488 172.051 74.696C171.691 74.896 171.407 75.184 171.199 75.56C170.999 75.936 170.899 76.364 170.899 76.844C170.899 77.332 170.999 77.764 171.199 78.14C171.407 78.508 171.691 78.796 172.051 79.004C172.419 79.204 172.831 79.304 173.287 79.304C173.663 79.304 174.011 79.228 174.331 79.076C174.651 78.924 174.915 78.692 175.123 78.38L175.759 78.812C175.511 79.22 175.171 79.532 174.739 79.748C174.307 79.956 173.823 80.06 173.287 80.06ZM179.464 80.06C178.84 80.06 178.28 79.924 177.784 79.652C177.296 79.38 176.912 79 176.632 78.512C176.352 78.016 176.212 77.46 176.212 76.844C176.212 76.228 176.352 75.676 176.632 75.188C176.912 74.7 177.296 74.32 177.784 74.048C178.28 73.776 178.84 73.64 179.464 73.64C180.008 73.64 180.492 73.748 180.916 73.964C181.348 74.172 181.688 74.48 181.936 74.888L181.3 75.32C181.092 75.008 180.828 74.776 180.508 74.624C180.188 74.464 179.84 74.384 179.464 74.384C179.008 74.384 178.596 74.488 178.228 74.696C177.868 74.896 177.584 75.184 177.376 75.56C177.176 75.936 177.076 76.364 177.076 76.844C177.076 77.332 177.176 77.764 177.376 78.14C177.584 78.508 177.868 78.796 178.228 79.004C178.596 79.204 179.008 79.304 179.464 79.304C179.84 79.304 180.188 79.228 180.508 79.076C180.828 78.924 181.092 78.692 181.3 78.38L181.936 78.812C181.688 79.22 181.348 79.532 180.916 79.748C180.484 79.956 180 80.06 179.464 80.06ZM183.105 73.688H183.957V78.704L188.169 73.688H188.925V80H188.073V74.984L183.873 80H183.105V73.688ZM190.887 73.688H191.739V78.704L195.951 73.688H196.707V80H195.855V74.984L191.655 80H190.887V73.688Z" fill="#555555"/>
<path d="M63.2013 128.228L50.4239 133.907V143.922C50.4239 146.208 47.1529 147.036 43.9539 147.545C40.7889 148.048 36.5437 148.324 32.0012 148.324C23.5965 148.324 13.5781 147.561 13.5781 143.923V133.908L9.60221 132.141V133.42C10.5483 134.006 11.1957 135.185 11.2227 136.6L11.9133 142.222C11.9599 142.606 11.8409 142.991 11.5859 143.281C11.3328 143.571 10.9666 143.736 10.5818 143.736H5.93985C5.55507 143.736 5.18945 143.57 4.93571 143.281C4.68078 142.99 4.5617 142.606 4.60838 142.222L5.29895 136.6C5.32587 135.185 5.97336 134.005 6.91944 133.42V130.949L0.798862 128.23C0.313545 128.014 -1.52588e-05 127.529 -1.52588e-05 126.995C-1.52588e-05 126.461 0.312363 125.979 0.797668 125.763L31.458 112.116C31.8039 111.961 32.1976 111.961 32.5435 112.116L63.2023 125.762C63.6876 125.977 64 126.462 64 126.994C64 127.529 63.6864 128.013 63.2011 128.228L63.2013 128.228ZM9.06542 141.038L8.55198 136.853C8.54539 136.798 8.5424 136.743 8.5424 136.687C8.5424 136.21 8.37605 135.882 8.26234 135.755C8.14864 135.884 7.98228 136.211 7.98228 136.687C7.98228 136.743 7.97989 136.798 7.97271 136.853L7.45927 141.038H9.06542ZM47.635 143.762C46.8026 142.801 41.7346 141.2 32 141.2C22.2201 141.2 17.1533 142.816 16.3604 143.76C17.565 144.563 22.9657 145.625 32 145.625C41.0212 145.625 46.4194 144.567 47.635 143.762ZM6.92055 127.999V125.986L4.6568 126.993L6.92055 127.999ZM32 114.823L9.60145 124.791V129.189L13.5773 130.955V129.415C13.5773 124.301 27.679 123.904 32.0005 123.904C36.3222 123.904 50.4236 124.301 50.4236 129.415V130.955L59.3441 126.99L32 114.823Z" fill="#01348D"/>
<path d="M24.7564 129.6V138H22.8124V131.16H21.1324V129.6H24.7564ZM28.6876 129.456C29.8636 129.456 30.7836 129.816 31.4476 130.536C32.1116 131.248 32.4436 132.276 32.4436 133.62C32.4436 134.572 32.2636 135.388 31.9036 136.068C31.5516 136.748 31.0516 137.264 30.4036 137.616C29.7556 137.968 29.0076 138.144 28.1596 138.144C27.7116 138.144 27.2836 138.096 26.8756 138C26.4676 137.896 26.1196 137.752 25.8316 137.568L26.5516 136.14C26.9596 136.42 27.4836 136.56 28.1236 136.56C28.8356 136.56 29.3996 136.352 29.8156 135.936C30.2316 135.512 30.4556 134.904 30.4876 134.112C29.9836 134.616 29.2876 134.868 28.3996 134.868C27.8636 134.868 27.3756 134.76 26.9356 134.544C26.4956 134.328 26.1476 134.024 25.8916 133.632C25.6356 133.232 25.5076 132.772 25.5076 132.252C25.5076 131.692 25.6476 131.2 25.9276 130.776C26.2076 130.352 26.5876 130.028 27.0676 129.804C27.5556 129.572 28.0956 129.456 28.6876 129.456ZM28.8316 133.416C29.2556 133.416 29.5996 133.3 29.8636 133.068C30.1356 132.828 30.2716 132.524 30.2716 132.156C30.2716 131.788 30.1396 131.488 29.8756 131.256C29.6196 131.024 29.2636 130.908 28.8076 130.908C28.3916 130.908 28.0516 131.02 27.7876 131.244C27.5316 131.468 27.4036 131.772 27.4036 132.156C27.4036 132.54 27.5316 132.848 27.7876 133.08C28.0516 133.304 28.3996 133.416 28.8316 133.416ZM34.8402 134.136C34.2242 134.136 33.7202 133.928 33.3282 133.512C32.9442 133.088 32.7522 132.524 32.7522 131.82C32.7522 131.116 32.9442 130.556 33.3282 130.14C33.7202 129.716 34.2242 129.504 34.8402 129.504C35.4562 129.504 35.9562 129.716 36.3402 130.14C36.7242 130.556 36.9162 131.116 36.9162 131.82C36.9162 132.524 36.7242 133.088 36.3402 133.512C35.9562 133.928 35.4562 134.136 34.8402 134.136ZM39.8442 129.6H41.2722L35.5362 138H34.1082L39.8442 129.6ZM34.8402 133.152C35.1122 133.152 35.3242 133.04 35.4762 132.816C35.6362 132.592 35.7162 132.26 35.7162 131.82C35.7162 131.38 35.6362 131.048 35.4762 130.824C35.3242 130.6 35.1122 130.488 34.8402 130.488C34.5762 130.488 34.3642 130.604 34.2042 130.836C34.0442 131.06 33.9642 131.388 33.9642 131.82C33.9642 132.252 34.0442 132.584 34.2042 132.816C34.3642 133.04 34.5762 133.152 34.8402 133.152ZM40.5402 138.096C40.1402 138.096 39.7802 138.004 39.4602 137.82C39.1482 137.628 38.9042 137.356 38.7282 137.004C38.5522 136.652 38.4642 136.244 38.4642 135.78C38.4642 135.316 38.5522 134.908 38.7282 134.556C38.9042 134.204 39.1482 133.936 39.4602 133.752C39.7802 133.56 40.1402 133.464 40.5402 133.464C41.1562 133.464 41.6562 133.676 42.0402 134.1C42.4322 134.516 42.6282 135.076 42.6282 135.78C42.6282 136.484 42.4322 137.048 42.0402 137.472C41.6562 137.888 41.1562 138.096 40.5402 138.096ZM40.5402 137.112C40.8122 137.112 41.0242 137 41.1762 136.776C41.3362 136.544 41.4162 136.212 41.4162 135.78C41.4162 135.348 41.3362 135.02 41.1762 134.796C41.0242 134.564 40.8122 134.448 40.5402 134.448C40.2762 134.448 40.0642 134.56 39.9042 134.784C39.7442 135.008 39.6642 135.34 39.6642 135.78C39.6642 136.22 39.7442 136.552 39.9042 136.776C40.0642 137 40.2762 137.112 40.5402 137.112Z" fill="white"/>
<path d="M78.756 128.368H74.28L74.292 136H73.416V127.6H78.756V128.368ZM86.4032 127.6L82.5872 134.668C82.3152 135.172 81.9952 135.548 81.6272 135.796C81.2672 136.036 80.8712 136.156 80.4392 136.156C80.1192 136.156 79.7752 136.08 79.4072 135.928L79.6592 135.208C79.9472 135.32 80.2112 135.376 80.4512 135.376C81.0032 135.376 81.4552 135.076 81.8072 134.476L82.0472 134.068L78.6392 127.6H79.5872L82.5152 133.288L85.5152 127.6H86.4032ZM95.1201 131.668C95.7041 131.788 96.1481 132.024 96.4521 132.376C96.7561 132.72 96.9081 133.172 96.9081 133.732C96.9081 134.46 96.6481 135.02 96.1281 135.412C95.6161 135.804 94.8601 136 93.8601 136H90.1401V127.6H93.6321C94.5281 127.6 95.2281 127.784 95.7321 128.152C96.2361 128.52 96.4881 129.052 96.4881 129.748C96.4881 130.22 96.3681 130.62 96.1281 130.948C95.8881 131.268 95.5521 131.508 95.1201 131.668ZM91.0161 131.404H93.5841C94.2321 131.404 94.7281 131.272 95.0721 131.008C95.4241 130.744 95.6001 130.36 95.6001 129.856C95.6001 129.352 95.4241 128.968 95.0721 128.704C94.7281 128.44 94.2321 128.308 93.5841 128.308H91.0161V131.404ZM93.8601 135.292C95.3081 135.292 96.0321 134.752 96.0321 133.672C96.0321 132.616 95.3081 132.088 93.8601 132.088H91.0161V135.292H93.8601ZM108.944 127.6V136H98.6483V127.6H99.5243V135.232H103.364V127.6H104.24V135.232H108.068V127.6H108.944ZM113.465 127.528C114.249 127.528 114.957 127.712 115.589 128.08C116.229 128.448 116.729 128.96 117.089 129.616C117.457 130.264 117.641 130.992 117.641 131.8C117.641 132.608 117.457 133.34 117.089 133.996C116.729 134.644 116.229 135.152 115.589 135.52C114.957 135.888 114.249 136.072 113.465 136.072C112.809 136.072 112.209 135.968 111.665 135.76C111.121 135.552 110.665 135.244 110.297 134.836L110.849 134.272C111.513 134.944 112.373 135.28 113.429 135.28C114.021 135.28 114.561 135.144 115.049 134.872C115.537 134.592 115.929 134.212 116.225 133.732C116.529 133.244 116.701 132.696 116.741 132.088H112.409V131.356H116.729C116.665 130.772 116.481 130.252 116.177 129.796C115.881 129.332 115.493 128.972 115.013 128.716C114.533 128.452 114.005 128.32 113.429 128.32C112.373 128.32 111.513 128.656 110.849 129.328L110.297 128.764C110.665 128.356 111.121 128.048 111.665 127.84C112.209 127.632 112.809 127.528 113.465 127.528Z" fill="#555555"/>
<path d="M63.2013 184.228L50.4239 189.907V199.922C50.4239 202.208 47.1529 203.036 43.9539 203.545C40.7889 204.048 36.5437 204.324 32.0012 204.324C23.5965 204.324 13.5781 203.561 13.5781 199.923V189.908L9.60221 188.141V189.42C10.5483 190.006 11.1957 191.185 11.2227 192.6L11.9133 198.222C11.9599 198.606 11.8409 198.991 11.5859 199.281C11.3328 199.571 10.9666 199.736 10.5818 199.736H5.93985C5.55507 199.736 5.18945 199.57 4.93571 199.281C4.68078 198.99 4.5617 198.606 4.60838 198.222L5.29895 192.6C5.32587 191.185 5.97336 190.005 6.91944 189.42V186.949L0.798862 184.23C0.313545 184.014 -1.52588e-05 183.529 -1.52588e-05 182.995C-1.52588e-05 182.461 0.312363 181.979 0.797668 181.763L31.458 168.116C31.8039 167.961 32.1976 167.961 32.5435 168.116L63.2023 181.762C63.6876 181.977 64 182.462 64 182.994C64 183.529 63.6864 184.013 63.2011 184.228L63.2013 184.228ZM9.06542 197.038L8.55198 192.853C8.54539 192.798 8.5424 192.743 8.5424 192.687C8.5424 192.21 8.37605 191.882 8.26234 191.755C8.14864 191.884 7.98228 192.211 7.98228 192.687C7.98228 192.743 7.97989 192.798 7.97271 192.853L7.45927 197.038H9.06542ZM47.635 199.762C46.8026 198.801 41.7346 197.2 32 197.2C22.2201 197.2 17.1533 198.816 16.3604 199.76C17.565 200.563 22.9657 201.625 32 201.625C41.0212 201.625 46.4194 200.567 47.635 199.762ZM6.92055 183.999V181.986L4.6568 182.993L6.92055 183.999ZM32 170.823L9.60145 180.791V185.189L13.5773 186.955V185.415C13.5773 180.301 27.679 179.904 32.0005 179.904C36.3222 179.904 50.4236 180.301 50.4236 185.415V186.955L59.3441 182.99L32 170.823Z" fill="#01348D"/>
<path d="M27.7872 188.732C28.3232 188.732 28.8112 188.84 29.2512 189.056C29.6912 189.272 30.0392 189.58 30.2952 189.98C30.5512 190.372 30.6792 190.828 30.6792 191.348C30.6792 191.908 30.5392 192.4 30.2592 192.824C29.9792 193.248 29.5952 193.576 29.1072 193.808C28.6272 194.032 28.0912 194.144 27.4992 194.144C26.3232 194.144 25.4032 193.784 24.7392 193.064C24.0752 192.344 23.7432 191.316 23.7432 189.98C23.7432 189.028 23.9232 188.212 24.2832 187.532C24.6432 186.852 25.1432 186.336 25.7832 185.984C26.4312 185.632 27.1792 185.456 28.0272 185.456C28.4752 185.456 28.9032 185.508 29.3112 185.612C29.7272 185.708 30.0792 185.848 30.3672 186.032L29.6472 187.46C29.2312 187.18 28.7072 187.04 28.0752 187.04C27.3632 187.04 26.7992 187.248 26.3832 187.664C25.9672 188.08 25.7432 188.684 25.7112 189.476C26.2072 188.98 26.8992 188.732 27.7872 188.732ZM27.3912 192.692C27.8072 192.692 28.1432 192.58 28.3992 192.356C28.6632 192.132 28.7952 191.828 28.7952 191.444C28.7952 191.06 28.6632 190.756 28.3992 190.532C28.1432 190.3 27.7992 190.184 27.3672 190.184C26.9432 190.184 26.5952 190.304 26.3232 190.544C26.0512 190.776 25.9152 191.076 25.9152 191.444C25.9152 191.812 26.0472 192.112 26.3112 192.344C26.5752 192.576 26.9352 192.692 27.3912 192.692ZM32.6134 190.136C31.9974 190.136 31.4934 189.928 31.1014 189.512C30.7174 189.088 30.5254 188.524 30.5254 187.82C30.5254 187.116 30.7174 186.556 31.1014 186.14C31.4934 185.716 31.9974 185.504 32.6134 185.504C33.2294 185.504 33.7294 185.716 34.1134 186.14C34.4974 186.556 34.6894 187.116 34.6894 187.82C34.6894 188.524 34.4974 189.088 34.1134 189.512C33.7294 189.928 33.2294 190.136 32.6134 190.136ZM37.6174 185.6H39.0454L33.3094 194H31.8814L37.6174 185.6ZM32.6134 189.152C32.8854 189.152 33.0974 189.04 33.2494 188.816C33.4094 188.592 33.4894 188.26 33.4894 187.82C33.4894 187.38 33.4094 187.048 33.2494 186.824C33.0974 186.6 32.8854 186.488 32.6134 186.488C32.3494 186.488 32.1374 186.604 31.9774 186.836C31.8174 187.06 31.7374 187.388 31.7374 187.82C31.7374 188.252 31.8174 188.584 31.9774 188.816C32.1374 189.04 32.3494 189.152 32.6134 189.152ZM38.3134 194.096C37.9134 194.096 37.5534 194.004 37.2334 193.82C36.9214 193.628 36.6774 193.356 36.5014 193.004C36.3254 192.652 36.2374 192.244 36.2374 191.78C36.2374 191.316 36.3254 190.908 36.5014 190.556C36.6774 190.204 36.9214 189.936 37.2334 189.752C37.5534 189.56 37.9134 189.464 38.3134 189.464C38.9294 189.464 39.4294 189.676 39.8134 190.1C40.2054 190.516 40.4014 191.076 40.4014 191.78C40.4014 192.484 40.2054 193.048 39.8134 193.472C39.4294 193.888 38.9294 194.096 38.3134 194.096ZM38.3134 193.112C38.5854 193.112 38.7974 193 38.9494 192.776C39.1094 192.544 39.1894 192.212 39.1894 191.78C39.1894 191.348 39.1094 191.02 38.9494 190.796C38.7974 190.564 38.5854 190.448 38.3134 190.448C38.0494 190.448 37.8374 190.56 37.6774 190.784C37.5174 191.008 37.4374 191.34 37.4374 191.78C37.4374 192.22 37.5174 192.552 37.6774 192.776C37.8374 193 38.0494 193.112 38.3134 193.112Z" fill="white"/>
<path d="M76.56 183.6C77.632 183.6 78.472 183.856 79.08 184.368C79.688 184.88 79.992 185.584 79.992 186.48C79.992 187.376 79.688 188.08 79.08 188.592C78.472 189.096 77.632 189.348 76.56 189.348H74.304V192H73.416V183.6H76.56ZM76.536 188.568C77.368 188.568 78.004 188.388 78.444 188.028C78.884 187.66 79.104 187.144 79.104 186.48C79.104 185.8 78.884 185.28 78.444 184.92C78.004 184.552 77.368 184.368 76.536 184.368H74.304V188.568H76.536ZM86.2925 189.756H81.6125L80.6045 192H79.6805L83.5205 183.6H84.3965L88.2365 192H87.3005L86.2925 189.756ZM85.9685 189.036L83.9525 184.524L81.9365 189.036H85.9685ZM96.3862 183.6V192H95.5102V188.124H90.2542V192H89.3662V183.6H90.2542V187.344H95.5102V183.6H96.3862ZM98.8256 183.6L101.214 186.924L103.59 183.6H104.634L101.766 187.632L104.862 192H103.818L101.214 188.388L98.6096 192H97.5896L100.674 187.668L97.8056 183.6H98.8256ZM105.745 185.688H106.597V190.704L110.809 185.688H111.565V192H110.713V186.984L106.513 192H105.745V185.688ZM119.071 184.368H114.595L114.607 192H113.731V183.6H119.071V184.368ZM122.653 192.072C121.821 192.072 121.069 191.888 120.397 191.52C119.733 191.152 119.209 190.644 118.825 189.996C118.449 189.34 118.261 188.608 118.261 187.8C118.261 186.992 118.449 186.264 118.825 185.616C119.209 184.96 119.737 184.448 120.409 184.08C121.081 183.712 121.833 183.528 122.665 183.528C123.289 183.528 123.865 183.632 124.393 183.84C124.921 184.048 125.369 184.352 125.737 184.752L125.173 185.316C124.517 184.652 123.689 184.32 122.689 184.32C122.025 184.32 121.421 184.472 120.877 184.776C120.333 185.08 119.905 185.496 119.593 186.024C119.289 186.552 119.137 187.144 119.137 187.8C119.137 188.456 119.289 189.048 119.593 189.576C119.905 190.104 120.333 190.52 120.877 190.824C121.421 191.128 122.025 191.28 122.689 191.28C123.697 191.28 124.525 190.944 125.173 190.272L125.737 190.836C125.369 191.236 124.917 191.544 124.381 191.76C123.853 191.968 123.277 192.072 122.653 192.072Z" fill="#555555"/>
<path d="M303.201 16.2283L290.424 21.9072V31.9223C290.424 34.2082 287.153 35.036 283.954 35.5447C280.789 36.048 276.544 36.3243 272.001 36.3243C263.597 36.3243 253.578 35.561 253.578 31.9229V21.9077L249.602 20.1414V21.4201C250.548 22.0065 251.196 23.1852 251.223 24.6L251.913 30.2222C251.96 30.6063 251.841 30.991 251.586 31.2805C251.333 31.5707 250.967 31.7363 250.582 31.7363H245.94C245.555 31.7363 245.189 31.5701 244.936 31.2805C244.681 30.9904 244.562 30.6063 244.608 30.2222L245.299 24.6C245.326 23.1852 245.973 22.0053 246.919 21.4201V18.9494L240.799 16.2296C240.314 16.0141 240 15.5294 240 14.9954C240 14.4615 240.312 13.9786 240.798 13.7631L271.458 0.116489C271.804 -0.0388298 272.198 -0.0388298 272.544 0.116489L303.202 13.7619C303.688 13.9774 304 14.462 304 14.9942C304 15.5288 303.686 16.0128 303.201 16.2283L303.201 16.2283ZM249.065 29.038L248.552 24.8534C248.545 24.7981 248.542 24.7427 248.542 24.6873C248.542 24.2099 248.376 23.8824 248.262 23.7554C248.149 23.8836 247.982 24.2111 247.982 24.6873C247.982 24.7427 247.98 24.7981 247.973 24.8534L247.459 29.038H249.065ZM287.635 31.7622C286.803 30.8008 281.735 29.2 272 29.2C262.22 29.2 257.153 30.8158 256.36 31.7597C257.565 32.5628 262.966 33.6253 272 33.6253C281.021 33.6253 286.419 32.5671 287.635 31.7622ZM246.921 15.9991V13.986L244.657 14.9932L246.921 15.9991ZM272 2.8227L249.601 12.791V17.1887L253.577 18.9551V17.4151C253.577 12.3015 267.679 11.9036 272 11.9036C276.322 11.9036 290.424 12.3015 290.424 17.4151V18.9551L299.344 14.9901L272 2.8227Z" fill="#01348D"/>
<path d="M267.787 20.732C268.323 20.732 268.811 20.84 269.251 21.056C269.691 21.272 270.039 21.58 270.295 21.98C270.551 22.372 270.679 22.828 270.679 23.348C270.679 23.908 270.539 24.4 270.259 24.824C269.979 25.248 269.595 25.576 269.107 25.808C268.627 26.032 268.091 26.144 267.499 26.144C266.323 26.144 265.403 25.784 264.739 25.064C264.075 24.344 263.743 23.316 263.743 21.98C263.743 21.028 263.923 20.212 264.283 19.532C264.643 18.852 265.143 18.336 265.783 17.984C266.431 17.632 267.179 17.456 268.027 17.456C268.475 17.456 268.903 17.508 269.311 17.612C269.727 17.708 270.079 17.848 270.367 18.032L269.647 19.46C269.231 19.18 268.707 19.04 268.075 19.04C267.363 19.04 266.799 19.248 266.383 19.664C265.967 20.08 265.743 20.684 265.711 21.476C266.207 20.98 266.899 20.732 267.787 20.732ZM267.391 24.692C267.807 24.692 268.143 24.58 268.399 24.356C268.663 24.132 268.795 23.828 268.795 23.444C268.795 23.06 268.663 22.756 268.399 22.532C268.143 22.3 267.799 22.184 267.367 22.184C266.943 22.184 266.595 22.304 266.323 22.544C266.051 22.776 265.915 23.076 265.915 23.444C265.915 23.812 266.047 24.112 266.311 24.344C266.575 24.576 266.935 24.692 267.391 24.692ZM272.613 22.136C271.997 22.136 271.493 21.928 271.101 21.512C270.717 21.088 270.525 20.524 270.525 19.82C270.525 19.116 270.717 18.556 271.101 18.14C271.493 17.716 271.997 17.504 272.613 17.504C273.229 17.504 273.729 17.716 274.113 18.14C274.497 18.556 274.689 19.116 274.689 19.82C274.689 20.524 274.497 21.088 274.113 21.512C273.729 21.928 273.229 22.136 272.613 22.136ZM277.617 17.6H279.045L273.309 26H271.881L277.617 17.6ZM272.613 21.152C272.885 21.152 273.097 21.04 273.249 20.816C273.409 20.592 273.489 20.26 273.489 19.82C273.489 19.38 273.409 19.048 273.249 18.824C273.097 18.6 272.885 18.488 272.613 18.488C272.349 18.488 272.137 18.604 271.977 18.836C271.817 19.06 271.737 19.388 271.737 19.82C271.737 20.252 271.817 20.584 271.977 20.816C272.137 21.04 272.349 21.152 272.613 21.152ZM278.313 26.096C277.913 26.096 277.553 26.004 277.233 25.82C276.921 25.628 276.677 25.356 276.501 25.004C276.325 24.652 276.237 24.244 276.237 23.78C276.237 23.316 276.325 22.908 276.501 22.556C276.677 22.204 276.921 21.936 277.233 21.752C277.553 21.56 277.913 21.464 278.313 21.464C278.929 21.464 279.429 21.676 279.813 22.1C280.205 22.516 280.401 23.076 280.401 23.78C280.401 24.484 280.205 25.048 279.813 25.472C279.429 25.888 278.929 26.096 278.313 26.096ZM278.313 25.112C278.585 25.112 278.797 25 278.949 24.776C279.109 24.544 279.189 24.212 279.189 23.78C279.189 23.348 279.109 23.02 278.949 22.796C278.797 22.564 278.585 22.448 278.313 22.448C278.049 22.448 277.837 22.56 277.677 22.784C277.517 23.008 277.437 23.34 277.437 23.78C277.437 24.22 277.517 24.552 277.677 24.776C277.837 25 278.049 25.112 278.313 25.112Z" fill="white"/>
<path d="M322.404 11.788C322.404 12.9 322.008 13.776 321.216 14.416C320.432 15.048 319.332 15.384 317.916 15.424V16.288H317.088V15.424C315.672 15.376 314.568 15.036 313.776 14.404C312.992 13.772 312.6 12.9 312.6 11.788C312.6 10.676 312.992 9.804 313.776 9.172C314.568 8.54 315.672 8.2 317.088 8.152V7.312H317.916V8.152C319.324 8.2 320.424 8.544 321.216 9.184C322.008 9.816 322.404 10.684 322.404 11.788ZM317.916 14.716C319.076 14.668 319.972 14.392 320.604 13.888C321.236 13.384 321.552 12.684 321.552 11.788C321.552 10.892 321.232 10.192 320.592 9.688C319.96 9.184 319.068 8.912 317.916 8.872V14.716ZM313.452 11.788C313.452 12.684 313.768 13.384 314.4 13.888C315.04 14.384 315.936 14.66 317.088 14.716V8.872C315.92 8.92 315.02 9.196 314.388 9.7C313.764 10.196 313.452 10.892 313.452 11.788ZM323.736 9.688H324.588V14.704L328.8 9.688H329.556V16H328.704V10.984L324.504 16H323.736V9.688ZM331.518 9.688H332.37V12.484H336.342V9.688H337.194V16H336.342V13.216H332.37V16H331.518V9.688ZM341.307 9.64C342.131 9.64 342.763 9.848 343.203 10.264C343.643 10.672 343.863 11.28 343.863 12.088V16H343.047V15.016C342.855 15.344 342.571 15.6 342.195 15.784C341.827 15.968 341.387 16.06 340.875 16.06C340.171 16.06 339.611 15.892 339.195 15.556C338.779 15.22 338.571 14.776 338.571 14.224C338.571 13.688 338.763 13.256 339.147 12.928C339.539 12.6 340.159 12.436 341.007 12.436H343.011V12.052C343.011 11.508 342.859 11.096 342.555 10.816C342.251 10.528 341.807 10.384 341.223 10.384C340.823 10.384 340.439 10.452 340.071 10.588C339.703 10.716 339.387 10.896 339.123 11.128L338.739 10.492C339.059 10.22 339.443 10.012 339.891 9.868C340.339 9.716 340.811 9.64 341.307 9.64ZM341.007 15.388C341.487 15.388 341.899 15.28 342.243 15.064C342.587 14.84 342.843 14.52 343.011 14.104V13.072H341.031C339.951 13.072 339.411 13.448 339.411 14.2C339.411 14.568 339.551 14.86 339.831 15.076C340.111 15.284 340.503 15.388 341.007 15.388ZM345.651 9.688H346.503V12.484H350.475V9.688H351.327V16H350.475V13.216H346.503V16H345.651V9.688ZM355.909 16.06C355.285 16.06 354.725 15.924 354.229 15.652C353.741 15.38 353.357 15 353.077 14.512C352.797 14.016 352.657 13.46 352.657 12.844C352.657 12.228 352.797 11.676 353.077 11.188C353.357 10.7 353.741 10.32 354.229 10.048C354.725 9.776 355.285 9.64 355.909 9.64C356.453 9.64 356.937 9.748 357.361 9.964C357.793 10.172 358.133 10.48 358.381 10.888L357.745 11.32C357.537 11.008 357.273 10.776 356.953 10.624C356.633 10.464 356.285 10.384 355.909 10.384C355.453 10.384 355.041 10.488 354.673 10.696C354.313 10.896 354.029 11.184 353.821 11.56C353.621 11.936 353.521 12.364 353.521 12.844C353.521 13.332 353.621 13.764 353.821 14.14C354.029 14.508 354.313 14.796 354.673 15.004C355.041 15.204 355.453 15.304 355.909 15.304C356.285 15.304 356.633 15.228 356.953 15.076C357.273 14.924 357.537 14.692 357.745 14.38L358.381 14.812C358.133 15.22 357.793 15.532 357.361 15.748C356.929 15.956 356.445 16.06 355.909 16.06ZM362.049 16.06C361.441 16.06 360.893 15.924 360.405 15.652C359.917 15.372 359.533 14.988 359.253 14.5C358.973 14.012 358.833 13.46 358.833 12.844C358.833 12.228 358.973 11.676 359.253 11.188C359.533 10.7 359.917 10.32 360.405 10.048C360.893 9.776 361.441 9.64 362.049 9.64C362.657 9.64 363.205 9.776 363.693 10.048C364.181 10.32 364.561 10.7 364.833 11.188C365.113 11.676 365.253 12.228 365.253 12.844C365.253 13.46 365.113 14.012 364.833 14.5C364.561 14.988 364.181 15.372 363.693 15.652C363.205 15.924 362.657 16.06 362.049 16.06ZM362.049 15.304C362.497 15.304 362.897 15.204 363.249 15.004C363.609 14.796 363.889 14.504 364.089 14.128C364.289 13.752 364.389 13.324 364.389 12.844C364.389 12.364 364.289 11.936 364.089 11.56C363.889 11.184 363.609 10.896 363.249 10.696C362.897 10.488 362.497 10.384 362.049 10.384C361.601 10.384 361.197 10.488 360.837 10.696C360.485 10.896 360.205 11.184 359.997 11.56C359.797 11.936 359.697 12.364 359.697 12.844C359.697 13.324 359.797 13.752 359.997 14.128C360.205 14.504 360.485 14.796 360.837 15.004C361.197 15.204 361.601 15.304 362.049 15.304ZM370.614 12.736C371.47 12.936 371.898 13.452 371.898 14.284C371.898 14.836 371.694 15.26 371.286 15.556C370.878 15.852 370.27 16 369.462 16H366.594V9.688H369.378C370.098 9.688 370.662 9.828 371.07 10.108C371.478 10.388 371.682 10.788 371.682 11.308C371.682 11.652 371.586 11.948 371.394 12.196C371.21 12.436 370.95 12.616 370.614 12.736ZM367.422 12.496H369.318C369.806 12.496 370.178 12.404 370.434 12.22C370.698 12.036 370.83 11.768 370.83 11.416C370.83 11.064 370.698 10.8 370.434 10.624C370.178 10.448 369.806 10.36 369.318 10.36H367.422V12.496ZM369.426 15.328C369.97 15.328 370.378 15.24 370.65 15.064C370.922 14.888 371.058 14.612 371.058 14.236C371.058 13.86 370.934 13.584 370.686 13.408C370.438 13.224 370.046 13.132 369.51 13.132H367.422V15.328H369.426ZM376.067 11.92C376.859 11.928 377.463 12.104 377.879 12.448C378.295 12.792 378.503 13.288 378.503 13.936C378.503 14.608 378.279 15.124 377.831 15.484C377.383 15.844 376.743 16.02 375.911 16.012L373.415 16V9.688H374.267V11.896L376.067 11.92ZM379.559 9.688H380.411V16H379.559V9.688ZM375.863 15.364C376.447 15.372 376.887 15.256 377.183 15.016C377.487 14.768 377.639 14.408 377.639 13.936C377.639 13.472 377.491 13.128 377.195 12.904C376.899 12.68 376.455 12.564 375.863 12.556L374.267 12.532V15.34L375.863 15.364ZM382.357 9.688H383.209V14.704L387.421 9.688H388.177V16H387.325V10.984L383.125 16H382.357V9.688ZM385.225 8.776C384.681 8.776 384.249 8.64 383.929 8.368C383.609 8.096 383.445 7.712 383.437 7.216H384.049C384.057 7.528 384.169 7.78 384.385 7.972C384.601 8.156 384.881 8.248 385.225 8.248C385.569 8.248 385.849 8.156 386.065 7.972C386.289 7.78 386.405 7.528 386.413 7.216H387.025C387.017 7.712 386.849 8.096 386.521 8.368C386.201 8.64 385.769 8.776 385.225 8.776ZM398.163 9.688L395.007 16.756C394.751 17.348 394.455 17.768 394.119 18.016C393.783 18.264 393.379 18.388 392.907 18.388C392.603 18.388 392.319 18.34 392.055 18.244C391.791 18.148 391.563 18.004 391.371 17.812L391.767 17.176C392.087 17.496 392.471 17.656 392.919 17.656C393.207 17.656 393.451 17.576 393.651 17.416C393.859 17.256 394.051 16.984 394.227 16.6L394.503 15.988L391.683 9.688H392.571L394.947 15.052L397.323 9.688H398.163ZM399.011 9.688H399.863V12.484H403.835V9.688H404.687V16H403.835V13.216H399.863V16H399.011V9.688ZM406.628 9.688H407.48V14.704L411.692 9.688H412.448V16H411.596V10.984L407.396 16H406.628V9.688ZM418.43 12.736C419.286 12.936 419.714 13.452 419.714 14.284C419.714 14.836 419.51 15.26 419.102 15.556C418.694 15.852 418.086 16 417.278 16H414.41V9.688H417.194C417.914 9.688 418.478 9.828 418.886 10.108C419.294 10.388 419.498 10.788 419.498 11.308C419.498 11.652 419.402 11.948 419.21 12.196C419.026 12.436 418.766 12.616 418.43 12.736ZM415.238 12.496H417.134C417.622 12.496 417.994 12.404 418.25 12.22C418.514 12.036 418.646 11.768 418.646 11.416C418.646 11.064 418.514 10.8 418.25 10.624C417.994 10.448 417.622 10.36 417.134 10.36H415.238V12.496ZM417.242 15.328C417.786 15.328 418.194 15.24 418.466 15.064C418.738 14.888 418.874 14.612 418.874 14.236C418.874 13.86 418.75 13.584 418.502 13.408C418.254 13.224 417.862 13.132 417.326 13.132H415.238V15.328H417.242ZM426.751 13.108H421.471C421.519 13.764 421.771 14.296 422.227 14.704C422.683 15.104 423.259 15.304 423.955 15.304C424.347 15.304 424.707 15.236 425.035 15.1C425.363 14.956 425.647 14.748 425.887 14.476L426.367 15.028C426.087 15.364 425.735 15.62 425.311 15.796C424.895 15.972 424.435 16.06 423.931 16.06C423.283 16.06 422.707 15.924 422.203 15.652C421.707 15.372 421.319 14.988 421.039 14.5C420.759 14.012 420.619 13.46 420.619 12.844C420.619 12.228 420.751 11.676 421.015 11.188C421.287 10.7 421.655 10.32 422.119 10.048C422.591 9.776 423.119 9.64 423.703 9.64C424.287 9.64 424.811 9.776 425.275 10.048C425.739 10.32 426.103 10.7 426.367 11.188C426.631 11.668 426.763 12.22 426.763 12.844L426.751 13.108ZM423.703 10.372C423.095 10.372 422.583 10.568 422.167 10.96C421.759 11.344 421.527 11.848 421.471 12.472H425.947C425.891 11.848 425.655 11.344 425.239 10.96C424.831 10.568 424.319 10.372 423.703 10.372ZM431.421 9.64C432.013 9.64 432.549 9.776 433.029 10.048C433.509 10.312 433.885 10.688 434.157 11.176C434.429 11.664 434.565 12.22 434.565 12.844C434.565 13.476 434.429 14.036 434.157 14.524C433.885 15.012 433.509 15.392 433.029 15.664C432.557 15.928 432.021 16.06 431.421 16.06C430.909 16.06 430.445 15.956 430.029 15.748C429.621 15.532 429.285 15.22 429.021 14.812V18.328H428.169V9.688H428.985V10.936C429.241 10.52 429.577 10.2 429.993 9.976C430.417 9.752 430.893 9.64 431.421 9.64ZM431.361 15.304C431.801 15.304 432.201 15.204 432.561 15.004C432.921 14.796 433.201 14.504 433.401 14.128C433.609 13.752 433.713 13.324 433.713 12.844C433.713 12.364 433.609 11.94 433.401 11.572C433.201 11.196 432.921 10.904 432.561 10.696C432.201 10.488 431.801 10.384 431.361 10.384C430.913 10.384 430.509 10.488 430.149 10.696C429.797 10.904 429.517 11.196 429.309 11.572C429.109 11.94 429.009 12.364 429.009 12.844C429.009 13.324 429.109 13.752 429.309 14.128C429.517 14.504 429.797 14.796 430.149 15.004C430.509 15.204 430.913 15.304 431.361 15.304ZM438.555 16.06C437.931 16.06 437.371 15.924 436.875 15.652C436.387 15.38 436.003 15 435.723 14.512C435.443 14.016 435.303 13.46 435.303 12.844C435.303 12.228 435.443 11.676 435.723 11.188C436.003 10.7 436.387 10.32 436.875 10.048C437.371 9.776 437.931 9.64 438.555 9.64C439.099 9.64 439.583 9.748 440.007 9.964C440.439 10.172 440.779 10.48 441.027 10.888L440.391 11.32C440.183 11.008 439.919 10.776 439.599 10.624C439.279 10.464 438.931 10.384 438.555 10.384C438.099 10.384 437.687 10.488 437.319 10.696C436.959 10.896 436.675 11.184 436.467 11.56C436.267 11.936 436.167 12.364 436.167 12.844C436.167 13.332 436.267 13.764 436.467 14.14C436.675 14.508 436.959 14.796 437.319 15.004C437.687 15.204 438.099 15.304 438.555 15.304C438.931 15.304 439.279 15.228 439.599 15.076C439.919 14.924 440.183 14.692 440.391 14.38L441.027 14.812C440.779 15.22 440.439 15.532 440.007 15.748C439.575 15.956 439.091 16.06 438.555 16.06ZM442.197 9.688H443.049V14.704L447.261 9.688H448.017V16H447.165V10.984L442.965 16H442.197V9.688ZM454.419 10.444H452.031V16H451.179V10.444H448.791V9.688H454.419V10.444ZM460.398 13.108H455.118C455.166 13.764 455.418 14.296 455.874 14.704C456.33 15.104 456.906 15.304 457.602 15.304C457.994 15.304 458.354 15.236 458.682 15.1C459.01 14.956 459.294 14.748 459.534 14.476L460.014 15.028C459.734 15.364 459.382 15.62 458.958 15.796C458.542 15.972 458.082 16.06 457.578 16.06C456.93 16.06 456.354 15.924 455.85 15.652C455.354 15.372 454.966 14.988 454.686 14.5C454.406 14.012 454.266 13.46 454.266 12.844C454.266 12.228 454.398 11.676 454.662 11.188C454.934 10.7 455.302 10.32 455.766 10.048C456.238 9.776 456.766 9.64 457.35 9.64C457.934 9.64 458.458 9.776 458.922 10.048C459.386 10.32 459.75 10.7 460.014 11.188C460.278 11.668 460.41 12.22 460.41 12.844L460.398 13.108ZM457.35 10.372C456.742 10.372 456.23 10.568 455.814 10.96C455.406 11.344 455.174 11.848 455.118 12.472H459.594C459.538 11.848 459.302 11.344 458.886 10.96C458.478 10.568 457.966 10.372 457.35 10.372ZM465.974 10.444H463.586V16H462.734V10.444H460.346V9.688H465.974V10.444ZM318.876 25.688V32H318.024V26.444H314.064V32H313.212V25.688H318.876ZM324.07 25.64C324.662 25.64 325.198 25.776 325.678 26.048C326.158 26.312 326.534 26.688 326.806 27.176C327.078 27.664 327.214 28.22 327.214 28.844C327.214 29.476 327.078 30.036 326.806 30.524C326.534 31.012 326.158 31.392 325.678 31.664C325.206 31.928 324.67 32.06 324.07 32.06C323.558 32.06 323.094 31.956 322.678 31.748C322.27 31.532 321.934 31.22 321.67 30.812V34.328H320.818V25.688H321.634V26.936C321.89 26.52 322.226 26.2 322.642 25.976C323.066 25.752 323.542 25.64 324.07 25.64ZM324.01 31.304C324.45 31.304 324.85 31.204 325.21 31.004C325.57 30.796 325.85 30.504 326.05 30.128C326.258 29.752 326.362 29.324 326.362 28.844C326.362 28.364 326.258 27.94 326.05 27.572C325.85 27.196 325.57 26.904 325.21 26.696C324.85 26.488 324.45 26.384 324.01 26.384C323.562 26.384 323.158 26.488 322.798 26.696C322.446 26.904 322.166 27.196 321.958 27.572C321.758 27.94 321.658 28.364 321.658 28.844C321.658 29.324 321.758 29.752 321.958 30.128C322.166 30.504 322.446 30.796 322.798 31.004C323.158 31.204 323.562 31.304 324.01 31.304ZM328.565 25.688H329.417V30.704L333.628 25.688H334.385V32H333.533V26.984L329.333 32H328.565V25.688ZM346.279 23.6V32H345.403V24.368H340.087V32H339.211V23.6H346.279ZM351.681 25.64C352.273 25.64 352.809 25.776 353.289 26.048C353.769 26.312 354.145 26.688 354.417 27.176C354.689 27.664 354.825 28.22 354.825 28.844C354.825 29.476 354.689 30.036 354.417 30.524C354.145 31.012 353.769 31.392 353.289 31.664C352.817 31.928 352.281 32.06 351.681 32.06C351.169 32.06 350.705 31.956 350.289 31.748C349.881 31.532 349.545 31.22 349.281 30.812V34.328H348.429V25.688H349.245V26.936C349.501 26.52 349.837 26.2 350.253 25.976C350.677 25.752 351.153 25.64 351.681 25.64ZM351.621 31.304C352.061 31.304 352.461 31.204 352.821 31.004C353.181 30.796 353.461 30.504 353.661 30.128C353.869 29.752 353.973 29.324 353.973 28.844C353.973 28.364 353.869 27.94 353.661 27.572C353.461 27.196 353.181 26.904 352.821 26.696C352.461 26.488 352.061 26.384 351.621 26.384C351.173 26.384 350.769 26.488 350.409 26.696C350.057 26.904 349.777 27.196 349.569 27.572C349.369 27.94 349.269 28.364 349.269 28.844C349.269 29.324 349.369 29.752 349.569 30.128C349.777 30.504 350.057 30.796 350.409 31.004C350.769 31.204 351.173 31.304 351.621 31.304ZM358.313 25.64C359.137 25.64 359.769 25.848 360.209 26.264C360.649 26.672 360.869 27.28 360.869 28.088V32H360.053V31.016C359.861 31.344 359.577 31.6 359.201 31.784C358.833 31.968 358.393 32.06 357.881 32.06C357.177 32.06 356.617 31.892 356.201 31.556C355.785 31.22 355.577 30.776 355.577 30.224C355.577 29.688 355.769 29.256 356.153 28.928C356.545 28.6 357.165 28.436 358.013 28.436H360.017V28.052C360.017 27.508 359.865 27.096 359.561 26.816C359.257 26.528 358.813 26.384 358.229 26.384C357.829 26.384 357.445 26.452 357.077 26.588C356.709 26.716 356.393 26.896 356.129 27.128L355.745 26.492C356.065 26.22 356.449 26.012 356.897 25.868C357.345 25.716 357.817 25.64 358.313 25.64ZM358.013 31.388C358.493 31.388 358.905 31.28 359.249 31.064C359.593 30.84 359.849 30.52 360.017 30.104V29.072H358.037C356.957 29.072 356.417 29.448 356.417 30.2C356.417 30.568 356.557 30.86 356.837 31.076C357.117 31.284 357.509 31.388 358.013 31.388ZM366.677 28.736C367.533 28.936 367.961 29.452 367.961 30.284C367.961 30.836 367.757 31.26 367.349 31.556C366.941 31.852 366.333 32 365.525 32H362.657V25.688H365.441C366.161 25.688 366.725 25.828 367.133 26.108C367.541 26.388 367.745 26.788 367.745 27.308C367.745 27.652 367.649 27.948 367.457 28.196C367.273 28.436 367.013 28.616 366.677 28.736ZM363.485 28.496H365.381C365.869 28.496 366.241 28.404 366.497 28.22C366.761 28.036 366.893 27.768 366.893 27.416C366.893 27.064 366.761 26.8 366.497 26.624C366.241 26.448 365.869 26.36 365.381 26.36H363.485V28.496ZM365.489 31.328C366.033 31.328 366.441 31.24 366.713 31.064C366.985 30.888 367.121 30.612 367.121 30.236C367.121 29.86 366.997 29.584 366.749 29.408C366.501 29.224 366.109 29.132 365.573 29.132H363.485V31.328H365.489ZM369.477 25.688H370.329V30.704L374.541 25.688H375.297V32H374.445V26.984L370.245 32H369.477V25.688ZM381.699 26.444H379.311V32H378.459V26.444H376.071V25.688H381.699V26.444ZM387.678 29.108H382.398C382.446 29.764 382.698 30.296 383.154 30.704C383.61 31.104 384.186 31.304 384.882 31.304C385.274 31.304 385.634 31.236 385.962 31.1C386.29 30.956 386.574 30.748 386.814 30.476L387.294 31.028C387.014 31.364 386.662 31.62 386.238 31.796C385.822 31.972 385.362 32.06 384.858 32.06C384.21 32.06 383.634 31.924 383.13 31.652C382.634 31.372 382.246 30.988 381.966 30.5C381.686 30.012 381.546 29.46 381.546 28.844C381.546 28.228 381.678 27.676 381.942 27.188C382.214 26.7 382.582 26.32 383.046 26.048C383.518 25.776 384.046 25.64 384.63 25.64C385.214 25.64 385.738 25.776 386.202 26.048C386.666 26.32 387.03 26.7 387.294 27.188C387.558 27.668 387.69 28.22 387.69 28.844L387.678 29.108ZM384.63 26.372C384.022 26.372 383.51 26.568 383.094 26.96C382.686 27.344 382.454 27.848 382.398 28.472H386.874C386.818 27.848 386.582 27.344 386.166 26.96C385.758 26.568 385.246 26.372 384.63 26.372ZM394.127 25.688V32H393.275V26.444H390.251L390.167 28.004C390.103 29.316 389.951 30.324 389.711 31.028C389.471 31.732 389.043 32.084 388.427 32.084C388.259 32.084 388.055 32.052 387.815 31.988L387.875 31.256C388.019 31.288 388.119 31.304 388.175 31.304C388.503 31.304 388.751 31.152 388.919 30.848C389.087 30.544 389.199 30.168 389.255 29.72C389.311 29.272 389.359 28.68 389.399 27.944L389.507 25.688H394.127ZM398.781 27.92C399.573 27.928 400.173 28.104 400.581 28.448C400.997 28.792 401.205 29.288 401.205 29.936C401.205 30.608 400.981 31.124 400.533 31.484C400.093 31.844 399.453 32.02 398.613 32.012L396.069 32V25.688H396.921V27.896L398.781 27.92ZM398.565 31.364C399.149 31.372 399.589 31.256 399.885 31.016C400.189 30.768 400.341 30.408 400.341 29.936C400.341 29.472 400.193 29.128 399.897 28.904C399.601 28.68 399.157 28.564 398.565 28.556L396.921 28.532V31.34L398.565 31.364ZM404.991 32.06C404.367 32.06 403.807 31.924 403.311 31.652C402.823 31.38 402.439 31 402.159 30.512C401.879 30.016 401.739 29.46 401.739 28.844C401.739 28.228 401.879 27.676 402.159 27.188C402.439 26.7 402.823 26.32 403.311 26.048C403.807 25.776 404.367 25.64 404.991 25.64C405.535 25.64 406.019 25.748 406.443 25.964C406.875 26.172 407.215 26.48 407.463 26.888L406.827 27.32C406.619 27.008 406.355 26.776 406.035 26.624C405.715 26.464 405.367 26.384 404.991 26.384C404.535 26.384 404.123 26.488 403.755 26.696C403.395 26.896 403.111 27.184 402.903 27.56C402.703 27.936 402.603 28.364 402.603 28.844C402.603 29.332 402.703 29.764 402.903 30.14C403.111 30.508 403.395 30.796 403.755 31.004C404.123 31.204 404.535 31.304 404.991 31.304C405.367 31.304 405.715 31.228 406.035 31.076C406.355 30.924 406.619 30.692 406.827 30.38L407.463 30.812C407.215 31.22 406.875 31.532 406.443 31.748C406.011 31.956 405.527 32.06 404.991 32.06ZM412.955 26.444H410.567V32H409.715V26.444H407.327V25.688H412.955V26.444ZM417.727 28.736C418.583 28.936 419.011 29.452 419.011 30.284C419.011 30.836 418.807 31.26 418.399 31.556C417.991 31.852 417.383 32 416.575 32H413.707V25.688H416.491C417.211 25.688 417.775 25.828 418.183 26.108C418.591 26.388 418.795 26.788 418.795 27.308C418.795 27.652 418.699 27.948 418.507 28.196C418.323 28.436 418.063 28.616 417.727 28.736ZM414.535 28.496H416.431C416.919 28.496 417.291 28.404 417.547 28.22C417.811 28.036 417.943 27.768 417.943 27.416C417.943 27.064 417.811 26.8 417.547 26.624C417.291 26.448 416.919 26.36 416.431 26.36H414.535V28.496ZM416.539 31.328C417.083 31.328 417.491 31.24 417.763 31.064C418.035 30.888 418.171 30.612 418.171 30.236C418.171 29.86 418.047 29.584 417.799 29.408C417.551 29.224 417.159 29.132 416.623 29.132H414.535V31.328H416.539ZM426.048 29.108H420.768C420.816 29.764 421.068 30.296 421.524 30.704C421.98 31.104 422.556 31.304 423.252 31.304C423.644 31.304 424.004 31.236 424.332 31.1C424.66 30.956 424.944 30.748 425.184 30.476L425.664 31.028C425.384 31.364 425.032 31.62 424.608 31.796C424.192 31.972 423.732 32.06 423.228 32.06C422.58 32.06 422.004 31.924 421.5 31.652C421.004 31.372 420.616 30.988 420.336 30.5C420.056 30.012 419.916 29.46 419.916 28.844C419.916 28.228 420.048 27.676 420.312 27.188C420.584 26.7 420.952 26.32 421.416 26.048C421.888 25.776 422.416 25.64 423 25.64C423.584 25.64 424.108 25.776 424.572 26.048C425.036 26.32 425.4 26.7 425.664 27.188C425.928 27.668 426.06 28.22 426.06 28.844L426.048 29.108ZM423 26.372C422.392 26.372 421.88 26.568 421.464 26.96C421.056 27.344 420.824 27.848 420.768 28.472H425.244C425.188 27.848 424.952 27.344 424.536 26.96C424.128 26.568 423.616 26.372 423 26.372ZM433.475 23.6C434.547 23.6 435.387 23.856 435.995 24.368C436.603 24.88 436.907 25.584 436.907 26.48C436.907 27.376 436.603 28.08 435.995 28.592C435.387 29.096 434.547 29.348 433.475 29.348H431.219V32H430.331V23.6H433.475ZM433.451 28.568C434.283 28.568 434.919 28.388 435.359 28.028C435.799 27.66 436.019 27.144 436.019 26.48C436.019 25.8 435.799 25.28 435.359 24.92C434.919 24.552 434.283 24.368 433.451 24.368H431.219V28.568H433.451ZM447.358 27.788C447.358 28.9 446.962 29.776 446.17 30.416C445.386 31.048 444.286 31.384 442.87 31.424V32.288H442.042V31.424C440.626 31.376 439.522 31.036 438.73 30.404C437.946 29.772 437.554 28.9 437.554 27.788C437.554 26.676 437.946 25.804 438.73 25.172C439.522 24.54 440.626 24.2 442.042 24.152V23.312H442.87V24.152C444.278 24.2 445.378 24.544 446.17 25.184C446.962 25.816 447.358 26.684 447.358 27.788ZM442.87 30.716C444.03 30.668 444.926 30.392 445.558 29.888C446.19 29.384 446.506 28.684 446.506 27.788C446.506 26.892 446.186 26.192 445.546 25.688C444.914 25.184 444.022 24.912 442.87 24.872V30.716ZM438.406 27.788C438.406 28.684 438.722 29.384 439.354 29.888C439.994 30.384 440.89 30.66 442.042 30.716V24.872C440.874 24.92 439.974 25.196 439.342 25.7C438.718 26.196 438.406 26.892 438.406 27.788Z" fill="#555555"/>
<path d="M303.201 72.2283L290.424 77.9072V87.9223C290.424 90.2082 287.153 91.036 283.954 91.5447C280.789 92.048 276.544 92.3243 272.001 92.3243C263.597 92.3243 253.578 91.561 253.578 87.9229V77.9077L249.602 76.1414V77.4201C250.548 78.0065 251.196 79.1852 251.223 80.6L251.913 86.2222C251.96 86.6063 251.841 86.991 251.586 87.2805C251.333 87.5707 250.967 87.7363 250.582 87.7363H245.94C245.555 87.7363 245.189 87.5701 244.936 87.2805C244.681 86.9904 244.562 86.6063 244.608 86.2222L245.299 80.6C245.326 79.1852 245.973 78.0053 246.919 77.4201V74.9494L240.799 72.2296C240.314 72.0141 240 71.5294 240 70.9954C240 70.4615 240.312 69.9786 240.798 69.7631L271.458 56.1165C271.804 55.9612 272.198 55.9612 272.544 56.1165L303.202 69.7619C303.688 69.9774 304 70.462 304 70.9942C304 71.5288 303.686 72.0128 303.201 72.2283L303.201 72.2283ZM249.065 85.038L248.552 80.8534C248.545 80.7981 248.542 80.7427 248.542 80.6873C248.542 80.2099 248.376 79.8824 248.262 79.7554C248.149 79.8836 247.982 80.2111 247.982 80.6873C247.982 80.7427 247.98 80.7981 247.973 80.8534L247.459 85.038H249.065ZM287.635 87.7622C286.803 86.8008 281.735 85.2 272 85.2C262.22 85.2 257.153 86.8158 256.36 87.7597C257.565 88.5628 262.966 89.6253 272 89.6253C281.021 89.6253 286.419 88.5671 287.635 87.7622ZM246.921 71.9991V69.986L244.657 70.9932L246.921 71.9991ZM272 58.8227L249.601 68.791V73.1887L253.577 74.9551V73.4151C253.577 68.3015 267.679 67.9036 272 67.9036C276.322 67.9036 290.424 68.3015 290.424 73.4151V74.9551L299.344 70.9901L272 58.8227Z" fill="#01348D"/>
<path d="M271.183 80.236H269.815V82H267.919V80.236H263.395V78.928L267.355 73.6H269.395L265.723 78.652H267.979V77.08H269.815V78.652H271.183V80.236ZM272.865 78.136C272.249 78.136 271.745 77.928 271.353 77.512C270.969 77.088 270.777 76.524 270.777 75.82C270.777 75.116 270.969 74.556 271.353 74.14C271.745 73.716 272.249 73.504 272.865 73.504C273.481 73.504 273.981 73.716 274.365 74.14C274.749 74.556 274.941 75.116 274.941 75.82C274.941 76.524 274.749 77.088 274.365 77.512C273.981 77.928 273.481 78.136 272.865 78.136ZM277.869 73.6H279.297L273.561 82H272.133L277.869 73.6ZM272.865 77.152C273.137 77.152 273.349 77.04 273.501 76.816C273.661 76.592 273.741 76.26 273.741 75.82C273.741 75.38 273.661 75.048 273.501 74.824C273.349 74.6 273.137 74.488 272.865 74.488C272.601 74.488 272.389 74.604 272.229 74.836C272.069 75.06 271.989 75.388 271.989 75.82C271.989 76.252 272.069 76.584 272.229 76.816C272.389 77.04 272.601 77.152 272.865 77.152ZM278.565 82.096C278.165 82.096 277.805 82.004 277.485 81.82C277.173 81.628 276.929 81.356 276.753 81.004C276.577 80.652 276.489 80.244 276.489 79.78C276.489 79.316 276.577 78.908 276.753 78.556C276.929 78.204 277.173 77.936 277.485 77.752C277.805 77.56 278.165 77.464 278.565 77.464C279.181 77.464 279.681 77.676 280.065 78.1C280.457 78.516 280.653 79.076 280.653 79.78C280.653 80.484 280.457 81.048 280.065 81.472C279.681 81.888 279.181 82.096 278.565 82.096ZM278.565 81.112C278.837 81.112 279.049 81 279.201 80.776C279.361 80.544 279.441 80.212 279.441 79.78C279.441 79.348 279.361 79.02 279.201 78.796C279.049 78.564 278.837 78.448 278.565 78.448C278.301 78.448 278.089 78.56 277.929 78.784C277.769 79.008 277.689 79.34 277.689 79.78C277.689 80.22 277.769 80.552 277.929 80.776C278.089 81 278.301 81.112 278.565 81.112Z" fill="white"/>
<path d="M316.56 71.6C317.632 71.6 318.472 71.856 319.08 72.368C319.688 72.88 319.992 73.584 319.992 74.48C319.992 75.376 319.688 76.08 319.08 76.592C318.472 77.096 317.632 77.348 316.56 77.348H314.304V80H313.416V71.6H316.56ZM316.536 76.568C317.368 76.568 318.004 76.388 318.444 76.028C318.884 75.66 319.104 75.144 319.104 74.48C319.104 73.8 318.884 73.28 318.444 72.92C318.004 72.552 317.368 72.368 316.536 72.368H314.304V76.568H316.536ZM323.405 71.528C324.189 71.528 324.897 71.712 325.529 72.08C326.169 72.448 326.669 72.96 327.029 73.616C327.397 74.264 327.581 74.992 327.581 75.8C327.581 76.608 327.397 77.34 327.029 77.996C326.669 78.644 326.169 79.152 325.529 79.52C324.897 79.888 324.189 80.072 323.405 80.072C322.749 80.072 322.149 79.968 321.605 79.76C321.061 79.552 320.605 79.244 320.237 78.836L320.789 78.272C321.453 78.944 322.313 79.28 323.369 79.28C323.961 79.28 324.501 79.144 324.989 78.872C325.477 78.592 325.869 78.212 326.165 77.732C326.469 77.244 326.641 76.696 326.681 76.088H322.349V75.356H326.669C326.605 74.772 326.421 74.252 326.117 73.796C325.821 73.332 325.433 72.972 324.953 72.716C324.473 72.452 323.945 72.32 323.369 72.32C322.313 72.32 321.453 72.656 320.789 73.328L320.237 72.764C320.605 72.356 321.061 72.048 321.605 71.84C322.149 71.632 322.749 71.528 323.405 71.528ZM335.521 71.6L331.705 78.668C331.433 79.172 331.113 79.548 330.745 79.796C330.385 80.036 329.989 80.156 329.557 80.156C329.237 80.156 328.893 80.08 328.525 79.928L328.777 79.208C329.065 79.32 329.329 79.376 329.569 79.376C330.121 79.376 330.573 79.076 330.925 78.476L331.165 78.068L327.757 71.6H328.705L331.633 77.288L334.633 71.6H335.521ZM339.054 73.688H339.906V78.704L344.118 73.688H344.874V80H344.022V74.984L339.822 80H339.054V73.688ZM353.891 73.688V80H353.111V75.008L350.555 79.232H350.171L347.615 74.996V80H346.835V73.688H347.699L350.375 78.236L353.099 73.688H353.891ZM355.896 80.06C355.72 80.06 355.568 79.996 355.44 79.868C355.32 79.74 355.26 79.584 355.26 79.4C355.26 79.216 355.32 79.064 355.44 78.944C355.568 78.816 355.72 78.752 355.896 78.752C356.072 78.752 356.224 78.816 356.352 78.944C356.48 79.064 356.544 79.216 356.544 79.4C356.544 79.584 356.48 79.74 356.352 79.868C356.224 79.996 356.072 80.06 355.896 80.06ZM366.104 72.368H361.627L361.64 80H360.763V71.6H366.104V72.368ZM364.827 80.06C364.651 80.06 364.499 79.996 364.371 79.868C364.251 79.74 364.191 79.584 364.191 79.4C364.191 79.216 364.251 79.064 364.371 78.944C364.499 78.816 364.651 78.752 364.827 78.752C365.003 78.752 365.155 78.816 365.283 78.944C365.411 79.064 365.475 79.216 365.475 79.4C365.475 79.584 365.411 79.74 365.283 79.868C365.155 79.996 365.003 80.06 364.827 80.06ZM372.014 75.668C372.598 75.788 373.042 76.024 373.346 76.376C373.65 76.72 373.802 77.172 373.802 77.732C373.802 78.46 373.542 79.02 373.022 79.412C372.51 79.804 371.754 80 370.754 80H367.034V71.6H370.526C371.422 71.6 372.122 71.784 372.626 72.152C373.13 72.52 373.382 73.052 373.382 73.748C373.382 74.22 373.262 74.62 373.022 74.948C372.782 75.268 372.446 75.508 372.014 75.668ZM367.91 75.404H370.478C371.126 75.404 371.622 75.272 371.966 75.008C372.318 74.744 372.494 74.36 372.494 73.856C372.494 73.352 372.318 72.968 371.966 72.704C371.622 72.44 371.126 72.308 370.478 72.308H367.91V75.404ZM370.754 79.292C372.202 79.292 372.926 78.752 372.926 77.672C372.926 76.616 372.202 76.088 370.754 76.088H367.91V79.292H370.754ZM375.422 80.06C375.246 80.06 375.094 79.996 374.966 79.868C374.846 79.74 374.786 79.584 374.786 79.4C374.786 79.216 374.846 79.064 374.966 78.944C375.094 78.816 375.246 78.752 375.422 78.752C375.598 78.752 375.75 78.816 375.878 78.944C376.006 79.064 376.07 79.216 376.07 79.4C376.07 79.584 376.006 79.74 375.878 79.868C375.75 79.996 375.598 80.06 375.422 80.06ZM387.357 71.6V80H386.481V72.368H381.165V80H380.289V71.6H387.357ZM394.668 73.688V80H393.816V74.444H390.792L390.708 76.004C390.644 77.316 390.492 78.324 390.252 79.028C390.012 79.732 389.584 80.084 388.968 80.084C388.8 80.084 388.596 80.052 388.356 79.988L388.416 79.256C388.56 79.288 388.66 79.304 388.716 79.304C389.044 79.304 389.292 79.152 389.46 78.848C389.628 78.544 389.74 78.168 389.796 77.72C389.852 77.272 389.9 76.68 389.94 75.944L390.048 73.688H394.668ZM402.13 77.108H396.85C396.898 77.764 397.15 78.296 397.606 78.704C398.062 79.104 398.638 79.304 399.334 79.304C399.726 79.304 400.086 79.236 400.414 79.1C400.742 78.956 401.026 78.748 401.266 78.476L401.746 79.028C401.466 79.364 401.114 79.62 400.69 79.796C400.274 79.972 399.814 80.06 399.31 80.06C398.662 80.06 398.086 79.924 397.582 79.652C397.086 79.372 396.698 78.988 396.418 78.5C396.138 78.012 395.998 77.46 395.998 76.844C395.998 76.228 396.13 75.676 396.394 75.188C396.666 74.7 397.034 74.32 397.498 74.048C397.97 73.776 398.498 73.64 399.082 73.64C399.666 73.64 400.19 73.776 400.654 74.048C401.118 74.32 401.482 74.7 401.746 75.188C402.01 75.668 402.142 76.22 402.142 76.844L402.13 77.108ZM399.082 74.372C398.474 74.372 397.962 74.568 397.546 74.96C397.138 75.344 396.906 75.848 396.85 76.472H401.326C401.27 75.848 401.034 75.344 400.618 74.96C400.21 74.568 399.698 74.372 399.082 74.372ZM407.32 80L405.316 77.36L403.3 80H402.34L404.836 76.76L402.46 73.688H403.42L405.316 76.16L407.212 73.688H408.148L405.772 76.76L408.292 80H407.32ZM411.263 73.64C412.087 73.64 412.719 73.848 413.159 74.264C413.599 74.672 413.819 75.28 413.819 76.088V80H413.003V79.016C412.811 79.344 412.527 79.6 412.151 79.784C411.783 79.968 411.343 80.06 410.831 80.06C410.127 80.06 409.567 79.892 409.151 79.556C408.735 79.22 408.527 78.776 408.527 78.224C408.527 77.688 408.719 77.256 409.103 76.928C409.495 76.6 410.115 76.436 410.963 76.436H412.967V76.052C412.967 75.508 412.815 75.096 412.511 74.816C412.207 74.528 411.763 74.384 411.179 74.384C410.779 74.384 410.395 74.452 410.027 74.588C409.659 74.716 409.343 74.896 409.079 75.128L408.695 74.492C409.015 74.22 409.399 74.012 409.847 73.868C410.295 73.716 410.767 73.64 411.263 73.64ZM410.963 79.388C411.443 79.388 411.855 79.28 412.199 79.064C412.543 78.84 412.799 78.52 412.967 78.104V77.072H410.987C409.907 77.072 409.367 77.448 409.367 78.2C409.367 78.568 409.507 78.86 409.787 79.076C410.067 79.284 410.459 79.388 410.963 79.388ZM415.607 73.688H416.459V76.484H420.431V73.688H421.283V80H420.431V77.216H416.459V80H415.607V73.688ZM425.829 80.06C425.221 80.06 424.673 79.924 424.185 79.652C423.697 79.372 423.313 78.988 423.033 78.5C422.753 78.012 422.613 77.46 422.613 76.844C422.613 76.228 422.753 75.676 423.033 75.188C423.313 74.7 423.697 74.32 424.185 74.048C424.673 73.776 425.221 73.64 425.829 73.64C426.437 73.64 426.985 73.776 427.473 74.048C427.961 74.32 428.341 74.7 428.613 75.188C428.893 75.676 429.033 76.228 429.033 76.844C429.033 77.46 428.893 78.012 428.613 78.5C428.341 78.988 427.961 79.372 427.473 79.652C426.985 79.924 426.437 80.06 425.829 80.06ZM425.829 79.304C426.277 79.304 426.677 79.204 427.029 79.004C427.389 78.796 427.669 78.504 427.869 78.128C428.069 77.752 428.169 77.324 428.169 76.844C428.169 76.364 428.069 75.936 427.869 75.56C427.669 75.184 427.389 74.896 427.029 74.696C426.677 74.488 426.277 74.384 425.829 74.384C425.381 74.384 424.977 74.488 424.617 74.696C424.265 74.896 423.985 75.184 423.777 75.56C423.577 75.936 423.477 76.364 423.477 76.844C423.477 77.324 423.577 77.752 423.777 78.128C423.985 78.504 424.265 78.796 424.617 79.004C424.977 79.204 425.381 79.304 425.829 79.304ZM434.394 76.736C435.25 76.936 435.678 77.452 435.678 78.284C435.678 78.836 435.474 79.26 435.066 79.556C434.658 79.852 434.05 80 433.242 80H430.374V73.688H433.158C433.878 73.688 434.442 73.828 434.85 74.108C435.258 74.388 435.462 74.788 435.462 75.308C435.462 75.652 435.366 75.948 435.174 76.196C434.99 76.436 434.73 76.616 434.394 76.736ZM431.202 76.496H433.098C433.586 76.496 433.958 76.404 434.214 76.22C434.478 76.036 434.61 75.768 434.61 75.416C434.61 75.064 434.478 74.8 434.214 74.624C433.958 74.448 433.586 74.36 433.098 74.36H431.202V76.496ZM433.206 79.328C433.75 79.328 434.158 79.24 434.43 79.064C434.702 78.888 434.838 78.612 434.838 78.236C434.838 77.86 434.714 77.584 434.466 77.408C434.218 77.224 433.826 77.132 433.29 77.132H431.202V79.328H433.206ZM439.366 73.64C440.19 73.64 440.822 73.848 441.262 74.264C441.702 74.672 441.922 75.28 441.922 76.088V80H441.106V79.016C440.914 79.344 440.63 79.6 440.254 79.784C439.886 79.968 439.446 80.06 438.934 80.06C438.23 80.06 437.67 79.892 437.254 79.556C436.838 79.22 436.63 78.776 436.63 78.224C436.63 77.688 436.822 77.256 437.206 76.928C437.598 76.6 438.218 76.436 439.066 76.436H441.07V76.052C441.07 75.508 440.918 75.096 440.614 74.816C440.31 74.528 439.866 74.384 439.282 74.384C438.882 74.384 438.498 74.452 438.13 74.588C437.762 74.716 437.446 74.896 437.182 75.128L436.798 74.492C437.118 74.22 437.502 74.012 437.95 73.868C438.398 73.716 438.87 73.64 439.366 73.64ZM439.066 79.388C439.546 79.388 439.958 79.28 440.302 79.064C440.646 78.84 440.902 78.52 441.07 78.104V77.072H439.09C438.01 77.072 437.47 77.448 437.47 78.2C437.47 78.568 437.61 78.86 437.89 79.076C438.17 79.284 438.562 79.388 439.066 79.388Z" fill="#555555"/>
<path d="M303.201 128.228L290.424 133.907V143.922C290.424 146.208 287.153 147.036 283.954 147.545C280.789 148.048 276.544 148.324 272.001 148.324C263.597 148.324 253.578 147.561 253.578 143.923V133.908L249.602 132.141V133.42C250.548 134.006 251.196 135.185 251.223 136.6L251.913 142.222C251.96 142.606 251.841 142.991 251.586 143.281C251.333 143.571 250.967 143.736 250.582 143.736H245.94C245.555 143.736 245.189 143.57 244.936 143.281C244.681 142.99 244.562 142.606 244.608 142.222L245.299 136.6C245.326 135.185 245.973 134.005 246.919 133.42V130.949L240.799 128.23C240.314 128.014 240 127.529 240 126.995C240 126.461 240.312 125.979 240.798 125.763L271.458 112.116C271.804 111.961 272.198 111.961 272.544 112.116L303.202 125.762C303.688 125.977 304 126.462 304 126.994C304 127.529 303.686 128.013 303.201 128.228L303.201 128.228ZM249.065 141.038L248.552 136.853C248.545 136.798 248.542 136.743 248.542 136.687C248.542 136.21 248.376 135.882 248.262 135.755C248.149 135.884 247.982 136.211 247.982 136.687C247.982 136.743 247.98 136.798 247.973 136.853L247.459 141.038H249.065ZM287.635 143.762C286.803 142.801 281.735 141.2 272 141.2C262.22 141.2 257.153 142.816 256.36 143.76C257.565 144.563 262.966 145.625 272 145.625C281.021 145.625 286.419 144.567 287.635 143.762ZM246.921 127.999V125.986L244.657 126.993L246.921 127.999ZM272 114.823L249.601 124.791V129.189L253.577 130.955V129.415C253.577 124.301 267.679 123.904 272 123.904C276.322 123.904 290.424 124.301 290.424 129.415V130.955L299.344 126.99L272 114.823Z" fill="#01348D"/>
<path d="M266.227 129.6V138H264.283V131.16H262.603V129.6H266.227ZM270.446 129.6V138H268.502V131.16H266.822V129.6H270.446ZM273.37 134.136C272.754 134.136 272.25 133.928 271.858 133.512C271.474 133.088 271.282 132.524 271.282 131.82C271.282 131.116 271.474 130.556 271.858 130.14C272.25 129.716 272.754 129.504 273.37 129.504C273.986 129.504 274.486 129.716 274.87 130.14C275.254 130.556 275.446 131.116 275.446 131.82C275.446 132.524 275.254 133.088 274.87 133.512C274.486 133.928 273.986 134.136 273.37 134.136ZM278.374 129.6H279.802L274.066 138H272.638L278.374 129.6ZM273.37 133.152C273.642 133.152 273.854 133.04 274.006 132.816C274.166 132.592 274.246 132.26 274.246 131.82C274.246 131.38 274.166 131.048 274.006 130.824C273.854 130.6 273.642 130.488 273.37 130.488C273.106 130.488 272.894 130.604 272.734 130.836C272.574 131.06 272.494 131.388 272.494 131.82C272.494 132.252 272.574 132.584 272.734 132.816C272.894 133.04 273.106 133.152 273.37 133.152ZM279.07 138.096C278.67 138.096 278.31 138.004 277.99 137.82C277.678 137.628 277.434 137.356 277.258 137.004C277.082 136.652 276.994 136.244 276.994 135.78C276.994 135.316 277.082 134.908 277.258 134.556C277.434 134.204 277.678 133.936 277.99 133.752C278.31 133.56 278.67 133.464 279.07 133.464C279.686 133.464 280.186 133.676 280.57 134.1C280.962 134.516 281.158 135.076 281.158 135.78C281.158 136.484 280.962 137.048 280.57 137.472C280.186 137.888 279.686 138.096 279.07 138.096ZM279.07 137.112C279.342 137.112 279.554 137 279.706 136.776C279.866 136.544 279.946 136.212 279.946 135.78C279.946 135.348 279.866 135.02 279.706 134.796C279.554 134.564 279.342 134.448 279.07 134.448C278.806 134.448 278.594 134.56 278.434 134.784C278.274 135.008 278.194 135.34 278.194 135.78C278.194 136.22 278.274 136.552 278.434 136.776C278.594 137 278.806 137.112 279.07 137.112Z" fill="white"/>
<path d="M321.132 127.232V129.884H320.304V128H312.972L312.96 129.884H312.132L312.144 127.232H312.564C313.116 127.2 313.5 126.764 313.716 125.924C313.932 125.076 314.064 123.876 314.112 122.324L314.208 119.6H319.872V127.232H321.132ZM314.904 122.408C314.864 123.688 314.764 124.744 314.604 125.576C314.452 126.4 314.192 126.952 313.824 127.232H318.996V120.368H314.976L314.904 122.408ZM325.511 121.64C326.103 121.64 326.639 121.776 327.119 122.048C327.599 122.312 327.975 122.688 328.247 123.176C328.519 123.664 328.655 124.22 328.655 124.844C328.655 125.476 328.519 126.036 328.247 126.524C327.975 127.012 327.599 127.392 327.119 127.664C326.647 127.928 326.111 128.06 325.511 128.06C324.999 128.06 324.535 127.956 324.119 127.748C323.711 127.532 323.375 127.22 323.111 126.812V130.328H322.259V121.688H323.075V122.936C323.331 122.52 323.667 122.2 324.083 121.976C324.507 121.752 324.983 121.64 325.511 121.64ZM325.451 127.304C325.891 127.304 326.291 127.204 326.651 127.004C327.011 126.796 327.291 126.504 327.491 126.128C327.699 125.752 327.803 125.324 327.803 124.844C327.803 124.364 327.699 123.94 327.491 123.572C327.291 123.196 327.011 122.904 326.651 122.696C326.291 122.488 325.891 122.384 325.451 122.384C325.003 122.384 324.599 122.488 324.239 122.696C323.887 122.904 323.607 123.196 323.399 123.572C323.199 123.94 323.099 124.364 323.099 124.844C323.099 125.324 323.199 125.752 323.399 126.128C323.607 126.504 323.887 126.796 324.239 127.004C324.599 127.204 325.003 127.304 325.451 127.304ZM335.194 121.688L332.038 128.756C331.782 129.348 331.486 129.768 331.15 130.016C330.814 130.264 330.41 130.388 329.938 130.388C329.634 130.388 329.35 130.34 329.086 130.244C328.822 130.148 328.594 130.004 328.402 129.812L328.798 129.176C329.118 129.496 329.502 129.656 329.95 129.656C330.238 129.656 330.482 129.576 330.682 129.416C330.89 129.256 331.082 128.984 331.258 128.6L331.534 127.988L328.714 121.688H329.602L331.978 127.052L334.354 121.688H335.194ZM340.506 122.444H336.894V128H336.042V121.688H340.506V122.444ZM341.257 121.688H342.109V126.704L346.321 121.688H347.077V128H346.225V122.984L342.025 128H341.257V121.688ZM354.559 125.108H349.279C349.327 125.764 349.579 126.296 350.035 126.704C350.491 127.104 351.067 127.304 351.763 127.304C352.155 127.304 352.515 127.236 352.843 127.1C353.171 126.956 353.455 126.748 353.695 126.476L354.175 127.028C353.895 127.364 353.543 127.62 353.119 127.796C352.703 127.972 352.243 128.06 351.739 128.06C351.091 128.06 350.515 127.924 350.011 127.652C349.515 127.372 349.127 126.988 348.847 126.5C348.567 126.012 348.427 125.46 348.427 124.844C348.427 124.228 348.559 123.676 348.823 123.188C349.095 122.7 349.463 122.32 349.927 122.048C350.399 121.776 350.927 121.64 351.511 121.64C352.095 121.64 352.619 121.776 353.083 122.048C353.547 122.32 353.911 122.7 354.175 123.188C354.439 123.668 354.571 124.22 354.571 124.844L354.559 125.108ZM351.511 122.372C350.903 122.372 350.391 122.568 349.975 122.96C349.567 123.344 349.335 123.848 349.279 124.472H353.755C353.699 123.848 353.463 123.344 353.047 122.96C352.639 122.568 352.127 122.372 351.511 122.372ZM364.001 121.688L360.845 128.756C360.589 129.348 360.293 129.768 359.957 130.016C359.621 130.264 359.217 130.388 358.745 130.388C358.441 130.388 358.157 130.34 357.893 130.244C357.629 130.148 357.401 130.004 357.209 129.812L357.605 129.176C357.925 129.496 358.309 129.656 358.757 129.656C359.045 129.656 359.289 129.576 359.489 129.416C359.697 129.256 359.889 128.984 360.065 128.6L360.341 127.988L357.521 121.688H358.409L360.785 127.052L363.161 121.688H364.001ZM369.613 121.688V128H368.761V125.372C368.033 125.692 367.317 125.852 366.613 125.852C365.853 125.852 365.261 125.68 364.837 125.336C364.413 124.984 364.201 124.46 364.201 123.764V121.688H365.053V123.716C365.053 124.188 365.205 124.548 365.509 124.796C365.813 125.036 366.233 125.156 366.769 125.156C367.361 125.156 368.025 125 368.761 124.688V121.688H369.613ZM377.072 125.108H371.792C371.84 125.764 372.092 126.296 372.548 126.704C373.004 127.104 373.58 127.304 374.276 127.304C374.668 127.304 375.028 127.236 375.356 127.1C375.684 126.956 375.968 126.748 376.208 126.476L376.688 127.028C376.408 127.364 376.056 127.62 375.632 127.796C375.216 127.972 374.756 128.06 374.252 128.06C373.604 128.06 373.028 127.924 372.524 127.652C372.028 127.372 371.64 126.988 371.36 126.5C371.08 126.012 370.94 125.46 370.94 124.844C370.94 124.228 371.072 123.676 371.336 123.188C371.608 122.7 371.976 122.32 372.44 122.048C372.912 121.776 373.44 121.64 374.024 121.64C374.608 121.64 375.132 121.776 375.596 122.048C376.06 122.32 376.424 122.7 376.688 123.188C376.952 123.668 377.084 124.22 377.084 124.844L377.072 125.108ZM374.024 122.372C373.416 122.372 372.904 122.568 372.488 122.96C372.08 123.344 371.848 123.848 371.792 124.472H376.268C376.212 123.848 375.976 123.344 375.56 122.96C375.152 122.568 374.64 122.372 374.024 122.372ZM381.55 121.844C382.134 121.844 382.654 121.976 383.11 122.24C383.574 122.496 383.934 122.86 384.19 123.332C384.446 123.796 384.574 124.328 384.574 124.928C384.574 125.544 384.438 126.092 384.166 126.572C383.902 127.044 383.53 127.412 383.05 127.676C382.57 127.94 382.018 128.072 381.394 128.072C380.346 128.072 379.534 127.704 378.958 126.968C378.382 126.232 378.094 125.216 378.094 123.92C378.094 122.568 378.35 121.532 378.862 120.812C379.382 120.092 380.19 119.604 381.286 119.348L384.118 118.7L384.262 119.48L381.598 120.092C380.694 120.292 380.03 120.648 379.606 121.16C379.182 121.664 378.95 122.412 378.91 123.404C379.166 122.916 379.522 122.536 379.978 122.264C380.434 121.984 380.958 121.844 381.55 121.844ZM381.418 127.364C381.858 127.364 382.25 127.264 382.594 127.064C382.946 126.856 383.218 126.568 383.41 126.2C383.61 125.832 383.71 125.416 383.71 124.952C383.71 124.488 383.614 124.08 383.422 123.728C383.23 123.376 382.958 123.104 382.606 122.912C382.262 122.712 381.866 122.612 381.418 122.612C380.97 122.612 380.57 122.712 380.218 122.912C379.874 123.104 379.602 123.376 379.402 123.728C379.21 124.08 379.114 124.488 379.114 124.952C379.114 125.416 379.21 125.832 379.402 126.2C379.602 126.568 379.878 126.856 380.23 127.064C380.582 127.264 380.978 127.364 381.418 127.364ZM385.92 121.688H386.772V124.484H390.744V121.688H391.596V128H390.744V125.216H386.772V128H385.92V121.688ZM396.19 123.92C396.982 123.928 397.586 124.104 398.002 124.448C398.418 124.792 398.626 125.288 398.626 125.936C398.626 126.608 398.402 127.124 397.954 127.484C397.506 127.844 396.866 128.02 396.034 128.012L393.538 128V121.688H394.39V123.896L396.19 123.92ZM399.682 121.688H400.534V128H399.682V121.688ZM395.986 127.364C396.57 127.372 397.01 127.256 397.306 127.016C397.61 126.768 397.762 126.408 397.762 125.936C397.762 125.472 397.614 125.128 397.318 124.904C397.022 124.68 396.578 124.564 395.986 124.556L394.39 124.532V127.34L395.986 127.364ZM408 125.108H402.72C402.768 125.764 403.02 126.296 403.476 126.704C403.932 127.104 404.508 127.304 405.204 127.304C405.596 127.304 405.956 127.236 406.284 127.1C406.612 126.956 406.896 126.748 407.136 126.476L407.616 127.028C407.336 127.364 406.984 127.62 406.56 127.796C406.144 127.972 405.684 128.06 405.18 128.06C404.532 128.06 403.956 127.924 403.452 127.652C402.956 127.372 402.568 126.988 402.288 126.5C402.008 126.012 401.868 125.46 401.868 124.844C401.868 124.228 402 123.676 402.264 123.188C402.536 122.7 402.904 122.32 403.368 122.048C403.84 121.776 404.368 121.64 404.952 121.64C405.536 121.64 406.06 121.776 406.524 122.048C406.988 122.32 407.352 122.7 407.616 123.188C407.88 123.668 408.012 124.22 408.012 124.844L408 125.108ZM404.952 122.372C404.344 122.372 403.832 122.568 403.416 122.96C403.008 123.344 402.776 123.848 402.72 124.472H407.196C407.14 123.848 406.904 123.344 406.488 122.96C406.08 122.568 405.568 122.372 404.952 122.372ZM316.284 140.712C316.732 140.816 317.076 140.996 317.316 141.252C317.564 141.508 317.688 141.82 317.688 142.188C317.688 142.556 317.56 142.884 317.304 143.172C317.056 143.46 316.716 143.684 316.284 143.844C315.852 143.996 315.376 144.072 314.856 144.072C314.4 144.072 313.952 144.008 313.512 143.88C313.072 143.744 312.688 143.548 312.36 143.292L312.648 142.656C312.936 142.872 313.272 143.04 313.656 143.16C314.04 143.28 314.428 143.34 314.82 143.34C315.404 143.34 315.88 143.232 316.248 143.016C316.624 142.792 316.812 142.492 316.812 142.116C316.812 141.78 316.66 141.52 316.356 141.336C316.052 141.144 315.636 141.048 315.108 141.048H314.028V140.424H315.06C315.532 140.424 315.912 140.336 316.2 140.16C316.488 139.976 316.632 139.732 316.632 139.428C316.632 139.092 316.468 138.828 316.14 138.636C315.82 138.444 315.4 138.348 314.88 138.348C314.2 138.348 313.528 138.52 312.864 138.864L312.624 138.204C313.376 137.812 314.156 137.616 314.964 137.616C315.444 137.616 315.876 137.688 316.26 137.832C316.652 137.968 316.956 138.164 317.172 138.42C317.396 138.676 317.508 138.972 317.508 139.308C317.508 139.628 317.396 139.912 317.172 140.16C316.956 140.408 316.66 140.592 316.284 140.712ZM321.314 137.64C322.138 137.64 322.77 137.848 323.21 138.264C323.65 138.672 323.87 139.28 323.87 140.088V144H323.054V143.016C322.862 143.344 322.578 143.6 322.202 143.784C321.834 143.968 321.394 144.06 320.882 144.06C320.178 144.06 319.618 143.892 319.202 143.556C318.786 143.22 318.578 142.776 318.578 142.224C318.578 141.688 318.77 141.256 319.154 140.928C319.546 140.6 320.166 140.436 321.014 140.436H323.018V140.052C323.018 139.508 322.866 139.096 322.562 138.816C322.258 138.528 321.814 138.384 321.23 138.384C320.83 138.384 320.446 138.452 320.078 138.588C319.71 138.716 319.394 138.896 319.13 139.128L318.746 138.492C319.066 138.22 319.45 138.012 319.898 137.868C320.346 137.716 320.818 137.64 321.314 137.64ZM321.014 143.388C321.494 143.388 321.906 143.28 322.25 143.064C322.594 142.84 322.85 142.52 323.018 142.104V141.072H321.038C319.958 141.072 319.418 141.448 319.418 142.2C319.418 142.568 319.558 142.86 319.838 143.076C320.118 143.284 320.51 143.388 321.014 143.388ZM329.678 140.736C330.534 140.936 330.962 141.452 330.962 142.284C330.962 142.836 330.758 143.26 330.35 143.556C329.942 143.852 329.334 144 328.526 144H325.658V137.688H328.442C329.162 137.688 329.726 137.828 330.134 138.108C330.542 138.388 330.746 138.788 330.746 139.308C330.746 139.652 330.65 139.948 330.458 140.196C330.274 140.436 330.014 140.616 329.678 140.736ZM326.486 140.496H328.382C328.87 140.496 329.242 140.404 329.498 140.22C329.762 140.036 329.894 139.768 329.894 139.416C329.894 139.064 329.762 138.8 329.498 138.624C329.242 138.448 328.87 138.36 328.382 138.36H326.486V140.496ZM328.49 143.328C329.034 143.328 329.442 143.24 329.714 143.064C329.986 142.888 330.122 142.612 330.122 142.236C330.122 141.86 329.998 141.584 329.75 141.408C329.502 141.224 329.11 141.132 328.574 141.132H326.486V143.328H328.49ZM337.999 141.108H332.719C332.767 141.764 333.019 142.296 333.475 142.704C333.931 143.104 334.507 143.304 335.203 143.304C335.595 143.304 335.955 143.236 336.283 143.1C336.611 142.956 336.895 142.748 337.135 142.476L337.615 143.028C337.335 143.364 336.983 143.62 336.559 143.796C336.143 143.972 335.683 144.06 335.179 144.06C334.531 144.06 333.955 143.924 333.451 143.652C332.955 143.372 332.567 142.988 332.287 142.5C332.007 142.012 331.867 141.46 331.867 140.844C331.867 140.228 331.999 139.676 332.263 139.188C332.535 138.7 332.903 138.32 333.367 138.048C333.839 137.776 334.367 137.64 334.951 137.64C335.535 137.64 336.059 137.776 336.523 138.048C336.987 138.32 337.351 138.7 337.615 139.188C337.879 139.668 338.011 140.22 338.011 140.844L337.999 141.108ZM334.951 138.372C334.343 138.372 333.831 138.568 333.415 138.96C333.007 139.344 332.775 139.848 332.719 140.472H337.195C337.139 139.848 336.903 139.344 336.487 138.96C336.079 138.568 335.567 138.372 334.951 138.372ZM345.444 143.256V145.524H344.64V144H338.988V145.524H338.184V143.256H338.544C338.968 143.232 339.256 142.92 339.408 142.32C339.56 141.72 339.664 140.88 339.72 139.8L339.804 137.688H344.46V143.256H345.444ZM340.5 139.848C340.46 140.744 340.384 141.484 340.272 142.068C340.16 142.644 339.96 143.04 339.672 143.256H343.608V138.444H340.572L340.5 139.848ZM352.144 141.108H346.864C346.912 141.764 347.164 142.296 347.62 142.704C348.076 143.104 348.652 143.304 349.348 143.304C349.74 143.304 350.1 143.236 350.428 143.1C350.756 142.956 351.04 142.748 351.28 142.476L351.76 143.028C351.48 143.364 351.128 143.62 350.704 143.796C350.288 143.972 349.828 144.06 349.324 144.06C348.676 144.06 348.1 143.924 347.596 143.652C347.1 143.372 346.712 142.988 346.432 142.5C346.152 142.012 346.012 141.46 346.012 140.844C346.012 140.228 346.144 139.676 346.408 139.188C346.68 138.7 347.048 138.32 347.512 138.048C347.984 137.776 348.512 137.64 349.096 137.64C349.68 137.64 350.204 137.776 350.668 138.048C351.132 138.32 351.496 138.7 351.76 139.188C352.024 139.668 352.156 140.22 352.156 140.844L352.144 141.108ZM349.096 138.372C348.488 138.372 347.976 138.568 347.56 138.96C347.152 139.344 346.92 139.848 346.864 140.472H351.34C351.284 139.848 351.048 139.344 350.632 138.96C350.224 138.568 349.712 138.372 349.096 138.372ZM353.562 137.688H354.414V140.484H358.386V137.688H359.238V144H358.386V141.216H354.414V144H353.562V137.688ZM361.18 137.688H362.032V142.704L366.244 137.688H367V144H366.148V138.984L361.948 144H361.18V137.688ZM373.81 137.688V144H373.03V141.912H371.05H370.81L369.346 144H368.422L369.994 141.792C369.506 141.656 369.13 141.424 368.866 141.096C368.602 140.768 368.47 140.352 368.47 139.848C368.47 139.144 368.71 138.608 369.19 138.24C369.67 137.872 370.326 137.688 371.158 137.688H373.81ZM369.334 139.872C369.334 140.808 369.93 141.276 371.122 141.276H373.03V138.444H371.182C369.95 138.444 369.334 138.92 369.334 139.872Z" fill="#555555"/>
<path d="M303.201 184.228L290.424 189.907V199.922C290.424 202.208 287.153 203.036 283.954 203.545C280.789 204.048 276.544 204.324 272.001 204.324C263.597 204.324 253.578 203.561 253.578 199.923V189.908L249.602 188.141V189.42C250.548 190.006 251.196 191.185 251.223 192.6L251.913 198.222C251.96 198.606 251.841 198.991 251.586 199.281C251.333 199.571 250.967 199.736 250.582 199.736H245.94C245.555 199.736 245.189 199.57 244.936 199.281C244.681 198.99 244.562 198.606 244.608 198.222L245.299 192.6C245.326 191.185 245.973 190.005 246.919 189.42V186.949L240.799 184.23C240.314 184.014 240 183.529 240 182.995C240 182.461 240.312 181.979 240.798 181.763L271.458 168.116C271.804 167.961 272.198 167.961 272.544 168.116L303.202 181.762C303.688 181.977 304 182.462 304 182.994C304 183.529 303.686 184.013 303.201 184.228L303.201 184.228ZM249.065 197.038L248.552 192.853C248.545 192.798 248.542 192.743 248.542 192.687C248.542 192.21 248.376 191.882 248.262 191.755C248.149 191.884 247.982 192.211 247.982 192.687C247.982 192.743 247.98 192.798 247.973 192.853L247.459 197.038H249.065ZM287.635 199.762C286.803 198.801 281.735 197.2 272 197.2C262.22 197.2 257.153 198.816 256.36 199.76C257.565 200.563 262.966 201.625 272 201.625C281.021 201.625 286.419 200.567 287.635 199.762ZM246.921 183.999V181.986L244.657 182.993L246.921 183.999ZM272 170.823L249.601 180.791V185.189L253.577 186.955V185.415C253.577 180.301 267.679 179.904 272 179.904C276.322 179.904 290.424 180.301 290.424 185.415V186.955L299.344 182.99L272 170.823Z" fill="#F2A428"/>
<path d="M264.622 185.6V194H262.678V187.16H260.998V185.6H264.622ZM273.293 192.236H271.925V194H270.029V192.236H265.505V190.928L269.465 185.6H271.505L267.833 190.652H270.089V189.08H271.925V190.652H273.293V192.236ZM274.975 190.136C274.359 190.136 273.855 189.928 273.463 189.512C273.079 189.088 272.887 188.524 272.887 187.82C272.887 187.116 273.079 186.556 273.463 186.14C273.855 185.716 274.359 185.504 274.975 185.504C275.591 185.504 276.091 185.716 276.475 186.14C276.859 186.556 277.051 187.116 277.051 187.82C277.051 188.524 276.859 189.088 276.475 189.512C276.091 189.928 275.591 190.136 274.975 190.136ZM279.979 185.6H281.407L275.671 194H274.243L279.979 185.6ZM274.975 189.152C275.247 189.152 275.459 189.04 275.611 188.816C275.771 188.592 275.851 188.26 275.851 187.82C275.851 187.38 275.771 187.048 275.611 186.824C275.459 186.6 275.247 186.488 274.975 186.488C274.711 186.488 274.499 186.604 274.339 186.836C274.179 187.06 274.099 187.388 274.099 187.82C274.099 188.252 274.179 188.584 274.339 188.816C274.499 189.04 274.711 189.152 274.975 189.152ZM280.675 194.096C280.275 194.096 279.915 194.004 279.595 193.82C279.283 193.628 279.039 193.356 278.863 193.004C278.687 192.652 278.599 192.244 278.599 191.78C278.599 191.316 278.687 190.908 278.863 190.556C279.039 190.204 279.283 189.936 279.595 189.752C279.915 189.56 280.275 189.464 280.675 189.464C281.291 189.464 281.791 189.676 282.175 190.1C282.567 190.516 282.763 191.076 282.763 191.78C282.763 192.484 282.567 193.048 282.175 193.472C281.791 193.888 281.291 194.096 280.675 194.096ZM280.675 193.112C280.947 193.112 281.159 193 281.311 192.776C281.471 192.544 281.551 192.212 281.551 191.78C281.551 191.348 281.471 191.02 281.311 190.796C281.159 190.564 280.947 190.448 280.675 190.448C280.411 190.448 280.199 190.56 280.039 190.784C279.879 191.008 279.799 191.34 279.799 191.78C279.799 192.22 279.879 192.552 280.039 192.776C280.199 193 280.411 193.112 280.675 193.112Z" fill="white"/>
<path d="M317.1 192.072C316.268 192.072 315.512 191.888 314.832 191.52C314.16 191.144 313.632 190.632 313.248 189.984C312.872 189.336 312.684 188.608 312.684 187.8C312.684 186.992 312.872 186.264 313.248 185.616C313.632 184.968 314.16 184.46 314.832 184.092C315.512 183.716 316.268 183.528 317.1 183.528C317.932 183.528 318.68 183.712 319.344 184.08C320.016 184.448 320.544 184.96 320.928 185.616C321.312 186.264 321.504 186.992 321.504 187.8C321.504 188.608 321.312 189.34 320.928 189.996C320.544 190.644 320.016 191.152 319.344 191.52C318.68 191.888 317.932 192.072 317.1 192.072ZM317.1 191.28C317.764 191.28 318.364 191.132 318.9 190.836C319.436 190.532 319.856 190.116 320.16 189.588C320.464 189.052 320.616 188.456 320.616 187.8C320.616 187.144 320.464 186.552 320.16 186.024C319.856 185.488 319.436 185.072 318.9 184.776C318.364 184.472 317.764 184.32 317.1 184.32C316.436 184.32 315.832 184.472 315.288 184.776C314.752 185.072 314.328 185.488 314.016 186.024C313.712 186.552 313.56 187.144 313.56 187.8C313.56 188.456 313.712 189.052 314.016 189.588C314.328 190.116 314.752 190.532 315.288 190.836C315.832 191.132 316.436 191.28 317.1 191.28ZM325.999 185.844C326.583 185.844 327.103 185.976 327.559 186.24C328.023 186.496 328.383 186.86 328.639 187.332C328.895 187.796 329.023 188.328 329.023 188.928C329.023 189.544 328.887 190.092 328.615 190.572C328.351 191.044 327.979 191.412 327.499 191.676C327.019 191.94 326.467 192.072 325.843 192.072C324.795 192.072 323.983 191.704 323.407 190.968C322.831 190.232 322.543 189.216 322.543 187.92C322.543 186.568 322.799 185.532 323.311 184.812C323.831 184.092 324.639 183.604 325.735 183.348L328.567 182.7L328.711 183.48L326.047 184.092C325.143 184.292 324.479 184.648 324.055 185.16C323.631 185.664 323.399 186.412 323.359 187.404C323.615 186.916 323.971 186.536 324.427 186.264C324.883 185.984 325.407 185.844 325.999 185.844ZM325.867 191.364C326.307 191.364 326.699 191.264 327.043 191.064C327.395 190.856 327.667 190.568 327.859 190.2C328.059 189.832 328.159 189.416 328.159 188.952C328.159 188.488 328.063 188.08 327.871 187.728C327.679 187.376 327.407 187.104 327.055 186.912C326.711 186.712 326.315 186.612 325.867 186.612C325.419 186.612 325.019 186.712 324.667 186.912C324.323 187.104 324.051 187.376 323.851 187.728C323.659 188.08 323.563 188.488 323.563 188.952C323.563 189.416 323.659 189.832 323.851 190.2C324.051 190.568 324.327 190.856 324.679 191.064C325.031 191.264 325.427 191.364 325.867 191.364ZM335.557 185.688L332.401 192.756C332.145 193.348 331.849 193.768 331.513 194.016C331.177 194.264 330.773 194.388 330.301 194.388C329.997 194.388 329.713 194.34 329.449 194.244C329.185 194.148 328.957 194.004 328.765 193.812L329.161 193.176C329.481 193.496 329.865 193.656 330.313 193.656C330.601 193.656 330.845 193.576 331.045 193.416C331.253 193.256 331.445 192.984 331.621 192.6L331.897 191.988L329.077 185.688H329.965L332.341 191.052L334.717 185.688H335.557ZM341.169 185.688V192H340.317V189.372C339.589 189.692 338.873 189.852 338.169 189.852C337.409 189.852 336.817 189.68 336.393 189.336C335.969 188.984 335.757 188.46 335.757 187.764V185.688H336.609V187.716C336.609 188.188 336.761 188.548 337.065 188.796C337.369 189.036 337.789 189.156 338.325 189.156C338.917 189.156 339.581 189 340.317 188.688V185.688H341.169ZM348.628 189.108H343.348C343.396 189.764 343.648 190.296 344.104 190.704C344.56 191.104 345.136 191.304 345.832 191.304C346.224 191.304 346.584 191.236 346.912 191.1C347.24 190.956 347.524 190.748 347.764 190.476L348.244 191.028C347.964 191.364 347.612 191.62 347.188 191.796C346.772 191.972 346.312 192.06 345.808 192.06C345.16 192.06 344.584 191.924 344.08 191.652C343.584 191.372 343.196 190.988 342.916 190.5C342.636 190.012 342.496 189.46 342.496 188.844C342.496 188.228 342.628 187.676 342.892 187.188C343.164 186.7 343.532 186.32 343.996 186.048C344.468 185.776 344.996 185.64 345.58 185.64C346.164 185.64 346.688 185.776 347.152 186.048C347.616 186.32 347.98 186.7 348.244 187.188C348.508 187.668 348.64 188.22 348.64 188.844L348.628 189.108ZM345.58 186.372C344.972 186.372 344.46 186.568 344.044 186.96C343.636 187.344 343.404 187.848 343.348 188.472H347.824C347.768 187.848 347.532 187.344 347.116 186.96C346.708 186.568 346.196 186.372 345.58 186.372ZM350.046 185.688H350.898V188.484H354.87V185.688H355.722V192H354.87V189.216H350.898V192H350.046V185.688ZM357.664 185.688H358.516V190.704L362.728 185.688H363.484V192H362.632V186.984L358.432 192H357.664V185.688ZM370.966 189.108H365.686C365.734 189.764 365.986 190.296 366.442 190.704C366.898 191.104 367.474 191.304 368.17 191.304C368.562 191.304 368.922 191.236 369.25 191.1C369.578 190.956 369.862 190.748 370.102 190.476L370.582 191.028C370.302 191.364 369.95 191.62 369.526 191.796C369.11 191.972 368.65 192.06 368.146 192.06C367.498 192.06 366.922 191.924 366.418 191.652C365.922 191.372 365.534 190.988 365.254 190.5C364.974 190.012 364.834 189.46 364.834 188.844C364.834 188.228 364.966 187.676 365.23 187.188C365.502 186.7 365.87 186.32 366.334 186.048C366.806 185.776 367.334 185.64 367.918 185.64C368.502 185.64 369.026 185.776 369.49 186.048C369.954 186.32 370.318 186.7 370.582 187.188C370.846 187.668 370.978 188.22 370.978 188.844L370.966 189.108ZM367.918 186.372C367.31 186.372 366.798 186.568 366.382 186.96C365.974 187.344 365.742 187.848 365.686 188.472H370.162C370.106 187.848 369.87 187.344 369.454 186.96C369.046 186.568 368.534 186.372 367.918 186.372ZM378.116 188.712C378.564 188.816 378.908 188.996 379.148 189.252C379.396 189.508 379.52 189.82 379.52 190.188C379.52 190.556 379.392 190.884 379.136 191.172C378.888 191.46 378.548 191.684 378.116 191.844C377.684 191.996 377.208 192.072 376.688 192.072C376.232 192.072 375.784 192.008 375.344 191.88C374.904 191.744 374.52 191.548 374.192 191.292L374.48 190.656C374.768 190.872 375.104 191.04 375.488 191.16C375.872 191.28 376.26 191.34 376.652 191.34C377.236 191.34 377.712 191.232 378.08 191.016C378.456 190.792 378.644 190.492 378.644 190.116C378.644 189.78 378.492 189.52 378.188 189.336C377.884 189.144 377.468 189.048 376.94 189.048H375.86V188.424H376.892C377.364 188.424 377.744 188.336 378.032 188.16C378.32 187.976 378.464 187.732 378.464 187.428C378.464 187.092 378.3 186.828 377.972 186.636C377.652 186.444 377.232 186.348 376.712 186.348C376.032 186.348 375.36 186.52 374.696 186.864L374.456 186.204C375.208 185.812 375.988 185.616 376.796 185.616C377.276 185.616 377.708 185.688 378.092 185.832C378.484 185.968 378.788 186.164 379.004 186.42C379.228 186.676 379.34 186.972 379.34 187.308C379.34 187.628 379.228 187.912 379.004 188.16C378.788 188.408 378.492 188.592 378.116 188.712ZM383.146 185.64C383.97 185.64 384.602 185.848 385.042 186.264C385.482 186.672 385.702 187.28 385.702 188.088V192H384.886V191.016C384.694 191.344 384.41 191.6 384.034 191.784C383.666 191.968 383.226 192.06 382.714 192.06C382.01 192.06 381.45 191.892 381.034 191.556C380.618 191.22 380.41 190.776 380.41 190.224C380.41 189.688 380.602 189.256 380.986 188.928C381.378 188.6 381.998 188.436 382.846 188.436H384.85V188.052C384.85 187.508 384.698 187.096 384.394 186.816C384.09 186.528 383.646 186.384 383.062 186.384C382.662 186.384 382.278 186.452 381.91 186.588C381.542 186.716 381.226 186.896 380.962 187.128L380.578 186.492C380.898 186.22 381.282 186.012 381.73 185.868C382.178 185.716 382.65 185.64 383.146 185.64ZM382.846 191.388C383.326 191.388 383.738 191.28 384.082 191.064C384.426 190.84 384.682 190.52 384.85 190.104V189.072H382.87C381.79 189.072 381.25 189.448 381.25 190.2C381.25 190.568 381.39 190.86 381.67 191.076C381.95 191.284 382.342 191.388 382.846 191.388ZM394.615 186.444H391.003V192H390.151V185.688H394.615V186.444ZM398.619 185.64C399.211 185.64 399.747 185.776 400.227 186.048C400.707 186.312 401.083 186.688 401.355 187.176C401.627 187.664 401.763 188.22 401.763 188.844C401.763 189.476 401.627 190.036 401.355 190.524C401.083 191.012 400.707 191.392 400.227 191.664C399.755 191.928 399.219 192.06 398.619 192.06C398.107 192.06 397.643 191.956 397.227 191.748C396.819 191.532 396.483 191.22 396.219 190.812V194.328H395.367V185.688H396.183V186.936C396.439 186.52 396.775 186.2 397.191 185.976C397.615 185.752 398.091 185.64 398.619 185.64ZM398.559 191.304C398.999 191.304 399.399 191.204 399.759 191.004C400.119 190.796 400.399 190.504 400.599 190.128C400.807 189.752 400.911 189.324 400.911 188.844C400.911 188.364 400.807 187.94 400.599 187.572C400.399 187.196 400.119 186.904 399.759 186.696C399.399 186.488 398.999 186.384 398.559 186.384C398.111 186.384 397.707 186.488 397.347 186.696C396.995 186.904 396.715 187.196 396.507 187.572C396.307 187.94 396.207 188.364 396.207 188.844C396.207 189.324 396.307 189.752 396.507 190.128C396.715 190.504 396.995 190.796 397.347 191.004C397.707 191.204 398.111 191.304 398.559 191.304ZM405.25 185.64C406.074 185.64 406.706 185.848 407.146 186.264C407.586 186.672 407.806 187.28 407.806 188.088V192H406.99V191.016C406.798 191.344 406.514 191.6 406.138 191.784C405.77 191.968 405.33 192.06 404.818 192.06C404.114 192.06 403.554 191.892 403.138 191.556C402.722 191.22 402.514 190.776 402.514 190.224C402.514 189.688 402.706 189.256 403.09 188.928C403.482 188.6 404.102 188.436 404.95 188.436H406.954V188.052C406.954 187.508 406.802 187.096 406.498 186.816C406.194 186.528 405.75 186.384 405.166 186.384C404.766 186.384 404.382 186.452 404.014 186.588C403.646 186.716 403.33 186.896 403.066 187.128L402.682 186.492C403.002 186.22 403.386 186.012 403.834 185.868C404.282 185.716 404.754 185.64 405.25 185.64ZM404.95 191.388C405.43 191.388 405.842 191.28 406.186 191.064C406.53 190.84 406.786 190.52 406.954 190.104V189.072H404.974C403.894 189.072 403.354 189.448 403.354 190.2C403.354 190.568 403.494 190.86 403.774 191.076C404.054 191.284 404.446 191.388 404.95 191.388ZM409.594 185.688H410.446V188.484H414.418V185.688H415.27V192H414.418V189.216H410.446V192H409.594V185.688ZM417.212 185.688H418.064V190.704L422.276 185.688H423.032V192H422.18V186.984L417.98 192H417.212V185.688ZM431.569 191.256V193.584H430.765V192H424.993V185.688H425.845V191.256H429.697V185.688H430.549V191.256H431.569ZM438.237 189.108H432.957C433.005 189.764 433.257 190.296 433.713 190.704C434.169 191.104 434.745 191.304 435.441 191.304C435.833 191.304 436.193 191.236 436.521 191.1C436.849 190.956 437.133 190.748 437.373 190.476L437.853 191.028C437.573 191.364 437.221 191.62 436.797 191.796C436.381 191.972 435.921 192.06 435.417 192.06C434.769 192.06 434.193 191.924 433.689 191.652C433.193 191.372 432.805 190.988 432.525 190.5C432.245 190.012 432.105 189.46 432.105 188.844C432.105 188.228 432.237 187.676 432.501 187.188C432.773 186.7 433.141 186.32 433.605 186.048C434.077 185.776 434.605 185.64 435.189 185.64C435.773 185.64 436.297 185.776 436.761 186.048C437.225 186.32 437.589 186.7 437.853 187.188C438.117 187.668 438.249 188.22 438.249 188.844L438.237 189.108ZM435.189 186.372C434.581 186.372 434.069 186.568 433.653 186.96C433.245 187.344 433.013 187.848 432.957 188.472H437.433C437.377 187.848 437.141 187.344 436.725 186.96C436.317 186.568 435.805 186.372 435.189 186.372ZM439.654 185.688H440.506V190.704L444.718 185.688H445.474V192H444.622V186.984L440.422 192H439.654V185.688ZM442.522 184.776C441.978 184.776 441.546 184.64 441.226 184.368C440.906 184.096 440.742 183.712 440.734 183.216H441.346C441.354 183.528 441.466 183.78 441.682 183.972C441.898 184.156 442.178 184.248 442.522 184.248C442.866 184.248 443.146 184.156 443.362 183.972C443.586 183.78 443.702 183.528 443.71 183.216H444.322C444.314 183.712 444.146 184.096 443.818 184.368C443.498 184.64 443.066 184.776 442.522 184.776Z" fill="#555555"/>
</svg>
