<svg width="580" height="336" viewBox="0 0 580 336" fill="none" xmlns="http://www.w3.org/2000/svg">
<rect y="39" width="260" height="56" rx="28" fill="#01348D"/>
<rect y="39" width="244" height="56" rx="28" fill="#F2A428"/>
<path d="M16.008 7.2V24H14.256V8.736H6.144L5.952 14.352C5.872 16.672 5.68 18.544 5.376 19.968C5.088 21.376 4.64 22.432 4.032 23.136C3.424 23.824 2.616 24.168 1.608 24.168C1.176 24.168 0.728 24.112 0.264 24L0.408 22.416C0.68 22.48 0.944 22.512 1.2 22.512C1.904 22.512 2.472 22.232 2.904 21.672C3.352 21.112 3.688 20.248 3.912 19.08C4.136 17.896 4.288 16.336 4.368 14.4L4.608 7.2H16.008ZM20.3078 11.376H22.0118V21.408L30.4358 11.376H31.9478V24H30.2438V13.968L21.8438 24H20.3078V11.376ZM44.7512 12.888H39.9752V24H38.2712V12.888H33.4952V11.376H44.7512V12.888ZM56.709 18.216H46.149C46.245 19.528 46.749 20.592 47.661 21.408C48.573 22.208 49.725 22.608 51.117 22.608C51.901 22.608 52.621 22.472 53.277 22.2C53.933 21.912 54.501 21.496 54.981 20.952L55.941 22.056C55.381 22.728 54.677 23.24 53.829 23.592C52.997 23.944 52.077 24.12 51.069 24.12C49.773 24.12 48.621 23.848 47.613 23.304C46.621 22.744 45.845 21.976 45.285 21C44.725 20.024 44.445 18.92 44.445 17.688C44.445 16.456 44.709 15.352 45.237 14.376C45.781 13.4 46.517 12.64 47.445 12.096C48.389 11.552 49.445 11.28 50.613 11.28C51.781 11.28 52.829 11.552 53.757 12.096C54.685 12.64 55.413 13.4 55.941 14.376C56.469 15.336 56.733 16.44 56.733 17.688L56.709 18.216ZM50.613 12.744C49.397 12.744 48.373 13.136 47.541 13.92C46.725 14.688 46.261 15.696 46.149 16.944H55.101C54.989 15.696 54.517 14.688 53.685 13.92C52.869 13.136 51.845 12.744 50.613 12.744ZM66.0489 11.28C67.2329 11.28 68.3049 11.552 69.2649 12.096C70.2249 12.624 70.9769 13.376 71.5209 14.352C72.0649 15.328 72.3369 16.44 72.3369 17.688C72.3369 18.952 72.0649 20.072 71.5209 21.048C70.9769 22.024 70.2249 22.784 69.2649 23.328C68.3209 23.856 67.2489 24.12 66.0489 24.12C65.0249 24.12 64.0969 23.912 63.2649 23.496C62.4489 23.064 61.7769 22.44 61.2489 21.624V28.656H59.5449V11.376H61.1769V13.872C61.6889 13.04 62.3609 12.4 63.1929 11.952C64.0409 11.504 64.9929 11.28 66.0489 11.28ZM65.9289 22.608C66.8089 22.608 67.6089 22.408 68.3289 22.008C69.0489 21.592 69.6089 21.008 70.0089 20.256C70.4249 19.504 70.6329 18.648 70.6329 17.688C70.6329 16.728 70.4249 15.88 70.0089 15.144C69.6089 14.392 69.0489 13.808 68.3289 13.392C67.6089 12.976 66.8089 12.768 65.9289 12.768C65.0329 12.768 64.2249 12.976 63.5049 13.392C62.8009 13.808 62.2409 14.392 61.8249 15.144C61.4249 15.88 61.2249 16.728 61.2249 17.688C61.2249 18.648 61.4249 19.504 61.8249 20.256C62.2409 21.008 62.8009 21.592 63.5049 22.008C64.2249 22.408 65.0329 22.608 65.9289 22.608ZM79.3117 11.28C80.9597 11.28 82.2237 11.696 83.1037 12.528C83.9837 13.344 84.4237 14.56 84.4237 16.176V24H82.7917V22.032C82.4077 22.688 81.8397 23.2 81.0877 23.568C80.3517 23.936 79.4717 24.12 78.4477 24.12C77.0397 24.12 75.9197 23.784 75.0877 23.112C74.2557 22.44 73.8397 21.552 73.8397 20.448C73.8397 19.376 74.2237 18.512 74.9917 17.856C75.7757 17.2 77.0157 16.872 78.7117 16.872H82.7197V16.104C82.7197 15.016 82.4157 14.192 81.8077 13.632C81.1997 13.056 80.3117 12.768 79.1437 12.768C78.3437 12.768 77.5757 12.904 76.8397 13.176C76.1037 13.432 75.4717 13.792 74.9437 14.256L74.1757 12.984C74.8157 12.44 75.5837 12.024 76.4797 11.736C77.3757 11.432 78.3197 11.28 79.3117 11.28ZM78.7117 22.776C79.6717 22.776 80.4957 22.56 81.1837 22.128C81.8717 21.68 82.3837 21.04 82.7197 20.208V18.144H78.7597C76.5997 18.144 75.5197 18.896 75.5197 20.4C75.5197 21.136 75.7997 21.72 76.3597 22.152C76.9197 22.568 77.7037 22.776 78.7117 22.776ZM96.8799 12.888H92.1039V24H90.3999V12.888H85.6239V11.376H96.8799V12.888ZM109.159 11.376L102.847 25.512C102.335 26.696 101.743 27.536 101.071 28.032C100.399 28.528 99.5906 28.776 98.6466 28.776C98.0386 28.776 97.4706 28.68 96.9426 28.488C96.4146 28.296 95.9586 28.008 95.5746 27.624L96.3666 26.352C97.0066 26.992 97.7746 27.312 98.6706 27.312C99.2466 27.312 99.7346 27.152 100.135 26.832C100.551 26.512 100.935 25.968 101.287 25.2L101.839 23.976L96.1986 11.376H97.9746L102.727 22.104L107.479 11.376H109.159ZM117.357 11.28C118.541 11.28 119.613 11.552 120.573 12.096C121.533 12.624 122.285 13.376 122.829 14.352C123.373 15.328 123.645 16.44 123.645 17.688C123.645 18.952 123.373 20.072 122.829 21.048C122.285 22.024 121.533 22.784 120.573 23.328C119.629 23.856 118.557 24.12 117.357 24.12C116.333 24.12 115.405 23.912 114.573 23.496C113.757 23.064 113.085 22.44 112.557 21.624V28.656H110.853V11.376H112.485V13.872C112.997 13.04 113.669 12.4 114.501 11.952C115.349 11.504 116.301 11.28 117.357 11.28ZM117.237 22.608C118.117 22.608 118.917 22.408 119.637 22.008C120.357 21.592 120.917 21.008 121.317 20.256C121.733 19.504 121.941 18.648 121.941 17.688C121.941 16.728 121.733 15.88 121.317 15.144C120.917 14.392 120.357 13.808 119.637 13.392C118.917 12.976 118.117 12.768 117.237 12.768C116.341 12.768 115.533 12.976 114.813 13.392C114.109 13.808 113.549 14.392 113.133 15.144C112.733 15.88 112.533 16.728 112.533 17.688C112.533 18.648 112.733 19.504 113.133 20.256C113.549 21.008 114.109 21.592 114.813 22.008C115.533 22.408 116.341 22.608 117.237 22.608ZM130.62 11.28C132.268 11.28 133.532 11.696 134.412 12.528C135.292 13.344 135.732 14.56 135.732 16.176V24H134.1V22.032C133.716 22.688 133.148 23.2 132.396 23.568C131.66 23.936 130.78 24.12 129.756 24.12C128.348 24.12 127.228 23.784 126.396 23.112C125.564 22.44 125.148 21.552 125.148 20.448C125.148 19.376 125.532 18.512 126.3 17.856C127.084 17.2 128.324 16.872 130.02 16.872H134.028V16.104C134.028 15.016 133.724 14.192 133.116 13.632C132.508 13.056 131.62 12.768 130.452 12.768C129.652 12.768 128.884 12.904 128.148 13.176C127.412 13.432 126.78 13.792 126.252 14.256L125.484 12.984C126.124 12.44 126.892 12.024 127.788 11.736C128.684 11.432 129.628 11.28 130.62 11.28ZM130.02 22.776C130.98 22.776 131.804 22.56 132.492 22.128C133.18 21.68 133.692 21.04 134.028 20.208V18.144H130.068C127.908 18.144 126.828 18.896 126.828 20.4C126.828 21.136 127.108 21.72 127.668 22.152C128.228 22.568 129.012 22.776 130.02 22.776Z" fill="#555555"/>
<path d="M22.48 59.056C24.704 59.056 26.408 59.792 27.592 61.264C28.776 62.72 29.368 64.784 29.368 67.456C29.368 69.328 29.048 70.912 28.408 72.208C27.768 73.504 26.872 74.488 25.72 75.16C24.568 75.816 23.224 76.144 21.688 76.144C20.024 76.144 18.696 75.84 17.704 75.232L18.4 73.84C19.2 74.368 20.288 74.632 21.664 74.632C23.52 74.632 24.976 74.048 26.032 72.88C27.088 71.696 27.616 69.984 27.616 67.744C27.616 67.328 27.592 66.872 27.544 66.376C27.128 67.288 26.464 68 25.552 68.512C24.64 69.008 23.592 69.256 22.408 69.256C21.304 69.256 20.32 69.048 19.456 68.632C18.608 68.216 17.944 67.632 17.464 66.88C16.984 66.112 16.744 65.224 16.744 64.216C16.744 63.192 16.992 62.288 17.488 61.504C17.984 60.72 18.664 60.12 19.528 59.704C20.408 59.272 21.392 59.056 22.48 59.056ZM22.672 67.792C23.52 67.792 24.264 67.632 24.904 67.312C25.56 66.992 26.072 66.552 26.44 65.992C26.808 65.432 26.992 64.808 26.992 64.12C26.992 63.48 26.816 62.888 26.464 62.344C26.128 61.8 25.624 61.36 24.952 61.024C24.28 60.688 23.48 60.52 22.552 60.52C21.336 60.52 20.344 60.856 19.576 61.528C18.824 62.184 18.448 63.064 18.448 64.168C18.448 65.272 18.824 66.152 19.576 66.808C20.344 67.464 21.376 67.792 22.672 67.792ZM45.193 71.584H41.833V76H40.105V71.584H30.625V70.336L39.529 59.2H41.449L32.857 70.048H40.153V66.16H41.833V70.048H45.193V71.584ZM46.2466 68.752H52.5346V70.24H46.2466V68.752ZM58.5162 59.2V76H56.7882V60.736H52.8282V59.2H58.5162ZM68.2681 76.144C66.9721 76.144 65.8121 75.8 64.7881 75.112C63.7801 74.424 62.9881 73.44 62.4121 72.16C61.8521 70.864 61.5721 69.344 61.5721 67.6C61.5721 65.856 61.8521 64.344 62.4121 63.064C62.9881 61.768 63.7801 60.776 64.7881 60.088C65.8121 59.4 66.9721 59.056 68.2681 59.056C69.5641 59.056 70.7161 59.4 71.7241 60.088C72.7481 60.776 73.5481 61.768 74.1241 63.064C74.7001 64.344 74.9881 65.856 74.9881 67.6C74.9881 69.344 74.7001 70.864 74.1241 72.16C73.5481 73.44 72.7481 74.424 71.7241 75.112C70.7161 75.8 69.5641 76.144 68.2681 76.144ZM68.2681 74.56C69.2441 74.56 70.1001 74.288 70.8361 73.744C71.5881 73.2 72.1721 72.408 72.5881 71.368C73.0041 70.328 73.2121 69.072 73.2121 67.6C73.2121 66.128 73.0041 64.872 72.5881 63.832C72.1721 62.792 71.5881 62 70.8361 61.456C70.1001 60.912 69.2441 60.64 68.2681 60.64C67.2921 60.64 66.4281 60.912 65.6761 61.456C64.9401 62 64.3641 62.792 63.9481 63.832C63.5321 64.872 63.3241 66.128 63.3241 67.6C63.3241 69.072 63.5321 70.328 63.9481 71.368C64.3641 72.408 64.9401 73.2 65.6761 73.744C66.4281 74.288 67.2921 74.56 68.2681 74.56ZM83.1987 76.144C81.9027 76.144 80.7427 75.8 79.7187 75.112C78.7107 74.424 77.9187 73.44 77.3427 72.16C76.7827 70.864 76.5027 69.344 76.5027 67.6C76.5027 65.856 76.7827 64.344 77.3427 63.064C77.9187 61.768 78.7107 60.776 79.7187 60.088C80.7427 59.4 81.9027 59.056 83.1987 59.056C84.4947 59.056 85.6467 59.4 86.6547 60.088C87.6787 60.776 88.4787 61.768 89.0547 63.064C89.6307 64.344 89.9187 65.856 89.9187 67.6C89.9187 69.344 89.6307 70.864 89.0547 72.16C88.4787 73.44 87.6787 74.424 86.6547 75.112C85.6467 75.8 84.4947 76.144 83.1987 76.144ZM83.1987 74.56C84.1747 74.56 85.0307 74.288 85.7667 73.744C86.5187 73.2 87.1027 72.408 87.5187 71.368C87.9347 70.328 88.1427 69.072 88.1427 67.6C88.1427 66.128 87.9347 64.872 87.5187 63.832C87.1027 62.792 86.5187 62 85.7667 61.456C85.0307 60.912 84.1747 60.64 83.1987 60.64C82.2227 60.64 81.3587 60.912 80.6067 61.456C79.8707 62 79.2947 62.792 78.8787 63.832C78.4627 64.872 78.2547 66.128 78.2547 67.6C78.2547 69.072 78.4627 70.328 78.8787 71.368C79.2947 72.408 79.8707 73.2 80.6067 73.744C81.3587 74.288 82.2227 74.56 83.1987 74.56ZM104.051 63.688C105.219 63.688 106.259 63.952 107.171 64.48C108.099 64.992 108.819 65.72 109.331 66.664C109.843 67.592 110.099 68.656 110.099 69.856C110.099 71.088 109.827 72.184 109.283 73.144C108.755 74.088 108.011 74.824 107.051 75.352C106.091 75.88 104.987 76.144 103.739 76.144C101.643 76.144 100.019 75.408 98.8666 73.936C97.7146 72.464 97.1386 70.432 97.1386 67.84C97.1386 65.136 97.6506 63.064 98.6746 61.624C99.7146 60.184 101.331 59.208 103.523 58.696L109.187 57.4L109.475 58.96L104.147 60.184C102.339 60.584 101.011 61.296 100.163 62.32C99.3146 63.328 98.8506 64.824 98.7706 66.808C99.2826 65.832 99.9946 65.072 100.907 64.528C101.819 63.968 102.867 63.688 104.051 63.688ZM103.787 74.728C104.667 74.728 105.451 74.528 106.139 74.128C106.843 73.712 107.387 73.136 107.771 72.4C108.171 71.664 108.371 70.832 108.371 69.904C108.371 68.976 108.179 68.16 107.795 67.456C107.411 66.752 106.867 66.208 106.163 65.824C105.475 65.424 104.683 65.224 103.787 65.224C102.891 65.224 102.091 65.424 101.387 65.824C100.699 66.208 100.155 66.752 99.7546 67.456C99.3706 68.16 99.1786 68.976 99.1786 69.904C99.1786 70.832 99.3706 71.664 99.7546 72.4C100.155 73.136 100.707 73.712 101.411 74.128C102.115 74.528 102.907 74.728 103.787 74.728ZM117.065 63.28C118.713 63.28 119.977 63.696 120.857 64.528C121.737 65.344 122.177 66.56 122.177 68.176V76H120.545V74.032C120.161 74.688 119.593 75.2 118.841 75.568C118.105 75.936 117.225 76.12 116.201 76.12C114.793 76.12 113.673 75.784 112.841 75.112C112.009 74.44 111.593 73.552 111.593 72.448C111.593 71.376 111.977 70.512 112.745 69.856C113.529 69.2 114.769 68.872 116.465 68.872H120.473V68.104C120.473 67.016 120.169 66.192 119.561 65.632C118.953 65.056 118.065 64.768 116.897 64.768C116.097 64.768 115.329 64.904 114.593 65.176C113.857 65.432 113.225 65.792 112.697 66.256L111.929 64.984C112.569 64.44 113.337 64.024 114.233 63.736C115.129 63.432 116.073 63.28 117.065 63.28ZM116.465 74.776C117.425 74.776 118.249 74.56 118.937 74.128C119.625 73.68 120.137 73.04 120.473 72.208V70.144H116.513C114.353 70.144 113.273 70.896 113.273 72.4C113.273 73.136 113.553 73.72 114.113 74.152C114.673 74.568 115.457 74.776 116.465 74.776ZM136.073 63.376V76H134.369V64.888H128.321L128.153 68.008C128.025 70.632 127.721 72.648 127.241 74.056C126.761 75.464 125.905 76.168 124.673 76.168C124.337 76.168 123.929 76.104 123.449 75.976L123.569 74.512C123.857 74.576 124.057 74.608 124.169 74.608C124.825 74.608 125.321 74.304 125.657 73.696C125.993 73.088 126.217 72.336 126.329 71.44C126.441 70.544 126.537 69.36 126.617 67.888L126.833 63.376H136.073ZM150.277 63.376V76H148.573V64.888H142.525L142.357 68.008C142.229 70.632 141.925 72.648 141.445 74.056C140.965 75.464 140.109 76.168 138.877 76.168C138.541 76.168 138.133 76.104 137.653 75.976L137.773 74.512C138.061 74.576 138.261 74.608 138.373 74.608C139.029 74.608 139.525 74.304 139.861 73.696C140.197 73.088 140.421 72.336 140.533 71.44C140.645 70.544 140.741 69.36 140.821 67.888L141.037 63.376H150.277ZM159.369 76.12C158.153 76.12 157.057 75.848 156.081 75.304C155.105 74.744 154.337 73.976 153.777 73C153.217 72.024 152.937 70.92 152.937 69.688C152.937 68.456 153.217 67.352 153.777 66.376C154.337 65.4 155.105 64.64 156.081 64.096C157.057 63.552 158.153 63.28 159.369 63.28C160.585 63.28 161.681 63.552 162.657 64.096C163.633 64.64 164.393 65.4 164.937 66.376C165.497 67.352 165.777 68.456 165.777 69.688C165.777 70.92 165.497 72.024 164.937 73C164.393 73.976 163.633 74.744 162.657 75.304C161.681 75.848 160.585 76.12 159.369 76.12ZM159.369 74.608C160.265 74.608 161.065 74.408 161.769 74.008C162.489 73.592 163.049 73.008 163.449 72.256C163.849 71.504 164.049 70.648 164.049 69.688C164.049 68.728 163.849 67.872 163.449 67.12C163.049 66.368 162.489 65.792 161.769 65.392C161.065 64.976 160.265 64.768 159.369 64.768C158.473 64.768 157.665 64.976 156.945 65.392C156.241 65.792 155.681 66.368 155.265 67.12C154.865 67.872 154.665 68.728 154.665 69.688C154.665 70.648 154.865 71.504 155.265 72.256C155.681 73.008 156.241 73.592 156.945 74.008C157.665 74.408 158.473 74.608 159.369 74.608ZM176.499 69.472C178.211 69.872 179.067 70.904 179.067 72.568C179.067 73.672 178.659 74.52 177.843 75.112C177.027 75.704 175.811 76 174.195 76H168.459V63.376H174.027C175.467 63.376 176.595 63.656 177.411 64.216C178.227 64.776 178.635 65.576 178.635 66.616C178.635 67.304 178.443 67.896 178.059 68.392C177.691 68.872 177.171 69.232 176.499 69.472ZM170.115 68.992H173.907C174.883 68.992 175.627 68.808 176.139 68.44C176.667 68.072 176.931 67.536 176.931 66.832C176.931 66.128 176.667 65.6 176.139 65.248C175.627 64.896 174.883 64.72 173.907 64.72H170.115V68.992ZM174.123 74.656C175.211 74.656 176.027 74.48 176.571 74.128C177.115 73.776 177.387 73.224 177.387 72.472C177.387 71.72 177.139 71.168 176.643 70.816C176.147 70.448 175.363 70.264 174.291 70.264H170.115V74.656H174.123Z" fill="white"/>
<rect y="277" width="260" height="56" rx="28" fill="#E5E5E5"/>
<rect y="277" width="250" height="56" rx="28" fill="#01348D"/>
<rect y="277" width="208" height="56" rx="28" fill="#F2A428"/>
<path d="M26.872 305.192C27.928 305.544 28.736 306.072 29.296 306.776C29.872 307.48 30.16 308.328 30.16 309.32C30.16 310.296 29.896 311.152 29.368 311.888C28.84 312.608 28.08 313.168 27.088 313.568C26.112 313.952 24.96 314.144 23.632 314.144C21.616 314.144 20.032 313.712 18.88 312.848C17.728 311.984 17.152 310.808 17.152 309.32C17.152 308.312 17.424 307.464 17.968 306.776C18.528 306.072 19.336 305.544 20.392 305.192C19.528 304.856 18.872 304.376 18.424 303.752C17.976 303.112 17.752 302.36 17.752 301.496C17.752 300.136 18.28 299.056 19.336 298.256C20.408 297.456 21.84 297.056 23.632 297.056C24.816 297.056 25.848 297.24 26.728 297.608C27.624 297.96 28.32 298.472 28.816 299.144C29.312 299.816 29.56 300.6 29.56 301.496C29.56 302.36 29.328 303.112 28.864 303.752C28.4 304.376 27.736 304.856 26.872 305.192ZM19.48 301.544C19.48 302.472 19.848 303.208 20.584 303.752C21.32 304.296 22.336 304.568 23.632 304.568C24.928 304.568 25.944 304.296 26.68 303.752C27.432 303.208 27.808 302.48 27.808 301.568C27.808 300.624 27.424 299.88 26.656 299.336C25.904 298.792 24.896 298.52 23.632 298.52C22.352 298.52 21.336 298.792 20.584 299.336C19.848 299.88 19.48 300.616 19.48 301.544ZM23.632 312.68C25.12 312.68 26.28 312.376 27.112 311.768C27.96 311.16 28.384 310.336 28.384 309.296C28.384 308.256 27.96 307.44 27.112 306.848C26.28 306.24 25.12 305.936 23.632 305.936C22.16 305.936 21 306.24 20.152 306.848C19.32 307.44 18.904 308.256 18.904 309.296C18.904 310.352 19.32 311.184 20.152 311.792C20.984 312.384 22.144 312.68 23.632 312.68ZM38.2887 314.144C36.9927 314.144 35.8327 313.8 34.8087 313.112C33.8007 312.424 33.0087 311.44 32.4327 310.16C31.8727 308.864 31.5927 307.344 31.5927 305.6C31.5927 303.856 31.8727 302.344 32.4327 301.064C33.0087 299.768 33.8007 298.776 34.8087 298.088C35.8327 297.4 36.9927 297.056 38.2887 297.056C39.5847 297.056 40.7367 297.4 41.7447 298.088C42.7687 298.776 43.5687 299.768 44.1447 301.064C44.7207 302.344 45.0087 303.856 45.0087 305.6C45.0087 307.344 44.7207 308.864 44.1447 310.16C43.5687 311.44 42.7687 312.424 41.7447 313.112C40.7367 313.8 39.5847 314.144 38.2887 314.144ZM38.2887 312.56C39.2647 312.56 40.1207 312.288 40.8567 311.744C41.6087 311.2 42.1927 310.408 42.6087 309.368C43.0247 308.328 43.2327 307.072 43.2327 305.6C43.2327 304.128 43.0247 302.872 42.6087 301.832C42.1927 300.792 41.6087 300 40.8567 299.456C40.1207 298.912 39.2647 298.64 38.2887 298.64C37.3127 298.64 36.4487 298.912 35.6967 299.456C34.9607 300 34.3847 300.792 33.9687 301.832C33.5527 302.872 33.3447 304.128 33.3447 305.6C33.3447 307.072 33.5527 308.328 33.9687 309.368C34.3847 310.408 34.9607 311.2 35.6967 311.744C36.4487 312.288 37.3127 312.56 38.2887 312.56ZM46.9028 306.752H53.1908V308.24H46.9028V306.752ZM60.1469 297.056C62.3709 297.056 64.0749 297.792 65.2589 299.264C66.4429 300.72 67.0349 302.784 67.0349 305.456C67.0349 307.328 66.7149 308.912 66.0749 310.208C65.4349 311.504 64.5389 312.488 63.3869 313.16C62.2349 313.816 60.8909 314.144 59.3549 314.144C57.6909 314.144 56.3629 313.84 55.3709 313.232L56.0669 311.84C56.8669 312.368 57.9549 312.632 59.3309 312.632C61.1869 312.632 62.6429 312.048 63.6989 310.88C64.7549 309.696 65.2829 307.984 65.2829 305.744C65.2829 305.328 65.2589 304.872 65.2109 304.376C64.7949 305.288 64.1309 306 63.2189 306.512C62.3069 307.008 61.2589 307.256 60.0749 307.256C58.9709 307.256 57.9869 307.048 57.1229 306.632C56.2749 306.216 55.6109 305.632 55.1309 304.88C54.6509 304.112 54.4109 303.224 54.4109 302.216C54.4109 301.192 54.6589 300.288 55.1549 299.504C55.6509 298.72 56.3309 298.12 57.1949 297.704C58.0749 297.272 59.0589 297.056 60.1469 297.056ZM60.3389 305.792C61.1869 305.792 61.9309 305.632 62.5709 305.312C63.2269 304.992 63.7389 304.552 64.1069 303.992C64.4749 303.432 64.6589 302.808 64.6589 302.12C64.6589 301.48 64.4829 300.888 64.1309 300.344C63.7949 299.8 63.2909 299.36 62.6189 299.024C61.9469 298.688 61.1469 298.52 60.2189 298.52C59.0029 298.52 58.0109 298.856 57.2429 299.528C56.4909 300.184 56.1149 301.064 56.1149 302.168C56.1149 303.272 56.4909 304.152 57.2429 304.808C58.0109 305.464 59.0429 305.792 60.3389 305.792ZM75.5399 303.944C76.6439 303.944 77.6199 304.152 78.4679 304.568C79.3319 304.984 80.0039 305.576 80.4839 306.344C80.9639 307.096 81.2039 307.976 81.2039 308.984C81.2039 310.008 80.9559 310.912 80.4599 311.696C79.9639 312.48 79.2759 313.088 78.3959 313.52C77.5319 313.936 76.5559 314.144 75.4679 314.144C73.2439 314.144 71.5399 313.416 70.3559 311.96C69.1719 310.488 68.5799 308.416 68.5799 305.744C68.5799 303.872 68.8999 302.288 69.5399 300.992C70.1799 299.696 71.0759 298.72 72.2279 298.064C73.3799 297.392 74.7239 297.056 76.2599 297.056C77.9239 297.056 79.2519 297.36 80.2439 297.968L79.5479 299.36C78.7479 298.832 77.6599 298.568 76.2839 298.568C74.4279 298.568 72.9719 299.16 71.9159 300.344C70.8599 301.512 70.3319 303.216 70.3319 305.456C70.3319 305.856 70.3559 306.312 70.4039 306.824C70.8199 305.912 71.4839 305.208 72.3959 304.712C73.3079 304.2 74.3559 303.944 75.5399 303.944ZM75.3959 312.68C76.6119 312.68 77.5959 312.352 78.3479 311.696C79.1159 311.024 79.4999 310.136 79.4999 309.032C79.4999 307.928 79.1159 307.048 78.3479 306.392C77.5959 305.736 76.5719 305.408 75.2759 305.408C74.4279 305.408 73.6759 305.568 73.0199 305.888C72.3799 306.208 71.8759 306.648 71.5079 307.208C71.1399 307.768 70.9559 308.392 70.9559 309.08C70.9559 309.72 71.1239 310.312 71.4599 310.856C71.8119 311.4 72.3239 311.84 72.9959 312.176C73.6679 312.512 74.4679 312.68 75.3959 312.68ZM94.8621 301.688C96.0301 301.688 97.0701 301.952 97.9821 302.48C98.9101 302.992 99.6301 303.72 100.142 304.664C100.654 305.592 100.91 306.656 100.91 307.856C100.91 309.088 100.638 310.184 100.094 311.144C99.5661 312.088 98.8221 312.824 97.8621 313.352C96.9021 313.88 95.7981 314.144 94.5501 314.144C92.4541 314.144 90.8301 313.408 89.6781 311.936C88.5261 310.464 87.9501 308.432 87.9501 305.84C87.9501 303.136 88.4621 301.064 89.4861 299.624C90.5261 298.184 92.1421 297.208 94.3341 296.696L99.9981 295.4L100.286 296.96L94.9581 298.184C93.1501 298.584 91.8221 299.296 90.9741 300.32C90.1261 301.328 89.6621 302.824 89.5821 304.808C90.0941 303.832 90.8061 303.072 91.7181 302.528C92.6301 301.968 93.6781 301.688 94.8621 301.688ZM94.5981 312.728C95.4781 312.728 96.2621 312.528 96.9501 312.128C97.6541 311.712 98.1981 311.136 98.5821 310.4C98.9821 309.664 99.1821 308.832 99.1821 307.904C99.1821 306.976 98.9901 306.16 98.6061 305.456C98.2221 304.752 97.6781 304.208 96.9741 303.824C96.2861 303.424 95.4941 303.224 94.5981 303.224C93.7021 303.224 92.9021 303.424 92.1981 303.824C91.5101 304.208 90.9661 304.752 90.5661 305.456C90.1821 306.16 89.9901 306.976 89.9901 307.904C89.9901 308.832 90.1821 309.664 90.5661 310.4C90.9661 311.136 91.5181 311.712 92.2221 312.128C92.9261 312.528 93.7181 312.728 94.5981 312.728ZM107.876 301.28C109.524 301.28 110.788 301.696 111.668 302.528C112.548 303.344 112.988 304.56 112.988 306.176V314H111.356V312.032C110.972 312.688 110.404 313.2 109.652 313.568C108.916 313.936 108.036 314.12 107.012 314.12C105.604 314.12 104.484 313.784 103.652 313.112C102.82 312.44 102.404 311.552 102.404 310.448C102.404 309.376 102.788 308.512 103.556 307.856C104.34 307.2 105.58 306.872 107.276 306.872H111.284V306.104C111.284 305.016 110.98 304.192 110.372 303.632C109.764 303.056 108.876 302.768 107.708 302.768C106.908 302.768 106.14 302.904 105.404 303.176C104.668 303.432 104.036 303.792 103.508 304.256L102.74 302.984C103.38 302.44 104.148 302.024 105.044 301.736C105.94 301.432 106.884 301.28 107.876 301.28ZM107.276 312.776C108.236 312.776 109.06 312.56 109.748 312.128C110.436 311.68 110.948 311.04 111.284 310.208V308.144H107.324C105.164 308.144 104.084 308.896 104.084 310.4C104.084 311.136 104.364 311.72 104.924 312.152C105.484 312.568 106.268 312.776 107.276 312.776ZM126.884 301.376V314H125.18V302.888H119.132L118.964 306.008C118.836 308.632 118.532 310.648 118.052 312.056C117.572 313.464 116.716 314.168 115.484 314.168C115.148 314.168 114.74 314.104 114.26 313.976L114.38 312.512C114.668 312.576 114.868 312.608 114.98 312.608C115.636 312.608 116.132 312.304 116.468 311.696C116.804 311.088 117.028 310.336 117.14 309.44C117.252 308.544 117.348 307.36 117.428 305.888L117.644 301.376H126.884ZM141.088 301.376V314H139.384V302.888H133.336L133.168 306.008C133.04 308.632 132.736 310.648 132.256 312.056C131.776 313.464 130.92 314.168 129.688 314.168C129.352 314.168 128.944 314.104 128.464 313.976L128.584 312.512C128.872 312.576 129.072 312.608 129.184 312.608C129.84 312.608 130.336 312.304 130.672 311.696C131.008 311.088 131.232 310.336 131.344 309.44C131.456 308.544 131.552 307.36 131.632 305.888L131.848 301.376H141.088ZM150.18 314.12C148.964 314.12 147.868 313.848 146.892 313.304C145.916 312.744 145.148 311.976 144.588 311C144.028 310.024 143.748 308.92 143.748 307.688C143.748 306.456 144.028 305.352 144.588 304.376C145.148 303.4 145.916 302.64 146.892 302.096C147.868 301.552 148.964 301.28 150.18 301.28C151.396 301.28 152.492 301.552 153.468 302.096C154.444 302.64 155.204 303.4 155.748 304.376C156.308 305.352 156.588 306.456 156.588 307.688C156.588 308.92 156.308 310.024 155.748 311C155.204 311.976 154.444 312.744 153.468 313.304C152.492 313.848 151.396 314.12 150.18 314.12ZM150.18 312.608C151.076 312.608 151.876 312.408 152.58 312.008C153.3 311.592 153.86 311.008 154.26 310.256C154.66 309.504 154.86 308.648 154.86 307.688C154.86 306.728 154.66 305.872 154.26 305.12C153.86 304.368 153.3 303.792 152.58 303.392C151.876 302.976 151.076 302.768 150.18 302.768C149.284 302.768 148.476 302.976 147.756 303.392C147.052 303.792 146.492 304.368 146.076 305.12C145.676 305.872 145.476 306.728 145.476 307.688C145.476 308.648 145.676 309.504 146.076 310.256C146.492 311.008 147.052 311.592 147.756 312.008C148.476 312.408 149.284 312.608 150.18 312.608ZM167.31 307.472C169.022 307.872 169.878 308.904 169.878 310.568C169.878 311.672 169.47 312.52 168.654 313.112C167.838 313.704 166.622 314 165.006 314H159.27V301.376H164.838C166.278 301.376 167.406 301.656 168.222 302.216C169.038 302.776 169.446 303.576 169.446 304.616C169.446 305.304 169.254 305.896 168.87 306.392C168.502 306.872 167.982 307.232 167.31 307.472ZM160.926 306.992H164.718C165.694 306.992 166.438 306.808 166.95 306.44C167.478 306.072 167.742 305.536 167.742 304.832C167.742 304.128 167.478 303.6 166.95 303.248C166.438 302.896 165.694 302.72 164.718 302.72H160.926V306.992ZM164.934 312.656C166.022 312.656 166.838 312.48 167.382 312.128C167.926 311.776 168.198 311.224 168.198 310.472C168.198 309.72 167.95 309.168 167.454 308.816C166.958 308.448 166.174 308.264 165.102 308.264H160.926V312.656H164.934Z" fill="white"/>
<path d="M9.12 245.2C11.264 245.2 12.944 245.712 14.16 246.736C15.376 247.76 15.984 249.168 15.984 250.96C15.984 252.752 15.376 254.16 14.16 255.184C12.944 256.192 11.264 256.696 9.12 256.696H4.608V262H2.832V245.2H9.12ZM9.072 255.136C10.736 255.136 12.008 254.776 12.888 254.056C13.768 253.32 14.208 252.288 14.208 250.96C14.208 249.6 13.768 248.56 12.888 247.84C12.008 247.104 10.736 246.736 9.072 246.736H4.608V255.136H9.072ZM29.0436 249.376L22.7316 263.512C22.2196 264.696 21.6276 265.536 20.9556 266.032C20.2836 266.528 19.4756 266.776 18.5316 266.776C17.9236 266.776 17.3556 266.68 16.8276 266.488C16.2996 266.296 15.8436 266.008 15.4596 265.624L16.2516 264.352C16.8916 264.992 17.6596 265.312 18.5556 265.312C19.1316 265.312 19.6196 265.152 20.0196 264.832C20.4356 264.512 20.8196 263.968 21.1716 263.2L21.7236 261.976L16.0836 249.376H17.8596L22.6116 260.104L27.3636 249.376H29.0436ZM35.6668 262.12C34.4188 262.12 33.2988 261.848 32.3068 261.304C31.3308 260.76 30.5628 260 30.0028 259.024C29.4428 258.032 29.1628 256.92 29.1628 255.688C29.1628 254.456 29.4428 253.352 30.0028 252.376C30.5628 251.4 31.3308 250.64 32.3068 250.096C33.2988 249.552 34.4188 249.28 35.6668 249.28C36.7548 249.28 37.7228 249.496 38.5708 249.928C39.4348 250.344 40.1148 250.96 40.6108 251.776L39.3388 252.64C38.9228 252.016 38.3948 251.552 37.7548 251.248C37.1148 250.928 36.4188 250.768 35.6668 250.768C34.7548 250.768 33.9308 250.976 33.1948 251.392C32.4748 251.792 31.9068 252.368 31.4908 253.12C31.0908 253.872 30.8908 254.728 30.8908 255.688C30.8908 256.664 31.0908 257.528 31.4908 258.28C31.9068 259.016 32.4748 259.592 33.1948 260.008C33.9308 260.408 34.7548 260.608 35.6668 260.608C36.4188 260.608 37.1148 260.456 37.7548 260.152C38.3948 259.848 38.9228 259.384 39.3388 258.76L40.6108 259.624C40.1148 260.44 39.4348 261.064 38.5708 261.496C37.7068 261.912 36.7388 262.12 35.6668 262.12ZM48.0193 262.12C46.7713 262.12 45.6513 261.848 44.6593 261.304C43.6833 260.76 42.9153 260 42.3553 259.024C41.7953 258.032 41.5153 256.92 41.5153 255.688C41.5153 254.456 41.7953 253.352 42.3553 252.376C42.9153 251.4 43.6833 250.64 44.6593 250.096C45.6513 249.552 46.7713 249.28 48.0193 249.28C49.1073 249.28 50.0753 249.496 50.9233 249.928C51.7873 250.344 52.4673 250.96 52.9633 251.776L51.6913 252.64C51.2753 252.016 50.7473 251.552 50.1073 251.248C49.4673 250.928 48.7713 250.768 48.0193 250.768C47.1073 250.768 46.2833 250.976 45.5473 251.392C44.8273 251.792 44.2593 252.368 43.8433 253.12C43.4433 253.872 43.2433 254.728 43.2433 255.688C43.2433 256.664 43.4433 257.528 43.8433 258.28C44.2593 259.016 44.8273 259.592 45.5473 260.008C46.2833 260.408 47.1073 260.608 48.0193 260.608C48.7713 260.608 49.4673 260.456 50.1073 260.152C50.7473 259.848 51.2753 259.384 51.6913 258.76L52.9633 259.624C52.4673 260.44 51.7873 261.064 50.9233 261.496C50.0593 261.912 49.0913 262.12 48.0193 262.12ZM59.8868 256.384H57.0067V262H55.3027V249.376H57.0067V254.92H59.9108L64.3508 249.376H66.1988L61.2308 255.496L66.5588 262H64.5428L59.8868 256.384ZM68.2881 249.376H69.9921V259.408L78.4161 249.376H79.9281V262H78.2241V251.968L69.8241 262H68.2881V249.376ZM83.8515 249.376H85.5555V259.408L93.9795 249.376H95.4915V262H93.7875V251.968L85.3875 262H83.8515V249.376ZM89.5875 247.552C88.4995 247.552 87.6355 247.28 86.9955 246.736C86.3555 246.192 86.0275 245.424 86.0115 244.432H87.2355C87.2515 245.056 87.4755 245.56 87.9075 245.944C88.3395 246.312 88.8995 246.496 89.5875 246.496C90.2755 246.496 90.8355 246.312 91.2675 245.944C91.7155 245.56 91.9475 245.056 91.9635 244.432H93.1875C93.1715 245.424 92.8355 246.192 92.1795 246.736C91.5395 247.28 90.6755 247.552 89.5875 247.552ZM114.432 249.376V262H112.872V257.824H108.912H108.432L105.504 262H103.656L106.8 257.584C105.824 257.312 105.072 256.848 104.544 256.192C104.016 255.536 103.752 254.704 103.752 253.696C103.752 252.288 104.232 251.216 105.192 250.48C106.152 249.744 107.464 249.376 109.128 249.376H114.432ZM105.48 253.744C105.48 255.616 106.672 256.552 109.056 256.552H112.872V250.888H109.176C106.712 250.888 105.48 251.84 105.48 253.744ZM124.217 255.424C125.113 255.632 125.801 255.992 126.281 256.504C126.777 257.016 127.025 257.64 127.025 258.376C127.025 259.112 126.769 259.768 126.257 260.344C125.761 260.92 125.081 261.368 124.217 261.688C123.353 261.992 122.401 262.144 121.361 262.144C120.449 262.144 119.553 262.016 118.673 261.76C117.793 261.488 117.025 261.096 116.369 260.584L116.945 259.312C117.521 259.744 118.193 260.08 118.961 260.32C119.729 260.56 120.505 260.68 121.289 260.68C122.457 260.68 123.409 260.464 124.145 260.032C124.897 259.584 125.273 258.984 125.273 258.232C125.273 257.56 124.969 257.04 124.361 256.672C123.753 256.288 122.921 256.096 121.865 256.096H119.705V254.848H121.769C122.713 254.848 123.473 254.672 124.049 254.32C124.625 253.952 124.913 253.464 124.913 252.856C124.913 252.184 124.585 251.656 123.929 251.272C123.289 250.888 122.449 250.696 121.409 250.696C120.049 250.696 118.705 251.04 117.377 251.728L116.897 250.408C118.401 249.624 119.961 249.232 121.577 249.232C122.537 249.232 123.401 249.376 124.169 249.664C124.953 249.936 125.561 250.328 125.993 250.84C126.441 251.352 126.665 251.944 126.665 252.616C126.665 253.256 126.441 253.824 125.993 254.32C125.561 254.816 124.969 255.184 124.217 255.424ZM135.237 253.84C136.821 253.856 138.029 254.208 138.861 254.896C139.693 255.584 140.109 256.576 140.109 257.872C140.109 259.216 139.661 260.248 138.765 260.968C137.869 261.688 136.589 262.04 134.925 262.024L129.933 262V249.376H131.637V253.792L135.237 253.84ZM142.221 249.376H143.925V262H142.221V249.376ZM134.829 260.728C135.997 260.744 136.877 260.512 137.469 260.032C138.077 259.536 138.381 258.816 138.381 257.872C138.381 256.944 138.085 256.256 137.493 255.808C136.901 255.36 136.013 255.128 134.829 255.112L131.637 255.064V260.68L134.829 260.728ZM152.401 256.384H149.521V262H147.817V249.376H149.521V254.92H152.425L156.865 249.376H158.713L153.745 255.496L159.073 262H157.057L152.401 256.384Z" fill="#555555"/>
<rect x="316" y="277" width="260" height="56" rx="28" fill="#E5E5E5"/>
<rect x="316" y="277" width="221" height="56" rx="28" fill="#F2A428"/>
<path d="M318.832 245.2H320.584V259.12L331.336 245.2H332.944V262H331.192V248.104L320.44 262H318.832V245.2ZM342.525 262.12C341.277 262.12 340.157 261.848 339.165 261.304C338.189 260.76 337.421 260 336.861 259.024C336.301 258.032 336.021 256.92 336.021 255.688C336.021 254.456 336.301 253.352 336.861 252.376C337.421 251.4 338.189 250.64 339.165 250.096C340.157 249.552 341.277 249.28 342.525 249.28C343.613 249.28 344.581 249.496 345.429 249.928C346.293 250.344 346.973 250.96 347.469 251.776L346.197 252.64C345.781 252.016 345.253 251.552 344.613 251.248C343.973 250.928 343.277 250.768 342.525 250.768C341.613 250.768 340.789 250.976 340.053 251.392C339.333 251.792 338.765 252.368 338.349 253.12C337.949 253.872 337.749 254.728 337.749 255.688C337.749 256.664 337.949 257.528 338.349 258.28C338.765 259.016 339.333 259.592 340.053 260.008C340.789 260.408 341.613 260.608 342.525 260.608C343.277 260.608 343.973 260.456 344.613 260.152C345.253 259.848 345.781 259.384 346.197 258.76L347.469 259.624C346.973 260.44 346.293 261.064 345.429 261.496C344.565 261.912 343.597 262.12 342.525 262.12ZM358.454 250.888H353.678V262H351.974V250.888H347.198V249.376H358.454V250.888ZM364.58 262.12C363.364 262.12 362.268 261.848 361.292 261.304C360.316 260.744 359.548 259.976 358.988 259C358.428 258.024 358.148 256.92 358.148 255.688C358.148 254.456 358.428 253.352 358.988 252.376C359.548 251.4 360.316 250.64 361.292 250.096C362.268 249.552 363.364 249.28 364.58 249.28C365.796 249.28 366.892 249.552 367.868 250.096C368.844 250.64 369.604 251.4 370.148 252.376C370.708 253.352 370.988 254.456 370.988 255.688C370.988 256.92 370.708 258.024 370.148 259C369.604 259.976 368.844 260.744 367.868 261.304C366.892 261.848 365.796 262.12 364.58 262.12ZM364.58 260.608C365.476 260.608 366.276 260.408 366.98 260.008C367.7 259.592 368.26 259.008 368.66 258.256C369.06 257.504 369.26 256.648 369.26 255.688C369.26 254.728 369.06 253.872 368.66 253.12C368.26 252.368 367.7 251.792 366.98 251.392C366.276 250.976 365.476 250.768 364.58 250.768C363.684 250.768 362.876 250.976 362.156 251.392C361.452 251.792 360.892 252.368 360.476 253.12C360.076 253.872 359.876 254.728 359.876 255.688C359.876 256.648 360.076 257.504 360.476 258.256C360.892 259.008 361.452 259.592 362.156 260.008C362.876 260.408 363.684 260.608 364.58 260.608ZM380.174 249.28C381.358 249.28 382.43 249.552 383.39 250.096C384.35 250.624 385.102 251.376 385.646 252.352C386.19 253.328 386.462 254.44 386.462 255.688C386.462 256.952 386.19 258.072 385.646 259.048C385.102 260.024 384.35 260.784 383.39 261.328C382.446 261.856 381.374 262.12 380.174 262.12C379.15 262.12 378.222 261.912 377.39 261.496C376.574 261.064 375.902 260.44 375.374 259.624V266.656H373.67V249.376H375.302V251.872C375.814 251.04 376.486 250.4 377.318 249.952C378.166 249.504 379.118 249.28 380.174 249.28ZM380.054 260.608C380.934 260.608 381.734 260.408 382.454 260.008C383.174 259.592 383.734 259.008 384.134 258.256C384.55 257.504 384.758 256.648 384.758 255.688C384.758 254.728 384.55 253.88 384.134 253.144C383.734 252.392 383.174 251.808 382.454 251.392C381.734 250.976 380.934 250.768 380.054 250.768C379.158 250.768 378.35 250.976 377.63 251.392C376.926 251.808 376.366 252.392 375.95 253.144C375.55 253.88 375.35 254.728 375.35 255.688C375.35 256.648 375.55 257.504 375.95 258.256C376.366 259.008 376.926 259.592 377.63 260.008C378.35 260.408 379.158 260.608 380.054 260.608ZM389.163 249.376H390.867V259.408L399.291 249.376H400.803V262H399.099V251.968L390.699 262H389.163V249.376ZM414.422 249.376V262H412.862V257.824H408.902H408.422L405.494 262H403.646L406.79 257.584C405.814 257.312 405.062 256.848 404.534 256.192C404.006 255.536 403.742 254.704 403.742 253.696C403.742 252.288 404.222 251.216 405.182 250.48C406.142 249.744 407.454 249.376 409.118 249.376H414.422ZM405.47 253.744C405.47 255.616 406.662 256.552 409.046 256.552H412.862V250.888H409.166C406.702 250.888 405.47 251.84 405.47 253.744Z" fill="#555555"/>
<path d="M342.872 305.192C343.928 305.544 344.736 306.072 345.296 306.776C345.872 307.48 346.16 308.328 346.16 309.32C346.16 310.296 345.896 311.152 345.368 311.888C344.84 312.608 344.08 313.168 343.088 313.568C342.112 313.952 340.96 314.144 339.632 314.144C337.616 314.144 336.032 313.712 334.88 312.848C333.728 311.984 333.152 310.808 333.152 309.32C333.152 308.312 333.424 307.464 333.968 306.776C334.528 306.072 335.336 305.544 336.392 305.192C335.528 304.856 334.872 304.376 334.424 303.752C333.976 303.112 333.752 302.36 333.752 301.496C333.752 300.136 334.28 299.056 335.336 298.256C336.408 297.456 337.84 297.056 339.632 297.056C340.816 297.056 341.848 297.24 342.728 297.608C343.624 297.96 344.32 298.472 344.816 299.144C345.312 299.816 345.56 300.6 345.56 301.496C345.56 302.36 345.328 303.112 344.864 303.752C344.4 304.376 343.736 304.856 342.872 305.192ZM335.48 301.544C335.48 302.472 335.848 303.208 336.584 303.752C337.32 304.296 338.336 304.568 339.632 304.568C340.928 304.568 341.944 304.296 342.68 303.752C343.432 303.208 343.808 302.48 343.808 301.568C343.808 300.624 343.424 299.88 342.656 299.336C341.904 298.792 340.896 298.52 339.632 298.52C338.352 298.52 337.336 298.792 336.584 299.336C335.848 299.88 335.48 300.616 335.48 301.544ZM339.632 312.68C341.12 312.68 342.28 312.376 343.112 311.768C343.96 311.16 344.384 310.336 344.384 309.296C344.384 308.256 343.96 307.44 343.112 306.848C342.28 306.24 341.12 305.936 339.632 305.936C338.16 305.936 337 306.24 336.152 306.848C335.32 307.44 334.904 308.256 334.904 309.296C334.904 310.352 335.32 311.184 336.152 311.792C336.984 312.384 338.144 312.68 339.632 312.68ZM352.009 304.088C354.441 304.088 356.209 304.528 357.313 305.408C358.433 306.272 358.993 307.488 358.993 309.056C358.993 310.032 358.761 310.904 358.297 311.672C357.849 312.44 357.169 313.048 356.257 313.496C355.345 313.928 354.225 314.144 352.897 314.144C351.697 314.144 350.553 313.952 349.465 313.568C348.393 313.168 347.529 312.64 346.873 311.984L347.713 310.616C348.273 311.192 349.009 311.664 349.921 312.032C350.833 312.384 351.817 312.56 352.873 312.56C354.265 312.56 355.337 312.248 356.089 311.624C356.857 311 357.241 310.168 357.241 309.128C357.241 307.976 356.809 307.104 355.945 306.512C355.097 305.92 353.657 305.624 351.625 305.624H348.049L348.913 297.2H358.105V298.736H350.425L349.849 304.088H352.009ZM372.844 301.688C374.012 301.688 375.052 301.952 375.964 302.48C376.892 302.992 377.612 303.72 378.124 304.664C378.636 305.592 378.892 306.656 378.892 307.856C378.892 309.088 378.62 310.184 378.076 311.144C377.548 312.088 376.804 312.824 375.844 313.352C374.884 313.88 373.78 314.144 372.532 314.144C370.436 314.144 368.812 313.408 367.66 311.936C366.508 310.464 365.932 308.432 365.932 305.84C365.932 303.136 366.444 301.064 367.468 299.624C368.508 298.184 370.124 297.208 372.316 296.696L377.98 295.4L378.268 296.96L372.94 298.184C371.132 298.584 369.804 299.296 368.956 300.32C368.108 301.328 367.644 302.824 367.564 304.808C368.076 303.832 368.788 303.072 369.7 302.528C370.612 301.968 371.66 301.688 372.844 301.688ZM372.58 312.728C373.46 312.728 374.244 312.528 374.932 312.128C375.636 311.712 376.18 311.136 376.564 310.4C376.964 309.664 377.164 308.832 377.164 307.904C377.164 306.976 376.972 306.16 376.588 305.456C376.204 304.752 375.66 304.208 374.956 303.824C374.268 303.424 373.476 303.224 372.58 303.224C371.684 303.224 370.884 303.424 370.18 303.824C369.492 304.208 368.948 304.752 368.548 305.456C368.164 306.16 367.972 306.976 367.972 307.904C367.972 308.832 368.164 309.664 368.548 310.4C368.948 311.136 369.5 311.712 370.204 312.128C370.908 312.528 371.7 312.728 372.58 312.728ZM385.858 301.28C387.506 301.28 388.77 301.696 389.65 302.528C390.53 303.344 390.97 304.56 390.97 306.176V314H389.338V312.032C388.954 312.688 388.386 313.2 387.634 313.568C386.898 313.936 386.018 314.12 384.994 314.12C383.586 314.12 382.466 313.784 381.634 313.112C380.802 312.44 380.386 311.552 380.386 310.448C380.386 309.376 380.77 308.512 381.538 307.856C382.322 307.2 383.562 306.872 385.258 306.872H389.266V306.104C389.266 305.016 388.962 304.192 388.354 303.632C387.746 303.056 386.858 302.768 385.69 302.768C384.89 302.768 384.122 302.904 383.386 303.176C382.65 303.432 382.018 303.792 381.49 304.256L380.722 302.984C381.362 302.44 382.13 302.024 383.026 301.736C383.922 301.432 384.866 301.28 385.858 301.28ZM385.258 312.776C386.218 312.776 387.042 312.56 387.73 312.128C388.418 311.68 388.93 311.04 389.266 310.208V308.144H385.306C383.146 308.144 382.066 308.896 382.066 310.4C382.066 311.136 382.346 311.72 382.906 312.152C383.466 312.568 384.25 312.776 385.258 312.776ZM404.866 301.376V314H403.162V302.888H397.114L396.946 306.008C396.818 308.632 396.514 310.648 396.034 312.056C395.554 313.464 394.698 314.168 393.466 314.168C393.13 314.168 392.722 314.104 392.242 313.976L392.362 312.512C392.65 312.576 392.85 312.608 392.962 312.608C393.618 312.608 394.114 312.304 394.45 311.696C394.786 311.088 395.01 310.336 395.122 309.44C395.234 308.544 395.33 307.36 395.41 305.888L395.626 301.376H404.866ZM419.07 301.376V314H417.366V302.888H411.318L411.15 306.008C411.022 308.632 410.718 310.648 410.238 312.056C409.758 313.464 408.902 314.168 407.67 314.168C407.334 314.168 406.926 314.104 406.446 313.976L406.566 312.512C406.854 312.576 407.054 312.608 407.166 312.608C407.822 312.608 408.318 312.304 408.654 311.696C408.99 311.088 409.214 310.336 409.326 309.44C409.438 308.544 409.534 307.36 409.614 305.888L409.83 301.376H419.07ZM428.162 314.12C426.946 314.12 425.85 313.848 424.874 313.304C423.898 312.744 423.13 311.976 422.57 311C422.01 310.024 421.73 308.92 421.73 307.688C421.73 306.456 422.01 305.352 422.57 304.376C423.13 303.4 423.898 302.64 424.874 302.096C425.85 301.552 426.946 301.28 428.162 301.28C429.378 301.28 430.474 301.552 431.45 302.096C432.426 302.64 433.186 303.4 433.73 304.376C434.29 305.352 434.57 306.456 434.57 307.688C434.57 308.92 434.29 310.024 433.73 311C433.186 311.976 432.426 312.744 431.45 313.304C430.474 313.848 429.378 314.12 428.162 314.12ZM428.162 312.608C429.058 312.608 429.858 312.408 430.562 312.008C431.282 311.592 431.842 311.008 432.242 310.256C432.642 309.504 432.842 308.648 432.842 307.688C432.842 306.728 432.642 305.872 432.242 305.12C431.842 304.368 431.282 303.792 430.562 303.392C429.858 302.976 429.058 302.768 428.162 302.768C427.266 302.768 426.458 302.976 425.738 303.392C425.034 303.792 424.474 304.368 424.058 305.12C423.658 305.872 423.458 306.728 423.458 307.688C423.458 308.648 423.658 309.504 424.058 310.256C424.474 311.008 425.034 311.592 425.738 312.008C426.458 312.408 427.266 312.608 428.162 312.608ZM445.292 307.472C447.004 307.872 447.86 308.904 447.86 310.568C447.86 311.672 447.452 312.52 446.636 313.112C445.82 313.704 444.604 314 442.988 314H437.252V301.376H442.82C444.26 301.376 445.388 301.656 446.204 302.216C447.02 302.776 447.428 303.576 447.428 304.616C447.428 305.304 447.236 305.896 446.852 306.392C446.484 306.872 445.964 307.232 445.292 307.472ZM438.908 306.992H442.7C443.676 306.992 444.42 306.808 444.932 306.44C445.46 306.072 445.724 305.536 445.724 304.832C445.724 304.128 445.46 303.6 444.932 303.248C444.42 302.896 443.676 302.72 442.7 302.72H438.908V306.992ZM442.916 312.656C444.004 312.656 444.82 312.48 445.364 312.128C445.908 311.776 446.18 311.224 446.18 310.472C446.18 309.72 445.932 309.168 445.436 308.816C444.94 308.448 444.156 308.264 443.084 308.264H438.908V312.656H442.916Z" fill="white"/>
<rect x="316" y="158" width="260" height="56" rx="28" fill="#E5E5E5"/>
<rect x="316" y="158" width="224" height="56" rx="28" fill="#F2A428"/>
<path d="M319 126.2L323.776 132.848L328.528 126.2H330.616L324.88 134.264L331.072 143H328.984L323.776 135.776L318.568 143H316.528L322.696 134.336L316.96 126.2H319ZM332.839 130.376H334.543V140.408L342.967 130.376H344.479V143H342.775V132.968L334.375 143H332.839V130.376ZM362.514 130.376V143H360.954V133.016L355.842 141.464H355.074L349.962 132.992V143H348.402V130.376H350.13L355.482 139.472L360.93 130.376H362.514ZM366.403 130.376H368.107V140.408L376.531 130.376H378.043V143H376.339V132.968L367.939 143H366.403V130.376ZM391.663 130.376V143H390.103V138.824H386.143H385.663L382.735 143H380.887L384.031 138.584C383.055 138.312 382.303 137.848 381.775 137.192C381.247 136.536 380.983 135.704 380.983 134.696C380.983 133.288 381.463 132.216 382.423 131.48C383.383 130.744 384.695 130.376 386.359 130.376H391.663ZM382.711 134.744C382.711 136.616 383.903 137.552 386.287 137.552H390.103V131.888H386.407C383.943 131.888 382.711 132.84 382.711 134.744Z" fill="#555555"/>
<path d="M342.872 186.192C343.928 186.544 344.736 187.072 345.296 187.776C345.872 188.48 346.16 189.328 346.16 190.32C346.16 191.296 345.896 192.152 345.368 192.888C344.84 193.608 344.08 194.168 343.088 194.568C342.112 194.952 340.96 195.144 339.632 195.144C337.616 195.144 336.032 194.712 334.88 193.848C333.728 192.984 333.152 191.808 333.152 190.32C333.152 189.312 333.424 188.464 333.968 187.776C334.528 187.072 335.336 186.544 336.392 186.192C335.528 185.856 334.872 185.376 334.424 184.752C333.976 184.112 333.752 183.36 333.752 182.496C333.752 181.136 334.28 180.056 335.336 179.256C336.408 178.456 337.84 178.056 339.632 178.056C340.816 178.056 341.848 178.24 342.728 178.608C343.624 178.96 344.32 179.472 344.816 180.144C345.312 180.816 345.56 181.6 345.56 182.496C345.56 183.36 345.328 184.112 344.864 184.752C344.4 185.376 343.736 185.856 342.872 186.192ZM335.48 182.544C335.48 183.472 335.848 184.208 336.584 184.752C337.32 185.296 338.336 185.568 339.632 185.568C340.928 185.568 341.944 185.296 342.68 184.752C343.432 184.208 343.808 183.48 343.808 182.568C343.808 181.624 343.424 180.88 342.656 180.336C341.904 179.792 340.896 179.52 339.632 179.52C338.352 179.52 337.336 179.792 336.584 180.336C335.848 180.88 335.48 181.616 335.48 182.544ZM339.632 193.68C341.12 193.68 342.28 193.376 343.112 192.768C343.96 192.16 344.384 191.336 344.384 190.296C344.384 189.256 343.96 188.44 343.112 187.848C342.28 187.24 341.12 186.936 339.632 186.936C338.16 186.936 337 187.24 336.152 187.848C335.32 188.44 334.904 189.256 334.904 190.296C334.904 191.352 335.32 192.184 336.152 192.792C336.984 193.384 338.144 193.68 339.632 193.68ZM354.553 184.944C355.657 184.944 356.633 185.152 357.481 185.568C358.345 185.984 359.017 186.576 359.497 187.344C359.977 188.096 360.217 188.976 360.217 189.984C360.217 191.008 359.969 191.912 359.473 192.696C358.977 193.48 358.289 194.088 357.409 194.52C356.545 194.936 355.569 195.144 354.481 195.144C352.257 195.144 350.553 194.416 349.369 192.96C348.185 191.488 347.593 189.416 347.593 186.744C347.593 184.872 347.913 183.288 348.553 181.992C349.193 180.696 350.089 179.72 351.241 179.064C352.393 178.392 353.737 178.056 355.273 178.056C356.937 178.056 358.265 178.36 359.257 178.968L358.561 180.36C357.761 179.832 356.673 179.568 355.297 179.568C353.441 179.568 351.985 180.16 350.929 181.344C349.873 182.512 349.345 184.216 349.345 186.456C349.345 186.856 349.369 187.312 349.417 187.824C349.833 186.912 350.497 186.208 351.409 185.712C352.321 185.2 353.369 184.944 354.553 184.944ZM354.409 193.68C355.625 193.68 356.609 193.352 357.361 192.696C358.129 192.024 358.513 191.136 358.513 190.032C358.513 188.928 358.129 188.048 357.361 187.392C356.609 186.736 355.585 186.408 354.289 186.408C353.441 186.408 352.689 186.568 352.033 186.888C351.393 187.208 350.889 187.648 350.521 188.208C350.153 188.768 349.969 189.392 349.969 190.08C349.969 190.72 350.137 191.312 350.473 191.856C350.825 192.4 351.337 192.84 352.009 193.176C352.681 193.512 353.481 193.68 354.409 193.68ZM373.875 182.688C375.043 182.688 376.083 182.952 376.995 183.48C377.923 183.992 378.643 184.72 379.155 185.664C379.667 186.592 379.923 187.656 379.923 188.856C379.923 190.088 379.651 191.184 379.107 192.144C378.579 193.088 377.835 193.824 376.875 194.352C375.915 194.88 374.811 195.144 373.563 195.144C371.467 195.144 369.843 194.408 368.691 192.936C367.539 191.464 366.963 189.432 366.963 186.84C366.963 184.136 367.475 182.064 368.499 180.624C369.539 179.184 371.155 178.208 373.347 177.696L379.011 176.4L379.299 177.96L373.971 179.184C372.163 179.584 370.835 180.296 369.987 181.32C369.139 182.328 368.675 183.824 368.595 185.808C369.107 184.832 369.819 184.072 370.731 183.528C371.643 182.968 372.691 182.688 373.875 182.688ZM373.611 193.728C374.491 193.728 375.275 193.528 375.963 193.128C376.667 192.712 377.211 192.136 377.595 191.4C377.995 190.664 378.195 189.832 378.195 188.904C378.195 187.976 378.003 187.16 377.619 186.456C377.235 185.752 376.691 185.208 375.987 184.824C375.299 184.424 374.507 184.224 373.611 184.224C372.715 184.224 371.915 184.424 371.211 184.824C370.523 185.208 369.979 185.752 369.579 186.456C369.195 187.16 369.003 187.976 369.003 188.904C369.003 189.832 369.195 190.664 369.579 191.4C369.979 192.136 370.531 192.712 371.235 193.128C371.939 193.528 372.731 193.728 373.611 193.728ZM386.889 182.28C388.537 182.28 389.801 182.696 390.681 183.528C391.561 184.344 392.001 185.56 392.001 187.176V195H390.369V193.032C389.985 193.688 389.417 194.2 388.665 194.568C387.929 194.936 387.049 195.12 386.025 195.12C384.617 195.12 383.497 194.784 382.665 194.112C381.833 193.44 381.417 192.552 381.417 191.448C381.417 190.376 381.801 189.512 382.569 188.856C383.353 188.2 384.593 187.872 386.289 187.872H390.297V187.104C390.297 186.016 389.993 185.192 389.385 184.632C388.777 184.056 387.889 183.768 386.721 183.768C385.921 183.768 385.153 183.904 384.417 184.176C383.681 184.432 383.049 184.792 382.521 185.256L381.753 183.984C382.393 183.44 383.161 183.024 384.057 182.736C384.953 182.432 385.897 182.28 386.889 182.28ZM386.289 193.776C387.249 193.776 388.073 193.56 388.761 193.128C389.449 192.68 389.961 192.04 390.297 191.208V189.144H386.337C384.177 189.144 383.097 189.896 383.097 191.4C383.097 192.136 383.377 192.72 383.937 193.152C384.497 193.568 385.281 193.776 386.289 193.776ZM405.897 182.376V195H404.193V183.888H398.145L397.977 187.008C397.849 189.632 397.545 191.648 397.065 193.056C396.585 194.464 395.729 195.168 394.497 195.168C394.161 195.168 393.753 195.104 393.273 194.976L393.393 193.512C393.681 193.576 393.881 193.608 393.993 193.608C394.649 193.608 395.145 193.304 395.481 192.696C395.817 192.088 396.041 191.336 396.153 190.44C396.265 189.544 396.361 188.36 396.441 186.888L396.657 182.376H405.897ZM420.101 182.376V195H418.397V183.888H412.349L412.181 187.008C412.053 189.632 411.749 191.648 411.269 193.056C410.789 194.464 409.933 195.168 408.701 195.168C408.365 195.168 407.957 195.104 407.477 194.976L407.597 193.512C407.885 193.576 408.085 193.608 408.197 193.608C408.853 193.608 409.349 193.304 409.685 192.696C410.021 192.088 410.245 191.336 410.357 190.44C410.469 189.544 410.565 188.36 410.645 186.888L410.861 182.376H420.101ZM429.193 195.12C427.977 195.12 426.881 194.848 425.905 194.304C424.929 193.744 424.161 192.976 423.601 192C423.041 191.024 422.761 189.92 422.761 188.688C422.761 187.456 423.041 186.352 423.601 185.376C424.161 184.4 424.929 183.64 425.905 183.096C426.881 182.552 427.977 182.28 429.193 182.28C430.409 182.28 431.505 182.552 432.481 183.096C433.457 183.64 434.217 184.4 434.761 185.376C435.321 186.352 435.601 187.456 435.601 188.688C435.601 189.92 435.321 191.024 434.761 192C434.217 192.976 433.457 193.744 432.481 194.304C431.505 194.848 430.409 195.12 429.193 195.12ZM429.193 193.608C430.089 193.608 430.889 193.408 431.593 193.008C432.313 192.592 432.873 192.008 433.273 191.256C433.673 190.504 433.873 189.648 433.873 188.688C433.873 187.728 433.673 186.872 433.273 186.12C432.873 185.368 432.313 184.792 431.593 184.392C430.889 183.976 430.089 183.768 429.193 183.768C428.297 183.768 427.489 183.976 426.769 184.392C426.065 184.792 425.505 185.368 425.089 186.12C424.689 186.872 424.489 187.728 424.489 188.688C424.489 189.648 424.689 190.504 425.089 191.256C425.505 192.008 426.065 192.592 426.769 193.008C427.489 193.408 428.297 193.608 429.193 193.608ZM446.323 188.472C448.035 188.872 448.891 189.904 448.891 191.568C448.891 192.672 448.483 193.52 447.667 194.112C446.851 194.704 445.635 195 444.019 195H438.283V182.376H443.851C445.291 182.376 446.419 182.656 447.235 183.216C448.051 183.776 448.459 184.576 448.459 185.616C448.459 186.304 448.267 186.896 447.883 187.392C447.515 187.872 446.995 188.232 446.323 188.472ZM439.939 187.992H443.731C444.707 187.992 445.451 187.808 445.963 187.44C446.491 187.072 446.755 186.536 446.755 185.832C446.755 185.128 446.491 184.6 445.963 184.248C445.451 183.896 444.707 183.72 443.731 183.72H439.939V187.992ZM443.947 193.656C445.035 193.656 445.851 193.48 446.395 193.128C446.939 192.776 447.211 192.224 447.211 191.472C447.211 190.72 446.963 190.168 446.467 189.816C445.971 189.448 445.187 189.264 444.115 189.264H439.939V193.656H443.947Z" fill="white"/>
<rect y="158" width="260" height="56" rx="28" fill="#E5E5E5"/>
<rect y="158" width="250" height="56" rx="28" fill="#F2A428"/>
<path d="M20.808 134.576C20.808 136.8 20.016 138.552 18.432 139.832C16.864 141.096 14.664 141.768 11.832 141.848V143.576H10.176V141.848C7.344 141.752 5.136 141.072 3.552 139.808C1.984 138.544 1.2 136.8 1.2 134.576C1.2 132.352 1.984 130.608 3.552 129.344C5.136 128.08 7.344 127.4 10.176 127.304V125.624H11.832V127.304C14.648 127.4 16.848 128.088 18.432 129.368C20.016 130.632 20.808 132.368 20.808 134.576ZM11.832 140.432C14.152 140.336 15.944 139.784 17.208 138.776C18.472 137.768 19.104 136.368 19.104 134.576C19.104 132.784 18.464 131.384 17.184 130.376C15.92 129.368 14.136 128.824 11.832 128.744V140.432ZM2.904 134.576C2.904 136.368 3.536 137.768 4.8 138.776C6.08 139.768 7.872 140.32 10.176 140.432V128.744C7.84 128.84 6.04 129.392 4.776 130.4C3.528 131.392 2.904 132.784 2.904 134.576ZM23.4718 130.376H25.1758V140.408L33.5998 130.376H35.1118V143H33.4078V132.968L25.0078 143H23.4718V130.376ZM44.9214 136.424C45.8174 136.632 46.5054 136.992 46.9854 137.504C47.4814 138.016 47.7294 138.64 47.7294 139.376C47.7294 140.112 47.4734 140.768 46.9614 141.344C46.4654 141.92 45.7854 142.368 44.9214 142.688C44.0574 142.992 43.1054 143.144 42.0654 143.144C41.1534 143.144 40.2574 143.016 39.3774 142.76C38.4974 142.488 37.7294 142.096 37.0734 141.584L37.6494 140.312C38.2254 140.744 38.8974 141.08 39.6654 141.32C40.4334 141.56 41.2094 141.68 41.9934 141.68C43.1614 141.68 44.1134 141.464 44.8494 141.032C45.6014 140.584 45.9774 139.984 45.9774 139.232C45.9774 138.56 45.6734 138.04 45.0654 137.672C44.4574 137.288 43.6254 137.096 42.5694 137.096H40.4094V135.848H42.4734C43.4174 135.848 44.1774 135.672 44.7534 135.32C45.3294 134.952 45.6174 134.464 45.6174 133.856C45.6174 133.184 45.2894 132.656 44.6334 132.272C43.9934 131.888 43.1534 131.696 42.1134 131.696C40.7534 131.696 39.4094 132.04 38.0814 132.728L37.6014 131.408C39.1054 130.624 40.6654 130.232 42.2814 130.232C43.2414 130.232 44.1054 130.376 44.8734 130.664C45.6574 130.936 46.2654 131.328 46.6974 131.84C47.1454 132.352 47.3694 132.944 47.3694 133.616C47.3694 134.256 47.1454 134.824 46.6974 135.32C46.2654 135.816 45.6734 136.184 44.9214 136.424ZM50.6377 130.376H52.3417V140.408L60.7657 130.376H62.2777V143H60.5738V132.968L52.1737 143H50.6377V130.376ZM70.7852 137.384H67.9052V143H66.2012V130.376H67.9052V135.92H70.8092L75.2492 130.376H77.0972L72.1292 136.496L77.4572 143H75.4412L70.7852 137.384ZM83.2961 130.28C84.9441 130.28 86.2081 130.696 87.0881 131.528C87.9681 132.344 88.4081 133.56 88.4081 135.176V143H86.7761V141.032C86.3921 141.688 85.8241 142.2 85.0721 142.568C84.3361 142.936 83.4561 143.12 82.4321 143.12C81.0241 143.12 79.9041 142.784 79.0721 142.112C78.2401 141.44 77.8241 140.552 77.8241 139.448C77.8241 138.376 78.2081 137.512 78.9761 136.856C79.7601 136.2 81.0001 135.872 82.6961 135.872H86.7041V135.104C86.7041 134.016 86.4001 133.192 85.7921 132.632C85.1841 132.056 84.2961 131.768 83.1281 131.768C82.3281 131.768 81.5601 131.904 80.8241 132.176C80.0881 132.432 79.4561 132.792 78.9281 133.256L78.1601 131.984C78.8001 131.44 79.5681 131.024 80.4641 130.736C81.3601 130.432 82.3041 130.28 83.2961 130.28ZM82.6961 141.776C83.6561 141.776 84.4801 141.56 85.1681 141.128C85.8561 140.68 86.3681 140.04 86.7041 139.208V137.144H82.7441C80.5841 137.144 79.5041 137.896 79.5041 139.4C79.5041 140.136 79.7841 140.72 80.3441 141.152C80.9041 141.568 81.6881 141.776 82.6961 141.776Z" fill="#555555"/>
<path d="M22.48 178.056C24.704 178.056 26.408 178.792 27.592 180.264C28.776 181.72 29.368 183.784 29.368 186.456C29.368 188.328 29.048 189.912 28.408 191.208C27.768 192.504 26.872 193.488 25.72 194.16C24.568 194.816 23.224 195.144 21.688 195.144C20.024 195.144 18.696 194.84 17.704 194.232L18.4 192.84C19.2 193.368 20.288 193.632 21.664 193.632C23.52 193.632 24.976 193.048 26.032 191.88C27.088 190.696 27.616 188.984 27.616 186.744C27.616 186.328 27.592 185.872 27.544 185.376C27.128 186.288 26.464 187 25.552 187.512C24.64 188.008 23.592 188.256 22.408 188.256C21.304 188.256 20.32 188.048 19.456 187.632C18.608 187.216 17.944 186.632 17.464 185.88C16.984 185.112 16.744 184.224 16.744 183.216C16.744 182.192 16.992 181.288 17.488 180.504C17.984 179.72 18.664 179.12 19.528 178.704C20.408 178.272 21.392 178.056 22.48 178.056ZM22.672 186.792C23.52 186.792 24.264 186.632 24.904 186.312C25.56 185.992 26.072 185.552 26.44 184.992C26.808 184.432 26.992 183.808 26.992 183.12C26.992 182.48 26.816 181.888 26.464 181.344C26.128 180.8 25.624 180.36 24.952 180.024C24.28 179.688 23.48 179.52 22.552 179.52C21.336 179.52 20.344 179.856 19.576 180.528C18.824 181.184 18.448 182.064 18.448 183.168C18.448 184.272 18.824 185.152 19.576 185.808C20.344 186.464 21.376 186.792 22.672 186.792ZM37.873 184.944C38.977 184.944 39.953 185.152 40.801 185.568C41.665 185.984 42.337 186.576 42.817 187.344C43.297 188.096 43.537 188.976 43.537 189.984C43.537 191.008 43.289 191.912 42.793 192.696C42.297 193.48 41.609 194.088 40.729 194.52C39.865 194.936 38.889 195.144 37.801 195.144C35.577 195.144 33.873 194.416 32.689 192.96C31.505 191.488 30.913 189.416 30.913 186.744C30.913 184.872 31.233 183.288 31.873 181.992C32.513 180.696 33.409 179.72 34.561 179.064C35.713 178.392 37.057 178.056 38.593 178.056C40.257 178.056 41.585 178.36 42.577 178.968L41.881 180.36C41.081 179.832 39.993 179.568 38.617 179.568C36.761 179.568 35.305 180.16 34.249 181.344C33.193 182.512 32.665 184.216 32.665 186.456C32.665 186.856 32.689 187.312 32.737 187.824C33.153 186.912 33.817 186.208 34.729 185.712C35.641 185.2 36.689 184.944 37.873 184.944ZM37.729 193.68C38.945 193.68 39.929 193.352 40.681 192.696C41.449 192.024 41.833 191.136 41.833 190.032C41.833 188.928 41.449 188.048 40.681 187.392C39.929 186.736 38.905 186.408 37.609 186.408C36.761 186.408 36.009 186.568 35.353 186.888C34.713 187.208 34.209 187.648 33.841 188.208C33.473 188.768 33.289 189.392 33.289 190.08C33.289 190.72 33.457 191.312 33.793 191.856C34.145 192.4 34.657 192.84 35.329 193.176C36.001 193.512 36.801 193.68 37.729 193.68ZM57.1952 182.688C58.3632 182.688 59.4032 182.952 60.3152 183.48C61.2432 183.992 61.9632 184.72 62.4752 185.664C62.9872 186.592 63.2432 187.656 63.2432 188.856C63.2432 190.088 62.9712 191.184 62.4272 192.144C61.8992 193.088 61.1552 193.824 60.1952 194.352C59.2352 194.88 58.1312 195.144 56.8832 195.144C54.7872 195.144 53.1632 194.408 52.0112 192.936C50.8592 191.464 50.2832 189.432 50.2832 186.84C50.2832 184.136 50.7952 182.064 51.8192 180.624C52.8592 179.184 54.4752 178.208 56.6672 177.696L62.3313 176.4L62.6192 177.96L57.2912 179.184C55.4832 179.584 54.1552 180.296 53.3072 181.32C52.4592 182.328 51.9952 183.824 51.9152 185.808C52.4272 184.832 53.1392 184.072 54.0512 183.528C54.9632 182.968 56.0112 182.688 57.1952 182.688ZM56.9312 193.728C57.8112 193.728 58.5952 193.528 59.2832 193.128C59.9872 192.712 60.5312 192.136 60.9152 191.4C61.3152 190.664 61.5152 189.832 61.5152 188.904C61.5152 187.976 61.3232 187.16 60.9392 186.456C60.5552 185.752 60.0112 185.208 59.3072 184.824C58.6192 184.424 57.8272 184.224 56.9312 184.224C56.0352 184.224 55.2352 184.424 54.5312 184.824C53.8432 185.208 53.2992 185.752 52.8992 186.456C52.5152 187.16 52.3232 187.976 52.3232 188.904C52.3232 189.832 52.5152 190.664 52.8992 191.4C53.2992 192.136 53.8512 192.712 54.5552 193.128C55.2592 193.528 56.0512 193.728 56.9312 193.728ZM70.2092 182.28C71.8573 182.28 73.1213 182.696 74.0013 183.528C74.8813 184.344 75.3213 185.56 75.3213 187.176V195H73.6893V193.032C73.3053 193.688 72.7373 194.2 71.9852 194.568C71.2492 194.936 70.3692 195.12 69.3453 195.12C67.9373 195.12 66.8173 194.784 65.9852 194.112C65.1532 193.44 64.7372 192.552 64.7372 191.448C64.7372 190.376 65.1212 189.512 65.8892 188.856C66.6733 188.2 67.9132 187.872 69.6092 187.872H73.6173V187.104C73.6173 186.016 73.3133 185.192 72.7053 184.632C72.0973 184.056 71.2093 183.768 70.0412 183.768C69.2413 183.768 68.4733 183.904 67.7372 184.176C67.0012 184.432 66.3692 184.792 65.8412 185.256L65.0732 183.984C65.7132 183.44 66.4812 183.024 67.3772 182.736C68.2733 182.432 69.2173 182.28 70.2092 182.28ZM69.6092 193.776C70.5692 193.776 71.3932 193.56 72.0813 193.128C72.7693 192.68 73.2813 192.04 73.6173 191.208V189.144H69.6572C67.4972 189.144 66.4172 189.896 66.4172 191.4C66.4172 192.136 66.6973 192.72 67.2573 193.152C67.8173 193.568 68.6012 193.776 69.6092 193.776ZM89.2174 182.376V195H87.5134V183.888H81.4654L81.2974 187.008C81.1694 189.632 80.8654 191.648 80.3854 193.056C79.9054 194.464 79.0494 195.168 77.8174 195.168C77.4814 195.168 77.0734 195.104 76.5934 194.976L76.7134 193.512C77.0014 193.576 77.2014 193.608 77.3134 193.608C77.9694 193.608 78.4654 193.304 78.8014 192.696C79.1374 192.088 79.3614 191.336 79.4734 190.44C79.5854 189.544 79.6814 188.36 79.7614 186.888L79.9774 182.376H89.2174ZM103.421 182.376V195H101.717V183.888H95.6695L95.5015 187.008C95.3735 189.632 95.0695 191.648 94.5895 193.056C94.1095 194.464 93.2535 195.168 92.0215 195.168C91.6855 195.168 91.2775 195.104 90.7975 194.976L90.9175 193.512C91.2055 193.576 91.4055 193.608 91.5175 193.608C92.1735 193.608 92.6695 193.304 93.0055 192.696C93.3415 192.088 93.5655 191.336 93.6775 190.44C93.7895 189.544 93.8855 188.36 93.9655 186.888L94.1815 182.376H103.421ZM112.514 195.12C111.298 195.12 110.202 194.848 109.226 194.304C108.25 193.744 107.482 192.976 106.922 192C106.362 191.024 106.082 189.92 106.082 188.688C106.082 187.456 106.362 186.352 106.922 185.376C107.482 184.4 108.25 183.64 109.226 183.096C110.202 182.552 111.298 182.28 112.514 182.28C113.73 182.28 114.826 182.552 115.802 183.096C116.778 183.64 117.538 184.4 118.082 185.376C118.642 186.352 118.922 187.456 118.922 188.688C118.922 189.92 118.642 191.024 118.082 192C117.538 192.976 116.778 193.744 115.802 194.304C114.826 194.848 113.73 195.12 112.514 195.12ZM112.514 193.608C113.41 193.608 114.21 193.408 114.914 193.008C115.634 192.592 116.194 192.008 116.594 191.256C116.994 190.504 117.194 189.648 117.194 188.688C117.194 187.728 116.994 186.872 116.594 186.12C116.194 185.368 115.634 184.792 114.914 184.392C114.21 183.976 113.41 183.768 112.514 183.768C111.618 183.768 110.81 183.976 110.09 184.392C109.386 184.792 108.826 185.368 108.41 186.12C108.01 186.872 107.81 187.728 107.81 188.688C107.81 189.648 108.01 190.504 108.41 191.256C108.826 192.008 109.386 192.592 110.09 193.008C110.81 193.408 111.618 193.608 112.514 193.608ZM129.643 188.472C131.355 188.872 132.211 189.904 132.211 191.568C132.211 192.672 131.803 193.52 130.987 194.112C130.171 194.704 128.955 195 127.339 195H121.603V182.376H127.171C128.611 182.376 129.739 182.656 130.555 183.216C131.371 183.776 131.779 184.576 131.779 185.616C131.779 186.304 131.587 186.896 131.203 187.392C130.835 187.872 130.315 188.232 129.643 188.472ZM123.259 187.992H127.051C128.027 187.992 128.771 187.808 129.283 187.44C129.811 187.072 130.075 186.536 130.075 185.832C130.075 185.128 129.811 184.6 129.283 184.248C128.771 183.896 128.027 183.72 127.051 183.72H123.259V187.992ZM127.267 193.656C128.355 193.656 129.171 193.48 129.715 193.128C130.259 192.776 130.531 192.224 130.531 191.472C130.531 190.72 130.283 190.168 129.787 189.816C129.291 189.448 128.507 189.264 127.435 189.264H123.259V193.656H127.267Z" fill="white"/>
<rect x="316" y="39" width="260" height="56" rx="28" fill="#E5E5E5"/>
<rect x="316" y="39" width="239" height="56" rx="28" fill="#F2A428"/>
<path d="M329.584 19.512H320.224L318.208 24H316.36L324.04 7.2H325.792L333.472 24H331.6L329.584 19.512ZM328.936 18.072L324.904 9.048L320.872 18.072H328.936ZM335.323 11.376H337.027V16.968H344.971V11.376H346.675V24H344.971V18.432H337.027V24H335.323V11.376ZM359.487 12.888H352.263V24H350.559V11.376H359.487V12.888ZM370.536 11.376V24H368.832V12.888H362.784L362.616 16.008C362.488 18.632 362.184 20.648 361.704 22.056C361.224 23.464 360.368 24.168 359.136 24.168C358.8 24.168 358.392 24.104 357.912 23.976L358.032 22.512C358.32 22.576 358.52 22.608 358.632 22.608C359.288 22.608 359.784 22.304 360.12 21.696C360.456 21.088 360.68 20.336 360.792 19.44C360.904 18.544 361 17.36 361.08 15.888L361.296 11.376H370.536ZM374.42 11.376H376.124V21.408L384.548 11.376H386.06V24H384.356V13.968L375.956 24H374.42V11.376ZM389.983 11.376H391.687V21.408L400.111 11.376H401.623V24H399.919V13.968L391.519 24H389.983V11.376ZM395.719 9.552C394.631 9.552 393.767 9.28 393.127 8.736C392.487 8.192 392.159 7.424 392.143 6.432H393.367C393.383 7.056 393.607 7.56 394.039 7.944C394.471 8.312 395.031 8.496 395.719 8.496C396.407 8.496 396.967 8.312 397.399 7.944C397.847 7.56 398.079 7.056 398.095 6.432H399.319C399.303 7.424 398.967 8.192 398.311 8.736C397.671 9.28 396.807 9.552 395.719 9.552ZM410.827 24.12C409.579 24.12 408.459 23.848 407.467 23.304C406.491 22.76 405.723 22 405.163 21.024C404.603 20.032 404.323 18.92 404.323 17.688C404.323 16.456 404.603 15.352 405.163 14.376C405.723 13.4 406.491 12.64 407.467 12.096C408.459 11.552 409.579 11.28 410.827 11.28C411.915 11.28 412.883 11.496 413.731 11.928C414.595 12.344 415.275 12.96 415.771 13.776L414.499 14.64C414.083 14.016 413.555 13.552 412.915 13.248C412.275 12.928 411.579 12.768 410.827 12.768C409.915 12.768 409.091 12.976 408.355 13.392C407.635 13.792 407.067 14.368 406.651 15.12C406.251 15.872 406.051 16.728 406.051 17.688C406.051 18.664 406.251 19.528 406.651 20.28C407.067 21.016 407.635 21.592 408.355 22.008C409.091 22.408 409.915 22.608 410.827 22.608C411.579 22.608 412.275 22.456 412.915 22.152C413.555 21.848 414.083 21.384 414.499 20.76L415.771 21.624C415.275 22.44 414.595 23.064 413.731 23.496C412.867 23.912 411.899 24.12 410.827 24.12ZM422.694 18.384H419.814V24H418.11V11.376H419.814V16.92H422.718L427.158 11.376H429.006L424.038 17.496L429.366 24H427.35L422.694 18.384ZM431.096 11.376H432.8V21.408L441.224 11.376H442.736V24H441.032V13.968L432.632 24H431.096V11.376ZM446.659 11.376H448.363V21.408L456.787 11.376H458.299V24H456.595V13.968L448.195 24H446.659V11.376ZM452.395 9.552C451.307 9.552 450.443 9.28 449.803 8.736C449.163 8.192 448.835 7.424 448.819 6.432H450.043C450.059 7.056 450.283 7.56 450.715 7.944C451.147 8.312 451.707 8.496 452.395 8.496C453.083 8.496 453.643 8.312 454.075 7.944C454.523 7.56 454.755 7.056 454.771 6.432H455.995C455.979 7.424 455.643 8.192 454.987 8.736C454.347 9.28 453.483 9.552 452.395 9.552ZM477.24 11.376V24H475.68V19.824H471.72H471.24L468.312 24H466.464L469.608 19.584C468.632 19.312 467.88 18.848 467.352 18.192C466.824 17.536 466.56 16.704 466.56 15.696C466.56 14.288 467.04 13.216 468 12.48C468.96 11.744 470.272 11.376 471.936 11.376H477.24ZM468.288 15.744C468.288 17.616 469.48 18.552 471.864 18.552H475.68V12.888H471.984C469.52 12.888 468.288 13.84 468.288 15.744ZM487.025 17.424C487.921 17.632 488.609 17.992 489.089 18.504C489.585 19.016 489.833 19.64 489.833 20.376C489.833 21.112 489.577 21.768 489.065 22.344C488.569 22.92 487.889 23.368 487.025 23.688C486.161 23.992 485.209 24.144 484.169 24.144C483.257 24.144 482.361 24.016 481.481 23.76C480.601 23.488 479.833 23.096 479.177 22.584L479.753 21.312C480.329 21.744 481.001 22.08 481.769 22.32C482.537 22.56 483.313 22.68 484.097 22.68C485.265 22.68 486.217 22.464 486.953 22.032C487.705 21.584 488.081 20.984 488.081 20.232C488.081 19.56 487.777 19.04 487.169 18.672C486.561 18.288 485.729 18.096 484.673 18.096H482.513V16.848H484.577C485.521 16.848 486.281 16.672 486.857 16.32C487.433 15.952 487.721 15.464 487.721 14.856C487.721 14.184 487.393 13.656 486.737 13.272C486.097 12.888 485.257 12.696 484.217 12.696C482.857 12.696 481.513 13.04 480.185 13.728L479.705 12.408C481.209 11.624 482.769 11.232 484.385 11.232C485.345 11.232 486.209 11.376 486.977 11.664C487.761 11.936 488.369 12.328 488.801 12.84C489.249 13.352 489.473 13.944 489.473 14.616C489.473 15.256 489.249 15.824 488.801 16.32C488.369 16.816 487.777 17.184 487.025 17.424ZM498.045 15.84C499.629 15.856 500.837 16.208 501.669 16.896C502.501 17.584 502.917 18.576 502.917 19.872C502.917 21.216 502.469 22.248 501.573 22.968C500.677 23.688 499.397 24.04 497.733 24.024L492.741 24V11.376H494.445V15.792L498.045 15.84ZM505.029 11.376H506.733V24H505.029V11.376ZM497.637 22.728C498.805 22.744 499.685 22.512 500.277 22.032C500.885 21.536 501.189 20.816 501.189 19.872C501.189 18.944 500.893 18.256 500.301 17.808C499.709 17.36 498.821 17.128 497.637 17.112L494.445 17.064V22.68L497.637 22.728ZM515.209 18.384H512.329V24H510.625V11.376H512.329V16.92H515.233L519.673 11.376H521.521L516.553 17.496L521.881 24H519.865L515.209 18.384Z" fill="#555555"/>
<path d="M338.48 59.056C340.704 59.056 342.408 59.792 343.592 61.264C344.776 62.72 345.368 64.784 345.368 67.456C345.368 69.328 345.048 70.912 344.408 72.208C343.768 73.504 342.872 74.488 341.72 75.16C340.568 75.816 339.224 76.144 337.688 76.144C336.024 76.144 334.696 75.84 333.704 75.232L334.4 73.84C335.2 74.368 336.288 74.632 337.664 74.632C339.52 74.632 340.976 74.048 342.032 72.88C343.088 71.696 343.616 69.984 343.616 67.744C343.616 67.328 343.592 66.872 343.544 66.376C343.128 67.288 342.464 68 341.552 68.512C340.64 69.008 339.592 69.256 338.408 69.256C337.304 69.256 336.32 69.048 335.456 68.632C334.608 68.216 333.944 67.632 333.464 66.88C332.984 66.112 332.744 65.224 332.744 64.216C332.744 63.192 332.992 62.288 333.488 61.504C333.984 60.72 334.664 60.12 335.528 59.704C336.408 59.272 337.392 59.056 338.48 59.056ZM338.672 67.792C339.52 67.792 340.264 67.632 340.904 67.312C341.56 66.992 342.072 66.552 342.44 65.992C342.808 65.432 342.992 64.808 342.992 64.12C342.992 63.48 342.816 62.888 342.464 62.344C342.128 61.8 341.624 61.36 340.952 61.024C340.28 60.688 339.48 60.52 338.552 60.52C337.336 60.52 336.344 60.856 335.576 61.528C334.824 62.184 334.448 63.064 334.448 64.168C334.448 65.272 334.824 66.152 335.576 66.808C336.344 67.464 337.376 67.792 338.672 67.792ZM358.338 74.464V76H346.554V74.776L353.538 67.936C354.418 67.072 355.01 66.328 355.314 65.704C355.634 65.064 355.794 64.424 355.794 63.784C355.794 62.792 355.45 62.024 354.762 61.48C354.09 60.92 353.122 60.64 351.858 60.64C349.89 60.64 348.362 61.264 347.274 62.512L346.05 61.456C346.706 60.688 347.538 60.096 348.546 59.68C349.57 59.264 350.722 59.056 352.002 59.056C353.714 59.056 355.066 59.464 356.058 60.28C357.066 61.08 357.57 62.184 357.57 63.592C357.57 64.456 357.378 65.288 356.994 66.088C356.61 66.888 355.882 67.808 354.81 68.848L349.098 74.464H358.338ZM359.551 68.752H365.839V70.24H359.551V68.752ZM371.821 59.2V76H370.093V60.736H366.133V59.2H371.821ZM381.573 76.144C380.277 76.144 379.117 75.8 378.093 75.112C377.085 74.424 376.293 73.44 375.717 72.16C375.157 70.864 374.877 69.344 374.877 67.6C374.877 65.856 375.157 64.344 375.717 63.064C376.293 61.768 377.085 60.776 378.093 60.088C379.117 59.4 380.277 59.056 381.573 59.056C382.869 59.056 384.021 59.4 385.029 60.088C386.053 60.776 386.853 61.768 387.429 63.064C388.005 64.344 388.293 65.856 388.293 67.6C388.293 69.344 388.005 70.864 387.429 72.16C386.853 73.44 386.053 74.424 385.029 75.112C384.021 75.8 382.869 76.144 381.573 76.144ZM381.573 74.56C382.549 74.56 383.405 74.288 384.141 73.744C384.893 73.2 385.477 72.408 385.893 71.368C386.309 70.328 386.517 69.072 386.517 67.6C386.517 66.128 386.309 64.872 385.893 63.832C385.477 62.792 384.893 62 384.141 61.456C383.405 60.912 382.549 60.64 381.573 60.64C380.597 60.64 379.733 60.912 378.981 61.456C378.245 62 377.669 62.792 377.253 63.832C376.837 64.872 376.629 66.128 376.629 67.6C376.629 69.072 376.837 70.328 377.253 71.368C377.669 72.408 378.245 73.2 378.981 73.744C379.733 74.288 380.597 74.56 381.573 74.56ZM396.503 76.144C395.207 76.144 394.047 75.8 393.023 75.112C392.015 74.424 391.223 73.44 390.647 72.16C390.087 70.864 389.807 69.344 389.807 67.6C389.807 65.856 390.087 64.344 390.647 63.064C391.223 61.768 392.015 60.776 393.023 60.088C394.047 59.4 395.207 59.056 396.503 59.056C397.799 59.056 398.951 59.4 399.959 60.088C400.983 60.776 401.783 61.768 402.359 63.064C402.935 64.344 403.223 65.856 403.223 67.6C403.223 69.344 402.935 70.864 402.359 72.16C401.783 73.44 400.983 74.424 399.959 75.112C398.951 75.8 397.799 76.144 396.503 76.144ZM396.503 74.56C397.479 74.56 398.335 74.288 399.071 73.744C399.823 73.2 400.407 72.408 400.823 71.368C401.239 70.328 401.447 69.072 401.447 67.6C401.447 66.128 401.239 64.872 400.823 63.832C400.407 62.792 399.823 62 399.071 61.456C398.335 60.912 397.479 60.64 396.503 60.64C395.527 60.64 394.663 60.912 393.911 61.456C393.175 62 392.599 62.792 392.183 63.832C391.767 64.872 391.559 66.128 391.559 67.6C391.559 69.072 391.767 70.328 392.183 71.368C392.599 72.408 393.175 73.2 393.911 73.744C394.663 74.288 395.527 74.56 396.503 74.56ZM417.355 63.688C418.523 63.688 419.563 63.952 420.475 64.48C421.403 64.992 422.123 65.72 422.635 66.664C423.147 67.592 423.403 68.656 423.403 69.856C423.403 71.088 423.131 72.184 422.587 73.144C422.059 74.088 421.315 74.824 420.355 75.352C419.395 75.88 418.291 76.144 417.043 76.144C414.947 76.144 413.323 75.408 412.171 73.936C411.019 72.464 410.443 70.432 410.443 67.84C410.443 65.136 410.955 63.064 411.979 61.624C413.019 60.184 414.635 59.208 416.827 58.696L422.491 57.4L422.779 58.96L417.451 60.184C415.643 60.584 414.315 61.296 413.467 62.32C412.619 63.328 412.155 64.824 412.075 66.808C412.587 65.832 413.299 65.072 414.211 64.528C415.123 63.968 416.171 63.688 417.355 63.688ZM417.091 74.728C417.971 74.728 418.755 74.528 419.443 74.128C420.147 73.712 420.691 73.136 421.075 72.4C421.475 71.664 421.675 70.832 421.675 69.904C421.675 68.976 421.483 68.16 421.099 67.456C420.715 66.752 420.171 66.208 419.467 65.824C418.779 65.424 417.987 65.224 417.091 65.224C416.195 65.224 415.395 65.424 414.691 65.824C414.003 66.208 413.459 66.752 413.059 67.456C412.675 68.16 412.483 68.976 412.483 69.904C412.483 70.832 412.675 71.664 413.059 72.4C413.459 73.136 414.011 73.712 414.715 74.128C415.419 74.528 416.211 74.728 417.091 74.728ZM430.369 63.28C432.017 63.28 433.281 63.696 434.161 64.528C435.041 65.344 435.481 66.56 435.481 68.176V76H433.849V74.032C433.465 74.688 432.897 75.2 432.145 75.568C431.409 75.936 430.529 76.12 429.505 76.12C428.097 76.12 426.977 75.784 426.145 75.112C425.313 74.44 424.897 73.552 424.897 72.448C424.897 71.376 425.281 70.512 426.049 69.856C426.833 69.2 428.073 68.872 429.769 68.872H433.777V68.104C433.777 67.016 433.473 66.192 432.865 65.632C432.257 65.056 431.369 64.768 430.201 64.768C429.401 64.768 428.633 64.904 427.897 65.176C427.161 65.432 426.529 65.792 426.001 66.256L425.233 64.984C425.873 64.44 426.641 64.024 427.537 63.736C428.433 63.432 429.377 63.28 430.369 63.28ZM429.769 74.776C430.729 74.776 431.553 74.56 432.241 74.128C432.929 73.68 433.441 73.04 433.777 72.208V70.144H429.817C427.657 70.144 426.577 70.896 426.577 72.4C426.577 73.136 426.857 73.72 427.417 74.152C427.977 74.568 428.761 74.776 429.769 74.776ZM449.377 63.376V76H447.673V64.888H441.625L441.457 68.008C441.329 70.632 441.025 72.648 440.545 74.056C440.065 75.464 439.209 76.168 437.977 76.168C437.641 76.168 437.233 76.104 436.753 75.976L436.873 74.512C437.161 74.576 437.361 74.608 437.473 74.608C438.129 74.608 438.625 74.304 438.961 73.696C439.297 73.088 439.521 72.336 439.633 71.44C439.745 70.544 439.841 69.36 439.921 67.888L440.137 63.376H449.377ZM463.582 63.376V76H461.878V64.888H455.83L455.662 68.008C455.534 70.632 455.23 72.648 454.75 74.056C454.27 75.464 453.414 76.168 452.182 76.168C451.846 76.168 451.438 76.104 450.958 75.976L451.078 74.512C451.366 74.576 451.566 74.608 451.678 74.608C452.334 74.608 452.83 74.304 453.166 73.696C453.502 73.088 453.726 72.336 453.838 71.44C453.95 70.544 454.046 69.36 454.126 67.888L454.342 63.376H463.582ZM471.81 63.28C473.458 63.28 474.722 63.696 475.602 64.528C476.482 65.344 476.922 66.56 476.922 68.176V76H475.29V74.032C474.906 74.688 474.338 75.2 473.586 75.568C472.85 75.936 471.97 76.12 470.946 76.12C469.538 76.12 468.418 75.784 467.586 75.112C466.754 74.44 466.338 73.552 466.338 72.448C466.338 71.376 466.722 70.512 467.49 69.856C468.274 69.2 469.514 68.872 471.21 68.872H475.218V68.104C475.218 67.016 474.914 66.192 474.306 65.632C473.698 65.056 472.81 64.768 471.642 64.768C470.842 64.768 470.074 64.904 469.338 65.176C468.602 65.432 467.97 65.792 467.442 66.256L466.674 64.984C467.314 64.44 468.082 64.024 468.978 63.736C469.874 63.432 470.818 63.28 471.81 63.28ZM471.21 74.776C472.17 74.776 472.994 74.56 473.682 74.128C474.37 73.68 474.882 73.04 475.218 72.208V70.144H471.258C469.098 70.144 468.018 70.896 468.018 72.4C468.018 73.136 468.298 73.72 468.858 74.152C469.418 74.568 470.202 74.776 471.21 74.776Z" fill="white"/>
</svg>
