<svg width="472" height="208" viewBox="0 0 472 208" fill="none" xmlns="http://www.w3.org/2000/svg">
<path d="M63.2013 16.2283L50.4239 21.9072V31.9223C50.4239 34.2082 47.1529 35.036 43.9539 35.5447C40.7889 36.048 36.5437 36.3243 32.0012 36.3243C23.5965 36.3243 13.5781 35.561 13.5781 31.9229V21.9077L9.60221 20.1414V21.4201C10.5483 22.0065 11.1957 23.1852 11.2227 24.6L11.9133 30.2222C11.9599 30.6063 11.8409 30.991 11.5859 31.2805C11.3328 31.5707 10.9666 31.7363 10.5818 31.7363H5.93985C5.55507 31.7363 5.18945 31.5701 4.93571 31.2805C4.68078 30.9904 4.5617 30.6063 4.60838 30.2222L5.29895 24.6C5.32588 23.1852 5.97336 22.0053 6.91944 21.4201V18.9494L0.798864 16.2296C0.313544 16.0141 -1.19761e-05 15.5294 -1.19761e-05 14.9954C-1.19761e-05 14.4615 0.312364 13.9786 0.797668 13.7631L31.458 0.116489C31.8039 -0.0388298 32.1976 -0.0388298 32.5435 0.116489L63.2023 13.7619C63.6876 13.9774 64 14.462 64 14.9942C64 15.5288 63.6864 16.0128 63.2011 16.2283L63.2013 16.2283ZM9.06542 29.038L8.55198 24.8534C8.54539 24.7981 8.5424 24.7427 8.5424 24.6873C8.5424 24.2099 8.37604 23.8824 8.26234 23.7554C8.14864 23.8836 7.98229 24.2111 7.98229 24.6873C7.98229 24.7427 7.97989 24.7981 7.97271 24.8534L7.45927 29.038H9.06542ZM47.635 31.7622C46.8026 30.8008 41.7346 29.2 32 29.2C22.2201 29.2 17.1533 30.8158 16.3604 31.7597C17.565 32.5628 22.9657 33.6253 32 33.6253C41.0212 33.6253 46.4194 32.5671 47.635 31.7622ZM6.92055 15.9991V13.986L4.6568 14.9932L6.92055 15.9991ZM32 2.8227L9.60145 12.791V17.1887L13.5773 18.9551V17.4151C13.5773 12.3015 27.679 11.9036 32.0005 11.9036C36.3222 11.9036 50.4236 12.3015 50.4236 17.4151V18.9551L59.3441 14.9901L32 2.8227Z" fill="#01348D"/>
<text fill="white" xml:space="preserve" style="white-space: pre" font-family="Montserrat" font-size="12" font-weight="bold" letter-spacing="-0.04em"><tspan x="19.6187" y="26.302">20%</tspan></text>
<text fill="#555555" xml:space="preserve" style="white-space: pre" font-family="Montserrat" font-size="12" letter-spacing="-0.04em"><tspan x="72" y="24.302">&#x41c;&#x413;&#x423;</tspan></text>
<path d="M63.2013 72.2283L50.4239 77.9072V87.9223C50.4239 90.2082 47.1529 91.036 43.9539 91.5447C40.7889 92.048 36.5437 92.3243 32.0012 92.3243C23.5965 92.3243 13.5781 91.561 13.5781 87.9229V77.9077L9.60221 76.1414V77.4201C10.5483 78.0065 11.1957 79.1852 11.2227 80.6L11.9133 86.2222C11.9599 86.6063 11.8409 86.991 11.5859 87.2805C11.3328 87.5707 10.9666 87.7363 10.5818 87.7363H5.93985C5.55507 87.7363 5.18945 87.5701 4.93571 87.2805C4.68078 86.9904 4.5617 86.6063 4.60838 86.2222L5.29895 80.6C5.32588 79.1852 5.97336 78.0053 6.91944 77.4201V74.9494L0.798864 72.2296C0.313544 72.0141 -1.19761e-05 71.5294 -1.19761e-05 70.9954C-1.19761e-05 70.4615 0.312364 69.9786 0.797668 69.7631L31.458 56.1165C31.8039 55.9612 32.1976 55.9612 32.5435 56.1165L63.2023 69.7619C63.6876 69.9774 64 70.462 64 70.9942C64 71.5288 63.6864 72.0128 63.2011 72.2283L63.2013 72.2283ZM9.06542 85.038L8.55198 80.8534C8.54539 80.7981 8.5424 80.7427 8.5424 80.6873C8.5424 80.2099 8.37604 79.8824 8.26234 79.7554C8.14864 79.8836 7.98229 80.2111 7.98229 80.6873C7.98229 80.7427 7.97989 80.7981 7.97271 80.8534L7.45927 85.038H9.06542ZM47.635 87.7622C46.8026 86.8008 41.7346 85.2 32 85.2C22.2201 85.2 17.1533 86.8158 16.3604 87.7597C17.565 88.5628 22.9657 89.6253 32 89.6253C41.0212 89.6253 46.4194 88.5671 47.635 87.7622ZM6.92055 71.9991V69.986L4.6568 70.9932L6.92055 71.9991ZM32 58.8227L9.60145 68.791V73.1887L13.5773 74.9551V73.4151C13.5773 68.3015 27.679 67.9036 32.0005 67.9036C36.3222 67.9036 50.4236 68.3015 50.4236 73.4151V74.9551L59.3441 70.9901L32 58.8227Z" fill="#01348D"/>
<text fill="white" xml:space="preserve" style="white-space: pre" font-family="Montserrat" font-size="12" font-weight="bold" letter-spacing="-0.04em"><tspan x="19.6187" y="82.302">20%</tspan></text>
<text fill="#555555" xml:space="preserve" style="white-space: pre" font-family="Montserrat" font-size="12" letter-spacing="-0.04em"><tspan x="72" y="80.302">&#x41c;&#x413;&#x418;&#x41c;&#x41e; &#x41c;&#x418;&#x414; &#x420;&#x43e;&#x441;&#x441;&#x438;&#x438;</tspan></text>
<path d="M63.2013 128.228L50.4239 133.907V143.922C50.4239 146.208 47.1529 147.036 43.9539 147.545C40.7889 148.048 36.5437 148.324 32.0012 148.324C23.5965 148.324 13.5781 147.561 13.5781 143.923V133.908L9.60221 132.141V133.42C10.5483 134.006 11.1957 135.185 11.2227 136.6L11.9133 142.222C11.9599 142.606 11.8409 142.991 11.5859 143.281C11.3328 143.571 10.9666 143.736 10.5818 143.736H5.93985C5.55507 143.736 5.18945 143.57 4.93571 143.281C4.68078 142.99 4.5617 142.606 4.60838 142.222L5.29895 136.6C5.32588 135.185 5.97336 134.005 6.91944 133.42V130.949L0.798864 128.23C0.313544 128.014 -1.19761e-05 127.529 -1.19761e-05 126.995C-1.19761e-05 126.461 0.312364 125.979 0.797668 125.763L31.458 112.116C31.8039 111.961 32.1976 111.961 32.5435 112.116L63.2023 125.762C63.6876 125.977 64 126.462 64 126.994C64 127.529 63.6864 128.013 63.2011 128.228L63.2013 128.228ZM9.06542 141.038L8.55198 136.853C8.54539 136.798 8.5424 136.743 8.5424 136.687C8.5424 136.21 8.37604 135.882 8.26234 135.755C8.14864 135.884 7.98229 136.211 7.98229 136.687C7.98229 136.743 7.97989 136.798 7.97271 136.853L7.45927 141.038H9.06542ZM47.635 143.762C46.8026 142.801 41.7346 141.2 32 141.2C22.2201 141.2 17.1533 142.816 16.3604 143.76C17.565 144.563 22.9657 145.625 32 145.625C41.0212 145.625 46.4194 144.567 47.635 143.762ZM6.92055 127.999V125.986L4.6568 126.993L6.92055 127.999ZM32 114.823L9.60145 124.791V129.189L13.5773 130.955V129.415C13.5773 124.301 27.679 123.904 32.0005 123.904C36.3222 123.904 50.4236 124.301 50.4236 129.415V130.955L59.3441 126.99L32 114.823Z" fill="#01348D"/>
<text fill="white" xml:space="preserve" style="white-space: pre" font-family="Montserrat" font-size="12" font-weight="bold" letter-spacing="-0.04em"><tspan x="21.0484" y="138.302">19%</tspan></text>
<text fill="#555555" xml:space="preserve" style="white-space: pre" font-family="Montserrat" font-size="12" letter-spacing="-0.04em"><tspan x="72" y="136.302">&#x413;&#x423; &#x412;&#x428;&#x42d;</tspan></text>
<path d="M63.2013 184.228L50.4239 189.907V199.922C50.4239 202.208 47.1529 203.036 43.9539 203.545C40.7889 204.048 36.5437 204.324 32.0012 204.324C23.5965 204.324 13.5781 203.561 13.5781 199.923V189.908L9.60221 188.141V189.42C10.5483 190.006 11.1957 191.185 11.2227 192.6L11.9133 198.222C11.9599 198.606 11.8409 198.991 11.5859 199.281C11.3328 199.571 10.9666 199.736 10.5818 199.736H5.93985C5.55507 199.736 5.18945 199.57 4.93571 199.281C4.68078 198.99 4.5617 198.606 4.60838 198.222L5.29895 192.6C5.32588 191.185 5.97336 190.005 6.91944 189.42V186.949L0.798864 184.23C0.313544 184.014 -1.19761e-05 183.529 -1.19761e-05 182.995C-1.19761e-05 182.461 0.312364 181.979 0.797668 181.763L31.458 168.116C31.8039 167.961 32.1976 167.961 32.5435 168.116L63.2023 181.762C63.6876 181.977 64 182.462 64 182.994C64 183.529 63.6864 184.013 63.2011 184.228L63.2013 184.228ZM9.06542 197.038L8.55198 192.853C8.54539 192.798 8.5424 192.743 8.5424 192.687C8.5424 192.21 8.37604 191.882 8.26234 191.755C8.14864 191.884 7.98229 192.211 7.98229 192.687C7.98229 192.743 7.97989 192.798 7.97271 192.853L7.45927 197.038H9.06542ZM47.635 199.762C46.8026 198.801 41.7346 197.2 32 197.2C22.2201 197.2 17.1533 198.816 16.3604 199.76C17.565 200.563 22.9657 201.625 32 201.625C41.0212 201.625 46.4194 200.567 47.635 199.762ZM6.92055 183.999V181.986L4.6568 182.993L6.92055 183.999ZM32 170.823L9.60145 180.791V185.189L13.5773 186.955V185.415C13.5773 180.301 27.679 179.904 32.0005 179.904C36.3222 179.904 50.4236 180.301 50.4236 185.415V186.955L59.3441 182.99L32 170.823Z" fill="#01348D"/>
<text fill="white" xml:space="preserve" style="white-space: pre" font-family="Montserrat" font-size="12" font-weight="bold" letter-spacing="-0.04em"><tspan x="23.2752" y="194.302">6%</tspan></text>
<text fill="#555555" xml:space="preserve" style="white-space: pre" font-family="Montserrat" font-size="12" letter-spacing="-0.04em"><tspan x="72" y="192.302">&#x420;&#x410;&#x41d;&#x425;&#x438;&#x413;&#x421;</tspan></text>
<path d="M303.201 16.2283L290.424 21.9072V31.9223C290.424 34.2082 287.153 35.036 283.954 35.5447C280.789 36.048 276.544 36.3243 272.001 36.3243C263.597 36.3243 253.578 35.561 253.578 31.9229V21.9077L249.602 20.1414V21.4201C250.548 22.0065 251.196 23.1852 251.223 24.6L251.913 30.2222C251.96 30.6063 251.841 30.991 251.586 31.2805C251.333 31.5707 250.967 31.7363 250.582 31.7363H245.94C245.555 31.7363 245.189 31.5701 244.936 31.2805C244.681 30.9904 244.562 30.6063 244.608 30.2222L245.299 24.6C245.326 23.1852 245.973 22.0053 246.919 21.4201V18.9494L240.799 16.2296C240.314 16.0141 240 15.5294 240 14.9954C240 14.4615 240.312 13.9786 240.798 13.7631L271.458 0.116489C271.804 -0.0388298 272.198 -0.0388298 272.544 0.116489L303.202 13.7619C303.688 13.9774 304 14.462 304 14.9942C304 15.5288 303.686 16.0128 303.201 16.2283L303.201 16.2283ZM249.065 29.038L248.552 24.8534C248.545 24.7981 248.542 24.7427 248.542 24.6873C248.542 24.2099 248.376 23.8824 248.262 23.7554C248.149 23.8836 247.982 24.2111 247.982 24.6873C247.982 24.7427 247.98 24.7981 247.973 24.8534L247.459 29.038H249.065ZM287.635 31.7622C286.803 30.8008 281.735 29.2 272 29.2C262.22 29.2 257.153 30.8158 256.36 31.7597C257.565 32.5628 262.966 33.6253 272 33.6253C281.021 33.6253 286.419 32.5671 287.635 31.7622ZM246.921 15.9991V13.986L244.657 14.9932L246.921 15.9991ZM272 2.8227L249.601 12.791V17.1887L253.577 18.9551V17.4151C253.577 12.3015 267.679 11.9036 272 11.9036C276.322 11.9036 290.424 12.3015 290.424 17.4151V18.9551L299.344 14.9901L272 2.8227Z" fill="#01348D"/>
<text fill="white" xml:space="preserve" style="white-space: pre" font-family="Montserrat" font-size="12" font-weight="bold" letter-spacing="-0.04em"><tspan x="263.275" y="26.302">6%</tspan></text>
<text fill="#555555" xml:space="preserve" style="white-space: pre" font-family="Montserrat" font-size="12" letter-spacing="-0.04em"><tspan x="312" y="16.302">&#x424;&#x438;&#x43d;&#x430;&#x43d;&#x441;&#x43e;&#x432;&#x44b;&#x439; &#x443;&#x43d;&#x438;&#x432;&#x435;&#x440;&#x441;&#x438;&#x442;&#x435;&#x442;&#x2028;</tspan><tspan x="312" y="32.302">&#x43f;&#x440;&#x438; &#x41f;&#x440;&#x430;&#x432;&#x438;&#x442;&#x435;&#x43b;&#x44c;&#x441;&#x442;&#x432;&#x435; &#x420;&#x424;</tspan></text>
<path d="M303.201 72.2283L290.424 77.9072V87.9223C290.424 90.2082 287.153 91.036 283.954 91.5447C280.789 92.048 276.544 92.3243 272.001 92.3243C263.597 92.3243 253.578 91.561 253.578 87.9229V77.9077L249.602 76.1414V77.4201C250.548 78.0065 251.196 79.1852 251.223 80.6L251.913 86.2222C251.96 86.6063 251.841 86.991 251.586 87.2805C251.333 87.5707 250.967 87.7363 250.582 87.7363H245.94C245.555 87.7363 245.189 87.5701 244.936 87.2805C244.681 86.9904 244.562 86.6063 244.608 86.2222L245.299 80.6C245.326 79.1852 245.973 78.0053 246.919 77.4201V74.9494L240.799 72.2296C240.314 72.0141 240 71.5294 240 70.9954C240 70.4615 240.312 69.9786 240.798 69.7631L271.458 56.1165C271.804 55.9612 272.198 55.9612 272.544 56.1165L303.202 69.7619C303.688 69.9774 304 70.462 304 70.9942C304 71.5288 303.686 72.0128 303.201 72.2283L303.201 72.2283ZM249.065 85.038L248.552 80.8534C248.545 80.7981 248.542 80.7427 248.542 80.6873C248.542 80.2099 248.376 79.8824 248.262 79.7554C248.149 79.8836 247.982 80.2111 247.982 80.6873C247.982 80.7427 247.98 80.7981 247.973 80.8534L247.459 85.038H249.065ZM287.635 87.7622C286.803 86.8008 281.735 85.2 272 85.2C262.22 85.2 257.153 86.8158 256.36 87.7597C257.565 88.5628 262.966 89.6253 272 89.6253C281.021 89.6253 286.419 88.5671 287.635 87.7622ZM246.921 71.9991V69.986L244.657 70.9932L246.921 71.9991ZM272 58.8227L249.601 68.791V73.1887L253.577 74.9551V73.4151C253.577 68.3015 267.679 67.9036 272 67.9036C276.322 67.9036 290.424 68.3015 290.424 73.4151V74.9551L299.344 70.9901L272 58.8227Z" fill="#01348D"/>
<text fill="white" xml:space="preserve" style="white-space: pre" font-family="Montserrat" font-size="12" font-weight="bold" letter-spacing="-0.04em"><tspan x="263.023" y="82.302">4%</tspan></text>
<text fill="#555555" xml:space="preserve" style="white-space: pre" font-family="Montserrat" font-size="12" letter-spacing="-0.04em"><tspan x="312" y="80.302">&#x420;&#x42d;&#x423; &#x438;&#x43c;. &#x413;.&#x412;. &#x41f;&#x43b;&#x435;&#x445;&#x430;&#x43d;&#x43e;&#x432;&#x430;</tspan></text>
<path d="M303.201 128.228L290.424 133.907V143.922C290.424 146.208 287.153 147.036 283.954 147.545C280.789 148.048 276.544 148.324 272.001 148.324C263.597 148.324 253.578 147.561 253.578 143.923V133.908L249.602 132.141V133.42C250.548 134.006 251.196 135.185 251.223 136.6L251.913 142.222C251.96 142.606 251.841 142.991 251.586 143.281C251.333 143.571 250.967 143.736 250.582 143.736H245.94C245.555 143.736 245.189 143.57 244.936 143.281C244.681 142.99 244.562 142.606 244.608 142.222L245.299 136.6C245.326 135.185 245.973 134.005 246.919 133.42V130.949L240.799 128.23C240.314 128.014 240 127.529 240 126.995C240 126.461 240.312 125.979 240.798 125.763L271.458 112.116C271.804 111.961 272.198 111.961 272.544 112.116L303.202 125.762C303.688 125.977 304 126.462 304 126.994C304 127.529 303.686 128.013 303.201 128.228L303.201 128.228ZM249.065 141.038L248.552 136.853C248.545 136.798 248.542 136.743 248.542 136.687C248.542 136.21 248.376 135.882 248.262 135.755C248.149 135.884 247.982 136.211 247.982 136.687C247.982 136.743 247.98 136.798 247.973 136.853L247.459 141.038H249.065ZM287.635 143.762C286.803 142.801 281.735 141.2 272 141.2C262.22 141.2 257.153 142.816 256.36 143.76C257.565 144.563 262.966 145.625 272 145.625C281.021 145.625 286.419 144.567 287.635 143.762ZM246.921 127.999V125.986L244.657 126.993L246.921 127.999ZM272 114.823L249.601 124.791V129.189L253.577 130.955V129.415C253.577 124.301 267.679 123.904 272 123.904C276.322 123.904 290.424 124.301 290.424 129.415V130.955L299.344 126.99L272 114.823Z" fill="#01348D"/>
<text fill="white" xml:space="preserve" style="white-space: pre" font-family="Montserrat" font-size="12" font-weight="bold" letter-spacing="-0.04em"><tspan x="262.519" y="138.302">11%</tspan></text>
<text fill="#555555" xml:space="preserve" style="white-space: pre" font-family="Montserrat" font-size="12" letter-spacing="-0.04em"><tspan x="312" y="128.302">&#x414;&#x440;&#x443;&#x433;&#x438;&#x435; &#x443;&#x447;&#x435;&#x431;&#x43d;&#x44b;&#x435; </tspan><tspan x="312" y="144.302">&#x437;&#x430;&#x432;&#x435;&#x434;&#x435;&#x43d;&#x438;&#x44f;</tspan></text>
<path d="M303.201 184.228L290.424 189.907V199.922C290.424 202.208 287.153 203.036 283.954 203.545C280.789 204.048 276.544 204.324 272.001 204.324C263.597 204.324 253.578 203.561 253.578 199.923V189.908L249.602 188.141V189.42C250.548 190.006 251.196 191.185 251.223 192.6L251.913 198.222C251.96 198.606 251.841 198.991 251.586 199.281C251.333 199.571 250.967 199.736 250.582 199.736H245.94C245.555 199.736 245.189 199.57 244.936 199.281C244.681 198.99 244.562 198.606 244.608 198.222L245.299 192.6C245.326 191.185 245.973 190.005 246.919 189.42V186.949L240.799 184.23C240.314 184.014 240 183.529 240 182.995C240 182.461 240.312 181.979 240.798 181.763L271.458 168.116C271.804 167.961 272.198 167.961 272.544 168.116L303.202 181.762C303.688 181.977 304 182.462 304 182.994C304 183.529 303.686 184.013 303.201 184.228L303.201 184.228ZM249.065 197.038L248.552 192.853C248.545 192.798 248.542 192.743 248.542 192.687C248.542 192.21 248.376 191.882 248.262 191.755C248.149 191.884 247.982 192.211 247.982 192.687C247.982 192.743 247.98 192.798 247.973 192.853L247.459 197.038H249.065ZM287.635 199.762C286.803 198.801 281.735 197.2 272 197.2C262.22 197.2 257.153 198.816 256.36 199.76C257.565 200.563 262.966 201.625 272 201.625C281.021 201.625 286.419 200.567 287.635 199.762ZM246.921 183.999V181.986L244.657 182.993L246.921 183.999ZM272 170.823L249.601 180.791V185.189L253.577 186.955V185.415C253.577 180.301 267.679 179.904 272 179.904C276.322 179.904 290.424 180.301 290.424 185.415V186.955L299.344 182.99L272 170.823Z" fill="#F2A428"/>
<text fill="white" xml:space="preserve" style="white-space: pre" font-family="Montserrat" font-size="12" font-weight="bold" letter-spacing="-0.04em"><tspan x="260.914" y="194.302">14%</tspan></text>
<text fill="#555555" xml:space="preserve" style="white-space: pre" font-family="Montserrat" font-size="12" letter-spacing="-0.04em"><tspan x="312" y="192.302">&#x41e;&#x431;&#x443;&#x447;&#x435;&#x43d;&#x438;&#x435; &#x437;&#x430; &#x433;&#x440;&#x430;&#x43d;&#x438;&#x446;&#x435;&#x439;</tspan></text>
</svg>
